G04 #@! TF.GenerationSoftware,KiCad,Pcbnew,10.0.3*
G04 #@! TF.CreationDate,2026-07-30T13:23:47+05:45*
G04 #@! TF.ProjectId,L298 Module,4c323938-204d-46f6-9475-6c652e6b6963,V1.0*
G04 #@! TF.SameCoordinates,Original*
G04 #@! TF.FileFunction,Legend,Top*
G04 #@! TF.FilePolarity,Positive*
%FSLAX46Y46*%
G04 Gerber Fmt 4.6, Leading zero omitted, Abs format (unit mm)*
G04 Created by KiCad (PCBNEW 10.0.3) date 2026-07-30 13:23:47*
%MOMM*%
%LPD*%
G01*
G04 APERTURE LIST*
%ADD10C,0.300000*%
%ADD11C,0.150000*%
%ADD12C,0.120000*%
G04 APERTURE END LIST*
D10*
X121392385Y-93274000D02*
X121392385Y-93774000D01*
X120606671Y-93988286D02*
X120606671Y-93274000D01*
X120606671Y-93274000D02*
X122106671Y-93274000D01*
X122106671Y-93274000D02*
X122106671Y-93988286D01*
X121035242Y-94559715D02*
X121035242Y-95274001D01*
X120606671Y-94416858D02*
X122106671Y-94916858D01*
X122106671Y-94916858D02*
X120606671Y-95416858D01*
X121035242Y-96988286D02*
X121035242Y-97702572D01*
X120606671Y-96845429D02*
X122106671Y-97345429D01*
X122106671Y-97345429D02*
X120606671Y-97845429D01*
X121392385Y-99988285D02*
X121320957Y-100202571D01*
X121320957Y-100202571D02*
X121249528Y-100274000D01*
X121249528Y-100274000D02*
X121106671Y-100345428D01*
X121106671Y-100345428D02*
X120892385Y-100345428D01*
X120892385Y-100345428D02*
X120749528Y-100274000D01*
X120749528Y-100274000D02*
X120678100Y-100202571D01*
X120678100Y-100202571D02*
X120606671Y-100059714D01*
X120606671Y-100059714D02*
X120606671Y-99488285D01*
X120606671Y-99488285D02*
X122106671Y-99488285D01*
X122106671Y-99488285D02*
X122106671Y-99988285D01*
X122106671Y-99988285D02*
X122035242Y-100131143D01*
X122035242Y-100131143D02*
X121963814Y-100202571D01*
X121963814Y-100202571D02*
X121820957Y-100274000D01*
X121820957Y-100274000D02*
X121678100Y-100274000D01*
X121678100Y-100274000D02*
X121535242Y-100202571D01*
X121535242Y-100202571D02*
X121463814Y-100131143D01*
X121463814Y-100131143D02*
X121392385Y-99988285D01*
X121392385Y-99988285D02*
X121392385Y-99488285D01*
X170922385Y-93274000D02*
X170922385Y-93774000D01*
X170136671Y-93988286D02*
X170136671Y-93274000D01*
X170136671Y-93274000D02*
X171636671Y-93274000D01*
X171636671Y-93274000D02*
X171636671Y-93988286D01*
X170565242Y-94559715D02*
X170565242Y-95274001D01*
X170136671Y-94416858D02*
X171636671Y-94916858D01*
X171636671Y-94916858D02*
X170136671Y-95416858D01*
X170565242Y-96988286D02*
X170565242Y-97702572D01*
X170136671Y-96845429D02*
X171636671Y-97345429D01*
X171636671Y-97345429D02*
X170136671Y-97845429D01*
X170922385Y-99988285D02*
X170850957Y-100202571D01*
X170850957Y-100202571D02*
X170779528Y-100274000D01*
X170779528Y-100274000D02*
X170636671Y-100345428D01*
X170636671Y-100345428D02*
X170422385Y-100345428D01*
X170422385Y-100345428D02*
X170279528Y-100274000D01*
X170279528Y-100274000D02*
X170208100Y-100202571D01*
X170208100Y-100202571D02*
X170136671Y-100059714D01*
X170136671Y-100059714D02*
X170136671Y-99488285D01*
X170136671Y-99488285D02*
X171636671Y-99488285D01*
X171636671Y-99488285D02*
X171636671Y-99988285D01*
X171636671Y-99988285D02*
X171565242Y-100131143D01*
X171565242Y-100131143D02*
X171493814Y-100202571D01*
X171493814Y-100202571D02*
X171350957Y-100274000D01*
X171350957Y-100274000D02*
X171208100Y-100274000D01*
X171208100Y-100274000D02*
X171065242Y-100202571D01*
X171065242Y-100202571D02*
X170993814Y-100131143D01*
X170993814Y-100131143D02*
X170922385Y-99988285D01*
X170922385Y-99988285D02*
X170922385Y-99488285D01*
D11*
X146010333Y-83798580D02*
X145962714Y-83846200D01*
X145962714Y-83846200D02*
X145819857Y-83893819D01*
X145819857Y-83893819D02*
X145724619Y-83893819D01*
X145724619Y-83893819D02*
X145581762Y-83846200D01*
X145581762Y-83846200D02*
X145486524Y-83750961D01*
X145486524Y-83750961D02*
X145438905Y-83655723D01*
X145438905Y-83655723D02*
X145391286Y-83465247D01*
X145391286Y-83465247D02*
X145391286Y-83322390D01*
X145391286Y-83322390D02*
X145438905Y-83131914D01*
X145438905Y-83131914D02*
X145486524Y-83036676D01*
X145486524Y-83036676D02*
X145581762Y-82941438D01*
X145581762Y-82941438D02*
X145724619Y-82893819D01*
X145724619Y-82893819D02*
X145819857Y-82893819D01*
X145819857Y-82893819D02*
X145962714Y-82941438D01*
X145962714Y-82941438D02*
X146010333Y-82989057D01*
X146962714Y-83893819D02*
X146391286Y-83893819D01*
X146677000Y-83893819D02*
X146677000Y-82893819D01*
X146677000Y-82893819D02*
X146581762Y-83036676D01*
X146581762Y-83036676D02*
X146486524Y-83131914D01*
X146486524Y-83131914D02*
X146391286Y-83179533D01*
X146010333Y-77575580D02*
X145962714Y-77623200D01*
X145962714Y-77623200D02*
X145819857Y-77670819D01*
X145819857Y-77670819D02*
X145724619Y-77670819D01*
X145724619Y-77670819D02*
X145581762Y-77623200D01*
X145581762Y-77623200D02*
X145486524Y-77527961D01*
X145486524Y-77527961D02*
X145438905Y-77432723D01*
X145438905Y-77432723D02*
X145391286Y-77242247D01*
X145391286Y-77242247D02*
X145391286Y-77099390D01*
X145391286Y-77099390D02*
X145438905Y-76908914D01*
X145438905Y-76908914D02*
X145486524Y-76813676D01*
X145486524Y-76813676D02*
X145581762Y-76718438D01*
X145581762Y-76718438D02*
X145724619Y-76670819D01*
X145724619Y-76670819D02*
X145819857Y-76670819D01*
X145819857Y-76670819D02*
X145962714Y-76718438D01*
X145962714Y-76718438D02*
X146010333Y-76766057D01*
X146391286Y-76766057D02*
X146438905Y-76718438D01*
X146438905Y-76718438D02*
X146534143Y-76670819D01*
X146534143Y-76670819D02*
X146772238Y-76670819D01*
X146772238Y-76670819D02*
X146867476Y-76718438D01*
X146867476Y-76718438D02*
X146915095Y-76766057D01*
X146915095Y-76766057D02*
X146962714Y-76861295D01*
X146962714Y-76861295D02*
X146962714Y-76956533D01*
X146962714Y-76956533D02*
X146915095Y-77099390D01*
X146915095Y-77099390D02*
X146343667Y-77670819D01*
X146343667Y-77670819D02*
X146962714Y-77670819D01*
X129607333Y-98693580D02*
X129559714Y-98741200D01*
X129559714Y-98741200D02*
X129416857Y-98788819D01*
X129416857Y-98788819D02*
X129321619Y-98788819D01*
X129321619Y-98788819D02*
X129178762Y-98741200D01*
X129178762Y-98741200D02*
X129083524Y-98645961D01*
X129083524Y-98645961D02*
X129035905Y-98550723D01*
X129035905Y-98550723D02*
X128988286Y-98360247D01*
X128988286Y-98360247D02*
X128988286Y-98217390D01*
X128988286Y-98217390D02*
X129035905Y-98026914D01*
X129035905Y-98026914D02*
X129083524Y-97931676D01*
X129083524Y-97931676D02*
X129178762Y-97836438D01*
X129178762Y-97836438D02*
X129321619Y-97788819D01*
X129321619Y-97788819D02*
X129416857Y-97788819D01*
X129416857Y-97788819D02*
X129559714Y-97836438D01*
X129559714Y-97836438D02*
X129607333Y-97884057D01*
X129940667Y-97788819D02*
X130559714Y-97788819D01*
X130559714Y-97788819D02*
X130226381Y-98169771D01*
X130226381Y-98169771D02*
X130369238Y-98169771D01*
X130369238Y-98169771D02*
X130464476Y-98217390D01*
X130464476Y-98217390D02*
X130512095Y-98265009D01*
X130512095Y-98265009D02*
X130559714Y-98360247D01*
X130559714Y-98360247D02*
X130559714Y-98598342D01*
X130559714Y-98598342D02*
X130512095Y-98693580D01*
X130512095Y-98693580D02*
X130464476Y-98741200D01*
X130464476Y-98741200D02*
X130369238Y-98788819D01*
X130369238Y-98788819D02*
X130083524Y-98788819D01*
X130083524Y-98788819D02*
X129988286Y-98741200D01*
X129988286Y-98741200D02*
X129940667Y-98693580D01*
X129607333Y-91073580D02*
X129559714Y-91121200D01*
X129559714Y-91121200D02*
X129416857Y-91168819D01*
X129416857Y-91168819D02*
X129321619Y-91168819D01*
X129321619Y-91168819D02*
X129178762Y-91121200D01*
X129178762Y-91121200D02*
X129083524Y-91025961D01*
X129083524Y-91025961D02*
X129035905Y-90930723D01*
X129035905Y-90930723D02*
X128988286Y-90740247D01*
X128988286Y-90740247D02*
X128988286Y-90597390D01*
X128988286Y-90597390D02*
X129035905Y-90406914D01*
X129035905Y-90406914D02*
X129083524Y-90311676D01*
X129083524Y-90311676D02*
X129178762Y-90216438D01*
X129178762Y-90216438D02*
X129321619Y-90168819D01*
X129321619Y-90168819D02*
X129416857Y-90168819D01*
X129416857Y-90168819D02*
X129559714Y-90216438D01*
X129559714Y-90216438D02*
X129607333Y-90264057D01*
X130464476Y-90502152D02*
X130464476Y-91168819D01*
X130226381Y-90121200D02*
X129988286Y-90835485D01*
X129988286Y-90835485D02*
X130607333Y-90835485D01*
X161567905Y-94268819D02*
X161567905Y-93268819D01*
X161567905Y-93268819D02*
X161806000Y-93268819D01*
X161806000Y-93268819D02*
X161948857Y-93316438D01*
X161948857Y-93316438D02*
X162044095Y-93411676D01*
X162044095Y-93411676D02*
X162091714Y-93506914D01*
X162091714Y-93506914D02*
X162139333Y-93697390D01*
X162139333Y-93697390D02*
X162139333Y-93840247D01*
X162139333Y-93840247D02*
X162091714Y-94030723D01*
X162091714Y-94030723D02*
X162044095Y-94125961D01*
X162044095Y-94125961D02*
X161948857Y-94221200D01*
X161948857Y-94221200D02*
X161806000Y-94268819D01*
X161806000Y-94268819D02*
X161567905Y-94268819D01*
X163091714Y-94268819D02*
X162520286Y-94268819D01*
X162806000Y-94268819D02*
X162806000Y-93268819D01*
X162806000Y-93268819D02*
X162710762Y-93411676D01*
X162710762Y-93411676D02*
X162615524Y-93506914D01*
X162615524Y-93506914D02*
X162520286Y-93554533D01*
X135779819Y-97512094D02*
X134779819Y-97512094D01*
X134779819Y-97512094D02*
X134779819Y-97273999D01*
X134779819Y-97273999D02*
X134827438Y-97131142D01*
X134827438Y-97131142D02*
X134922676Y-97035904D01*
X134922676Y-97035904D02*
X135017914Y-96988285D01*
X135017914Y-96988285D02*
X135208390Y-96940666D01*
X135208390Y-96940666D02*
X135351247Y-96940666D01*
X135351247Y-96940666D02*
X135541723Y-96988285D01*
X135541723Y-96988285D02*
X135636961Y-97035904D01*
X135636961Y-97035904D02*
X135732200Y-97131142D01*
X135732200Y-97131142D02*
X135779819Y-97273999D01*
X135779819Y-97273999D02*
X135779819Y-97512094D01*
X134875057Y-96559713D02*
X134827438Y-96512094D01*
X134827438Y-96512094D02*
X134779819Y-96416856D01*
X134779819Y-96416856D02*
X134779819Y-96178761D01*
X134779819Y-96178761D02*
X134827438Y-96083523D01*
X134827438Y-96083523D02*
X134875057Y-96035904D01*
X134875057Y-96035904D02*
X134970295Y-95988285D01*
X134970295Y-95988285D02*
X135065533Y-95988285D01*
X135065533Y-95988285D02*
X135208390Y-96035904D01*
X135208390Y-96035904D02*
X135779819Y-96607332D01*
X135779819Y-96607332D02*
X135779819Y-95988285D01*
X136349819Y-100845904D02*
X135349819Y-100845904D01*
X136349819Y-100274476D02*
X135778390Y-100703047D01*
X135349819Y-100274476D02*
X135921247Y-100845904D01*
X139081819Y-97512094D02*
X138081819Y-97512094D01*
X138081819Y-97512094D02*
X138081819Y-97273999D01*
X138081819Y-97273999D02*
X138129438Y-97131142D01*
X138129438Y-97131142D02*
X138224676Y-97035904D01*
X138224676Y-97035904D02*
X138319914Y-96988285D01*
X138319914Y-96988285D02*
X138510390Y-96940666D01*
X138510390Y-96940666D02*
X138653247Y-96940666D01*
X138653247Y-96940666D02*
X138843723Y-96988285D01*
X138843723Y-96988285D02*
X138938961Y-97035904D01*
X138938961Y-97035904D02*
X139034200Y-97131142D01*
X139034200Y-97131142D02*
X139081819Y-97273999D01*
X139081819Y-97273999D02*
X139081819Y-97512094D01*
X138081819Y-96607332D02*
X138081819Y-95988285D01*
X138081819Y-95988285D02*
X138462771Y-96321618D01*
X138462771Y-96321618D02*
X138462771Y-96178761D01*
X138462771Y-96178761D02*
X138510390Y-96083523D01*
X138510390Y-96083523D02*
X138558009Y-96035904D01*
X138558009Y-96035904D02*
X138653247Y-95988285D01*
X138653247Y-95988285D02*
X138891342Y-95988285D01*
X138891342Y-95988285D02*
X138986580Y-96035904D01*
X138986580Y-96035904D02*
X139034200Y-96083523D01*
X139034200Y-96083523D02*
X139081819Y-96178761D01*
X139081819Y-96178761D02*
X139081819Y-96464475D01*
X139081819Y-96464475D02*
X139034200Y-96559713D01*
X139034200Y-96559713D02*
X138986580Y-96607332D01*
X139651819Y-100845904D02*
X138651819Y-100845904D01*
X139651819Y-100274476D02*
X139080390Y-100703047D01*
X138651819Y-100274476D02*
X139223247Y-100845904D01*
X155591819Y-97512094D02*
X154591819Y-97512094D01*
X154591819Y-97512094D02*
X154591819Y-97273999D01*
X154591819Y-97273999D02*
X154639438Y-97131142D01*
X154639438Y-97131142D02*
X154734676Y-97035904D01*
X154734676Y-97035904D02*
X154829914Y-96988285D01*
X154829914Y-96988285D02*
X155020390Y-96940666D01*
X155020390Y-96940666D02*
X155163247Y-96940666D01*
X155163247Y-96940666D02*
X155353723Y-96988285D01*
X155353723Y-96988285D02*
X155448961Y-97035904D01*
X155448961Y-97035904D02*
X155544200Y-97131142D01*
X155544200Y-97131142D02*
X155591819Y-97273999D01*
X155591819Y-97273999D02*
X155591819Y-97512094D01*
X154925152Y-96083523D02*
X155591819Y-96083523D01*
X154544200Y-96321618D02*
X155258485Y-96559713D01*
X155258485Y-96559713D02*
X155258485Y-95940666D01*
X156161819Y-100845904D02*
X155161819Y-100845904D01*
X156161819Y-100274476D02*
X155590390Y-100703047D01*
X155161819Y-100274476D02*
X155733247Y-100845904D01*
X142383819Y-97512094D02*
X141383819Y-97512094D01*
X141383819Y-97512094D02*
X141383819Y-97273999D01*
X141383819Y-97273999D02*
X141431438Y-97131142D01*
X141431438Y-97131142D02*
X141526676Y-97035904D01*
X141526676Y-97035904D02*
X141621914Y-96988285D01*
X141621914Y-96988285D02*
X141812390Y-96940666D01*
X141812390Y-96940666D02*
X141955247Y-96940666D01*
X141955247Y-96940666D02*
X142145723Y-96988285D01*
X142145723Y-96988285D02*
X142240961Y-97035904D01*
X142240961Y-97035904D02*
X142336200Y-97131142D01*
X142336200Y-97131142D02*
X142383819Y-97273999D01*
X142383819Y-97273999D02*
X142383819Y-97512094D01*
X141383819Y-96035904D02*
X141383819Y-96512094D01*
X141383819Y-96512094D02*
X141860009Y-96559713D01*
X141860009Y-96559713D02*
X141812390Y-96512094D01*
X141812390Y-96512094D02*
X141764771Y-96416856D01*
X141764771Y-96416856D02*
X141764771Y-96178761D01*
X141764771Y-96178761D02*
X141812390Y-96083523D01*
X141812390Y-96083523D02*
X141860009Y-96035904D01*
X141860009Y-96035904D02*
X141955247Y-95988285D01*
X141955247Y-95988285D02*
X142193342Y-95988285D01*
X142193342Y-95988285D02*
X142288580Y-96035904D01*
X142288580Y-96035904D02*
X142336200Y-96083523D01*
X142336200Y-96083523D02*
X142383819Y-96178761D01*
X142383819Y-96178761D02*
X142383819Y-96416856D01*
X142383819Y-96416856D02*
X142336200Y-96512094D01*
X142336200Y-96512094D02*
X142288580Y-96559713D01*
X142953819Y-100845904D02*
X141953819Y-100845904D01*
X142953819Y-100274476D02*
X142382390Y-100703047D01*
X141953819Y-100274476D02*
X142525247Y-100845904D01*
X152289819Y-97512094D02*
X151289819Y-97512094D01*
X151289819Y-97512094D02*
X151289819Y-97273999D01*
X151289819Y-97273999D02*
X151337438Y-97131142D01*
X151337438Y-97131142D02*
X151432676Y-97035904D01*
X151432676Y-97035904D02*
X151527914Y-96988285D01*
X151527914Y-96988285D02*
X151718390Y-96940666D01*
X151718390Y-96940666D02*
X151861247Y-96940666D01*
X151861247Y-96940666D02*
X152051723Y-96988285D01*
X152051723Y-96988285D02*
X152146961Y-97035904D01*
X152146961Y-97035904D02*
X152242200Y-97131142D01*
X152242200Y-97131142D02*
X152289819Y-97273999D01*
X152289819Y-97273999D02*
X152289819Y-97512094D01*
X151289819Y-96083523D02*
X151289819Y-96273999D01*
X151289819Y-96273999D02*
X151337438Y-96369237D01*
X151337438Y-96369237D02*
X151385057Y-96416856D01*
X151385057Y-96416856D02*
X151527914Y-96512094D01*
X151527914Y-96512094D02*
X151718390Y-96559713D01*
X151718390Y-96559713D02*
X152099342Y-96559713D01*
X152099342Y-96559713D02*
X152194580Y-96512094D01*
X152194580Y-96512094D02*
X152242200Y-96464475D01*
X152242200Y-96464475D02*
X152289819Y-96369237D01*
X152289819Y-96369237D02*
X152289819Y-96178761D01*
X152289819Y-96178761D02*
X152242200Y-96083523D01*
X152242200Y-96083523D02*
X152194580Y-96035904D01*
X152194580Y-96035904D02*
X152099342Y-95988285D01*
X152099342Y-95988285D02*
X151861247Y-95988285D01*
X151861247Y-95988285D02*
X151766009Y-96035904D01*
X151766009Y-96035904D02*
X151718390Y-96083523D01*
X151718390Y-96083523D02*
X151670771Y-96178761D01*
X151670771Y-96178761D02*
X151670771Y-96369237D01*
X151670771Y-96369237D02*
X151718390Y-96464475D01*
X151718390Y-96464475D02*
X151766009Y-96512094D01*
X151766009Y-96512094D02*
X151861247Y-96559713D01*
X152859819Y-100845904D02*
X151859819Y-100845904D01*
X152859819Y-100274476D02*
X152288390Y-100703047D01*
X151859819Y-100274476D02*
X152431247Y-100845904D01*
X145685819Y-97512094D02*
X144685819Y-97512094D01*
X144685819Y-97512094D02*
X144685819Y-97273999D01*
X144685819Y-97273999D02*
X144733438Y-97131142D01*
X144733438Y-97131142D02*
X144828676Y-97035904D01*
X144828676Y-97035904D02*
X144923914Y-96988285D01*
X144923914Y-96988285D02*
X145114390Y-96940666D01*
X145114390Y-96940666D02*
X145257247Y-96940666D01*
X145257247Y-96940666D02*
X145447723Y-96988285D01*
X145447723Y-96988285D02*
X145542961Y-97035904D01*
X145542961Y-97035904D02*
X145638200Y-97131142D01*
X145638200Y-97131142D02*
X145685819Y-97273999D01*
X145685819Y-97273999D02*
X145685819Y-97512094D01*
X144685819Y-96607332D02*
X144685819Y-95940666D01*
X144685819Y-95940666D02*
X145685819Y-96369237D01*
X146255819Y-100845904D02*
X145255819Y-100845904D01*
X146255819Y-100274476D02*
X145684390Y-100703047D01*
X145255819Y-100274476D02*
X145827247Y-100845904D01*
X132477819Y-97512094D02*
X131477819Y-97512094D01*
X131477819Y-97512094D02*
X131477819Y-97273999D01*
X131477819Y-97273999D02*
X131525438Y-97131142D01*
X131525438Y-97131142D02*
X131620676Y-97035904D01*
X131620676Y-97035904D02*
X131715914Y-96988285D01*
X131715914Y-96988285D02*
X131906390Y-96940666D01*
X131906390Y-96940666D02*
X132049247Y-96940666D01*
X132049247Y-96940666D02*
X132239723Y-96988285D01*
X132239723Y-96988285D02*
X132334961Y-97035904D01*
X132334961Y-97035904D02*
X132430200Y-97131142D01*
X132430200Y-97131142D02*
X132477819Y-97273999D01*
X132477819Y-97273999D02*
X132477819Y-97512094D01*
X131906390Y-96369237D02*
X131858771Y-96464475D01*
X131858771Y-96464475D02*
X131811152Y-96512094D01*
X131811152Y-96512094D02*
X131715914Y-96559713D01*
X131715914Y-96559713D02*
X131668295Y-96559713D01*
X131668295Y-96559713D02*
X131573057Y-96512094D01*
X131573057Y-96512094D02*
X131525438Y-96464475D01*
X131525438Y-96464475D02*
X131477819Y-96369237D01*
X131477819Y-96369237D02*
X131477819Y-96178761D01*
X131477819Y-96178761D02*
X131525438Y-96083523D01*
X131525438Y-96083523D02*
X131573057Y-96035904D01*
X131573057Y-96035904D02*
X131668295Y-95988285D01*
X131668295Y-95988285D02*
X131715914Y-95988285D01*
X131715914Y-95988285D02*
X131811152Y-96035904D01*
X131811152Y-96035904D02*
X131858771Y-96083523D01*
X131858771Y-96083523D02*
X131906390Y-96178761D01*
X131906390Y-96178761D02*
X131906390Y-96369237D01*
X131906390Y-96369237D02*
X131954009Y-96464475D01*
X131954009Y-96464475D02*
X132001628Y-96512094D01*
X132001628Y-96512094D02*
X132096866Y-96559713D01*
X132096866Y-96559713D02*
X132287342Y-96559713D01*
X132287342Y-96559713D02*
X132382580Y-96512094D01*
X132382580Y-96512094D02*
X132430200Y-96464475D01*
X132430200Y-96464475D02*
X132477819Y-96369237D01*
X132477819Y-96369237D02*
X132477819Y-96178761D01*
X132477819Y-96178761D02*
X132430200Y-96083523D01*
X132430200Y-96083523D02*
X132382580Y-96035904D01*
X132382580Y-96035904D02*
X132287342Y-95988285D01*
X132287342Y-95988285D02*
X132096866Y-95988285D01*
X132096866Y-95988285D02*
X132001628Y-96035904D01*
X132001628Y-96035904D02*
X131954009Y-96083523D01*
X131954009Y-96083523D02*
X131906390Y-96178761D01*
X133047819Y-100845904D02*
X132047819Y-100845904D01*
X133047819Y-100274476D02*
X132476390Y-100703047D01*
X132047819Y-100274476D02*
X132619247Y-100845904D01*
X148917819Y-97512094D02*
X147917819Y-97512094D01*
X147917819Y-97512094D02*
X147917819Y-97273999D01*
X147917819Y-97273999D02*
X147965438Y-97131142D01*
X147965438Y-97131142D02*
X148060676Y-97035904D01*
X148060676Y-97035904D02*
X148155914Y-96988285D01*
X148155914Y-96988285D02*
X148346390Y-96940666D01*
X148346390Y-96940666D02*
X148489247Y-96940666D01*
X148489247Y-96940666D02*
X148679723Y-96988285D01*
X148679723Y-96988285D02*
X148774961Y-97035904D01*
X148774961Y-97035904D02*
X148870200Y-97131142D01*
X148870200Y-97131142D02*
X148917819Y-97273999D01*
X148917819Y-97273999D02*
X148917819Y-97512094D01*
X148917819Y-96464475D02*
X148917819Y-96273999D01*
X148917819Y-96273999D02*
X148870200Y-96178761D01*
X148870200Y-96178761D02*
X148822580Y-96131142D01*
X148822580Y-96131142D02*
X148679723Y-96035904D01*
X148679723Y-96035904D02*
X148489247Y-95988285D01*
X148489247Y-95988285D02*
X148108295Y-95988285D01*
X148108295Y-95988285D02*
X148013057Y-96035904D01*
X148013057Y-96035904D02*
X147965438Y-96083523D01*
X147965438Y-96083523D02*
X147917819Y-96178761D01*
X147917819Y-96178761D02*
X147917819Y-96369237D01*
X147917819Y-96369237D02*
X147965438Y-96464475D01*
X147965438Y-96464475D02*
X148013057Y-96512094D01*
X148013057Y-96512094D02*
X148108295Y-96559713D01*
X148108295Y-96559713D02*
X148346390Y-96559713D01*
X148346390Y-96559713D02*
X148441628Y-96512094D01*
X148441628Y-96512094D02*
X148489247Y-96464475D01*
X148489247Y-96464475D02*
X148536866Y-96369237D01*
X148536866Y-96369237D02*
X148536866Y-96178761D01*
X148536866Y-96178761D02*
X148489247Y-96083523D01*
X148489247Y-96083523D02*
X148441628Y-96035904D01*
X148441628Y-96035904D02*
X148346390Y-95988285D01*
X149557819Y-100845904D02*
X148557819Y-100845904D01*
X149557819Y-100274476D02*
X148986390Y-100703047D01*
X148557819Y-100274476D02*
X149129247Y-100845904D01*
X160885476Y-90370819D02*
X160885476Y-89370819D01*
X160885476Y-89370819D02*
X161266428Y-89370819D01*
X161266428Y-89370819D02*
X161361666Y-89418438D01*
X161361666Y-89418438D02*
X161409285Y-89466057D01*
X161409285Y-89466057D02*
X161456904Y-89561295D01*
X161456904Y-89561295D02*
X161456904Y-89704152D01*
X161456904Y-89704152D02*
X161409285Y-89799390D01*
X161409285Y-89799390D02*
X161361666Y-89847009D01*
X161361666Y-89847009D02*
X161266428Y-89894628D01*
X161266428Y-89894628D02*
X160885476Y-89894628D01*
X162075952Y-89370819D02*
X162266428Y-89370819D01*
X162266428Y-89370819D02*
X162361666Y-89418438D01*
X162361666Y-89418438D02*
X162456904Y-89513676D01*
X162456904Y-89513676D02*
X162504523Y-89704152D01*
X162504523Y-89704152D02*
X162504523Y-90037485D01*
X162504523Y-90037485D02*
X162456904Y-90227961D01*
X162456904Y-90227961D02*
X162361666Y-90323200D01*
X162361666Y-90323200D02*
X162266428Y-90370819D01*
X162266428Y-90370819D02*
X162075952Y-90370819D01*
X162075952Y-90370819D02*
X161980714Y-90323200D01*
X161980714Y-90323200D02*
X161885476Y-90227961D01*
X161885476Y-90227961D02*
X161837857Y-90037485D01*
X161837857Y-90037485D02*
X161837857Y-89704152D01*
X161837857Y-89704152D02*
X161885476Y-89513676D01*
X161885476Y-89513676D02*
X161980714Y-89418438D01*
X161980714Y-89418438D02*
X162075952Y-89370819D01*
X162837857Y-89370819D02*
X163075952Y-90370819D01*
X163075952Y-90370819D02*
X163266428Y-89656533D01*
X163266428Y-89656533D02*
X163456904Y-90370819D01*
X163456904Y-90370819D02*
X163695000Y-89370819D01*
X164075952Y-89847009D02*
X164409285Y-89847009D01*
X164552142Y-90370819D02*
X164075952Y-90370819D01*
X164075952Y-90370819D02*
X164075952Y-89370819D01*
X164075952Y-89370819D02*
X164552142Y-89370819D01*
X165552142Y-90370819D02*
X165218809Y-89894628D01*
X164980714Y-90370819D02*
X164980714Y-89370819D01*
X164980714Y-89370819D02*
X165361666Y-89370819D01*
X165361666Y-89370819D02*
X165456904Y-89418438D01*
X165456904Y-89418438D02*
X165504523Y-89466057D01*
X165504523Y-89466057D02*
X165552142Y-89561295D01*
X165552142Y-89561295D02*
X165552142Y-89704152D01*
X165552142Y-89704152D02*
X165504523Y-89799390D01*
X165504523Y-89799390D02*
X165456904Y-89847009D01*
X165456904Y-89847009D02*
X165361666Y-89894628D01*
X165361666Y-89894628D02*
X164980714Y-89894628D01*
X166576476Y-92021819D02*
X166576476Y-91021819D01*
X166576476Y-91021819D02*
X166909809Y-91736104D01*
X166909809Y-91736104D02*
X167243142Y-91021819D01*
X167243142Y-91021819D02*
X167243142Y-92021819D01*
X168243142Y-92021819D02*
X167671714Y-92021819D01*
X167957428Y-92021819D02*
X167957428Y-91021819D01*
X167957428Y-91021819D02*
X167862190Y-91164676D01*
X167862190Y-91164676D02*
X167766952Y-91259914D01*
X167766952Y-91259914D02*
X167671714Y-91307533D01*
X124158476Y-91894819D02*
X124158476Y-90894819D01*
X124158476Y-90894819D02*
X124491809Y-91609104D01*
X124491809Y-91609104D02*
X124825142Y-90894819D01*
X124825142Y-90894819D02*
X124825142Y-91894819D01*
X125253714Y-90990057D02*
X125301333Y-90942438D01*
X125301333Y-90942438D02*
X125396571Y-90894819D01*
X125396571Y-90894819D02*
X125634666Y-90894819D01*
X125634666Y-90894819D02*
X125729904Y-90942438D01*
X125729904Y-90942438D02*
X125777523Y-90990057D01*
X125777523Y-90990057D02*
X125825142Y-91085295D01*
X125825142Y-91085295D02*
X125825142Y-91180533D01*
X125825142Y-91180533D02*
X125777523Y-91323390D01*
X125777523Y-91323390D02*
X125206095Y-91894819D01*
X125206095Y-91894819D02*
X125825142Y-91894819D01*
X163020476Y-116405819D02*
X163020476Y-115405819D01*
X163020476Y-115405819D02*
X163353809Y-116120104D01*
X163353809Y-116120104D02*
X163687142Y-115405819D01*
X163687142Y-115405819D02*
X163687142Y-116405819D01*
X164687142Y-116405819D02*
X164115714Y-116405819D01*
X164401428Y-116405819D02*
X164401428Y-115405819D01*
X164401428Y-115405819D02*
X164306190Y-115548676D01*
X164306190Y-115548676D02*
X164210952Y-115643914D01*
X164210952Y-115643914D02*
X164115714Y-115691533D01*
X127460476Y-116405819D02*
X127460476Y-115405819D01*
X127460476Y-115405819D02*
X127793809Y-116120104D01*
X127793809Y-116120104D02*
X128127142Y-115405819D01*
X128127142Y-115405819D02*
X128127142Y-116405819D01*
X128555714Y-115501057D02*
X128603333Y-115453438D01*
X128603333Y-115453438D02*
X128698571Y-115405819D01*
X128698571Y-115405819D02*
X128936666Y-115405819D01*
X128936666Y-115405819D02*
X129031904Y-115453438D01*
X129031904Y-115453438D02*
X129079523Y-115501057D01*
X129079523Y-115501057D02*
X129127142Y-115596295D01*
X129127142Y-115596295D02*
X129127142Y-115691533D01*
X129127142Y-115691533D02*
X129079523Y-115834390D01*
X129079523Y-115834390D02*
X128508095Y-116405819D01*
X128508095Y-116405819D02*
X129127142Y-116405819D01*
X152135819Y-83810666D02*
X151659628Y-84143999D01*
X152135819Y-84382094D02*
X151135819Y-84382094D01*
X151135819Y-84382094D02*
X151135819Y-84001142D01*
X151135819Y-84001142D02*
X151183438Y-83905904D01*
X151183438Y-83905904D02*
X151231057Y-83858285D01*
X151231057Y-83858285D02*
X151326295Y-83810666D01*
X151326295Y-83810666D02*
X151469152Y-83810666D01*
X151469152Y-83810666D02*
X151564390Y-83858285D01*
X151564390Y-83858285D02*
X151612009Y-83905904D01*
X151612009Y-83905904D02*
X151659628Y-84001142D01*
X151659628Y-84001142D02*
X151659628Y-84382094D01*
X152135819Y-82858285D02*
X152135819Y-83429713D01*
X152135819Y-83143999D02*
X151135819Y-83143999D01*
X151135819Y-83143999D02*
X151278676Y-83239237D01*
X151278676Y-83239237D02*
X151373914Y-83334475D01*
X151373914Y-83334475D02*
X151421533Y-83429713D01*
X129248819Y-84405904D02*
X130058342Y-84405904D01*
X130058342Y-84405904D02*
X130153580Y-84358285D01*
X130153580Y-84358285D02*
X130201200Y-84310666D01*
X130201200Y-84310666D02*
X130248819Y-84215428D01*
X130248819Y-84215428D02*
X130248819Y-84024952D01*
X130248819Y-84024952D02*
X130201200Y-83929714D01*
X130201200Y-83929714D02*
X130153580Y-83882095D01*
X130153580Y-83882095D02*
X130058342Y-83834476D01*
X130058342Y-83834476D02*
X129248819Y-83834476D01*
X130248819Y-82834476D02*
X130248819Y-83405904D01*
X130248819Y-83120190D02*
X129248819Y-83120190D01*
X129248819Y-83120190D02*
X129391676Y-83215428D01*
X129391676Y-83215428D02*
X129486914Y-83310666D01*
X129486914Y-83310666D02*
X129534533Y-83405904D01*
X144930951Y-116405819D02*
X144454761Y-116405819D01*
X144454761Y-116405819D02*
X144454761Y-115405819D01*
X145216666Y-115501057D02*
X145264285Y-115453438D01*
X145264285Y-115453438D02*
X145359523Y-115405819D01*
X145359523Y-115405819D02*
X145597618Y-115405819D01*
X145597618Y-115405819D02*
X145692856Y-115453438D01*
X145692856Y-115453438D02*
X145740475Y-115501057D01*
X145740475Y-115501057D02*
X145788094Y-115596295D01*
X145788094Y-115596295D02*
X145788094Y-115691533D01*
X145788094Y-115691533D02*
X145740475Y-115834390D01*
X145740475Y-115834390D02*
X145169047Y-116405819D01*
X145169047Y-116405819D02*
X145788094Y-116405819D01*
X146264285Y-116405819D02*
X146454761Y-116405819D01*
X146454761Y-116405819D02*
X146549999Y-116358200D01*
X146549999Y-116358200D02*
X146597618Y-116310580D01*
X146597618Y-116310580D02*
X146692856Y-116167723D01*
X146692856Y-116167723D02*
X146740475Y-115977247D01*
X146740475Y-115977247D02*
X146740475Y-115596295D01*
X146740475Y-115596295D02*
X146692856Y-115501057D01*
X146692856Y-115501057D02*
X146645237Y-115453438D01*
X146645237Y-115453438D02*
X146549999Y-115405819D01*
X146549999Y-115405819D02*
X146359523Y-115405819D01*
X146359523Y-115405819D02*
X146264285Y-115453438D01*
X146264285Y-115453438D02*
X146216666Y-115501057D01*
X146216666Y-115501057D02*
X146169047Y-115596295D01*
X146169047Y-115596295D02*
X146169047Y-115834390D01*
X146169047Y-115834390D02*
X146216666Y-115929628D01*
X146216666Y-115929628D02*
X146264285Y-115977247D01*
X146264285Y-115977247D02*
X146359523Y-116024866D01*
X146359523Y-116024866D02*
X146549999Y-116024866D01*
X146549999Y-116024866D02*
X146645237Y-115977247D01*
X146645237Y-115977247D02*
X146692856Y-115929628D01*
X146692856Y-115929628D02*
X146740475Y-115834390D01*
X147311904Y-115834390D02*
X147216666Y-115786771D01*
X147216666Y-115786771D02*
X147169047Y-115739152D01*
X147169047Y-115739152D02*
X147121428Y-115643914D01*
X147121428Y-115643914D02*
X147121428Y-115596295D01*
X147121428Y-115596295D02*
X147169047Y-115501057D01*
X147169047Y-115501057D02*
X147216666Y-115453438D01*
X147216666Y-115453438D02*
X147311904Y-115405819D01*
X147311904Y-115405819D02*
X147502380Y-115405819D01*
X147502380Y-115405819D02*
X147597618Y-115453438D01*
X147597618Y-115453438D02*
X147645237Y-115501057D01*
X147645237Y-115501057D02*
X147692856Y-115596295D01*
X147692856Y-115596295D02*
X147692856Y-115643914D01*
X147692856Y-115643914D02*
X147645237Y-115739152D01*
X147645237Y-115739152D02*
X147597618Y-115786771D01*
X147597618Y-115786771D02*
X147502380Y-115834390D01*
X147502380Y-115834390D02*
X147311904Y-115834390D01*
X147311904Y-115834390D02*
X147216666Y-115882009D01*
X147216666Y-115882009D02*
X147169047Y-115929628D01*
X147169047Y-115929628D02*
X147121428Y-116024866D01*
X147121428Y-116024866D02*
X147121428Y-116215342D01*
X147121428Y-116215342D02*
X147169047Y-116310580D01*
X147169047Y-116310580D02*
X147216666Y-116358200D01*
X147216666Y-116358200D02*
X147311904Y-116405819D01*
X147311904Y-116405819D02*
X147502380Y-116405819D01*
X147502380Y-116405819D02*
X147597618Y-116358200D01*
X147597618Y-116358200D02*
X147645237Y-116310580D01*
X147645237Y-116310580D02*
X147692856Y-116215342D01*
X147692856Y-116215342D02*
X147692856Y-116024866D01*
X147692856Y-116024866D02*
X147645237Y-115929628D01*
X147645237Y-115929628D02*
X147597618Y-115882009D01*
X147597618Y-115882009D02*
X147502380Y-115834390D01*
D12*
X145257225Y-85266000D02*
X145757225Y-85266000D01*
X145507225Y-85016000D02*
X145507225Y-85516000D01*
X148062000Y-84161000D02*
X148062000Y-89321000D01*
X148102000Y-84161000D02*
X148102000Y-89321000D01*
X148142000Y-84162000D02*
X148142000Y-89320000D01*
X148182000Y-84163000D02*
X148182000Y-89319000D01*
X148222000Y-84165000D02*
X148222000Y-89317000D01*
X148262000Y-84168000D02*
X148262000Y-89314000D01*
X148302000Y-84172000D02*
X148302000Y-85701000D01*
X148302000Y-87781000D02*
X148302000Y-89310000D01*
X148342000Y-84176000D02*
X148342000Y-85701000D01*
X148342000Y-87781000D02*
X148342000Y-89306000D01*
X148382000Y-84180000D02*
X148382000Y-85701000D01*
X148382000Y-87781000D02*
X148382000Y-89302000D01*
X148422000Y-84185000D02*
X148422000Y-85701000D01*
X148422000Y-87781000D02*
X148422000Y-89297000D01*
X148462000Y-84191000D02*
X148462000Y-85701000D01*
X148462000Y-87781000D02*
X148462000Y-89291000D01*
X148502000Y-84198000D02*
X148502000Y-85701000D01*
X148502000Y-87781000D02*
X148502000Y-89284000D01*
X148542000Y-84205000D02*
X148542000Y-85701000D01*
X148542000Y-87781000D02*
X148542000Y-89277000D01*
X148582000Y-84213000D02*
X148582000Y-85701000D01*
X148582000Y-87781000D02*
X148582000Y-89269000D01*
X148622000Y-84221000D02*
X148622000Y-85701000D01*
X148622000Y-87781000D02*
X148622000Y-89261000D01*
X148662000Y-84230000D02*
X148662000Y-85701000D01*
X148662000Y-87781000D02*
X148662000Y-89252000D01*
X148702000Y-84240000D02*
X148702000Y-85701000D01*
X148702000Y-87781000D02*
X148702000Y-89242000D01*
X148742000Y-84250000D02*
X148742000Y-85701000D01*
X148742000Y-87781000D02*
X148742000Y-89232000D01*
X148783000Y-84261000D02*
X148783000Y-85701000D01*
X148783000Y-87781000D02*
X148783000Y-89221000D01*
X148823000Y-84273000D02*
X148823000Y-85701000D01*
X148823000Y-87781000D02*
X148823000Y-89209000D01*
X148863000Y-84286000D02*
X148863000Y-85701000D01*
X148863000Y-87781000D02*
X148863000Y-89196000D01*
X148903000Y-84299000D02*
X148903000Y-85701000D01*
X148903000Y-87781000D02*
X148903000Y-89183000D01*
X148943000Y-84313000D02*
X148943000Y-85701000D01*
X148943000Y-87781000D02*
X148943000Y-89169000D01*
X148983000Y-84327000D02*
X148983000Y-85701000D01*
X148983000Y-87781000D02*
X148983000Y-89155000D01*
X149023000Y-84343000D02*
X149023000Y-85701000D01*
X149023000Y-87781000D02*
X149023000Y-89139000D01*
X149063000Y-84359000D02*
X149063000Y-85701000D01*
X149063000Y-87781000D02*
X149063000Y-89123000D01*
X149103000Y-84376000D02*
X149103000Y-85701000D01*
X149103000Y-87781000D02*
X149103000Y-89106000D01*
X149143000Y-84393000D02*
X149143000Y-85701000D01*
X149143000Y-87781000D02*
X149143000Y-89089000D01*
X149183000Y-84412000D02*
X149183000Y-85701000D01*
X149183000Y-87781000D02*
X149183000Y-89070000D01*
X149223000Y-84431000D02*
X149223000Y-85701000D01*
X149223000Y-87781000D02*
X149223000Y-89051000D01*
X149263000Y-84451000D02*
X149263000Y-85701000D01*
X149263000Y-87781000D02*
X149263000Y-89031000D01*
X149303000Y-84473000D02*
X149303000Y-85701000D01*
X149303000Y-87781000D02*
X149303000Y-89009000D01*
X149343000Y-84494000D02*
X149343000Y-85701000D01*
X149343000Y-87781000D02*
X149343000Y-88988000D01*
X149383000Y-84517000D02*
X149383000Y-85701000D01*
X149383000Y-87781000D02*
X149383000Y-88965000D01*
X149423000Y-84541000D02*
X149423000Y-85701000D01*
X149423000Y-87781000D02*
X149423000Y-88941000D01*
X149463000Y-84566000D02*
X149463000Y-85701000D01*
X149463000Y-87781000D02*
X149463000Y-88916000D01*
X149503000Y-84592000D02*
X149503000Y-85701000D01*
X149503000Y-87781000D02*
X149503000Y-88890000D01*
X149543000Y-84619000D02*
X149543000Y-85701000D01*
X149543000Y-87781000D02*
X149543000Y-88863000D01*
X149583000Y-84646000D02*
X149583000Y-85701000D01*
X149583000Y-87781000D02*
X149583000Y-88836000D01*
X149623000Y-84676000D02*
X149623000Y-85701000D01*
X149623000Y-87781000D02*
X149623000Y-88806000D01*
X149663000Y-84706000D02*
X149663000Y-85701000D01*
X149663000Y-87781000D02*
X149663000Y-88776000D01*
X149703000Y-84737000D02*
X149703000Y-85701000D01*
X149703000Y-87781000D02*
X149703000Y-88745000D01*
X149743000Y-84770000D02*
X149743000Y-85701000D01*
X149743000Y-87781000D02*
X149743000Y-88712000D01*
X149783000Y-84804000D02*
X149783000Y-85701000D01*
X149783000Y-87781000D02*
X149783000Y-88678000D01*
X149823000Y-84840000D02*
X149823000Y-85701000D01*
X149823000Y-87781000D02*
X149823000Y-88642000D01*
X149863000Y-84877000D02*
X149863000Y-85701000D01*
X149863000Y-87781000D02*
X149863000Y-88605000D01*
X149903000Y-84915000D02*
X149903000Y-85701000D01*
X149903000Y-87781000D02*
X149903000Y-88567000D01*
X149943000Y-84956000D02*
X149943000Y-85701000D01*
X149943000Y-87781000D02*
X149943000Y-88526000D01*
X149983000Y-84998000D02*
X149983000Y-85701000D01*
X149983000Y-87781000D02*
X149983000Y-88484000D01*
X150023000Y-85042000D02*
X150023000Y-85701000D01*
X150023000Y-87781000D02*
X150023000Y-88440000D01*
X150063000Y-85088000D02*
X150063000Y-85701000D01*
X150063000Y-87781000D02*
X150063000Y-88394000D01*
X150103000Y-85136000D02*
X150103000Y-85701000D01*
X150103000Y-87781000D02*
X150103000Y-88346000D01*
X150143000Y-85187000D02*
X150143000Y-85701000D01*
X150143000Y-87781000D02*
X150143000Y-88295000D01*
X150183000Y-85241000D02*
X150183000Y-85701000D01*
X150183000Y-87781000D02*
X150183000Y-88241000D01*
X150223000Y-85298000D02*
X150223000Y-85701000D01*
X150223000Y-87781000D02*
X150223000Y-88184000D01*
X150263000Y-85358000D02*
X150263000Y-85701000D01*
X150263000Y-87781000D02*
X150263000Y-88124000D01*
X150303000Y-85422000D02*
X150303000Y-85701000D01*
X150303000Y-87781000D02*
X150303000Y-88060000D01*
X150343000Y-85490000D02*
X150343000Y-85701000D01*
X150343000Y-87781000D02*
X150343000Y-87992000D01*
X150383000Y-85563000D02*
X150383000Y-87919000D01*
X150423000Y-85643000D02*
X150423000Y-87839000D01*
X150463000Y-85730000D02*
X150463000Y-87752000D01*
X150503000Y-85826000D02*
X150503000Y-87656000D01*
X150543000Y-85936000D02*
X150543000Y-87546000D01*
X150583000Y-86064000D02*
X150583000Y-87418000D01*
X150623000Y-86223000D02*
X150623000Y-87259000D01*
X150663000Y-86457000D02*
X150663000Y-87025000D01*
X150682000Y-86741000D02*
G75*
G02*
X145442000Y-86741000I-2620000J0D01*
G01*
X145442000Y-86741000D02*
G75*
G02*
X150682000Y-86741000I2620000J0D01*
G01*
X145257225Y-79043000D02*
X145757225Y-79043000D01*
X145507225Y-78793000D02*
X145507225Y-79293000D01*
X148062000Y-77938000D02*
X148062000Y-83098000D01*
X148102000Y-77938000D02*
X148102000Y-83098000D01*
X148142000Y-77939000D02*
X148142000Y-83097000D01*
X148182000Y-77940000D02*
X148182000Y-83096000D01*
X148222000Y-77942000D02*
X148222000Y-83094000D01*
X148262000Y-77945000D02*
X148262000Y-83091000D01*
X148302000Y-77949000D02*
X148302000Y-79478000D01*
X148302000Y-81558000D02*
X148302000Y-83087000D01*
X148342000Y-77953000D02*
X148342000Y-79478000D01*
X148342000Y-81558000D02*
X148342000Y-83083000D01*
X148382000Y-77957000D02*
X148382000Y-79478000D01*
X148382000Y-81558000D02*
X148382000Y-83079000D01*
X148422000Y-77962000D02*
X148422000Y-79478000D01*
X148422000Y-81558000D02*
X148422000Y-83074000D01*
X148462000Y-77968000D02*
X148462000Y-79478000D01*
X148462000Y-81558000D02*
X148462000Y-83068000D01*
X148502000Y-77975000D02*
X148502000Y-79478000D01*
X148502000Y-81558000D02*
X148502000Y-83061000D01*
X148542000Y-77982000D02*
X148542000Y-79478000D01*
X148542000Y-81558000D02*
X148542000Y-83054000D01*
X148582000Y-77990000D02*
X148582000Y-79478000D01*
X148582000Y-81558000D02*
X148582000Y-83046000D01*
X148622000Y-77998000D02*
X148622000Y-79478000D01*
X148622000Y-81558000D02*
X148622000Y-83038000D01*
X148662000Y-78007000D02*
X148662000Y-79478000D01*
X148662000Y-81558000D02*
X148662000Y-83029000D01*
X148702000Y-78017000D02*
X148702000Y-79478000D01*
X148702000Y-81558000D02*
X148702000Y-83019000D01*
X148742000Y-78027000D02*
X148742000Y-79478000D01*
X148742000Y-81558000D02*
X148742000Y-83009000D01*
X148783000Y-78038000D02*
X148783000Y-79478000D01*
X148783000Y-81558000D02*
X148783000Y-82998000D01*
X148823000Y-78050000D02*
X148823000Y-79478000D01*
X148823000Y-81558000D02*
X148823000Y-82986000D01*
X148863000Y-78063000D02*
X148863000Y-79478000D01*
X148863000Y-81558000D02*
X148863000Y-82973000D01*
X148903000Y-78076000D02*
X148903000Y-79478000D01*
X148903000Y-81558000D02*
X148903000Y-82960000D01*
X148943000Y-78090000D02*
X148943000Y-79478000D01*
X148943000Y-81558000D02*
X148943000Y-82946000D01*
X148983000Y-78104000D02*
X148983000Y-79478000D01*
X148983000Y-81558000D02*
X148983000Y-82932000D01*
X149023000Y-78120000D02*
X149023000Y-79478000D01*
X149023000Y-81558000D02*
X149023000Y-82916000D01*
X149063000Y-78136000D02*
X149063000Y-79478000D01*
X149063000Y-81558000D02*
X149063000Y-82900000D01*
X149103000Y-78153000D02*
X149103000Y-79478000D01*
X149103000Y-81558000D02*
X149103000Y-82883000D01*
X149143000Y-78170000D02*
X149143000Y-79478000D01*
X149143000Y-81558000D02*
X149143000Y-82866000D01*
X149183000Y-78189000D02*
X149183000Y-79478000D01*
X149183000Y-81558000D02*
X149183000Y-82847000D01*
X149223000Y-78208000D02*
X149223000Y-79478000D01*
X149223000Y-81558000D02*
X149223000Y-82828000D01*
X149263000Y-78228000D02*
X149263000Y-79478000D01*
X149263000Y-81558000D02*
X149263000Y-82808000D01*
X149303000Y-78250000D02*
X149303000Y-79478000D01*
X149303000Y-81558000D02*
X149303000Y-82786000D01*
X149343000Y-78271000D02*
X149343000Y-79478000D01*
X149343000Y-81558000D02*
X149343000Y-82765000D01*
X149383000Y-78294000D02*
X149383000Y-79478000D01*
X149383000Y-81558000D02*
X149383000Y-82742000D01*
X149423000Y-78318000D02*
X149423000Y-79478000D01*
X149423000Y-81558000D02*
X149423000Y-82718000D01*
X149463000Y-78343000D02*
X149463000Y-79478000D01*
X149463000Y-81558000D02*
X149463000Y-82693000D01*
X149503000Y-78369000D02*
X149503000Y-79478000D01*
X149503000Y-81558000D02*
X149503000Y-82667000D01*
X149543000Y-78396000D02*
X149543000Y-79478000D01*
X149543000Y-81558000D02*
X149543000Y-82640000D01*
X149583000Y-78423000D02*
X149583000Y-79478000D01*
X149583000Y-81558000D02*
X149583000Y-82613000D01*
X149623000Y-78453000D02*
X149623000Y-79478000D01*
X149623000Y-81558000D02*
X149623000Y-82583000D01*
X149663000Y-78483000D02*
X149663000Y-79478000D01*
X149663000Y-81558000D02*
X149663000Y-82553000D01*
X149703000Y-78514000D02*
X149703000Y-79478000D01*
X149703000Y-81558000D02*
X149703000Y-82522000D01*
X149743000Y-78547000D02*
X149743000Y-79478000D01*
X149743000Y-81558000D02*
X149743000Y-82489000D01*
X149783000Y-78581000D02*
X149783000Y-79478000D01*
X149783000Y-81558000D02*
X149783000Y-82455000D01*
X149823000Y-78617000D02*
X149823000Y-79478000D01*
X149823000Y-81558000D02*
X149823000Y-82419000D01*
X149863000Y-78654000D02*
X149863000Y-79478000D01*
X149863000Y-81558000D02*
X149863000Y-82382000D01*
X149903000Y-78692000D02*
X149903000Y-79478000D01*
X149903000Y-81558000D02*
X149903000Y-82344000D01*
X149943000Y-78733000D02*
X149943000Y-79478000D01*
X149943000Y-81558000D02*
X149943000Y-82303000D01*
X149983000Y-78775000D02*
X149983000Y-79478000D01*
X149983000Y-81558000D02*
X149983000Y-82261000D01*
X150023000Y-78819000D02*
X150023000Y-79478000D01*
X150023000Y-81558000D02*
X150023000Y-82217000D01*
X150063000Y-78865000D02*
X150063000Y-79478000D01*
X150063000Y-81558000D02*
X150063000Y-82171000D01*
X150103000Y-78913000D02*
X150103000Y-79478000D01*
X150103000Y-81558000D02*
X150103000Y-82123000D01*
X150143000Y-78964000D02*
X150143000Y-79478000D01*
X150143000Y-81558000D02*
X150143000Y-82072000D01*
X150183000Y-79018000D02*
X150183000Y-79478000D01*
X150183000Y-81558000D02*
X150183000Y-82018000D01*
X150223000Y-79075000D02*
X150223000Y-79478000D01*
X150223000Y-81558000D02*
X150223000Y-81961000D01*
X150263000Y-79135000D02*
X150263000Y-79478000D01*
X150263000Y-81558000D02*
X150263000Y-81901000D01*
X150303000Y-79199000D02*
X150303000Y-79478000D01*
X150303000Y-81558000D02*
X150303000Y-81837000D01*
X150343000Y-79267000D02*
X150343000Y-79478000D01*
X150343000Y-81558000D02*
X150343000Y-81769000D01*
X150383000Y-79340000D02*
X150383000Y-81696000D01*
X150423000Y-79420000D02*
X150423000Y-81616000D01*
X150463000Y-79507000D02*
X150463000Y-81529000D01*
X150503000Y-79603000D02*
X150503000Y-81433000D01*
X150543000Y-79713000D02*
X150543000Y-81323000D01*
X150583000Y-79841000D02*
X150583000Y-81195000D01*
X150623000Y-80000000D02*
X150623000Y-81036000D01*
X150663000Y-80234000D02*
X150663000Y-80802000D01*
X150682000Y-80518000D02*
G75*
G02*
X145442000Y-80518000I-2620000J0D01*
G01*
X145442000Y-80518000D02*
G75*
G02*
X150682000Y-80518000I2620000J0D01*
G01*
X128154000Y-99464000D02*
X128154000Y-99529000D01*
X128154000Y-99464000D02*
X131394000Y-99464000D01*
X128154000Y-101639000D02*
X128154000Y-101704000D01*
X128154000Y-101704000D02*
X131394000Y-101704000D01*
X131394000Y-99464000D02*
X131394000Y-99529000D01*
X131394000Y-101639000D02*
X131394000Y-101704000D01*
X128154000Y-91844000D02*
X128154000Y-91909000D01*
X128154000Y-91844000D02*
X131394000Y-91844000D01*
X128154000Y-94019000D02*
X128154000Y-94084000D01*
X128154000Y-94084000D02*
X131394000Y-94084000D01*
X131394000Y-91844000D02*
X131394000Y-91909000D01*
X131394000Y-94019000D02*
X131394000Y-94084000D01*
X160746000Y-95538000D02*
X160746000Y-95694000D01*
X160746000Y-97854000D02*
X160746000Y-98010000D01*
X160746000Y-95538484D02*
G75*
G02*
X163978335Y-95695392I1560000J-1235516D01*
G01*
X161265039Y-95694000D02*
G75*
G02*
X163347130Y-95694163I1040961J-1080000D01*
G01*
X163347130Y-97853837D02*
G75*
G02*
X161265039Y-97854000I-1041130J1079837D01*
G01*
X163978335Y-97852608D02*
G75*
G02*
X160746000Y-98009516I-1672335J1078608D01*
G01*
X136325000Y-94054000D02*
X136655000Y-94054000D01*
X136325000Y-98474000D02*
X139265000Y-98474000D01*
X136325000Y-98594000D02*
X139265000Y-98594000D01*
X136325000Y-98714000D02*
X139265000Y-98714000D01*
X136325000Y-99494000D02*
X136325000Y-94054000D01*
X136655000Y-99494000D02*
X136325000Y-99494000D01*
X138935000Y-99494000D02*
X139265000Y-99494000D01*
X139265000Y-94054000D02*
X138935000Y-94054000D01*
X139265000Y-99494000D02*
X139265000Y-94054000D01*
X139627000Y-94054000D02*
X139957000Y-94054000D01*
X139627000Y-98474000D02*
X142567000Y-98474000D01*
X139627000Y-98594000D02*
X142567000Y-98594000D01*
X139627000Y-98714000D02*
X142567000Y-98714000D01*
X139627000Y-99494000D02*
X139627000Y-94054000D01*
X139957000Y-99494000D02*
X139627000Y-99494000D01*
X142237000Y-99494000D02*
X142567000Y-99494000D01*
X142567000Y-94054000D02*
X142237000Y-94054000D01*
X142567000Y-99494000D02*
X142567000Y-94054000D01*
X156137000Y-94054000D02*
X156467000Y-94054000D01*
X156137000Y-98474000D02*
X159077000Y-98474000D01*
X156137000Y-98594000D02*
X159077000Y-98594000D01*
X156137000Y-98714000D02*
X159077000Y-98714000D01*
X156137000Y-99494000D02*
X156137000Y-94054000D01*
X156467000Y-99494000D02*
X156137000Y-99494000D01*
X158747000Y-99494000D02*
X159077000Y-99494000D01*
X159077000Y-94054000D02*
X158747000Y-94054000D01*
X159077000Y-99494000D02*
X159077000Y-94054000D01*
X142929000Y-94054000D02*
X143259000Y-94054000D01*
X142929000Y-98474000D02*
X145869000Y-98474000D01*
X142929000Y-98594000D02*
X145869000Y-98594000D01*
X142929000Y-98714000D02*
X145869000Y-98714000D01*
X142929000Y-99494000D02*
X142929000Y-94054000D01*
X143259000Y-99494000D02*
X142929000Y-99494000D01*
X145539000Y-99494000D02*
X145869000Y-99494000D01*
X145869000Y-94054000D02*
X145539000Y-94054000D01*
X145869000Y-99494000D02*
X145869000Y-94054000D01*
X152835000Y-94054000D02*
X153165000Y-94054000D01*
X152835000Y-98474000D02*
X155775000Y-98474000D01*
X152835000Y-98594000D02*
X155775000Y-98594000D01*
X152835000Y-98714000D02*
X155775000Y-98714000D01*
X152835000Y-99494000D02*
X152835000Y-94054000D01*
X153165000Y-99494000D02*
X152835000Y-99494000D01*
X155445000Y-99494000D02*
X155775000Y-99494000D01*
X155775000Y-94054000D02*
X155445000Y-94054000D01*
X155775000Y-99494000D02*
X155775000Y-94054000D01*
X146231000Y-94054000D02*
X146561000Y-94054000D01*
X146231000Y-98474000D02*
X149171000Y-98474000D01*
X146231000Y-98594000D02*
X149171000Y-98594000D01*
X146231000Y-98714000D02*
X149171000Y-98714000D01*
X146231000Y-99494000D02*
X146231000Y-94054000D01*
X146561000Y-99494000D02*
X146231000Y-99494000D01*
X148841000Y-99494000D02*
X149171000Y-99494000D01*
X149171000Y-94054000D02*
X148841000Y-94054000D01*
X149171000Y-99494000D02*
X149171000Y-94054000D01*
X133023000Y-94054000D02*
X133353000Y-94054000D01*
X133023000Y-98474000D02*
X135963000Y-98474000D01*
X133023000Y-98594000D02*
X135963000Y-98594000D01*
X133023000Y-98714000D02*
X135963000Y-98714000D01*
X133023000Y-99494000D02*
X133023000Y-94054000D01*
X133353000Y-99494000D02*
X133023000Y-99494000D01*
X135633000Y-99494000D02*
X135963000Y-99494000D01*
X135963000Y-94054000D02*
X135633000Y-94054000D01*
X135963000Y-99494000D02*
X135963000Y-94054000D01*
X149533000Y-94054000D02*
X149863000Y-94054000D01*
X149533000Y-98474000D02*
X152473000Y-98474000D01*
X149533000Y-98594000D02*
X152473000Y-98594000D01*
X149533000Y-98714000D02*
X152473000Y-98714000D01*
X149533000Y-99494000D02*
X149533000Y-94054000D01*
X149863000Y-99494000D02*
X149533000Y-99494000D01*
X152143000Y-99494000D02*
X152473000Y-99494000D01*
X152473000Y-94054000D02*
X152143000Y-94054000D01*
X152473000Y-99494000D02*
X152473000Y-94054000D01*
X158055000Y-88600000D02*
X158055000Y-78679000D01*
X159380000Y-84408000D02*
X159427000Y-84362000D01*
X159585000Y-84614000D02*
X159620000Y-84578000D01*
X161689000Y-82100000D02*
X161724000Y-82065000D01*
X161882000Y-82316000D02*
X161929000Y-82270000D01*
X168335000Y-78679000D02*
X158055000Y-78679000D01*
X168335000Y-79239000D02*
X158055000Y-79239000D01*
X168335000Y-80739000D02*
X158055000Y-80739000D01*
X168335000Y-85640000D02*
X158055000Y-85640000D01*
X168335000Y-88600000D02*
X158055000Y-88600000D01*
X168335000Y-88600000D02*
X168335000Y-78679000D01*
X168575000Y-78439000D02*
X168075000Y-78439000D01*
X168575000Y-79179000D02*
X168575000Y-78439000D01*
X164199573Y-84022042D02*
G75*
G02*
X164200000Y-82655000I1535427J683042D01*
G01*
X165051682Y-81804244D02*
G75*
G02*
X165735000Y-81659000I683318J-1534756D01*
G01*
X165706195Y-81658747D02*
G75*
G02*
X166419000Y-81804000I28806J-1680254D01*
G01*
X166418042Y-84874427D02*
G75*
G02*
X165051000Y-84874000I-683041J1535420D01*
G01*
X167270427Y-82655958D02*
G75*
G02*
X167270000Y-84023000I-1535420J-683041D01*
G01*
X162335000Y-83339000D02*
G75*
G02*
X158975000Y-83339000I-1680000J0D01*
G01*
X158975000Y-83339000D02*
G75*
G02*
X162335000Y-83339000I1680000J0D01*
G01*
X166056000Y-92919000D02*
X167386000Y-92919000D01*
X166056000Y-94249000D02*
X166056000Y-92919000D01*
X166056000Y-95519000D02*
X166056000Y-100659000D01*
X166056000Y-95519000D02*
X168716000Y-95519000D01*
X166056000Y-100659000D02*
X168716000Y-100659000D01*
X168716000Y-95519000D02*
X168716000Y-100659000D01*
X123638000Y-92919000D02*
X124968000Y-92919000D01*
X123638000Y-94249000D02*
X123638000Y-92919000D01*
X123638000Y-95519000D02*
X123638000Y-100659000D01*
X123638000Y-95519000D02*
X126298000Y-95519000D01*
X123638000Y-100659000D02*
X126298000Y-100659000D01*
X126298000Y-95519000D02*
X126298000Y-100659000D01*
X158450000Y-113888000D02*
X158450000Y-114628000D01*
X158450000Y-114628000D02*
X158950000Y-114628000D01*
X158690000Y-104467000D02*
X158690000Y-114388000D01*
X158690000Y-104467000D02*
X168970000Y-104467000D01*
X158690000Y-107427000D02*
X168970000Y-107427000D01*
X158690000Y-112328000D02*
X168970000Y-112328000D01*
X158690000Y-113828000D02*
X168970000Y-113828000D01*
X158690000Y-114388000D02*
X168970000Y-114388000D01*
X165143000Y-110751000D02*
X165096000Y-110797000D01*
X165336000Y-110967000D02*
X165301000Y-111002000D01*
X167440000Y-108453000D02*
X167405000Y-108489000D01*
X167645000Y-108659000D02*
X167598000Y-108705000D01*
X168970000Y-104467000D02*
X168970000Y-114388000D01*
X159754573Y-110411042D02*
G75*
G02*
X159755000Y-109044000I1535420J683041D01*
G01*
X160606958Y-108192573D02*
G75*
G02*
X161974000Y-108193000I683041J-1535420D01*
G01*
X161318805Y-111408253D02*
G75*
G02*
X160606000Y-111263000I-28806J1680254D01*
G01*
X161973318Y-111262756D02*
G75*
G02*
X161290000Y-111408000I-683318J1534756D01*
G01*
X162825427Y-109044958D02*
G75*
G02*
X162825000Y-110412000I-1535427J-683042D01*
G01*
X168050000Y-109728000D02*
G75*
G02*
X164690000Y-109728000I-1680000J0D01*
G01*
X164690000Y-109728000D02*
G75*
G02*
X168050000Y-109728000I1680000J0D01*
G01*
X122890000Y-113888000D02*
X122890000Y-114628000D01*
X122890000Y-114628000D02*
X123390000Y-114628000D01*
X123130000Y-104467000D02*
X123130000Y-114388000D01*
X123130000Y-104467000D02*
X133410000Y-104467000D01*
X123130000Y-107427000D02*
X133410000Y-107427000D01*
X123130000Y-112328000D02*
X133410000Y-112328000D01*
X123130000Y-113828000D02*
X133410000Y-113828000D01*
X123130000Y-114388000D02*
X133410000Y-114388000D01*
X129583000Y-110751000D02*
X129536000Y-110797000D01*
X129776000Y-110967000D02*
X129741000Y-111002000D01*
X131880000Y-108453000D02*
X131845000Y-108489000D01*
X132085000Y-108659000D02*
X132038000Y-108705000D01*
X133410000Y-104467000D02*
X133410000Y-114388000D01*
X124194573Y-110411042D02*
G75*
G02*
X124195000Y-109044000I1535420J683041D01*
G01*
X125046958Y-108192573D02*
G75*
G02*
X126414000Y-108193000I683041J-1535420D01*
G01*
X125758805Y-111408253D02*
G75*
G02*
X125046000Y-111263000I-28806J1680254D01*
G01*
X126413318Y-111262756D02*
G75*
G02*
X125730000Y-111408000I-683318J1534756D01*
G01*
X127265427Y-109044958D02*
G75*
G02*
X127265000Y-110412000I-1535427J-683042D01*
G01*
X132490000Y-109728000D02*
G75*
G02*
X129130000Y-109728000I-1680000J0D01*
G01*
X129130000Y-109728000D02*
G75*
G02*
X132490000Y-109728000I1680000J0D01*
G01*
X152681000Y-80374000D02*
X153011000Y-80374000D01*
X152681000Y-86914000D02*
X152681000Y-80374000D01*
X153011000Y-86914000D02*
X152681000Y-86914000D01*
X155091000Y-86914000D02*
X155421000Y-86914000D01*
X155421000Y-80374000D02*
X155091000Y-80374000D01*
X155421000Y-86914000D02*
X155421000Y-80374000D01*
X122820000Y-78524000D02*
X138710000Y-78524000D01*
X122820000Y-88764000D02*
X122820000Y-78524000D01*
X122820000Y-88764000D02*
X138710000Y-88764000D01*
X138710000Y-81104000D02*
X141250000Y-81104000D01*
X138710000Y-83644000D02*
X141250000Y-83644000D01*
X138710000Y-86184000D02*
X141250000Y-86184000D01*
X138710000Y-88764000D02*
X138710000Y-78524000D01*
X135830000Y-114475000D02*
X135830000Y-109234000D01*
X137160000Y-109234000D02*
X137160000Y-105840000D01*
X137505000Y-109234000D02*
X135830000Y-109234000D01*
X139700000Y-109234000D02*
X139700000Y-105840000D01*
X140045000Y-109234000D02*
X139354000Y-109234000D01*
X142240000Y-109234000D02*
X142240000Y-105840000D01*
X142585000Y-109234000D02*
X141894000Y-109234000D01*
X144200000Y-114475000D02*
X144200000Y-112635000D01*
X144780000Y-109234000D02*
X144780000Y-105840000D01*
X145125000Y-109234000D02*
X144434000Y-109234000D01*
X147320000Y-109234000D02*
X147320000Y-105840000D01*
X147665000Y-109234000D02*
X146974000Y-109234000D01*
X147899000Y-114475000D02*
X147899000Y-112635000D01*
X149860000Y-109234000D02*
X149860000Y-105840000D01*
X150205000Y-109234000D02*
X149514000Y-109234000D01*
X152400000Y-109234000D02*
X152400000Y-105840000D01*
X152745000Y-109234000D02*
X152054000Y-109234000D01*
X154940000Y-109234000D02*
X154940000Y-105825000D01*
X156270000Y-109234000D02*
X154594000Y-109234000D01*
X156270000Y-112635000D02*
X135830000Y-112635000D01*
X156270000Y-114475000D02*
X135830000Y-114475000D01*
X156270000Y-114475000D02*
X156270000Y-109234000D01*
M02*
