G04 #@! TF.GenerationSoftware,KiCad,Pcbnew,10.0.3*
G04 #@! TF.CreationDate,2026-07-30T13:23:47+05:45*
G04 #@! TF.ProjectId,L298 Module,4c323938-204d-46f6-9475-6c652e6b6963,V1.0*
G04 #@! TF.SameCoordinates,Original*
G04 #@! TF.FileFunction,Copper,L1,Top*
G04 #@! TF.FilePolarity,Positive*
%FSLAX46Y46*%
G04 Gerber Fmt 4.6, Leading zero omitted, Abs format (unit mm)*
G04 Created by KiCad (PCBNEW 10.0.3) date 2026-07-30 13:23:47*
%MOMM*%
%LPD*%
G01*
G04 APERTURE LIST*
%ADD10C,0.300000*%
G04 #@! TA.AperFunction,NonConductor*
%ADD11C,0.300000*%
G04 #@! TD*
G04 #@! TA.AperFunction,ComponentPad*
%ADD12R,1.600000X1.600000*%
G04 #@! TD*
G04 #@! TA.AperFunction,ComponentPad*
%ADD13C,1.600000*%
G04 #@! TD*
G04 #@! TA.AperFunction,ComponentPad*
%ADD14R,1.800000X1.800000*%
G04 #@! TD*
G04 #@! TA.AperFunction,ComponentPad*
%ADD15C,1.800000*%
G04 #@! TD*
G04 #@! TA.AperFunction,ComponentPad*
%ADD16O,1.800000X1.800000*%
G04 #@! TD*
G04 #@! TA.AperFunction,ComponentPad*
%ADD17R,2.600000X2.600000*%
G04 #@! TD*
G04 #@! TA.AperFunction,ComponentPad*
%ADD18C,2.600000*%
G04 #@! TD*
G04 #@! TA.AperFunction,ComponentPad*
%ADD19R,1.700000X1.700000*%
G04 #@! TD*
G04 #@! TA.AperFunction,ComponentPad*
%ADD20O,1.700000X1.700000*%
G04 #@! TD*
G04 #@! TA.AperFunction,ComponentPad*
%ADD21O,1.600000X1.600000*%
G04 #@! TD*
G04 #@! TA.AperFunction,ComponentPad*
%ADD22R,2.000000X1.905000*%
G04 #@! TD*
G04 #@! TA.AperFunction,ComponentPad*
%ADD23O,2.000000X1.905000*%
G04 #@! TD*
G04 #@! TA.AperFunction,Conductor*
%ADD24C,0.600000*%
G04 #@! TD*
G04 #@! TA.AperFunction,Conductor*
%ADD25C,0.250000*%
G04 #@! TD*
G04 APERTURE END LIST*
D10*
D11*
X135064433Y-118960747D02*
X135064433Y-117460747D01*
X135064433Y-117460747D02*
X135564433Y-118532176D01*
X135564433Y-118532176D02*
X136064433Y-117460747D01*
X136064433Y-117460747D02*
X136064433Y-118960747D01*
X137421577Y-118960747D02*
X137421577Y-118175033D01*
X137421577Y-118175033D02*
X137350148Y-118032176D01*
X137350148Y-118032176D02*
X137207291Y-117960747D01*
X137207291Y-117960747D02*
X136921577Y-117960747D01*
X136921577Y-117960747D02*
X136778719Y-118032176D01*
X137421577Y-118889319D02*
X137278719Y-118960747D01*
X137278719Y-118960747D02*
X136921577Y-118960747D01*
X136921577Y-118960747D02*
X136778719Y-118889319D01*
X136778719Y-118889319D02*
X136707291Y-118746461D01*
X136707291Y-118746461D02*
X136707291Y-118603604D01*
X136707291Y-118603604D02*
X136778719Y-118460747D01*
X136778719Y-118460747D02*
X136921577Y-118389319D01*
X136921577Y-118389319D02*
X137278719Y-118389319D01*
X137278719Y-118389319D02*
X137421577Y-118317890D01*
X138778720Y-118960747D02*
X138778720Y-117460747D01*
X138778720Y-118889319D02*
X138635862Y-118960747D01*
X138635862Y-118960747D02*
X138350148Y-118960747D01*
X138350148Y-118960747D02*
X138207291Y-118889319D01*
X138207291Y-118889319D02*
X138135862Y-118817890D01*
X138135862Y-118817890D02*
X138064434Y-118675033D01*
X138064434Y-118675033D02*
X138064434Y-118246461D01*
X138064434Y-118246461D02*
X138135862Y-118103604D01*
X138135862Y-118103604D02*
X138207291Y-118032176D01*
X138207291Y-118032176D02*
X138350148Y-117960747D01*
X138350148Y-117960747D02*
X138635862Y-117960747D01*
X138635862Y-117960747D02*
X138778720Y-118032176D01*
X140064434Y-118889319D02*
X139921577Y-118960747D01*
X139921577Y-118960747D02*
X139635863Y-118960747D01*
X139635863Y-118960747D02*
X139493005Y-118889319D01*
X139493005Y-118889319D02*
X139421577Y-118746461D01*
X139421577Y-118746461D02*
X139421577Y-118175033D01*
X139421577Y-118175033D02*
X139493005Y-118032176D01*
X139493005Y-118032176D02*
X139635863Y-117960747D01*
X139635863Y-117960747D02*
X139921577Y-117960747D01*
X139921577Y-117960747D02*
X140064434Y-118032176D01*
X140064434Y-118032176D02*
X140135863Y-118175033D01*
X140135863Y-118175033D02*
X140135863Y-118317890D01*
X140135863Y-118317890D02*
X139421577Y-118460747D01*
X141707291Y-117960747D02*
X142278719Y-117960747D01*
X141921576Y-118960747D02*
X141921576Y-117675033D01*
X141921576Y-117675033D02*
X141993005Y-117532176D01*
X141993005Y-117532176D02*
X142135862Y-117460747D01*
X142135862Y-117460747D02*
X142278719Y-117460747D01*
X142993005Y-118960747D02*
X142850148Y-118889319D01*
X142850148Y-118889319D02*
X142778719Y-118817890D01*
X142778719Y-118817890D02*
X142707291Y-118675033D01*
X142707291Y-118675033D02*
X142707291Y-118246461D01*
X142707291Y-118246461D02*
X142778719Y-118103604D01*
X142778719Y-118103604D02*
X142850148Y-118032176D01*
X142850148Y-118032176D02*
X142993005Y-117960747D01*
X142993005Y-117960747D02*
X143207291Y-117960747D01*
X143207291Y-117960747D02*
X143350148Y-118032176D01*
X143350148Y-118032176D02*
X143421577Y-118103604D01*
X143421577Y-118103604D02*
X143493005Y-118246461D01*
X143493005Y-118246461D02*
X143493005Y-118675033D01*
X143493005Y-118675033D02*
X143421577Y-118817890D01*
X143421577Y-118817890D02*
X143350148Y-118889319D01*
X143350148Y-118889319D02*
X143207291Y-118960747D01*
X143207291Y-118960747D02*
X142993005Y-118960747D01*
X144135862Y-118960747D02*
X144135862Y-117960747D01*
X144135862Y-118246461D02*
X144207291Y-118103604D01*
X144207291Y-118103604D02*
X144278720Y-118032176D01*
X144278720Y-118032176D02*
X144421577Y-117960747D01*
X144421577Y-117960747D02*
X144564434Y-117960747D01*
X146207290Y-118960747D02*
X146207290Y-117460747D01*
X146850148Y-118960747D02*
X146850148Y-118175033D01*
X146850148Y-118175033D02*
X146778719Y-118032176D01*
X146778719Y-118032176D02*
X146635862Y-117960747D01*
X146635862Y-117960747D02*
X146421576Y-117960747D01*
X146421576Y-117960747D02*
X146278719Y-118032176D01*
X146278719Y-118032176D02*
X146207290Y-118103604D01*
X148207291Y-118960747D02*
X148207291Y-118175033D01*
X148207291Y-118175033D02*
X148135862Y-118032176D01*
X148135862Y-118032176D02*
X147993005Y-117960747D01*
X147993005Y-117960747D02*
X147707291Y-117960747D01*
X147707291Y-117960747D02*
X147564433Y-118032176D01*
X148207291Y-118889319D02*
X148064433Y-118960747D01*
X148064433Y-118960747D02*
X147707291Y-118960747D01*
X147707291Y-118960747D02*
X147564433Y-118889319D01*
X147564433Y-118889319D02*
X147493005Y-118746461D01*
X147493005Y-118746461D02*
X147493005Y-118603604D01*
X147493005Y-118603604D02*
X147564433Y-118460747D01*
X147564433Y-118460747D02*
X147707291Y-118389319D01*
X147707291Y-118389319D02*
X148064433Y-118389319D01*
X148064433Y-118389319D02*
X148207291Y-118317890D01*
X149564434Y-118889319D02*
X149421576Y-118960747D01*
X149421576Y-118960747D02*
X149135862Y-118960747D01*
X149135862Y-118960747D02*
X148993005Y-118889319D01*
X148993005Y-118889319D02*
X148921576Y-118817890D01*
X148921576Y-118817890D02*
X148850148Y-118675033D01*
X148850148Y-118675033D02*
X148850148Y-118246461D01*
X148850148Y-118246461D02*
X148921576Y-118103604D01*
X148921576Y-118103604D02*
X148993005Y-118032176D01*
X148993005Y-118032176D02*
X149135862Y-117960747D01*
X149135862Y-117960747D02*
X149421576Y-117960747D01*
X149421576Y-117960747D02*
X149564434Y-118032176D01*
X150207290Y-118960747D02*
X150207290Y-117460747D01*
X150350148Y-118389319D02*
X150778719Y-118960747D01*
X150778719Y-117960747D02*
X150207290Y-118532176D01*
X153207291Y-118889319D02*
X153064433Y-118960747D01*
X153064433Y-118960747D02*
X152778719Y-118960747D01*
X152778719Y-118960747D02*
X152635862Y-118889319D01*
X152635862Y-118889319D02*
X152564433Y-118817890D01*
X152564433Y-118817890D02*
X152493005Y-118675033D01*
X152493005Y-118675033D02*
X152493005Y-118246461D01*
X152493005Y-118246461D02*
X152564433Y-118103604D01*
X152564433Y-118103604D02*
X152635862Y-118032176D01*
X152635862Y-118032176D02*
X152778719Y-117960747D01*
X152778719Y-117960747D02*
X153064433Y-117960747D01*
X153064433Y-117960747D02*
X153207291Y-118032176D01*
X154064433Y-118960747D02*
X153921576Y-118889319D01*
X153921576Y-118889319D02*
X153850147Y-118746461D01*
X153850147Y-118746461D02*
X153850147Y-117460747D01*
X155278719Y-117960747D02*
X155278719Y-118960747D01*
X154635861Y-117960747D02*
X154635861Y-118746461D01*
X154635861Y-118746461D02*
X154707290Y-118889319D01*
X154707290Y-118889319D02*
X154850147Y-118960747D01*
X154850147Y-118960747D02*
X155064433Y-118960747D01*
X155064433Y-118960747D02*
X155207290Y-118889319D01*
X155207290Y-118889319D02*
X155278719Y-118817890D01*
X155993004Y-118960747D02*
X155993004Y-117460747D01*
X155993004Y-118032176D02*
X156135862Y-117960747D01*
X156135862Y-117960747D02*
X156421576Y-117960747D01*
X156421576Y-117960747D02*
X156564433Y-118032176D01*
X156564433Y-118032176D02*
X156635862Y-118103604D01*
X156635862Y-118103604D02*
X156707290Y-118246461D01*
X156707290Y-118246461D02*
X156707290Y-118675033D01*
X156707290Y-118675033D02*
X156635862Y-118817890D01*
X156635862Y-118817890D02*
X156564433Y-118889319D01*
X156564433Y-118889319D02*
X156421576Y-118960747D01*
X156421576Y-118960747D02*
X156135862Y-118960747D01*
X156135862Y-118960747D02*
X155993004Y-118889319D01*
D12*
X146812000Y-86741000D03*
D13*
X149312000Y-86741000D03*
D12*
X146812000Y-80518000D03*
D13*
X149312000Y-80518000D03*
X128524000Y-100584000D03*
X131024000Y-100584000D03*
X128524000Y-92964000D03*
X131024000Y-92964000D03*
D14*
X161036000Y-96774000D03*
D15*
X163576000Y-96774000D03*
D14*
X137795000Y-100584000D03*
D16*
X137795000Y-92964000D03*
D14*
X141097000Y-100584000D03*
D16*
X141097000Y-92964000D03*
D14*
X157607000Y-100584000D03*
D16*
X157607000Y-92964000D03*
D14*
X144399000Y-100584000D03*
D16*
X144399000Y-92964000D03*
D14*
X154305000Y-100584000D03*
D16*
X154305000Y-92964000D03*
D14*
X147701000Y-100584000D03*
D16*
X147701000Y-92964000D03*
D14*
X134493000Y-100584000D03*
D16*
X134493000Y-92964000D03*
D14*
X151003000Y-100584000D03*
D16*
X151003000Y-92964000D03*
D17*
X165735000Y-83339000D03*
D18*
X160655000Y-83339000D03*
D19*
X167386000Y-94249000D03*
D20*
X167386000Y-96789000D03*
X167386000Y-99329000D03*
D19*
X124968000Y-94249000D03*
D20*
X124968000Y-96789000D03*
X124968000Y-99329000D03*
D17*
X161290000Y-109728000D03*
D18*
X166370000Y-109728000D03*
D17*
X125730000Y-109728000D03*
D18*
X130810000Y-109728000D03*
D13*
X154051000Y-87454000D03*
D21*
X154051000Y-79834000D03*
D22*
X142400000Y-86184000D03*
D23*
X142400000Y-83644000D03*
X142400000Y-81104000D03*
D14*
X154940000Y-104775000D03*
D16*
X153670000Y-109855000D03*
X152400000Y-104775000D03*
X151130000Y-109855000D03*
X149860000Y-104775000D03*
X148590000Y-109855000D03*
X147320000Y-104775000D03*
X146050000Y-109855000D03*
X144780000Y-104775000D03*
X143510000Y-109855000D03*
X142240000Y-104775000D03*
X140970000Y-109855000D03*
X139700000Y-104775000D03*
X138430000Y-109855000D03*
X137160000Y-104775000D03*
D24*
X146812000Y-86741000D02*
X144780000Y-86741000D01*
X144780000Y-86741000D02*
X144223000Y-86184000D01*
X144223000Y-86184000D02*
X142400000Y-86184000D01*
X149263000Y-83644000D02*
X149312000Y-83693000D01*
X165735000Y-83339000D02*
X164746000Y-83339000D01*
X149312000Y-81268370D02*
X149312000Y-83693000D01*
X128524000Y-87249000D02*
X128524000Y-92964000D01*
X164746000Y-83339000D02*
X162179000Y-80772000D01*
X142400000Y-83644000D02*
X132129000Y-83644000D01*
X159004000Y-80772000D02*
X156083000Y-83693000D01*
X149312000Y-83693000D02*
X149312000Y-86741000D01*
X142400000Y-83644000D02*
X149263000Y-83644000D01*
X162179000Y-80772000D02*
X159004000Y-80772000D01*
X132129000Y-83644000D02*
X128524000Y-87249000D01*
X149312000Y-80137000D02*
X149312000Y-81268370D01*
X156083000Y-83693000D02*
X149312000Y-83693000D01*
X151335000Y-90170000D02*
X134494000Y-90170000D01*
X131024000Y-101911891D02*
X131728109Y-102616000D01*
X131728109Y-102616000D02*
X143637000Y-102616000D01*
X142400000Y-81104000D02*
X144321000Y-81104000D01*
X154051000Y-87454000D02*
X151335000Y-90170000D01*
X132588000Y-97663000D02*
X131024000Y-99227000D01*
X144907000Y-80518000D02*
X146431000Y-80518000D01*
X132588000Y-92076000D02*
X132588000Y-97663000D01*
X143637000Y-102616000D02*
X144780000Y-103759000D01*
X134494000Y-90170000D02*
X132588000Y-92076000D01*
X144321000Y-81104000D02*
X144907000Y-80518000D01*
X131024000Y-100584000D02*
X131024000Y-101911891D01*
X144780000Y-103759000D02*
X144780000Y-104775000D01*
X131024000Y-99227000D02*
X131024000Y-100584000D01*
X146431000Y-80518000D02*
X146812000Y-80137000D01*
D25*
X159639000Y-97663000D02*
X159639000Y-91821000D01*
X159639000Y-91821000D02*
X158623000Y-90805000D01*
X146558000Y-90805000D02*
X145298999Y-92064001D01*
X145298999Y-92064001D02*
X144399000Y-92964000D01*
X157607000Y-99695000D02*
X159639000Y-97663000D01*
X157607000Y-100584000D02*
X157607000Y-99695000D01*
X158623000Y-90805000D02*
X146558000Y-90805000D01*
X158242000Y-91313000D02*
X159131000Y-92202000D01*
X154305000Y-100584000D02*
X154305000Y-102870000D01*
X159131000Y-92202000D02*
X159131000Y-94742000D01*
X149352000Y-91313000D02*
X158242000Y-91313000D01*
X154305000Y-102870000D02*
X152400000Y-104775000D01*
X154305000Y-99568000D02*
X154305000Y-100584000D01*
X159131000Y-94742000D02*
X154305000Y-99568000D01*
X147701000Y-92964000D02*
X149352000Y-91313000D01*
X151003000Y-94615000D02*
X149987000Y-95631000D01*
X151003000Y-92964000D02*
X151003000Y-94615000D01*
X149987000Y-95631000D02*
X136652000Y-95631000D01*
X134493000Y-97790000D02*
X134493000Y-100584000D01*
X136652000Y-95631000D02*
X134493000Y-97790000D01*
X168275000Y-101600000D02*
X166387821Y-101600000D01*
X169672000Y-100203000D02*
X168275000Y-101600000D01*
X150610978Y-107834022D02*
X149489999Y-108955001D01*
X160153800Y-107834021D02*
X150610978Y-107834022D01*
X149489999Y-108955001D02*
X148590000Y-109855000D01*
X166387821Y-101600000D02*
X160153800Y-107834021D01*
X168486000Y-94249000D02*
X169672000Y-95435000D01*
X169672000Y-95435000D02*
X169672000Y-100203000D01*
X167386000Y-94249000D02*
X168486000Y-94249000D01*
X159967400Y-107384010D02*
X149929011Y-107384011D01*
X148219999Y-105674999D02*
X147320000Y-104775000D01*
X149929011Y-107384011D02*
X148219999Y-105674999D01*
X167640000Y-96647000D02*
X169164000Y-98171000D01*
X166259410Y-101092000D02*
X159967400Y-107384010D01*
X168021000Y-101092000D02*
X166259410Y-101092000D01*
X169164000Y-99949000D02*
X168021000Y-101092000D01*
X167528000Y-96647000D02*
X167640000Y-96647000D01*
X167386000Y-96789000D02*
X167528000Y-96647000D01*
X169164000Y-98171000D02*
X169164000Y-99949000D01*
X159781000Y-106934000D02*
X166536001Y-100178999D01*
X166536001Y-100178999D02*
X167386000Y-99329000D01*
X152019000Y-106934000D02*
X159781000Y-106934000D01*
X149860000Y-104775000D02*
X152019000Y-106934000D01*
X140785011Y-107130011D02*
X142610001Y-108955001D01*
X124968000Y-99329000D02*
X124968000Y-99820590D01*
X124968000Y-99820590D02*
X132277421Y-107130011D01*
X132277421Y-107130011D02*
X140785011Y-107130011D01*
X142610001Y-108955001D02*
X143510000Y-109855000D01*
X124968000Y-101600000D02*
X123444000Y-100076000D01*
X126111000Y-101600000D02*
X124968000Y-101600000D01*
X140970000Y-109855000D02*
X138695022Y-107580022D01*
X123444000Y-97790000D02*
X124445000Y-96789000D01*
X138695022Y-107580022D02*
X132091022Y-107580022D01*
X124445000Y-96789000D02*
X124968000Y-96789000D01*
X123444000Y-100076000D02*
X123444000Y-97790000D01*
X132091022Y-107580022D02*
X126111000Y-101600000D01*
X141340001Y-105674999D02*
X142240000Y-104775000D01*
X126746000Y-100962180D02*
X132463820Y-106680000D01*
X124968000Y-94249000D02*
X126068000Y-94249000D01*
X126068000Y-94249000D02*
X126746000Y-94927000D01*
X126746000Y-94927000D02*
X126746000Y-100962180D01*
X132463820Y-106680000D02*
X140335000Y-106680000D01*
X140335000Y-106680000D02*
X141340001Y-105674999D01*
G04 #@! TA.AperFunction,Conductor*
G36*
X146137814Y-105547282D02*
G01*
X146151932Y-105563576D01*
X146245657Y-105692576D01*
X146245659Y-105692578D01*
X146245661Y-105692581D01*
X146402421Y-105849341D01*
X146501329Y-105921202D01*
X146581785Y-105979657D01*
X146779324Y-106080308D01*
X146990176Y-106148818D01*
X147209149Y-106183500D01*
X147209152Y-106183500D01*
X147430848Y-106183500D01*
X147430851Y-106183500D01*
X147649824Y-106148818D01*
X147688162Y-106136360D01*
X147703606Y-106135919D01*
X147718081Y-106130517D01*
X147738371Y-106134926D01*
X147759128Y-106134333D01*
X147773435Y-106142545D01*
X147787458Y-106145593D01*
X147811077Y-106163270D01*
X147811259Y-106163048D01*
X147811270Y-106163057D01*
X147813551Y-106165121D01*
X147816138Y-106167058D01*
X147816173Y-106167078D01*
X147818365Y-106169269D01*
X147820558Y-106171462D01*
X147820560Y-106171465D01*
X147820577Y-106171481D01*
X149509999Y-107860903D01*
X149544025Y-107923215D01*
X149538960Y-107994030D01*
X149510000Y-108039093D01*
X149086194Y-108462900D01*
X149023881Y-108496925D01*
X148958164Y-108493639D01*
X148919826Y-108481182D01*
X148804579Y-108462929D01*
X148700851Y-108446500D01*
X148479149Y-108446500D01*
X148260176Y-108481182D01*
X148260170Y-108481183D01*
X148049328Y-108549690D01*
X148049322Y-108549693D01*
X147851781Y-108650345D01*
X147672421Y-108780658D01*
X147515656Y-108937423D01*
X147421626Y-109066844D01*
X147365404Y-109110197D01*
X147294668Y-109116272D01*
X147231876Y-109083140D01*
X147217755Y-109066843D01*
X147123960Y-108937746D01*
X146967253Y-108781039D01*
X146787956Y-108650772D01*
X146590485Y-108550156D01*
X146590483Y-108550155D01*
X146379709Y-108481669D01*
X146304000Y-108469678D01*
X146304000Y-109424297D01*
X146242993Y-109389075D01*
X146115826Y-109355000D01*
X145984174Y-109355000D01*
X145857007Y-109389075D01*
X145796000Y-109424297D01*
X145796000Y-108469678D01*
X145720290Y-108481669D01*
X145509516Y-108550155D01*
X145509514Y-108550156D01*
X145312043Y-108650772D01*
X145132746Y-108781039D01*
X144976037Y-108937748D01*
X144882243Y-109066844D01*
X144826021Y-109110197D01*
X144755284Y-109116272D01*
X144692493Y-109083140D01*
X144678372Y-109066843D01*
X144584341Y-108937421D01*
X144427578Y-108780658D01*
X144248218Y-108650345D01*
X144248217Y-108650344D01*
X144248215Y-108650343D01*
X144050676Y-108549692D01*
X144050673Y-108549691D01*
X144050671Y-108549690D01*
X143839829Y-108481183D01*
X143839825Y-108481182D01*
X143839824Y-108481182D01*
X143620851Y-108446500D01*
X143399149Y-108446500D01*
X143245757Y-108470795D01*
X143180169Y-108481183D01*
X143141832Y-108493639D01*
X143070865Y-108495665D01*
X143013805Y-108462900D01*
X141319999Y-106769094D01*
X141285973Y-106706782D01*
X141291038Y-106635967D01*
X141319996Y-106590906D01*
X141743807Y-106167095D01*
X141806116Y-106133073D01*
X141871834Y-106136359D01*
X141910176Y-106148818D01*
X142129149Y-106183500D01*
X142129152Y-106183500D01*
X142350848Y-106183500D01*
X142350851Y-106183500D01*
X142569824Y-106148818D01*
X142780676Y-106080308D01*
X142978215Y-105979657D01*
X143157576Y-105849343D01*
X143314343Y-105692576D01*
X143408065Y-105563579D01*
X143464286Y-105520226D01*
X143535022Y-105514151D01*
X143597814Y-105547282D01*
X143611932Y-105563576D01*
X143705657Y-105692576D01*
X143705659Y-105692578D01*
X143705661Y-105692581D01*
X143862421Y-105849341D01*
X143961329Y-105921202D01*
X144041785Y-105979657D01*
X144239324Y-106080308D01*
X144450176Y-106148818D01*
X144669149Y-106183500D01*
X144669152Y-106183500D01*
X144890848Y-106183500D01*
X144890851Y-106183500D01*
X145109824Y-106148818D01*
X145320676Y-106080308D01*
X145518215Y-105979657D01*
X145697576Y-105849343D01*
X145854343Y-105692576D01*
X145948065Y-105563579D01*
X146004286Y-105520226D01*
X146075022Y-105514151D01*
X146137814Y-105547282D01*
G37*
G04 #@! TD.AperFunction*
G04 #@! TA.AperFunction,Conductor*
G36*
X129611581Y-101312372D02*
G01*
X129611582Y-101312372D01*
X129642701Y-101269541D01*
X129661453Y-101232740D01*
X129710201Y-101181125D01*
X129779116Y-101164059D01*
X129846318Y-101186960D01*
X129885985Y-101232738D01*
X129904871Y-101269803D01*
X130025932Y-101436430D01*
X130025934Y-101436432D01*
X130025936Y-101436435D01*
X130175070Y-101585569D01*
X130174268Y-101586370D01*
X130210136Y-101641301D01*
X130215500Y-101677674D01*
X130215500Y-101991523D01*
X130246570Y-102147722D01*
X130246572Y-102147727D01*
X130272016Y-102209154D01*
X130307516Y-102294859D01*
X130395996Y-102427279D01*
X131095700Y-103126982D01*
X131095721Y-103127005D01*
X131212715Y-103243999D01*
X131212719Y-103244002D01*
X131212720Y-103244003D01*
X131292100Y-103297042D01*
X131345140Y-103332483D01*
X131388236Y-103350333D01*
X131492278Y-103393430D01*
X131648479Y-103424500D01*
X136234733Y-103424500D01*
X136302854Y-103444502D01*
X136349347Y-103498158D01*
X136359451Y-103568432D01*
X136329957Y-103633012D01*
X136308794Y-103652436D01*
X136242421Y-103700658D01*
X136085658Y-103857421D01*
X135955345Y-104036781D01*
X135854693Y-104234322D01*
X135854690Y-104234328D01*
X135786183Y-104445170D01*
X135786182Y-104445175D01*
X135786182Y-104445176D01*
X135751500Y-104664149D01*
X135751500Y-104885851D01*
X135786182Y-105104824D01*
X135786183Y-105104829D01*
X135854690Y-105315671D01*
X135854692Y-105315676D01*
X135854693Y-105315677D01*
X135955345Y-105513218D01*
X136085658Y-105692578D01*
X136224485Y-105831405D01*
X136258511Y-105893717D01*
X136253446Y-105964532D01*
X136210899Y-106021368D01*
X136144379Y-106046179D01*
X136135390Y-106046500D01*
X132778415Y-106046500D01*
X132710294Y-106026498D01*
X132689320Y-106009595D01*
X128754134Y-102074409D01*
X128720108Y-102012097D01*
X128725173Y-101941282D01*
X128767720Y-101884446D01*
X128823519Y-101860865D01*
X128830295Y-101859791D01*
X129026093Y-101796173D01*
X129026099Y-101796170D01*
X129209541Y-101702701D01*
X129252372Y-101671582D01*
X128564789Y-100984000D01*
X128576661Y-100984000D01*
X128678394Y-100956741D01*
X128769606Y-100904080D01*
X128844080Y-100829606D01*
X128896741Y-100738394D01*
X128924000Y-100636661D01*
X128924000Y-100624791D01*
X129611581Y-101312372D01*
G37*
G04 #@! TD.AperFunction*
G04 #@! TA.AperFunction,Conductor*
G36*
X153068243Y-91950104D02*
G01*
X153080990Y-91949010D01*
X153101660Y-91959916D01*
X153124088Y-91966502D01*
X153132466Y-91976171D01*
X153143782Y-91982142D01*
X153155275Y-92002494D01*
X153170581Y-92020158D01*
X153172401Y-92032821D01*
X153178693Y-92043962D01*
X153177358Y-92067295D01*
X153180685Y-92090432D01*
X153175272Y-92103767D01*
X153174639Y-92114843D01*
X153157903Y-92146561D01*
X153100345Y-92225781D01*
X152999693Y-92423322D01*
X152999690Y-92423328D01*
X152931183Y-92634170D01*
X152931183Y-92634172D01*
X152931182Y-92634176D01*
X152896500Y-92853149D01*
X152896500Y-93074851D01*
X152929639Y-93284080D01*
X152931183Y-93293829D01*
X152999690Y-93504671D01*
X152999692Y-93504676D01*
X153100343Y-93702215D01*
X153100345Y-93702218D01*
X153230658Y-93881578D01*
X153387421Y-94038341D01*
X153448477Y-94082701D01*
X153566785Y-94168657D01*
X153764324Y-94269308D01*
X153975176Y-94337818D01*
X154194149Y-94372500D01*
X154194152Y-94372500D01*
X154415848Y-94372500D01*
X154415851Y-94372500D01*
X154634824Y-94337818D01*
X154845676Y-94269308D01*
X155043215Y-94168657D01*
X155222576Y-94038343D01*
X155379343Y-93881576D01*
X155509657Y-93702215D01*
X155610308Y-93504676D01*
X155678818Y-93293824D01*
X155713500Y-93074851D01*
X155713500Y-92853149D01*
X155678818Y-92634176D01*
X155610308Y-92423324D01*
X155509657Y-92225785D01*
X155452096Y-92146560D01*
X155428239Y-92079694D01*
X155444319Y-92010542D01*
X155495232Y-91961062D01*
X155554033Y-91946500D01*
X156357967Y-91946500D01*
X156426088Y-91966502D01*
X156472581Y-92020158D01*
X156482685Y-92090432D01*
X156459903Y-92146561D01*
X156402345Y-92225781D01*
X156301693Y-92423322D01*
X156301690Y-92423328D01*
X156233183Y-92634170D01*
X156233183Y-92634172D01*
X156233182Y-92634176D01*
X156198500Y-92853149D01*
X156198500Y-93074851D01*
X156231639Y-93284080D01*
X156233183Y-93293829D01*
X156301690Y-93504671D01*
X156301692Y-93504676D01*
X156402343Y-93702215D01*
X156402345Y-93702218D01*
X156532658Y-93881578D01*
X156689421Y-94038341D01*
X156750477Y-94082701D01*
X156868785Y-94168657D01*
X157066324Y-94269308D01*
X157277176Y-94337818D01*
X157496149Y-94372500D01*
X157496152Y-94372500D01*
X157717848Y-94372500D01*
X157717851Y-94372500D01*
X157936824Y-94337818D01*
X158147676Y-94269308D01*
X158314301Y-94184408D01*
X158317044Y-94183892D01*
X158319158Y-94182062D01*
X158351735Y-94177377D01*
X158384073Y-94171305D01*
X158386662Y-94172356D01*
X158389432Y-94171958D01*
X158419371Y-94185631D01*
X158449858Y-94198005D01*
X158451469Y-94200290D01*
X158454012Y-94201452D01*
X158471797Y-94229125D01*
X158490765Y-94256032D01*
X158491347Y-94259546D01*
X158492396Y-94261178D01*
X158497500Y-94296676D01*
X158497500Y-94427405D01*
X158477498Y-94495526D01*
X158460594Y-94516500D01*
X153901167Y-99075929D01*
X153859475Y-99117621D01*
X153838500Y-99138596D01*
X153776187Y-99172621D01*
X153749405Y-99175500D01*
X153356350Y-99175500D01*
X153295803Y-99182009D01*
X153295795Y-99182011D01*
X153158797Y-99233110D01*
X153158792Y-99233112D01*
X153041738Y-99320738D01*
X152954112Y-99437792D01*
X152954110Y-99437797D01*
X152903011Y-99574795D01*
X152903009Y-99574803D01*
X152896500Y-99635350D01*
X152896500Y-101532649D01*
X152903009Y-101593196D01*
X152903011Y-101593204D01*
X152954110Y-101730202D01*
X152954112Y-101730207D01*
X153041738Y-101847261D01*
X153158792Y-101934887D01*
X153158794Y-101934888D01*
X153158796Y-101934889D01*
X153213251Y-101955200D01*
X153295795Y-101985988D01*
X153295803Y-101985990D01*
X153356350Y-101992499D01*
X153356355Y-101992499D01*
X153356362Y-101992500D01*
X153545500Y-101992500D01*
X153613621Y-102012502D01*
X153660114Y-102066158D01*
X153671500Y-102118500D01*
X153671500Y-102555404D01*
X153651498Y-102623525D01*
X153634595Y-102644500D01*
X152896193Y-103382901D01*
X152833881Y-103416926D01*
X152768163Y-103413639D01*
X152729825Y-103401182D01*
X152675080Y-103392511D01*
X152510851Y-103366500D01*
X152289149Y-103366500D01*
X152070176Y-103401182D01*
X152070170Y-103401183D01*
X151859328Y-103469690D01*
X151859322Y-103469693D01*
X151661781Y-103570345D01*
X151482421Y-103700658D01*
X151325658Y-103857421D01*
X151231936Y-103986419D01*
X151175713Y-104029773D01*
X151104977Y-104035848D01*
X151042185Y-104002716D01*
X151028064Y-103986419D01*
X150934341Y-103857421D01*
X150777578Y-103700658D01*
X150598218Y-103570345D01*
X150598217Y-103570344D01*
X150598215Y-103570343D01*
X150400676Y-103469692D01*
X150400673Y-103469691D01*
X150400671Y-103469690D01*
X150189829Y-103401183D01*
X150189825Y-103401182D01*
X150189824Y-103401182D01*
X149970851Y-103366500D01*
X149749149Y-103366500D01*
X149530176Y-103401182D01*
X149530170Y-103401183D01*
X149319328Y-103469690D01*
X149319322Y-103469693D01*
X149121781Y-103570345D01*
X148942421Y-103700658D01*
X148785658Y-103857421D01*
X148691936Y-103986419D01*
X148635713Y-104029773D01*
X148564977Y-104035848D01*
X148502185Y-104002716D01*
X148488064Y-103986419D01*
X148394341Y-103857421D01*
X148237578Y-103700658D01*
X148058218Y-103570345D01*
X148058217Y-103570344D01*
X148058215Y-103570343D01*
X147860676Y-103469692D01*
X147860673Y-103469691D01*
X147860671Y-103469690D01*
X147649829Y-103401183D01*
X147649825Y-103401182D01*
X147649824Y-103401182D01*
X147430851Y-103366500D01*
X147209149Y-103366500D01*
X146990176Y-103401182D01*
X146990170Y-103401183D01*
X146779328Y-103469690D01*
X146779322Y-103469693D01*
X146581781Y-103570345D01*
X146402421Y-103700658D01*
X146245658Y-103857421D01*
X146151936Y-103986419D01*
X146095713Y-104029773D01*
X146024977Y-104035848D01*
X145962185Y-104002716D01*
X145948064Y-103986419D01*
X145854341Y-103857421D01*
X145697581Y-103700661D01*
X145697575Y-103700656D01*
X145614918Y-103640601D01*
X145601960Y-103623797D01*
X145585445Y-103610474D01*
X145577803Y-103592469D01*
X145571565Y-103584379D01*
X145569408Y-103578396D01*
X145566934Y-103570951D01*
X145557430Y-103523169D01*
X145526956Y-103449600D01*
X145496484Y-103376032D01*
X145408003Y-103243611D01*
X144808892Y-102644500D01*
X144181905Y-102017512D01*
X144147879Y-101955200D01*
X144145000Y-101928417D01*
X144145000Y-100956968D01*
X144225306Y-101003333D01*
X144339756Y-101034000D01*
X144458244Y-101034000D01*
X144572694Y-101003333D01*
X144653000Y-100956968D01*
X144653000Y-101992000D01*
X145347585Y-101992000D01*
X145347597Y-101991999D01*
X145408093Y-101985494D01*
X145544964Y-101934444D01*
X145544965Y-101934444D01*
X145661904Y-101846904D01*
X145749444Y-101729965D01*
X145749444Y-101729964D01*
X145800494Y-101593093D01*
X145806999Y-101532597D01*
X145807000Y-101532585D01*
X145807000Y-100838000D01*
X144771968Y-100838000D01*
X144818333Y-100757694D01*
X144849000Y-100643244D01*
X144849000Y-100524756D01*
X144818333Y-100410306D01*
X144771968Y-100330000D01*
X145807000Y-100330000D01*
X145807000Y-99635414D01*
X145806999Y-99635402D01*
X146293000Y-99635402D01*
X146293000Y-100330000D01*
X147328032Y-100330000D01*
X147281667Y-100410306D01*
X147251000Y-100524756D01*
X147251000Y-100643244D01*
X147281667Y-100757694D01*
X147328032Y-100838000D01*
X146293000Y-100838000D01*
X146293000Y-101532597D01*
X146299505Y-101593093D01*
X146350555Y-101729964D01*
X146350555Y-101729965D01*
X146438095Y-101846904D01*
X146555034Y-101934444D01*
X146691906Y-101985494D01*
X146752402Y-101991999D01*
X146752415Y-101992000D01*
X147447000Y-101992000D01*
X147447000Y-100956968D01*
X147527306Y-101003333D01*
X147641756Y-101034000D01*
X147760244Y-101034000D01*
X147874694Y-101003333D01*
X147955000Y-100956968D01*
X147955000Y-101992000D01*
X148649585Y-101992000D01*
X148649597Y-101991999D01*
X148710093Y-101985494D01*
X148846964Y-101934444D01*
X148846965Y-101934444D01*
X148963904Y-101846904D01*
X149051444Y-101729965D01*
X149051444Y-101729964D01*
X149102494Y-101593093D01*
X149108999Y-101532597D01*
X149109000Y-101532585D01*
X149109000Y-100838000D01*
X148073968Y-100838000D01*
X148120333Y-100757694D01*
X148151000Y-100643244D01*
X148151000Y-100524756D01*
X148120333Y-100410306D01*
X148073968Y-100330000D01*
X149109000Y-100330000D01*
X149109000Y-99635414D01*
X149108999Y-99635402D01*
X149595000Y-99635402D01*
X149595000Y-100330000D01*
X150630032Y-100330000D01*
X150583667Y-100410306D01*
X150553000Y-100524756D01*
X150553000Y-100643244D01*
X150583667Y-100757694D01*
X150630032Y-100838000D01*
X149595000Y-100838000D01*
X149595000Y-101532597D01*
X149601505Y-101593093D01*
X149652555Y-101729964D01*
X149652555Y-101729965D01*
X149740095Y-101846904D01*
X149857034Y-101934444D01*
X149993906Y-101985494D01*
X150054402Y-101991999D01*
X150054415Y-101992000D01*
X150749000Y-101992000D01*
X150749000Y-100956968D01*
X150829306Y-101003333D01*
X150943756Y-101034000D01*
X151062244Y-101034000D01*
X151176694Y-101003333D01*
X151257000Y-100956968D01*
X151257000Y-101992000D01*
X151951585Y-101992000D01*
X151951597Y-101991999D01*
X152012093Y-101985494D01*
X152148964Y-101934444D01*
X152148965Y-101934444D01*
X152265904Y-101846904D01*
X152353444Y-101729965D01*
X152353444Y-101729964D01*
X152404494Y-101593093D01*
X152410999Y-101532597D01*
X152411000Y-101532585D01*
X152411000Y-100838000D01*
X151375968Y-100838000D01*
X151422333Y-100757694D01*
X151453000Y-100643244D01*
X151453000Y-100524756D01*
X151422333Y-100410306D01*
X151375968Y-100330000D01*
X152411000Y-100330000D01*
X152411000Y-99635414D01*
X152410999Y-99635402D01*
X152404494Y-99574906D01*
X152353444Y-99438035D01*
X152353444Y-99438034D01*
X152265904Y-99321095D01*
X152148965Y-99233555D01*
X152012093Y-99182505D01*
X151951597Y-99176000D01*
X151257000Y-99176000D01*
X151257000Y-100211031D01*
X151176694Y-100164667D01*
X151062244Y-100134000D01*
X150943756Y-100134000D01*
X150829306Y-100164667D01*
X150749000Y-100211031D01*
X150749000Y-99176000D01*
X150054402Y-99176000D01*
X149993906Y-99182505D01*
X149857035Y-99233555D01*
X149857034Y-99233555D01*
X149740095Y-99321095D01*
X149652555Y-99438034D01*
X149652555Y-99438035D01*
X149601505Y-99574906D01*
X149595000Y-99635402D01*
X149108999Y-99635402D01*
X149102494Y-99574906D01*
X149051444Y-99438035D01*
X149051444Y-99438034D01*
X148963904Y-99321095D01*
X148846965Y-99233555D01*
X148710093Y-99182505D01*
X148649597Y-99176000D01*
X147955000Y-99176000D01*
X147955000Y-100211031D01*
X147874694Y-100164667D01*
X147760244Y-100134000D01*
X147641756Y-100134000D01*
X147527306Y-100164667D01*
X147447000Y-100211031D01*
X147447000Y-99176000D01*
X146752402Y-99176000D01*
X146691906Y-99182505D01*
X146555035Y-99233555D01*
X146555034Y-99233555D01*
X146438095Y-99321095D01*
X146350555Y-99438034D01*
X146350555Y-99438035D01*
X146299505Y-99574906D01*
X146293000Y-99635402D01*
X145806999Y-99635402D01*
X145800494Y-99574906D01*
X145749444Y-99438035D01*
X145749444Y-99438034D01*
X145661904Y-99321095D01*
X145544965Y-99233555D01*
X145408093Y-99182505D01*
X145347597Y-99176000D01*
X144653000Y-99176000D01*
X144653000Y-100211031D01*
X144572694Y-100164667D01*
X144458244Y-100134000D01*
X144339756Y-100134000D01*
X144225306Y-100164667D01*
X144145000Y-100211031D01*
X144145000Y-99176000D01*
X143450402Y-99176000D01*
X143389906Y-99182505D01*
X143253035Y-99233555D01*
X143253034Y-99233555D01*
X143136095Y-99321095D01*
X143048555Y-99438034D01*
X143048555Y-99438035D01*
X142997505Y-99574906D01*
X142991000Y-99635402D01*
X142991000Y-100330000D01*
X144026032Y-100330000D01*
X143979667Y-100410306D01*
X143949000Y-100524756D01*
X143949000Y-100643244D01*
X143979667Y-100757694D01*
X144026032Y-100838000D01*
X142991000Y-100838000D01*
X142991000Y-101532597D01*
X142997505Y-101593093D01*
X143014056Y-101637468D01*
X143019120Y-101708283D01*
X142985095Y-101770596D01*
X142922783Y-101804621D01*
X142896000Y-101807500D01*
X142600000Y-101807500D01*
X142531879Y-101787498D01*
X142485386Y-101733842D01*
X142475282Y-101663568D01*
X142481944Y-101637468D01*
X142498494Y-101593093D01*
X142504999Y-101532597D01*
X142505000Y-101532585D01*
X142505000Y-100838000D01*
X141469968Y-100838000D01*
X141516333Y-100757694D01*
X141547000Y-100643244D01*
X141547000Y-100524756D01*
X141516333Y-100410306D01*
X141469968Y-100330000D01*
X142505000Y-100330000D01*
X142505000Y-99635414D01*
X142504999Y-99635402D01*
X142498494Y-99574906D01*
X142447444Y-99438035D01*
X142447444Y-99438034D01*
X142359904Y-99321095D01*
X142242965Y-99233555D01*
X142106093Y-99182505D01*
X142045597Y-99176000D01*
X141351000Y-99176000D01*
X141351000Y-100211031D01*
X141270694Y-100164667D01*
X141156244Y-100134000D01*
X141037756Y-100134000D01*
X140923306Y-100164667D01*
X140843000Y-100211031D01*
X140843000Y-99176000D01*
X140148402Y-99176000D01*
X140087906Y-99182505D01*
X139951035Y-99233555D01*
X139951034Y-99233555D01*
X139834095Y-99321095D01*
X139746555Y-99438034D01*
X139746555Y-99438035D01*
X139695505Y-99574906D01*
X139689000Y-99635402D01*
X139689000Y-100330000D01*
X140724032Y-100330000D01*
X140677667Y-100410306D01*
X140647000Y-100524756D01*
X140647000Y-100643244D01*
X140677667Y-100757694D01*
X140724032Y-100838000D01*
X139689000Y-100838000D01*
X139689000Y-101532597D01*
X139695505Y-101593093D01*
X139712056Y-101637468D01*
X139717120Y-101708283D01*
X139683095Y-101770596D01*
X139620783Y-101804621D01*
X139594000Y-101807500D01*
X139298534Y-101807500D01*
X139230413Y-101787498D01*
X139183920Y-101733842D01*
X139173816Y-101663568D01*
X139180478Y-101637467D01*
X139183904Y-101628282D01*
X139196989Y-101593201D01*
X139197724Y-101586370D01*
X139203499Y-101532649D01*
X139203500Y-101532632D01*
X139203500Y-99635367D01*
X139203499Y-99635350D01*
X139196990Y-99574803D01*
X139196988Y-99574795D01*
X139167753Y-99496416D01*
X139145889Y-99437796D01*
X139145888Y-99437794D01*
X139145887Y-99437792D01*
X139058261Y-99320738D01*
X138941207Y-99233112D01*
X138941202Y-99233110D01*
X138804204Y-99182011D01*
X138804196Y-99182009D01*
X138743649Y-99175500D01*
X138743638Y-99175500D01*
X136846362Y-99175500D01*
X136846350Y-99175500D01*
X136785803Y-99182009D01*
X136785795Y-99182011D01*
X136648797Y-99233110D01*
X136648792Y-99233112D01*
X136531738Y-99320738D01*
X136444112Y-99437792D01*
X136444110Y-99437797D01*
X136393011Y-99574795D01*
X136393009Y-99574803D01*
X136386500Y-99635350D01*
X136386500Y-101532649D01*
X136393009Y-101593196D01*
X136393010Y-101593197D01*
X136393010Y-101593199D01*
X136393011Y-101593201D01*
X136394958Y-101598421D01*
X136409522Y-101637467D01*
X136414587Y-101708283D01*
X136380562Y-101770595D01*
X136318250Y-101804620D01*
X136291466Y-101807500D01*
X135996534Y-101807500D01*
X135928413Y-101787498D01*
X135881920Y-101733842D01*
X135871816Y-101663568D01*
X135878478Y-101637467D01*
X135881904Y-101628282D01*
X135894989Y-101593201D01*
X135895724Y-101586370D01*
X135901499Y-101532649D01*
X135901500Y-101532632D01*
X135901500Y-99635367D01*
X135901499Y-99635350D01*
X135894990Y-99574803D01*
X135894988Y-99574795D01*
X135865753Y-99496416D01*
X135843889Y-99437796D01*
X135843888Y-99437794D01*
X135843887Y-99437792D01*
X135756261Y-99320738D01*
X135639207Y-99233112D01*
X135639202Y-99233110D01*
X135502204Y-99182011D01*
X135502196Y-99182009D01*
X135441649Y-99175500D01*
X135441638Y-99175500D01*
X135252500Y-99175500D01*
X135184379Y-99155498D01*
X135137886Y-99101842D01*
X135126500Y-99049500D01*
X135126500Y-98104594D01*
X135146502Y-98036473D01*
X135163405Y-98015499D01*
X136877499Y-96301405D01*
X136939811Y-96267379D01*
X136966594Y-96264500D01*
X150049393Y-96264500D01*
X150049394Y-96264500D01*
X150171785Y-96240155D01*
X150287075Y-96192400D01*
X150390833Y-96123071D01*
X151495071Y-95018833D01*
X151564400Y-94915075D01*
X151612155Y-94799785D01*
X151636500Y-94677394D01*
X151636500Y-94552606D01*
X151636500Y-94299224D01*
X151656502Y-94231103D01*
X151705299Y-94186956D01*
X151741215Y-94168657D01*
X151920576Y-94038343D01*
X152077343Y-93881576D01*
X152207657Y-93702215D01*
X152308308Y-93504676D01*
X152376818Y-93293824D01*
X152411500Y-93074851D01*
X152411500Y-92853149D01*
X152376818Y-92634176D01*
X152308308Y-92423324D01*
X152207657Y-92225785D01*
X152150096Y-92146560D01*
X152126239Y-92079694D01*
X152142319Y-92010542D01*
X152193232Y-91961062D01*
X152252033Y-91946500D01*
X153055967Y-91946500D01*
X153068243Y-91950104D01*
G37*
G04 #@! TD.AperFunction*
G04 #@! TA.AperFunction,Conductor*
G36*
X172586621Y-75025502D02*
G01*
X172633114Y-75079158D01*
X172644500Y-75131500D01*
X172644500Y-120448500D01*
X172624498Y-120516621D01*
X172570842Y-120563114D01*
X172518500Y-120574500D01*
X119581500Y-120574500D01*
X119513379Y-120554498D01*
X119466886Y-120500842D01*
X119455500Y-120448500D01*
X119455500Y-119626909D01*
X134399772Y-119626909D01*
X157372515Y-119626909D01*
X157372515Y-116795522D01*
X134399772Y-116795522D01*
X134399772Y-119626909D01*
X119455500Y-119626909D01*
X119455500Y-108379350D01*
X123921500Y-108379350D01*
X123921500Y-111076649D01*
X123928009Y-111137196D01*
X123928011Y-111137204D01*
X123979110Y-111274202D01*
X123979112Y-111274207D01*
X124066738Y-111391261D01*
X124183792Y-111478887D01*
X124183794Y-111478888D01*
X124183796Y-111478889D01*
X124242875Y-111500924D01*
X124320795Y-111529988D01*
X124320803Y-111529990D01*
X124381350Y-111536499D01*
X124381355Y-111536499D01*
X124381362Y-111536500D01*
X124381368Y-111536500D01*
X127078632Y-111536500D01*
X127078638Y-111536500D01*
X127078645Y-111536499D01*
X127078649Y-111536499D01*
X127139196Y-111529990D01*
X127139199Y-111529989D01*
X127139201Y-111529989D01*
X127276204Y-111478889D01*
X127322549Y-111444196D01*
X127393261Y-111391261D01*
X127480887Y-111274207D01*
X127480887Y-111274206D01*
X127480889Y-111274204D01*
X127531989Y-111137201D01*
X127538500Y-111076638D01*
X127538500Y-108379362D01*
X127538499Y-108379350D01*
X127531990Y-108318803D01*
X127531988Y-108318795D01*
X127499392Y-108231405D01*
X127480889Y-108181796D01*
X127480888Y-108181794D01*
X127480887Y-108181792D01*
X127393261Y-108064738D01*
X127276207Y-107977112D01*
X127276202Y-107977110D01*
X127139204Y-107926011D01*
X127139196Y-107926009D01*
X127078649Y-107919500D01*
X127078638Y-107919500D01*
X124381362Y-107919500D01*
X124381350Y-107919500D01*
X124320803Y-107926009D01*
X124320795Y-107926011D01*
X124183797Y-107977110D01*
X124183792Y-107977112D01*
X124066738Y-108064738D01*
X123979112Y-108181792D01*
X123979110Y-108181797D01*
X123928011Y-108318795D01*
X123928009Y-108318803D01*
X123921500Y-108379350D01*
X119455500Y-108379350D01*
X119455500Y-97727603D01*
X122810500Y-97727603D01*
X122810500Y-97727606D01*
X122810500Y-100013606D01*
X122810500Y-100138394D01*
X122834845Y-100260785D01*
X122882600Y-100376075D01*
X122951929Y-100479833D01*
X124475929Y-102003833D01*
X124564167Y-102092071D01*
X124667925Y-102161400D01*
X124783215Y-102209155D01*
X124905606Y-102233500D01*
X125796406Y-102233500D01*
X125864527Y-102253502D01*
X125885501Y-102270405D01*
X131380160Y-107765064D01*
X131414186Y-107827376D01*
X131409121Y-107898191D01*
X131366574Y-107955027D01*
X131300054Y-107979838D01*
X131258454Y-107975866D01*
X131163571Y-107950442D01*
X130928537Y-107919500D01*
X130928535Y-107919500D01*
X130691465Y-107919500D01*
X130691462Y-107919500D01*
X130456429Y-107950442D01*
X130227434Y-108011801D01*
X130227430Y-108011803D01*
X130099634Y-108064738D01*
X130008403Y-108102527D01*
X130008392Y-108102532D01*
X129803099Y-108221058D01*
X129803093Y-108221062D01*
X129615020Y-108365376D01*
X129614999Y-108365395D01*
X129447395Y-108532999D01*
X129447376Y-108533020D01*
X129303062Y-108721093D01*
X129303058Y-108721099D01*
X129184532Y-108926392D01*
X129184527Y-108926403D01*
X129184526Y-108926405D01*
X129179828Y-108937748D01*
X129093803Y-109145430D01*
X129093801Y-109145434D01*
X129032442Y-109374429D01*
X129001500Y-109609462D01*
X129001500Y-109846537D01*
X129032442Y-110081570D01*
X129093801Y-110310565D01*
X129093802Y-110310567D01*
X129093803Y-110310570D01*
X129184526Y-110529595D01*
X129184527Y-110529596D01*
X129184532Y-110529607D01*
X129303058Y-110734900D01*
X129303062Y-110734906D01*
X129447376Y-110922979D01*
X129447395Y-110923000D01*
X129614999Y-111090604D01*
X129615009Y-111090613D01*
X129615015Y-111090619D01*
X129615018Y-111090621D01*
X129615020Y-111090623D01*
X129803093Y-111234937D01*
X129803099Y-111234941D01*
X130008392Y-111353467D01*
X130008396Y-111353468D01*
X130008405Y-111353474D01*
X130227430Y-111444197D01*
X130456422Y-111505556D01*
X130456428Y-111505556D01*
X130456429Y-111505557D01*
X130483400Y-111509107D01*
X130691465Y-111536500D01*
X130691472Y-111536500D01*
X130928528Y-111536500D01*
X130928535Y-111536500D01*
X131163578Y-111505556D01*
X131392570Y-111444197D01*
X131611595Y-111353474D01*
X131816904Y-111234939D01*
X132004985Y-111090619D01*
X132172619Y-110922985D01*
X132316939Y-110734904D01*
X132435474Y-110529595D01*
X132526197Y-110310570D01*
X132587556Y-110081578D01*
X132618500Y-109846535D01*
X132618500Y-109609465D01*
X132587556Y-109374422D01*
X132526197Y-109145430D01*
X132435474Y-108926405D01*
X132435468Y-108926396D01*
X132435467Y-108926392D01*
X132316941Y-108721099D01*
X132316937Y-108721093D01*
X132172623Y-108533020D01*
X132172621Y-108533018D01*
X132172619Y-108533015D01*
X132172613Y-108533009D01*
X132172604Y-108532999D01*
X132068222Y-108428617D01*
X132034196Y-108366305D01*
X132039261Y-108295490D01*
X132081808Y-108238654D01*
X132148328Y-108213843D01*
X132157317Y-108213522D01*
X138189134Y-108213522D01*
X138257255Y-108233524D01*
X138303748Y-108287180D01*
X138313852Y-108357454D01*
X138284358Y-108422034D01*
X138224632Y-108460418D01*
X138208852Y-108463969D01*
X138100176Y-108481182D01*
X138100170Y-108481183D01*
X137889328Y-108549690D01*
X137889322Y-108549693D01*
X137691781Y-108650345D01*
X137512421Y-108780658D01*
X137355658Y-108937421D01*
X137225345Y-109116781D01*
X137124693Y-109314322D01*
X137124690Y-109314328D01*
X137056183Y-109525170D01*
X137056182Y-109525175D01*
X137056182Y-109525176D01*
X137021500Y-109744149D01*
X137021500Y-109965851D01*
X137052568Y-110162007D01*
X137056183Y-110184829D01*
X137124690Y-110395671D01*
X137124692Y-110395676D01*
X137225343Y-110593215D01*
X137225345Y-110593218D01*
X137355658Y-110772578D01*
X137512421Y-110929341D01*
X137512424Y-110929343D01*
X137691785Y-111059657D01*
X137889324Y-111160308D01*
X138100176Y-111228818D01*
X138319149Y-111263500D01*
X138319152Y-111263500D01*
X138540848Y-111263500D01*
X138540851Y-111263500D01*
X138759824Y-111228818D01*
X138970676Y-111160308D01*
X139168215Y-111059657D01*
X139347576Y-110929343D01*
X139504343Y-110772576D01*
X139598065Y-110643579D01*
X139654286Y-110600226D01*
X139725022Y-110594151D01*
X139787814Y-110627282D01*
X139801932Y-110643576D01*
X139895657Y-110772576D01*
X139895659Y-110772578D01*
X139895661Y-110772581D01*
X140052421Y-110929341D01*
X140052424Y-110929343D01*
X140231785Y-111059657D01*
X140429324Y-111160308D01*
X140640176Y-111228818D01*
X140859149Y-111263500D01*
X140859152Y-111263500D01*
X141080848Y-111263500D01*
X141080851Y-111263500D01*
X141299824Y-111228818D01*
X141510676Y-111160308D01*
X141708215Y-111059657D01*
X141887576Y-110929343D01*
X142044343Y-110772576D01*
X142138065Y-110643579D01*
X142194286Y-110600226D01*
X142265022Y-110594151D01*
X142327814Y-110627282D01*
X142341932Y-110643576D01*
X142435657Y-110772576D01*
X142435659Y-110772578D01*
X142435661Y-110772581D01*
X142592421Y-110929341D01*
X142592424Y-110929343D01*
X142771785Y-111059657D01*
X142969324Y-111160308D01*
X143180176Y-111228818D01*
X143399149Y-111263500D01*
X143399152Y-111263500D01*
X143620848Y-111263500D01*
X143620851Y-111263500D01*
X143839824Y-111228818D01*
X144050676Y-111160308D01*
X144248215Y-111059657D01*
X144427576Y-110929343D01*
X144584343Y-110772576D01*
X144678373Y-110643154D01*
X144734594Y-110599802D01*
X144805330Y-110593727D01*
X144868122Y-110626858D01*
X144882244Y-110643155D01*
X144976043Y-110772257D01*
X145132746Y-110928960D01*
X145312043Y-111059227D01*
X145509514Y-111159843D01*
X145509516Y-111159844D01*
X145720289Y-111228329D01*
X145796000Y-111240320D01*
X145796000Y-110285702D01*
X145857007Y-110320925D01*
X145984174Y-110355000D01*
X146115826Y-110355000D01*
X146242993Y-110320925D01*
X146304000Y-110285702D01*
X146304000Y-111240320D01*
X146379709Y-111228329D01*
X146379711Y-111228329D01*
X146590483Y-111159844D01*
X146590485Y-111159843D01*
X146787956Y-111059227D01*
X146967253Y-110928960D01*
X147123957Y-110772256D01*
X147123959Y-110772253D01*
X147217755Y-110643156D01*
X147273977Y-110599802D01*
X147344714Y-110593727D01*
X147407505Y-110626858D01*
X147421627Y-110643156D01*
X147515658Y-110772578D01*
X147672421Y-110929341D01*
X147672424Y-110929343D01*
X147851785Y-111059657D01*
X148049324Y-111160308D01*
X148260176Y-111228818D01*
X148479149Y-111263500D01*
X148479152Y-111263500D01*
X148700848Y-111263500D01*
X148700851Y-111263500D01*
X148919824Y-111228818D01*
X149130676Y-111160308D01*
X149328215Y-111059657D01*
X149507576Y-110929343D01*
X149664343Y-110772576D01*
X149758065Y-110643579D01*
X149814286Y-110600226D01*
X149885022Y-110594151D01*
X149947814Y-110627282D01*
X149961932Y-110643576D01*
X150055657Y-110772576D01*
X150055659Y-110772578D01*
X150055661Y-110772581D01*
X150212421Y-110929341D01*
X150212424Y-110929343D01*
X150391785Y-111059657D01*
X150589324Y-111160308D01*
X150800176Y-111228818D01*
X151019149Y-111263500D01*
X151019152Y-111263500D01*
X151240848Y-111263500D01*
X151240851Y-111263500D01*
X151459824Y-111228818D01*
X151670676Y-111160308D01*
X151868215Y-111059657D01*
X152047576Y-110929343D01*
X152204343Y-110772576D01*
X152298065Y-110643579D01*
X152354286Y-110600226D01*
X152425022Y-110594151D01*
X152487814Y-110627282D01*
X152501932Y-110643576D01*
X152595657Y-110772576D01*
X152595659Y-110772578D01*
X152595661Y-110772581D01*
X152752421Y-110929341D01*
X152752424Y-110929343D01*
X152931785Y-111059657D01*
X153129324Y-111160308D01*
X153340176Y-111228818D01*
X153559149Y-111263500D01*
X153559152Y-111263500D01*
X153780848Y-111263500D01*
X153780851Y-111263500D01*
X153999824Y-111228818D01*
X154210676Y-111160308D01*
X154408215Y-111059657D01*
X154587576Y-110929343D01*
X154744343Y-110772576D01*
X154874657Y-110593215D01*
X154975308Y-110395676D01*
X155043818Y-110184824D01*
X155078500Y-109965851D01*
X155078500Y-109744149D01*
X155043818Y-109525176D01*
X154975308Y-109314324D01*
X154874657Y-109116785D01*
X154829946Y-109055246D01*
X154744341Y-108937421D01*
X154587578Y-108780658D01*
X154470309Y-108695457D01*
X154426955Y-108639234D01*
X154420880Y-108568498D01*
X154454012Y-108505707D01*
X154515832Y-108470795D01*
X154544370Y-108467521D01*
X159355500Y-108467521D01*
X159423621Y-108487523D01*
X159470114Y-108541179D01*
X159481500Y-108593521D01*
X159481500Y-111076649D01*
X159488009Y-111137196D01*
X159488011Y-111137204D01*
X159539110Y-111274202D01*
X159539112Y-111274207D01*
X159626738Y-111391261D01*
X159743792Y-111478887D01*
X159743794Y-111478888D01*
X159743796Y-111478889D01*
X159802875Y-111500924D01*
X159880795Y-111529988D01*
X159880803Y-111529990D01*
X159941350Y-111536499D01*
X159941355Y-111536499D01*
X159941362Y-111536500D01*
X159941368Y-111536500D01*
X162638632Y-111536500D01*
X162638638Y-111536500D01*
X162638645Y-111536499D01*
X162638649Y-111536499D01*
X162699196Y-111529990D01*
X162699199Y-111529989D01*
X162699201Y-111529989D01*
X162836204Y-111478889D01*
X162882549Y-111444196D01*
X162953261Y-111391261D01*
X163040887Y-111274207D01*
X163040887Y-111274206D01*
X163040889Y-111274204D01*
X163091989Y-111137201D01*
X163098500Y-111076638D01*
X163098500Y-109609462D01*
X164561500Y-109609462D01*
X164561500Y-109846537D01*
X164592442Y-110081570D01*
X164653801Y-110310565D01*
X164653802Y-110310567D01*
X164653803Y-110310570D01*
X164744526Y-110529595D01*
X164744527Y-110529596D01*
X164744532Y-110529607D01*
X164863058Y-110734900D01*
X164863062Y-110734906D01*
X165007376Y-110922979D01*
X165007395Y-110923000D01*
X165174999Y-111090604D01*
X165175009Y-111090613D01*
X165175015Y-111090619D01*
X165175018Y-111090621D01*
X165175020Y-111090623D01*
X165363093Y-111234937D01*
X165363099Y-111234941D01*
X165568392Y-111353467D01*
X165568396Y-111353468D01*
X165568405Y-111353474D01*
X165787430Y-111444197D01*
X166016422Y-111505556D01*
X166016428Y-111505556D01*
X166016429Y-111505557D01*
X166043400Y-111509107D01*
X166251465Y-111536500D01*
X166251472Y-111536500D01*
X166488528Y-111536500D01*
X166488535Y-111536500D01*
X166723578Y-111505556D01*
X166952570Y-111444197D01*
X167171595Y-111353474D01*
X167376904Y-111234939D01*
X167564985Y-111090619D01*
X167732619Y-110922985D01*
X167876939Y-110734904D01*
X167995474Y-110529595D01*
X168086197Y-110310570D01*
X168147556Y-110081578D01*
X168178500Y-109846535D01*
X168178500Y-109609465D01*
X168147556Y-109374422D01*
X168086197Y-109145430D01*
X167995474Y-108926405D01*
X167995468Y-108926396D01*
X167995467Y-108926392D01*
X167876941Y-108721099D01*
X167876937Y-108721093D01*
X167732623Y-108533020D01*
X167732621Y-108533018D01*
X167732619Y-108533015D01*
X167732613Y-108533009D01*
X167732604Y-108532999D01*
X167565000Y-108365395D01*
X167564979Y-108365376D01*
X167376906Y-108221062D01*
X167376900Y-108221058D01*
X167171607Y-108102532D01*
X167171599Y-108102528D01*
X167171595Y-108102526D01*
X166952570Y-108011803D01*
X166952567Y-108011802D01*
X166952565Y-108011801D01*
X166764483Y-107961404D01*
X166723578Y-107950444D01*
X166723576Y-107950443D01*
X166723570Y-107950442D01*
X166488537Y-107919500D01*
X166488535Y-107919500D01*
X166251465Y-107919500D01*
X166251462Y-107919500D01*
X166016429Y-107950442D01*
X165787434Y-108011801D01*
X165787430Y-108011803D01*
X165659634Y-108064738D01*
X165568403Y-108102527D01*
X165568392Y-108102532D01*
X165363099Y-108221058D01*
X165363093Y-108221062D01*
X165175020Y-108365376D01*
X165174999Y-108365395D01*
X165007395Y-108532999D01*
X165007376Y-108533020D01*
X164863062Y-108721093D01*
X164863058Y-108721099D01*
X164744532Y-108926392D01*
X164744527Y-108926403D01*
X164744526Y-108926405D01*
X164739828Y-108937748D01*
X164653803Y-109145430D01*
X164653801Y-109145434D01*
X164592442Y-109374429D01*
X164561500Y-109609462D01*
X163098500Y-109609462D01*
X163098500Y-108379362D01*
X163098499Y-108379350D01*
X163091990Y-108318803D01*
X163091988Y-108318795D01*
X163059392Y-108231405D01*
X163040889Y-108181796D01*
X163040888Y-108181794D01*
X163040887Y-108181792D01*
X162953261Y-108064738D01*
X162836207Y-107977112D01*
X162836202Y-107977110D01*
X162699204Y-107926011D01*
X162699196Y-107926009D01*
X162638649Y-107919500D01*
X162638638Y-107919500D01*
X161268415Y-107919500D01*
X161200294Y-107899498D01*
X161153801Y-107845842D01*
X161143697Y-107775568D01*
X161173191Y-107710988D01*
X161179320Y-107704405D01*
X166613320Y-102270405D01*
X166675632Y-102236379D01*
X166702415Y-102233500D01*
X168337393Y-102233500D01*
X168337394Y-102233500D01*
X168459785Y-102209155D01*
X168575075Y-102161400D01*
X168678833Y-102092071D01*
X170164071Y-100606833D01*
X170233400Y-100503075D01*
X170281155Y-100387785D01*
X170305500Y-100265394D01*
X170305500Y-100140607D01*
X170305500Y-95372606D01*
X170281155Y-95250215D01*
X170233400Y-95134925D01*
X170164071Y-95031167D01*
X170075833Y-94942929D01*
X168889833Y-93756929D01*
X168838253Y-93722464D01*
X168800497Y-93697236D01*
X168754970Y-93642758D01*
X168744500Y-93592471D01*
X168744500Y-93350367D01*
X168744499Y-93350350D01*
X168737990Y-93289803D01*
X168737988Y-93289795D01*
X168686889Y-93152797D01*
X168686887Y-93152792D01*
X168599261Y-93035738D01*
X168482207Y-92948112D01*
X168482202Y-92948110D01*
X168345204Y-92897011D01*
X168345196Y-92897009D01*
X168284649Y-92890500D01*
X168284638Y-92890500D01*
X166487362Y-92890500D01*
X166487350Y-92890500D01*
X166426803Y-92897009D01*
X166426795Y-92897011D01*
X166289797Y-92948110D01*
X166289792Y-92948112D01*
X166172738Y-93035738D01*
X166085112Y-93152792D01*
X166085110Y-93152797D01*
X166034011Y-93289795D01*
X166034009Y-93289803D01*
X166027500Y-93350350D01*
X166027500Y-95147649D01*
X166034009Y-95208196D01*
X166034011Y-95208204D01*
X166085110Y-95345202D01*
X166085112Y-95345207D01*
X166172738Y-95462261D01*
X166289791Y-95549886D01*
X166289792Y-95549886D01*
X166289796Y-95549889D01*
X166407711Y-95593869D01*
X166464543Y-95636414D01*
X166489354Y-95702934D01*
X166474263Y-95772308D01*
X166452771Y-95801018D01*
X166349794Y-95903995D01*
X166224108Y-96076987D01*
X166127029Y-96267515D01*
X166127026Y-96267521D01*
X166060952Y-96470878D01*
X166060951Y-96470883D01*
X166060951Y-96470884D01*
X166027500Y-96682084D01*
X166027500Y-96895916D01*
X166060951Y-97107116D01*
X166060952Y-97107121D01*
X166069715Y-97134090D01*
X166127028Y-97310483D01*
X166224106Y-97501009D01*
X166224108Y-97501012D01*
X166232250Y-97512218D01*
X166349794Y-97674004D01*
X166349796Y-97674006D01*
X166349798Y-97674009D01*
X166500990Y-97825201D01*
X166500993Y-97825203D01*
X166500996Y-97825206D01*
X166673991Y-97950894D01*
X166673996Y-97950896D01*
X166675088Y-97951566D01*
X166675418Y-97951931D01*
X166677996Y-97953804D01*
X166677602Y-97954345D01*
X166722721Y-98004213D01*
X166734328Y-98074255D01*
X166706226Y-98139453D01*
X166677870Y-98164023D01*
X166677996Y-98164196D01*
X166675982Y-98165658D01*
X166675088Y-98166434D01*
X166673987Y-98167108D01*
X166500993Y-98292796D01*
X166500990Y-98292798D01*
X166349798Y-98443990D01*
X166349796Y-98443993D01*
X166224108Y-98616987D01*
X166127029Y-98807515D01*
X166127026Y-98807521D01*
X166060952Y-99010878D01*
X166060951Y-99010883D01*
X166060951Y-99010884D01*
X166027500Y-99222084D01*
X166027500Y-99435916D01*
X166060951Y-99647116D01*
X166060952Y-99647119D01*
X166064319Y-99657481D01*
X166066347Y-99728448D01*
X166033581Y-99785513D01*
X159555501Y-106263595D01*
X159493189Y-106297621D01*
X159466406Y-106300500D01*
X156231521Y-106300500D01*
X156163400Y-106280498D01*
X156116907Y-106226842D01*
X156106803Y-106156568D01*
X156136297Y-106091988D01*
X156156011Y-106073632D01*
X156171238Y-106062233D01*
X156203261Y-106038261D01*
X156290889Y-105921204D01*
X156341989Y-105784201D01*
X156342359Y-105780768D01*
X156348499Y-105723649D01*
X156348500Y-105723632D01*
X156348500Y-103826367D01*
X156348499Y-103826350D01*
X156341990Y-103765803D01*
X156341988Y-103765795D01*
X156295292Y-103640601D01*
X156290889Y-103628796D01*
X156290888Y-103628794D01*
X156290887Y-103628792D01*
X156203261Y-103511738D01*
X156086207Y-103424112D01*
X156086202Y-103424110D01*
X155949204Y-103373011D01*
X155949196Y-103373009D01*
X155888649Y-103366500D01*
X155888638Y-103366500D01*
X154970882Y-103366500D01*
X154902761Y-103346498D01*
X154856268Y-103292842D01*
X154846164Y-103222568D01*
X154864068Y-103175845D01*
X154863483Y-103175532D01*
X154865976Y-103170867D01*
X154866119Y-103170495D01*
X154866400Y-103170075D01*
X154914155Y-103054785D01*
X154938500Y-102932394D01*
X154938500Y-102807606D01*
X154938500Y-102118500D01*
X154958502Y-102050379D01*
X155012158Y-102003886D01*
X155064500Y-101992500D01*
X155253632Y-101992500D01*
X155253638Y-101992500D01*
X155253645Y-101992499D01*
X155253649Y-101992499D01*
X155314196Y-101985990D01*
X155314199Y-101985989D01*
X155314201Y-101985989D01*
X155451204Y-101934889D01*
X155451799Y-101934444D01*
X155568261Y-101847261D01*
X155655887Y-101730207D01*
X155655887Y-101730206D01*
X155655889Y-101730204D01*
X155706989Y-101593201D01*
X155706989Y-101593199D01*
X155706990Y-101593196D01*
X155713499Y-101532649D01*
X155713500Y-101532632D01*
X155713500Y-99635367D01*
X155713499Y-99635350D01*
X155706990Y-99574803D01*
X155706988Y-99574795D01*
X155677753Y-99496416D01*
X155655889Y-99437796D01*
X155606507Y-99371829D01*
X155582275Y-99339458D01*
X155557464Y-99272938D01*
X155572556Y-99203563D01*
X155594044Y-99174858D01*
X158790407Y-95978496D01*
X158852717Y-95944472D01*
X158923533Y-95949537D01*
X158980368Y-95992084D01*
X159005179Y-96058604D01*
X159005500Y-96067593D01*
X159005500Y-97348406D01*
X158985498Y-97416527D01*
X158968595Y-97437501D01*
X157267501Y-99138595D01*
X157205189Y-99172621D01*
X157178406Y-99175500D01*
X156658350Y-99175500D01*
X156597803Y-99182009D01*
X156597795Y-99182011D01*
X156460797Y-99233110D01*
X156460792Y-99233112D01*
X156343738Y-99320738D01*
X156256112Y-99437792D01*
X156256110Y-99437797D01*
X156205011Y-99574795D01*
X156205009Y-99574803D01*
X156198500Y-99635350D01*
X156198500Y-101532649D01*
X156205009Y-101593196D01*
X156205011Y-101593204D01*
X156256110Y-101730202D01*
X156256112Y-101730207D01*
X156343738Y-101847261D01*
X156460792Y-101934887D01*
X156460794Y-101934888D01*
X156460796Y-101934889D01*
X156515251Y-101955200D01*
X156597795Y-101985988D01*
X156597803Y-101985990D01*
X156658350Y-101992499D01*
X156658355Y-101992499D01*
X156658362Y-101992500D01*
X156658368Y-101992500D01*
X158555632Y-101992500D01*
X158555638Y-101992500D01*
X158555645Y-101992499D01*
X158555649Y-101992499D01*
X158616196Y-101985990D01*
X158616199Y-101985989D01*
X158616201Y-101985989D01*
X158753204Y-101934889D01*
X158753799Y-101934444D01*
X158870261Y-101847261D01*
X158957887Y-101730207D01*
X158957887Y-101730206D01*
X158957889Y-101730204D01*
X159008989Y-101593201D01*
X159008989Y-101593199D01*
X159008990Y-101593196D01*
X159015499Y-101532649D01*
X159015500Y-101532632D01*
X159015500Y-99635367D01*
X159015499Y-99635350D01*
X159008990Y-99574803D01*
X159008988Y-99574795D01*
X158957890Y-99437798D01*
X158957888Y-99437795D01*
X158957886Y-99437792D01*
X158938644Y-99412088D01*
X158913833Y-99345570D01*
X158928924Y-99276196D01*
X158950413Y-99247489D01*
X159980221Y-98217682D01*
X160042529Y-98183659D01*
X160082791Y-98181503D01*
X160087405Y-98181999D01*
X160087415Y-98182000D01*
X160782000Y-98182000D01*
X160782000Y-97146968D01*
X160862306Y-97193333D01*
X160976756Y-97224000D01*
X161095244Y-97224000D01*
X161209694Y-97193333D01*
X161290000Y-97146968D01*
X161290000Y-98182000D01*
X161984585Y-98182000D01*
X161984597Y-98181999D01*
X162045093Y-98175494D01*
X162181964Y-98124444D01*
X162181965Y-98124444D01*
X162298904Y-98036904D01*
X162386444Y-97919965D01*
X162411270Y-97853404D01*
X162453817Y-97796568D01*
X162520337Y-97771757D01*
X162589711Y-97786848D01*
X162618421Y-97808341D01*
X162658421Y-97848341D01*
X162688096Y-97869901D01*
X162837785Y-97978657D01*
X163035324Y-98079308D01*
X163246176Y-98147818D01*
X163465149Y-98182500D01*
X163465152Y-98182500D01*
X163686848Y-98182500D01*
X163686851Y-98182500D01*
X163905824Y-98147818D01*
X164116676Y-98079308D01*
X164314215Y-97978657D01*
X164493576Y-97848343D01*
X164650343Y-97691576D01*
X164780657Y-97512215D01*
X164881308Y-97314676D01*
X164949818Y-97103824D01*
X164984500Y-96884851D01*
X164984500Y-96663149D01*
X164949818Y-96444176D01*
X164881308Y-96233324D01*
X164780657Y-96035785D01*
X164650343Y-95856424D01*
X164650341Y-95856421D01*
X164493578Y-95699658D01*
X164314218Y-95569345D01*
X164314217Y-95569344D01*
X164314215Y-95569343D01*
X164116676Y-95468692D01*
X164116673Y-95468691D01*
X164116671Y-95468690D01*
X163905829Y-95400183D01*
X163905825Y-95400182D01*
X163905824Y-95400182D01*
X163686851Y-95365500D01*
X163465149Y-95365500D01*
X163246176Y-95400182D01*
X163246170Y-95400183D01*
X163035328Y-95468690D01*
X163035322Y-95468693D01*
X162837781Y-95569345D01*
X162658421Y-95699658D01*
X162618420Y-95739659D01*
X162556108Y-95773684D01*
X162485292Y-95768618D01*
X162428457Y-95726071D01*
X162411270Y-95694596D01*
X162386443Y-95628033D01*
X162298904Y-95511095D01*
X162181965Y-95423555D01*
X162045093Y-95372505D01*
X161984597Y-95366000D01*
X161290000Y-95366000D01*
X161290000Y-96401031D01*
X161209694Y-96354667D01*
X161095244Y-96324000D01*
X160976756Y-96324000D01*
X160862306Y-96354667D01*
X160782000Y-96401031D01*
X160782000Y-95366000D01*
X160398500Y-95366000D01*
X160330379Y-95345998D01*
X160283886Y-95292342D01*
X160272500Y-95240000D01*
X160272500Y-91758607D01*
X160272499Y-91758603D01*
X160271151Y-91751826D01*
X160248155Y-91636215D01*
X160200400Y-91520925D01*
X160131071Y-91417167D01*
X160042833Y-91328929D01*
X159026833Y-90312929D01*
X158923075Y-90243600D01*
X158807785Y-90195845D01*
X158734086Y-90181185D01*
X158685396Y-90171500D01*
X158685394Y-90171500D01*
X152781082Y-90171500D01*
X152712961Y-90151498D01*
X152666468Y-90097842D01*
X152656364Y-90027568D01*
X152685858Y-89962988D01*
X152691974Y-89956417D01*
X153849352Y-88799038D01*
X153911661Y-88765016D01*
X153943068Y-88762882D01*
X153943068Y-88762500D01*
X154153978Y-88762500D01*
X154153981Y-88762500D01*
X154357408Y-88730280D01*
X154553290Y-88666634D01*
X154736803Y-88573129D01*
X154903430Y-88452068D01*
X155049068Y-88306430D01*
X155170129Y-88139803D01*
X155263634Y-87956290D01*
X155327280Y-87760408D01*
X155359500Y-87556981D01*
X155359500Y-87351019D01*
X155327280Y-87147592D01*
X155263634Y-86951710D01*
X155170129Y-86768197D01*
X155049068Y-86601570D01*
X155049065Y-86601567D01*
X155049063Y-86601564D01*
X154903435Y-86455936D01*
X154903432Y-86455934D01*
X154903430Y-86455932D01*
X154736803Y-86334871D01*
X154553290Y-86241366D01*
X154553287Y-86241365D01*
X154553285Y-86241364D01*
X154357412Y-86177721D01*
X154357410Y-86177720D01*
X154357408Y-86177720D01*
X154153981Y-86145500D01*
X153948019Y-86145500D01*
X153744592Y-86177720D01*
X153744590Y-86177720D01*
X153744587Y-86177721D01*
X153548714Y-86241364D01*
X153548708Y-86241367D01*
X153365193Y-86334873D01*
X153198567Y-86455934D01*
X153198564Y-86455936D01*
X153052936Y-86601564D01*
X153052934Y-86601567D01*
X152931873Y-86768193D01*
X152838367Y-86951708D01*
X152838364Y-86951714D01*
X152774721Y-87147587D01*
X152774720Y-87147590D01*
X152774720Y-87147592D01*
X152759181Y-87245704D01*
X152742500Y-87351022D01*
X152742500Y-87561931D01*
X152741374Y-87561931D01*
X152727869Y-87626165D01*
X152705958Y-87655648D01*
X151037011Y-89324596D01*
X150974701Y-89358620D01*
X150947918Y-89361500D01*
X134414367Y-89361500D01*
X134258168Y-89392570D01*
X134258163Y-89392572D01*
X134184600Y-89423043D01*
X134111032Y-89453516D01*
X133978615Y-89541994D01*
X133978608Y-89541999D01*
X131959999Y-91560608D01*
X131959994Y-91560615D01*
X131871517Y-91693030D01*
X131847354Y-91751365D01*
X131847351Y-91751371D01*
X131843560Y-91760522D01*
X131799010Y-91815801D01*
X131731645Y-91838218D01*
X131669951Y-91824565D01*
X131616257Y-91797207D01*
X131526290Y-91751366D01*
X131526287Y-91751365D01*
X131526285Y-91751364D01*
X131330412Y-91687721D01*
X131330410Y-91687720D01*
X131330408Y-91687720D01*
X131126981Y-91655500D01*
X130921019Y-91655500D01*
X130717592Y-91687720D01*
X130717590Y-91687720D01*
X130717587Y-91687721D01*
X130521714Y-91751364D01*
X130521708Y-91751367D01*
X130338193Y-91844873D01*
X130171567Y-91965934D01*
X130171564Y-91965936D01*
X130025936Y-92111564D01*
X130025934Y-92111567D01*
X129904871Y-92278196D01*
X129885986Y-92315260D01*
X129837238Y-92366875D01*
X129768323Y-92383940D01*
X129701121Y-92361039D01*
X129661454Y-92315260D01*
X129642701Y-92278457D01*
X129611583Y-92235626D01*
X129611582Y-92235626D01*
X128924000Y-92923208D01*
X128924000Y-92911339D01*
X128896741Y-92809606D01*
X128844080Y-92718394D01*
X128769606Y-92643920D01*
X128678394Y-92591259D01*
X128576661Y-92564000D01*
X128564790Y-92564000D01*
X129252372Y-91876416D01*
X129209541Y-91845298D01*
X129209540Y-91845297D01*
X129026099Y-91751829D01*
X129026093Y-91751826D01*
X128830294Y-91688208D01*
X128830298Y-91688208D01*
X128626939Y-91656000D01*
X128421061Y-91656000D01*
X128217703Y-91688208D01*
X128021906Y-91751826D01*
X128021900Y-91751829D01*
X127838452Y-91845301D01*
X127795625Y-91876416D01*
X128483209Y-92564000D01*
X128471339Y-92564000D01*
X128369606Y-92591259D01*
X128278394Y-92643920D01*
X128203920Y-92718394D01*
X128151259Y-92809606D01*
X128124000Y-92911339D01*
X128124000Y-92923209D01*
X127436416Y-92235625D01*
X127405301Y-92278452D01*
X127311829Y-92461900D01*
X127311826Y-92461906D01*
X127248208Y-92657703D01*
X127216000Y-92861061D01*
X127216000Y-93066938D01*
X127248208Y-93270296D01*
X127311826Y-93466093D01*
X127311829Y-93466099D01*
X127405297Y-93649540D01*
X127405298Y-93649541D01*
X127436416Y-93692372D01*
X128124000Y-93004788D01*
X128124000Y-93016661D01*
X128151259Y-93118394D01*
X128203920Y-93209606D01*
X128278394Y-93284080D01*
X128369606Y-93336741D01*
X128471339Y-93364000D01*
X128483210Y-93364000D01*
X127795626Y-94051582D01*
X127795626Y-94051583D01*
X127838454Y-94082699D01*
X128021900Y-94176170D01*
X128021906Y-94176173D01*
X128217705Y-94239791D01*
X128217701Y-94239791D01*
X128421061Y-94272000D01*
X128626939Y-94272000D01*
X128830296Y-94239791D01*
X129026093Y-94176173D01*
X129026099Y-94176170D01*
X129209541Y-94082701D01*
X129252372Y-94051582D01*
X129252372Y-94051581D01*
X128564791Y-93364000D01*
X128576661Y-93364000D01*
X128678394Y-93336741D01*
X128769606Y-93284080D01*
X128844080Y-93209606D01*
X128896741Y-93118394D01*
X128924000Y-93016661D01*
X128924000Y-93004791D01*
X129611581Y-93692372D01*
X129611582Y-93692372D01*
X129642701Y-93649541D01*
X129661453Y-93612740D01*
X129710201Y-93561125D01*
X129779116Y-93544059D01*
X129846318Y-93566960D01*
X129885985Y-93612738D01*
X129904737Y-93649540D01*
X129904873Y-93649806D01*
X129932332Y-93687600D01*
X130025932Y-93816430D01*
X130025934Y-93816432D01*
X130025936Y-93816435D01*
X130171564Y-93962063D01*
X130171567Y-93962065D01*
X130171570Y-93962068D01*
X130338197Y-94083129D01*
X130521710Y-94176634D01*
X130717592Y-94240280D01*
X130921019Y-94272500D01*
X130921022Y-94272500D01*
X131126978Y-94272500D01*
X131126981Y-94272500D01*
X131330408Y-94240280D01*
X131526290Y-94176634D01*
X131596299Y-94140962D01*
X131666072Y-94127858D01*
X131731857Y-94154557D01*
X131772764Y-94212584D01*
X131779500Y-94253229D01*
X131779500Y-97275918D01*
X131759498Y-97344039D01*
X131742595Y-97365013D01*
X130395999Y-98711608D01*
X130395994Y-98711615D01*
X130307516Y-98844032D01*
X130277043Y-98917600D01*
X130246572Y-98991163D01*
X130246570Y-98991168D01*
X130215500Y-99147367D01*
X130215500Y-99490325D01*
X130195498Y-99558446D01*
X130174800Y-99582161D01*
X130175070Y-99582431D01*
X130025936Y-99731564D01*
X130025934Y-99731567D01*
X129904871Y-99898196D01*
X129885986Y-99935260D01*
X129837238Y-99986875D01*
X129768323Y-100003940D01*
X129701121Y-99981039D01*
X129661454Y-99935260D01*
X129642701Y-99898457D01*
X129611583Y-99855626D01*
X129611582Y-99855626D01*
X128924000Y-100543208D01*
X128924000Y-100531339D01*
X128896741Y-100429606D01*
X128844080Y-100338394D01*
X128769606Y-100263920D01*
X128678394Y-100211259D01*
X128576661Y-100184000D01*
X128564790Y-100184000D01*
X129252372Y-99496416D01*
X129209541Y-99465298D01*
X129209540Y-99465297D01*
X129026099Y-99371829D01*
X129026093Y-99371826D01*
X128830294Y-99308208D01*
X128830298Y-99308208D01*
X128626939Y-99276000D01*
X128421061Y-99276000D01*
X128217703Y-99308208D01*
X128021906Y-99371826D01*
X128021900Y-99371829D01*
X127838452Y-99465301D01*
X127795625Y-99496416D01*
X128483209Y-100184000D01*
X128471339Y-100184000D01*
X128369606Y-100211259D01*
X128278394Y-100263920D01*
X128203920Y-100338394D01*
X128151259Y-100429606D01*
X128124000Y-100531339D01*
X128124000Y-100543210D01*
X127416404Y-99835614D01*
X127401456Y-99808239D01*
X127384604Y-99782017D01*
X127383698Y-99775718D01*
X127382379Y-99773302D01*
X127379500Y-99746519D01*
X127379500Y-94864607D01*
X127379499Y-94864603D01*
X127355155Y-94742215D01*
X127348730Y-94726704D01*
X127307401Y-94626925D01*
X127238072Y-94523167D01*
X126471833Y-93756929D01*
X126435429Y-93732605D01*
X126382497Y-93697236D01*
X126336970Y-93642758D01*
X126326500Y-93592471D01*
X126326500Y-93350367D01*
X126326499Y-93350350D01*
X126319990Y-93289803D01*
X126319988Y-93289795D01*
X126268889Y-93152797D01*
X126268887Y-93152792D01*
X126181261Y-93035738D01*
X126076064Y-92956988D01*
X126076046Y-92956976D01*
X126064205Y-92948112D01*
X126064204Y-92948111D01*
X126064202Y-92948110D01*
X125927204Y-92897011D01*
X125927196Y-92897009D01*
X125866649Y-92890500D01*
X125866638Y-92890500D01*
X124069362Y-92890500D01*
X124069350Y-92890500D01*
X124008803Y-92897009D01*
X124008795Y-92897011D01*
X123871797Y-92948110D01*
X123871792Y-92948112D01*
X123754738Y-93035738D01*
X123667112Y-93152792D01*
X123667110Y-93152797D01*
X123616011Y-93289795D01*
X123616009Y-93289803D01*
X123609500Y-93350350D01*
X123609500Y-95147649D01*
X123616009Y-95208196D01*
X123616011Y-95208204D01*
X123667110Y-95345202D01*
X123667112Y-95345207D01*
X123754738Y-95462261D01*
X123871791Y-95549886D01*
X123871792Y-95549886D01*
X123871796Y-95549889D01*
X123989711Y-95593869D01*
X124046543Y-95636414D01*
X124071354Y-95702934D01*
X124056263Y-95772308D01*
X124034771Y-95801018D01*
X123931794Y-95903995D01*
X123806108Y-96076987D01*
X123709029Y-96267515D01*
X123709026Y-96267521D01*
X123642952Y-96470878D01*
X123642951Y-96470883D01*
X123642951Y-96470884D01*
X123622453Y-96600306D01*
X123609499Y-96682092D01*
X123609173Y-96686234D01*
X123583884Y-96752574D01*
X123572658Y-96765436D01*
X123040167Y-97297929D01*
X122951927Y-97386169D01*
X122951926Y-97386171D01*
X122917629Y-97437501D01*
X122882600Y-97489925D01*
X122862821Y-97537675D01*
X122834846Y-97605212D01*
X122810500Y-97727603D01*
X119455500Y-97727603D01*
X119455500Y-83495967D01*
X123481500Y-83495967D01*
X123481500Y-83792032D01*
X123520142Y-84085550D01*
X123520144Y-84085557D01*
X123589903Y-84345906D01*
X123596769Y-84371528D01*
X123710067Y-84645053D01*
X123710073Y-84645064D01*
X123858094Y-84901444D01*
X123858096Y-84901447D01*
X123858097Y-84901448D01*
X123976072Y-85055197D01*
X124038326Y-85136328D01*
X124038335Y-85136338D01*
X124247661Y-85345664D01*
X124247671Y-85345673D01*
X124247672Y-85345674D01*
X124435905Y-85490110D01*
X124482555Y-85525905D01*
X124738935Y-85673926D01*
X124738946Y-85673932D01*
X124738948Y-85673933D01*
X125012471Y-85787231D01*
X125298443Y-85863856D01*
X125298447Y-85863856D01*
X125298449Y-85863857D01*
X125374096Y-85873816D01*
X125591970Y-85902500D01*
X125591977Y-85902500D01*
X125888023Y-85902500D01*
X125888030Y-85902500D01*
X126153310Y-85867574D01*
X126181550Y-85863857D01*
X126181550Y-85863856D01*
X126181557Y-85863856D01*
X126467529Y-85787231D01*
X126741052Y-85673933D01*
X126997448Y-85525903D01*
X127232328Y-85345674D01*
X127441674Y-85136328D01*
X127621903Y-84901448D01*
X127769933Y-84645052D01*
X127883231Y-84371529D01*
X127959856Y-84085557D01*
X127998500Y-83792030D01*
X127998500Y-83495970D01*
X127959856Y-83202443D01*
X127883231Y-82916471D01*
X127769933Y-82642948D01*
X127769932Y-82642946D01*
X127769926Y-82642935D01*
X127621905Y-82386555D01*
X127593308Y-82349287D01*
X127441674Y-82151672D01*
X127441673Y-82151671D01*
X127441664Y-82151661D01*
X127232338Y-81942335D01*
X127232328Y-81942326D01*
X127113252Y-81850956D01*
X126997448Y-81762097D01*
X126997447Y-81762096D01*
X126997444Y-81762094D01*
X126741064Y-81614073D01*
X126741053Y-81614067D01*
X126604290Y-81557418D01*
X126467529Y-81500769D01*
X126192966Y-81427201D01*
X126181550Y-81424142D01*
X125888032Y-81385500D01*
X125888030Y-81385500D01*
X125591970Y-81385500D01*
X125591967Y-81385500D01*
X125298449Y-81424142D01*
X125012471Y-81500769D01*
X124738946Y-81614067D01*
X124738935Y-81614073D01*
X124482555Y-81762094D01*
X124247671Y-81942326D01*
X124247661Y-81942335D01*
X124038335Y-82151661D01*
X124038326Y-82151671D01*
X123858094Y-82386555D01*
X123710073Y-82642935D01*
X123710067Y-82642946D01*
X123596769Y-82916471D01*
X123520142Y-83202449D01*
X123481500Y-83495967D01*
X119455500Y-83495967D01*
X119455500Y-80989017D01*
X140891500Y-80989017D01*
X140891500Y-81218983D01*
X140901544Y-81282401D01*
X140927474Y-81446120D01*
X140955054Y-81531000D01*
X140998538Y-81664829D01*
X140998539Y-81664832D01*
X140998541Y-81664836D01*
X141080658Y-81826000D01*
X141102940Y-81869731D01*
X141238111Y-82055778D01*
X141238113Y-82055780D01*
X141238115Y-82055783D01*
X141400716Y-82218384D01*
X141400719Y-82218386D01*
X141400722Y-82218389D01*
X141475025Y-82272373D01*
X141518379Y-82328595D01*
X141524454Y-82399331D01*
X141491323Y-82462123D01*
X141475026Y-82476245D01*
X141401041Y-82529998D01*
X141238497Y-82692542D01*
X141238495Y-82692545D01*
X141103371Y-82878527D01*
X140999003Y-83083361D01*
X140999000Y-83083367D01*
X140927964Y-83301993D01*
X140914025Y-83390000D01*
X141911562Y-83390000D01*
X141887482Y-83431708D01*
X141850000Y-83571591D01*
X141850000Y-83716409D01*
X141887482Y-83856292D01*
X141911562Y-83898000D01*
X140914025Y-83898000D01*
X140927964Y-83986006D01*
X140999000Y-84204632D01*
X140999003Y-84204638D01*
X141103371Y-84409472D01*
X141228803Y-84582115D01*
X141252662Y-84648983D01*
X141236581Y-84718135D01*
X141185667Y-84767615D01*
X141170901Y-84774231D01*
X141153795Y-84780611D01*
X141153792Y-84780612D01*
X141036738Y-84868238D01*
X140949112Y-84985292D01*
X140949110Y-84985297D01*
X140898011Y-85122295D01*
X140898009Y-85122303D01*
X140891500Y-85182850D01*
X140891500Y-87185149D01*
X140898009Y-87245696D01*
X140898011Y-87245704D01*
X140949110Y-87382702D01*
X140949112Y-87382707D01*
X141036738Y-87499761D01*
X141153792Y-87587387D01*
X141153794Y-87587388D01*
X141153796Y-87587389D01*
X141212875Y-87609424D01*
X141290795Y-87638488D01*
X141290803Y-87638490D01*
X141351350Y-87644999D01*
X141351355Y-87644999D01*
X141351362Y-87645000D01*
X141351368Y-87645000D01*
X143448632Y-87645000D01*
X143448638Y-87645000D01*
X143448645Y-87644999D01*
X143448649Y-87644999D01*
X143509196Y-87638490D01*
X143509199Y-87638489D01*
X143509201Y-87638489D01*
X143646204Y-87587389D01*
X143763261Y-87499761D01*
X143850889Y-87382704D01*
X143898487Y-87255091D01*
X143941033Y-87198255D01*
X144007554Y-87173445D01*
X144076928Y-87188537D01*
X144105637Y-87210029D01*
X144264611Y-87369003D01*
X144397032Y-87457484D01*
X144470600Y-87487956D01*
X144544169Y-87518430D01*
X144700370Y-87549500D01*
X144859630Y-87549500D01*
X145386519Y-87549500D01*
X145454640Y-87569502D01*
X145501133Y-87623158D01*
X145509141Y-87646522D01*
X145510010Y-87650200D01*
X145561110Y-87787202D01*
X145561112Y-87787207D01*
X145648738Y-87904261D01*
X145765792Y-87991887D01*
X145765794Y-87991888D01*
X145765796Y-87991889D01*
X145824875Y-88013924D01*
X145902795Y-88042988D01*
X145902803Y-88042990D01*
X145963350Y-88049499D01*
X145963355Y-88049499D01*
X145963362Y-88049500D01*
X145963368Y-88049500D01*
X147660632Y-88049500D01*
X147660638Y-88049500D01*
X147660645Y-88049499D01*
X147660649Y-88049499D01*
X147721196Y-88042990D01*
X147721199Y-88042989D01*
X147721201Y-88042989D01*
X147858204Y-87991889D01*
X147909923Y-87953173D01*
X147975261Y-87904261D01*
X148062887Y-87787207D01*
X148062887Y-87787206D01*
X148062889Y-87787204D01*
X148113989Y-87650201D01*
X148120500Y-87589638D01*
X148120500Y-87580811D01*
X148124124Y-87566517D01*
X148136169Y-87546140D01*
X148144038Y-87523815D01*
X148153898Y-87516150D01*
X148160253Y-87505401D01*
X148181404Y-87494770D01*
X148200093Y-87480244D01*
X148214627Y-87478072D01*
X148216816Y-87476972D01*
X148912000Y-86781788D01*
X148912000Y-86793661D01*
X148939259Y-86895394D01*
X148991920Y-86986606D01*
X149066394Y-87061080D01*
X149157606Y-87113741D01*
X149259339Y-87141000D01*
X149271210Y-87141000D01*
X148583626Y-87828582D01*
X148583626Y-87828583D01*
X148626454Y-87859699D01*
X148809900Y-87953170D01*
X148809906Y-87953173D01*
X149005705Y-88016791D01*
X149005701Y-88016791D01*
X149209061Y-88049000D01*
X149414939Y-88049000D01*
X149618296Y-88016791D01*
X149814093Y-87953173D01*
X149814099Y-87953170D01*
X149997541Y-87859701D01*
X150040372Y-87828582D01*
X150040372Y-87828581D01*
X149352791Y-87141000D01*
X149364661Y-87141000D01*
X149466394Y-87113741D01*
X149557606Y-87061080D01*
X149632080Y-86986606D01*
X149684741Y-86895394D01*
X149712000Y-86793661D01*
X149712000Y-86781791D01*
X150399581Y-87469372D01*
X150399582Y-87469372D01*
X150430701Y-87426541D01*
X150524170Y-87243099D01*
X150524173Y-87243093D01*
X150587791Y-87047296D01*
X150620000Y-86843938D01*
X150620000Y-86638061D01*
X150587791Y-86434703D01*
X150524173Y-86238906D01*
X150524170Y-86238900D01*
X150430699Y-86055454D01*
X150399583Y-86012626D01*
X150399582Y-86012626D01*
X149712000Y-86700208D01*
X149712000Y-86688339D01*
X149684741Y-86586606D01*
X149632080Y-86495394D01*
X149557606Y-86420920D01*
X149466394Y-86368259D01*
X149364661Y-86341000D01*
X149352790Y-86341000D01*
X150040372Y-85653416D01*
X149997541Y-85622298D01*
X149997540Y-85622297D01*
X149814099Y-85528829D01*
X149814093Y-85528826D01*
X149618294Y-85465208D01*
X149618298Y-85465208D01*
X149414939Y-85433000D01*
X149209061Y-85433000D01*
X149005703Y-85465208D01*
X148809906Y-85528826D01*
X148809900Y-85528829D01*
X148626452Y-85622301D01*
X148583625Y-85653416D01*
X149271209Y-86341000D01*
X149259339Y-86341000D01*
X149157606Y-86368259D01*
X149066394Y-86420920D01*
X148991920Y-86495394D01*
X148939259Y-86586606D01*
X148912000Y-86688339D01*
X148912000Y-86700209D01*
X148212816Y-86001025D01*
X148186665Y-85995531D01*
X148136106Y-85945689D01*
X148124124Y-85915480D01*
X148120500Y-85901185D01*
X148120500Y-85892362D01*
X148113989Y-85831799D01*
X148079394Y-85739047D01*
X148079393Y-85739043D01*
X148062889Y-85694797D01*
X148062887Y-85694792D01*
X147975261Y-85577738D01*
X147858207Y-85490112D01*
X147858202Y-85490110D01*
X147721204Y-85439011D01*
X147721196Y-85439009D01*
X147660649Y-85432500D01*
X147660638Y-85432500D01*
X145963362Y-85432500D01*
X145963350Y-85432500D01*
X145902803Y-85439009D01*
X145902795Y-85439011D01*
X145765797Y-85490110D01*
X145765792Y-85490112D01*
X145648738Y-85577738D01*
X145561112Y-85694792D01*
X145561110Y-85694797D01*
X145510010Y-85831799D01*
X145509141Y-85835478D01*
X145507683Y-85838036D01*
X145507256Y-85839184D01*
X145507070Y-85839114D01*
X145494247Y-85861633D01*
X145481743Y-85889012D01*
X145476874Y-85892140D01*
X145474009Y-85897173D01*
X145447332Y-85911126D01*
X145422017Y-85927396D01*
X145414033Y-85928543D01*
X145411099Y-85930079D01*
X145386519Y-85932500D01*
X145167082Y-85932500D01*
X145098961Y-85912498D01*
X145077987Y-85895595D01*
X144738391Y-85555999D01*
X144738389Y-85555997D01*
X144605968Y-85467516D01*
X144532399Y-85437043D01*
X144458831Y-85406570D01*
X144302632Y-85375500D01*
X144302630Y-85375500D01*
X144034500Y-85375500D01*
X143966379Y-85355498D01*
X143919886Y-85301842D01*
X143908500Y-85249500D01*
X143908500Y-85182867D01*
X143908499Y-85182850D01*
X143901990Y-85122303D01*
X143901988Y-85122295D01*
X143872924Y-85044375D01*
X143850889Y-84985296D01*
X143850888Y-84985294D01*
X143850887Y-84985292D01*
X143763261Y-84868238D01*
X143646208Y-84780613D01*
X143646205Y-84780612D01*
X143646204Y-84780611D01*
X143629096Y-84774230D01*
X143572264Y-84731685D01*
X143547453Y-84665164D01*
X143562545Y-84595790D01*
X143571196Y-84582115D01*
X143696628Y-84409472D01*
X143800996Y-84204638D01*
X143800999Y-84204632D01*
X143872035Y-83986006D01*
X143885975Y-83898000D01*
X142888438Y-83898000D01*
X142912518Y-83856292D01*
X142950000Y-83716409D01*
X142950000Y-83571591D01*
X142912518Y-83431708D01*
X142888438Y-83390000D01*
X143885974Y-83390000D01*
X143872035Y-83301993D01*
X143856856Y-83255276D01*
X143845544Y-83220462D01*
X158846500Y-83220462D01*
X158846500Y-83457537D01*
X158877442Y-83692570D01*
X158938801Y-83921565D01*
X158938802Y-83921567D01*
X158938803Y-83921570D01*
X159029526Y-84140595D01*
X159029527Y-84140596D01*
X159029532Y-84140607D01*
X159148058Y-84345900D01*
X159148062Y-84345906D01*
X159292376Y-84533979D01*
X159292395Y-84534000D01*
X159459999Y-84701604D01*
X159460009Y-84701613D01*
X159460015Y-84701619D01*
X159460018Y-84701621D01*
X159460020Y-84701623D01*
X159648093Y-84845937D01*
X159648099Y-84845941D01*
X159853392Y-84964467D01*
X159853396Y-84964468D01*
X159853405Y-84964474D01*
X160072430Y-85055197D01*
X160301422Y-85116556D01*
X160301428Y-85116556D01*
X160301429Y-85116557D01*
X160328400Y-85120107D01*
X160536465Y-85147500D01*
X160536472Y-85147500D01*
X160773528Y-85147500D01*
X160773535Y-85147500D01*
X161008578Y-85116556D01*
X161237570Y-85055197D01*
X161456595Y-84964474D01*
X161661904Y-84845939D01*
X161849985Y-84701619D01*
X162017619Y-84533985D01*
X162161939Y-84345904D01*
X162280474Y-84140595D01*
X162371197Y-83921570D01*
X162432556Y-83692578D01*
X162463500Y-83457535D01*
X162463500Y-83220465D01*
X162432556Y-82985422D01*
X162371197Y-82756430D01*
X162280474Y-82537405D01*
X162280468Y-82537396D01*
X162280467Y-82537392D01*
X162161941Y-82332099D01*
X162161937Y-82332093D01*
X162017623Y-82144020D01*
X162017621Y-82144018D01*
X162017619Y-82144015D01*
X162017613Y-82144009D01*
X162017604Y-82143999D01*
X161864007Y-81990402D01*
X163927000Y-81990402D01*
X163927000Y-83085000D01*
X165136656Y-83085000D01*
X165109979Y-83149402D01*
X165085000Y-83274981D01*
X165085000Y-83403019D01*
X165109979Y-83528598D01*
X165136656Y-83593000D01*
X163927000Y-83593000D01*
X163927000Y-84687597D01*
X163933505Y-84748093D01*
X163984555Y-84884964D01*
X163984555Y-84884965D01*
X164072095Y-85001904D01*
X164189034Y-85089444D01*
X164325906Y-85140494D01*
X164386402Y-85146999D01*
X164386415Y-85147000D01*
X165481000Y-85147000D01*
X165481000Y-83937344D01*
X165545402Y-83964021D01*
X165670981Y-83989000D01*
X165799019Y-83989000D01*
X165924598Y-83964021D01*
X165989000Y-83937344D01*
X165989000Y-85147000D01*
X167083585Y-85147000D01*
X167083597Y-85146999D01*
X167144093Y-85140494D01*
X167280964Y-85089444D01*
X167280965Y-85089444D01*
X167397904Y-85001904D01*
X167485444Y-84884965D01*
X167485444Y-84884964D01*
X167536494Y-84748093D01*
X167542999Y-84687597D01*
X167543000Y-84687585D01*
X167543000Y-83593000D01*
X166333344Y-83593000D01*
X166360021Y-83528598D01*
X166385000Y-83403019D01*
X166385000Y-83274981D01*
X166360021Y-83149402D01*
X166333344Y-83085000D01*
X167543000Y-83085000D01*
X167543000Y-81990414D01*
X167542999Y-81990402D01*
X167536494Y-81929906D01*
X167485444Y-81793035D01*
X167485444Y-81793034D01*
X167397904Y-81676095D01*
X167280965Y-81588555D01*
X167144093Y-81537505D01*
X167083597Y-81531000D01*
X165989000Y-81531000D01*
X165989000Y-82740655D01*
X165924598Y-82713979D01*
X165799019Y-82689000D01*
X165670981Y-82689000D01*
X165545402Y-82713979D01*
X165481000Y-82740655D01*
X165481000Y-81531000D01*
X164386402Y-81531000D01*
X164325906Y-81537505D01*
X164189035Y-81588555D01*
X164189034Y-81588555D01*
X164072095Y-81676095D01*
X163984555Y-81793034D01*
X163984555Y-81793035D01*
X163933505Y-81929906D01*
X163927000Y-81990402D01*
X161864007Y-81990402D01*
X161850000Y-81976395D01*
X161849979Y-81976376D01*
X161661906Y-81832062D01*
X161661900Y-81832058D01*
X161456607Y-81713532D01*
X161456599Y-81713528D01*
X161456595Y-81713526D01*
X161237570Y-81622803D01*
X161237567Y-81622802D01*
X161237565Y-81622801D01*
X161049483Y-81572404D01*
X161008578Y-81561444D01*
X161008576Y-81561443D01*
X161008570Y-81561442D01*
X160773537Y-81530500D01*
X160773535Y-81530500D01*
X160536465Y-81530500D01*
X160536462Y-81530500D01*
X160301429Y-81561442D01*
X160072434Y-81622801D01*
X160072430Y-81622803D01*
X159853403Y-81713527D01*
X159853392Y-81713532D01*
X159648099Y-81832058D01*
X159648093Y-81832062D01*
X159460020Y-81976376D01*
X159459999Y-81976395D01*
X159292395Y-82143999D01*
X159292376Y-82144020D01*
X159148062Y-82332093D01*
X159148058Y-82332099D01*
X159029532Y-82537392D01*
X159029527Y-82537403D01*
X158938803Y-82756430D01*
X158938801Y-82756434D01*
X158877442Y-82985429D01*
X158846500Y-83220462D01*
X143845544Y-83220462D01*
X143800999Y-83083367D01*
X143800996Y-83083361D01*
X143696628Y-82878527D01*
X143561504Y-82692545D01*
X143561502Y-82692542D01*
X143398957Y-82529997D01*
X143398954Y-82529995D01*
X143324974Y-82476245D01*
X143281620Y-82420023D01*
X143275545Y-82349287D01*
X143308676Y-82286495D01*
X143324965Y-82272379D01*
X143399278Y-82218389D01*
X143561889Y-82055778D01*
X143628251Y-81964439D01*
X143684474Y-81921085D01*
X143730187Y-81912500D01*
X144400629Y-81912500D01*
X144400630Y-81912500D01*
X144556831Y-81881430D01*
X144630399Y-81850956D01*
X144703968Y-81820484D01*
X144836389Y-81732003D01*
X145204987Y-81363405D01*
X145232355Y-81348460D01*
X145258584Y-81331604D01*
X145264882Y-81330698D01*
X145267299Y-81329379D01*
X145294082Y-81326500D01*
X145386519Y-81326500D01*
X145454640Y-81346502D01*
X145501133Y-81400158D01*
X145509141Y-81423522D01*
X145510010Y-81427200D01*
X145561110Y-81564202D01*
X145561112Y-81564207D01*
X145648738Y-81681261D01*
X145765792Y-81768887D01*
X145765794Y-81768888D01*
X145765796Y-81768889D01*
X145824875Y-81790924D01*
X145902795Y-81819988D01*
X145902803Y-81819990D01*
X145963350Y-81826499D01*
X145963355Y-81826499D01*
X145963362Y-81826500D01*
X145963368Y-81826500D01*
X147660632Y-81826500D01*
X147660638Y-81826500D01*
X147660645Y-81826499D01*
X147660649Y-81826499D01*
X147721196Y-81819990D01*
X147721199Y-81819989D01*
X147721201Y-81819989D01*
X147858204Y-81768889D01*
X147909923Y-81730173D01*
X147975261Y-81681261D01*
X148062887Y-81564207D01*
X148062887Y-81564206D01*
X148062889Y-81564204D01*
X148113989Y-81427201D01*
X148120500Y-81366638D01*
X148120500Y-81357811D01*
X148124124Y-81343517D01*
X148136169Y-81323140D01*
X148144038Y-81300815D01*
X148153898Y-81293150D01*
X148160253Y-81282401D01*
X148181404Y-81271770D01*
X148200093Y-81257244D01*
X148214627Y-81255072D01*
X148216816Y-81253972D01*
X148912000Y-80558788D01*
X148912000Y-80570661D01*
X148939259Y-80672394D01*
X148991920Y-80763606D01*
X149066394Y-80838080D01*
X149157606Y-80890741D01*
X149259339Y-80918000D01*
X149271210Y-80918000D01*
X148583626Y-81605582D01*
X148583626Y-81605583D01*
X148626454Y-81636699D01*
X148809900Y-81730170D01*
X148809906Y-81730173D01*
X149005705Y-81793791D01*
X149005701Y-81793791D01*
X149209061Y-81826000D01*
X149414939Y-81826000D01*
X149618296Y-81793791D01*
X149814093Y-81730173D01*
X149814099Y-81730170D01*
X149997541Y-81636701D01*
X150040372Y-81605582D01*
X150040372Y-81605581D01*
X149352791Y-80918000D01*
X149364661Y-80918000D01*
X149466394Y-80890741D01*
X149557606Y-80838080D01*
X149632080Y-80763606D01*
X149684741Y-80672394D01*
X149712000Y-80570661D01*
X149712000Y-80558791D01*
X150399581Y-81246372D01*
X150399582Y-81246372D01*
X150430701Y-81203541D01*
X150524170Y-81020099D01*
X150524173Y-81020093D01*
X150587791Y-80824296D01*
X150620000Y-80620938D01*
X150620000Y-80415061D01*
X150587791Y-80211703D01*
X150524173Y-80015906D01*
X150524170Y-80015900D01*
X150430699Y-79832454D01*
X150407214Y-79800129D01*
X150399583Y-79789626D01*
X150399582Y-79789626D01*
X149712000Y-80477208D01*
X149712000Y-80465339D01*
X149684741Y-80363606D01*
X149632080Y-80272394D01*
X149557606Y-80197920D01*
X149466394Y-80145259D01*
X149364661Y-80118000D01*
X149352790Y-80118000D01*
X149739770Y-79731019D01*
X152742500Y-79731019D01*
X152742500Y-79936981D01*
X152755000Y-80015900D01*
X152774721Y-80140412D01*
X152825112Y-80295500D01*
X152838366Y-80336290D01*
X152931871Y-80519803D01*
X153052932Y-80686430D01*
X153052934Y-80686432D01*
X153052936Y-80686435D01*
X153198564Y-80832063D01*
X153198567Y-80832065D01*
X153198570Y-80832068D01*
X153365197Y-80953129D01*
X153548710Y-81046634D01*
X153744592Y-81110280D01*
X153948019Y-81142500D01*
X153948022Y-81142500D01*
X154153978Y-81142500D01*
X154153981Y-81142500D01*
X154357408Y-81110280D01*
X154553290Y-81046634D01*
X154736803Y-80953129D01*
X154903430Y-80832068D01*
X155049068Y-80686430D01*
X155170129Y-80519803D01*
X155263634Y-80336290D01*
X155327280Y-80140408D01*
X155359500Y-79936981D01*
X155359500Y-79731019D01*
X155327280Y-79527592D01*
X155263634Y-79331710D01*
X155170129Y-79148197D01*
X155049068Y-78981570D01*
X155049065Y-78981567D01*
X155049063Y-78981564D01*
X154903435Y-78835936D01*
X154903432Y-78835934D01*
X154903430Y-78835932D01*
X154736803Y-78714871D01*
X154553290Y-78621366D01*
X154553287Y-78621365D01*
X154553285Y-78621364D01*
X154357412Y-78557721D01*
X154357410Y-78557720D01*
X154357408Y-78557720D01*
X154153981Y-78525500D01*
X153948019Y-78525500D01*
X153744592Y-78557720D01*
X153744590Y-78557720D01*
X153744587Y-78557721D01*
X153548714Y-78621364D01*
X153548708Y-78621367D01*
X153365193Y-78714873D01*
X153198567Y-78835934D01*
X153198564Y-78835936D01*
X153052936Y-78981564D01*
X153052934Y-78981567D01*
X152931873Y-79148193D01*
X152838367Y-79331708D01*
X152838364Y-79331714D01*
X152774721Y-79527587D01*
X152774720Y-79527590D01*
X152774720Y-79527592D01*
X152742500Y-79731019D01*
X149739770Y-79731019D01*
X150040372Y-79430416D01*
X149997541Y-79399298D01*
X149997540Y-79399297D01*
X149814099Y-79305829D01*
X149814093Y-79305826D01*
X149618294Y-79242208D01*
X149618298Y-79242208D01*
X149414939Y-79210000D01*
X149209061Y-79210000D01*
X149005703Y-79242208D01*
X148809906Y-79305826D01*
X148809900Y-79305829D01*
X148626452Y-79399301D01*
X148583625Y-79430416D01*
X149271209Y-80118000D01*
X149259339Y-80118000D01*
X149157606Y-80145259D01*
X149066394Y-80197920D01*
X148991920Y-80272394D01*
X148939259Y-80363606D01*
X148912000Y-80465339D01*
X148912000Y-80477209D01*
X148212816Y-79778025D01*
X148186665Y-79772531D01*
X148136106Y-79722689D01*
X148124124Y-79692480D01*
X148120500Y-79678185D01*
X148120500Y-79669362D01*
X148113989Y-79608799D01*
X148079394Y-79516047D01*
X148079393Y-79516043D01*
X148062889Y-79471797D01*
X148062887Y-79471792D01*
X147975261Y-79354738D01*
X147858207Y-79267112D01*
X147858202Y-79267110D01*
X147721204Y-79216011D01*
X147721196Y-79216009D01*
X147660649Y-79209500D01*
X147660638Y-79209500D01*
X145963362Y-79209500D01*
X145963350Y-79209500D01*
X145902803Y-79216009D01*
X145902795Y-79216011D01*
X145765797Y-79267110D01*
X145765792Y-79267112D01*
X145648738Y-79354738D01*
X145561112Y-79471792D01*
X145561110Y-79471797D01*
X145510010Y-79608799D01*
X145509141Y-79612478D01*
X145507683Y-79615036D01*
X145507256Y-79616184D01*
X145507070Y-79616114D01*
X145474009Y-79674173D01*
X145411099Y-79707079D01*
X145386519Y-79709500D01*
X144827367Y-79709500D01*
X144671168Y-79740570D01*
X144671163Y-79740572D01*
X144597600Y-79771043D01*
X144524032Y-79801516D01*
X144391615Y-79889994D01*
X144391608Y-79889999D01*
X144023013Y-80258595D01*
X143995644Y-80273539D01*
X143969416Y-80290396D01*
X143963117Y-80291301D01*
X143960701Y-80292621D01*
X143933918Y-80295500D01*
X143730187Y-80295500D01*
X143662066Y-80275498D01*
X143628251Y-80243561D01*
X143561887Y-80152219D01*
X143399283Y-79989615D01*
X143399280Y-79989613D01*
X143399278Y-79989611D01*
X143213231Y-79854440D01*
X143170081Y-79832454D01*
X143008336Y-79750041D01*
X143008332Y-79750039D01*
X143008329Y-79750038D01*
X142876116Y-79707079D01*
X142789620Y-79678974D01*
X142676050Y-79660987D01*
X142562483Y-79643000D01*
X142237517Y-79643000D01*
X142146663Y-79657389D01*
X142010379Y-79678974D01*
X141850205Y-79731019D01*
X141791671Y-79750038D01*
X141791669Y-79750038D01*
X141791663Y-79750041D01*
X141586768Y-79854440D01*
X141400719Y-79989613D01*
X141400716Y-79989615D01*
X141238115Y-80152216D01*
X141238113Y-80152219D01*
X141102940Y-80338268D01*
X140998541Y-80543163D01*
X140998538Y-80543172D01*
X140927474Y-80761879D01*
X140909208Y-80877210D01*
X140891500Y-80989017D01*
X119455500Y-80989017D01*
X119455500Y-75131500D01*
X119475502Y-75063379D01*
X119529158Y-75016886D01*
X119581500Y-75005500D01*
X172518500Y-75005500D01*
X172586621Y-75025502D01*
G37*
G04 #@! TD.AperFunction*
M02*
