M48
; DRILL file KiCad 10.0.3 date 2026-07-30T13:23:54
; FORMAT={-:-/ absolute / metric / decimal}
; #@! TF.CreationDate,2026-07-30T13:23:54+05:45
; #@! TF.GenerationSoftware,Kicad,Pcbnew,10.0.3
; #@! TF.FileFunction,Plated,1,2,PTH
FMAT,2
METRIC
; #@! TA.AperFunction,Plated,PTH,ComponentDrill
T1C0.800
; #@! TA.AperFunction,Plated,PTH,ComponentDrill
T2C0.900
; #@! TA.AperFunction,Plated,PTH,ComponentDrill
T3C1.000
; #@! TA.AperFunction,Plated,PTH,ComponentDrill
T4C1.100
; #@! TA.AperFunction,Plated,PTH,ComponentDrill
T5C1.300
%
G90
G05
T1
X128.524Y-92.964
X128.524Y-100.584
X131.024Y-92.964
X131.024Y-100.584
X146.812Y-80.518
X146.812Y-86.741
X149.312Y-80.518
X149.312Y-86.741
X154.051Y-79.834
X154.051Y-87.454
T2
X134.493Y-92.964
X134.493Y-100.584
X137.795Y-92.964
X137.795Y-100.584
X141.097Y-92.964
X141.097Y-100.584
X144.399Y-92.964
X144.399Y-100.584
X147.701Y-92.964
X147.701Y-100.584
X151.003Y-92.964
X151.003Y-100.584
X154.305Y-92.964
X154.305Y-100.584
X157.607Y-92.964
X157.607Y-100.584
X161.036Y-96.774
X163.576Y-96.774
T3
X124.968Y-94.249
X124.968Y-96.789
X124.968Y-99.329
X137.16Y-104.775
X138.43Y-109.855
X139.7Y-104.775
X140.97Y-109.855
X142.24Y-104.775
X143.51Y-109.855
X144.78Y-104.775
X146.05Y-109.855
X147.32Y-104.775
X148.59Y-109.855
X149.86Y-104.775
X151.13Y-109.855
X152.4Y-104.775
X153.67Y-109.855
X154.94Y-104.775
X167.386Y-94.249
X167.386Y-96.789
X167.386Y-99.329
T4
X142.4Y-81.104
X142.4Y-83.644
X142.4Y-86.184
T5
X125.73Y-109.728
X130.81Y-109.728
X160.655Y-83.339
X161.29Y-109.728
X165.735Y-83.339
X166.37Y-109.728
M30
