G04 #@! TF.GenerationSoftware,KiCad,Pcbnew,10.0.3*
G04 #@! TF.CreationDate,2026-07-30T13:23:47+05:45*
G04 #@! TF.ProjectId,L298 Module,4c323938-204d-46f6-9475-6c652e6b6963,V1.0*
G04 #@! TF.SameCoordinates,Original*
G04 #@! TF.FileFunction,Copper,L2,Bot*
G04 #@! TF.FilePolarity,Positive*
%FSLAX46Y46*%
G04 Gerber Fmt 4.6, Leading zero omitted, Abs format (unit mm)*
G04 Created by KiCad (PCBNEW 10.0.3) date 2026-07-30 13:23:47*
%MOMM*%
%LPD*%
G01*
G04 APERTURE LIST*
G04 #@! TA.AperFunction,EtchedComponent*
%ADD10C,0.010000*%
G04 #@! TD*
G04 #@! TA.AperFunction,ComponentPad*
%ADD11R,1.600000X1.600000*%
G04 #@! TD*
G04 #@! TA.AperFunction,ComponentPad*
%ADD12C,1.600000*%
G04 #@! TD*
G04 #@! TA.AperFunction,ComponentPad*
%ADD13R,1.800000X1.800000*%
G04 #@! TD*
G04 #@! TA.AperFunction,ComponentPad*
%ADD14C,1.800000*%
G04 #@! TD*
G04 #@! TA.AperFunction,ComponentPad*
%ADD15O,1.800000X1.800000*%
G04 #@! TD*
G04 #@! TA.AperFunction,ComponentPad*
%ADD16R,2.600000X2.600000*%
G04 #@! TD*
G04 #@! TA.AperFunction,ComponentPad*
%ADD17C,2.600000*%
G04 #@! TD*
G04 #@! TA.AperFunction,ComponentPad*
%ADD18R,1.700000X1.700000*%
G04 #@! TD*
G04 #@! TA.AperFunction,ComponentPad*
%ADD19O,1.700000X1.700000*%
G04 #@! TD*
G04 #@! TA.AperFunction,ComponentPad*
%ADD20O,1.600000X1.600000*%
G04 #@! TD*
G04 #@! TA.AperFunction,ComponentPad*
%ADD21R,2.000000X1.905000*%
G04 #@! TD*
G04 #@! TA.AperFunction,ComponentPad*
%ADD22O,2.000000X1.905000*%
G04 #@! TD*
G04 #@! TA.AperFunction,Conductor*
%ADD23C,0.600000*%
G04 #@! TD*
G04 #@! TA.AperFunction,Conductor*
%ADD24C,0.250000*%
G04 #@! TD*
G04 APERTURE END LIST*
D10*
X136002600Y-81226248D02*
X136019948Y-81218666D01*
X136061356Y-81185872D01*
X136096765Y-81138453D01*
X136118664Y-81087849D01*
X136122229Y-81062902D01*
X136110279Y-81028073D01*
X136084067Y-81009643D01*
X136055964Y-80998484D01*
X136043095Y-80996428D01*
X136036829Y-81011351D01*
X136024456Y-81043825D01*
X136019028Y-81058498D01*
X135988590Y-81109256D01*
X135944520Y-81134573D01*
X135888010Y-81133794D01*
X135883825Y-81132797D01*
X135853655Y-81118493D01*
X135831476Y-81090607D01*
X135816327Y-81045713D01*
X135807250Y-80980385D01*
X135803286Y-80891196D01*
X135802914Y-80843739D01*
X135802730Y-80768929D01*
X135801522Y-80717931D01*
X135798309Y-80685529D01*
X135792109Y-80666505D01*
X135781940Y-80655644D01*
X135766819Y-80647728D01*
X135765946Y-80647330D01*
X135736828Y-80635019D01*
X135722403Y-80630486D01*
X135720186Y-80644191D01*
X135718289Y-80682075D01*
X135716847Y-80739285D01*
X135715998Y-80810973D01*
X135715829Y-80863435D01*
X135716692Y-80964953D01*
X135720070Y-81041968D01*
X135727142Y-81098977D01*
X135739088Y-81140474D01*
X135757090Y-81170957D01*
X135782327Y-81194920D01*
X135807247Y-81211645D01*
X135867171Y-81233903D01*
X135936911Y-81238924D01*
X136002600Y-81226248D01*
G04 #@! TA.AperFunction,EtchedComponent*
G36*
X135736828Y-80635019D02*
G01*
X135765946Y-80647330D01*
X135766819Y-80647728D01*
X135781940Y-80655644D01*
X135792109Y-80666505D01*
X135798309Y-80685529D01*
X135801522Y-80717931D01*
X135802730Y-80768929D01*
X135802914Y-80843739D01*
X135803286Y-80891196D01*
X135807250Y-80980385D01*
X135816327Y-81045713D01*
X135831476Y-81090607D01*
X135853655Y-81118493D01*
X135883825Y-81132797D01*
X135888010Y-81133794D01*
X135944520Y-81134573D01*
X135988590Y-81109256D01*
X136019028Y-81058498D01*
X136024456Y-81043825D01*
X136036829Y-81011351D01*
X136043095Y-80996428D01*
X136055964Y-80998484D01*
X136084067Y-81009643D01*
X136110279Y-81028073D01*
X136122229Y-81062902D01*
X136118664Y-81087849D01*
X136096765Y-81138453D01*
X136061356Y-81185872D01*
X136019948Y-81218666D01*
X136002600Y-81226248D01*
X135936911Y-81238924D01*
X135867171Y-81233903D01*
X135807247Y-81211645D01*
X135782327Y-81194920D01*
X135757090Y-81170957D01*
X135739088Y-81140474D01*
X135727142Y-81098977D01*
X135720070Y-81041968D01*
X135716692Y-80964953D01*
X135715829Y-80863435D01*
X135715998Y-80810973D01*
X135716847Y-80739285D01*
X135718289Y-80682075D01*
X135720186Y-80644191D01*
X135722403Y-80630486D01*
X135736828Y-80635019D01*
G37*
G04 #@! TD.AperFunction*
X132066093Y-81257220D02*
X132112672Y-81230277D01*
X132145057Y-81203534D01*
X132168742Y-81175516D01*
X132185059Y-81141252D01*
X132195339Y-81095773D01*
X132200914Y-81034108D01*
X132203116Y-80951289D01*
X132203371Y-80891754D01*
X132203371Y-80672609D01*
X132141686Y-80644956D01*
X132080000Y-80617303D01*
X132072743Y-80857330D01*
X132069744Y-80946972D01*
X132066598Y-81012038D01*
X132062701Y-81056974D01*
X132057447Y-81086230D01*
X132050231Y-81104252D01*
X132040450Y-81115489D01*
X132037312Y-81117921D01*
X131989761Y-81136917D01*
X131941697Y-81129400D01*
X131913086Y-81109457D01*
X131901447Y-81095325D01*
X131893391Y-81076780D01*
X131888271Y-81048666D01*
X131885441Y-81005827D01*
X131884256Y-80943105D01*
X131884057Y-80877739D01*
X131884018Y-80795732D01*
X131882614Y-80737684D01*
X131877914Y-80698535D01*
X131867987Y-80673220D01*
X131850903Y-80656677D01*
X131824732Y-80643844D01*
X131789775Y-80630509D01*
X131751596Y-80615993D01*
X131756141Y-80873611D01*
X131757971Y-80966481D01*
X131760112Y-81035111D01*
X131763181Y-81084289D01*
X131767794Y-81118802D01*
X131774568Y-81143438D01*
X131784119Y-81162984D01*
X131795634Y-81180230D01*
X131851190Y-81235320D01*
X131918980Y-81267178D01*
X131992713Y-81274809D01*
X132066093Y-81257220D01*
G04 #@! TA.AperFunction,EtchedComponent*
G36*
X131789775Y-80630509D02*
G01*
X131824732Y-80643844D01*
X131850903Y-80656677D01*
X131867987Y-80673220D01*
X131877914Y-80698535D01*
X131882614Y-80737684D01*
X131884018Y-80795732D01*
X131884057Y-80877739D01*
X131884256Y-80943105D01*
X131885441Y-81005827D01*
X131888271Y-81048666D01*
X131893391Y-81076780D01*
X131901447Y-81095325D01*
X131913086Y-81109457D01*
X131941697Y-81129400D01*
X131989761Y-81136917D01*
X132037312Y-81117921D01*
X132040450Y-81115489D01*
X132050231Y-81104252D01*
X132057447Y-81086230D01*
X132062701Y-81056974D01*
X132066598Y-81012038D01*
X132069744Y-80946972D01*
X132072743Y-80857330D01*
X132080000Y-80617303D01*
X132141686Y-80644956D01*
X132203371Y-80672609D01*
X132203371Y-80891754D01*
X132203116Y-80951289D01*
X132200914Y-81034108D01*
X132195339Y-81095773D01*
X132185059Y-81141252D01*
X132168742Y-81175516D01*
X132145057Y-81203534D01*
X132112672Y-81230277D01*
X132066093Y-81257220D01*
X131992713Y-81274809D01*
X131918980Y-81267178D01*
X131851190Y-81235320D01*
X131795634Y-81180230D01*
X131784119Y-81162984D01*
X131774568Y-81143438D01*
X131767794Y-81118802D01*
X131763181Y-81084289D01*
X131760112Y-81035111D01*
X131757971Y-80966481D01*
X131756141Y-80873611D01*
X131751596Y-80615993D01*
X131789775Y-80630509D01*
G37*
G04 #@! TD.AperFunction*
X133879926Y-81235245D02*
X133945858Y-81210916D01*
X133999273Y-81167883D01*
X134020164Y-81137591D01*
X134042939Y-81082006D01*
X134042466Y-81041814D01*
X134018562Y-81014783D01*
X134009717Y-81010187D01*
X133971530Y-80995856D01*
X133952028Y-80999528D01*
X133945422Y-81023593D01*
X133945086Y-81036886D01*
X133932992Y-81085790D01*
X133901471Y-81120001D01*
X133857659Y-81136524D01*
X133808695Y-81132366D01*
X133768894Y-81110773D01*
X133755450Y-81098456D01*
X133745921Y-81083513D01*
X133739485Y-81060925D01*
X133735317Y-81025672D01*
X133732597Y-80972734D01*
X133730502Y-80897093D01*
X133729960Y-80873143D01*
X133727981Y-80791210D01*
X133725731Y-80733545D01*
X133722357Y-80695392D01*
X133717006Y-80671996D01*
X133708824Y-80658602D01*
X133696959Y-80650455D01*
X133689362Y-80646856D01*
X133657102Y-80634548D01*
X133638111Y-80630486D01*
X133631836Y-80644052D01*
X133628006Y-80685066D01*
X133626600Y-80754001D01*
X133627598Y-80851331D01*
X133627908Y-80866343D01*
X133630101Y-80955141D01*
X133632693Y-81019981D01*
X133636382Y-81065933D01*
X133641864Y-81098065D01*
X133649835Y-81121447D01*
X133660993Y-81141148D01*
X133666830Y-81149590D01*
X133700296Y-81186943D01*
X133737727Y-81215997D01*
X133742309Y-81218533D01*
X133809426Y-81238557D01*
X133879926Y-81235245D01*
G04 #@! TA.AperFunction,EtchedComponent*
G36*
X133657102Y-80634548D02*
G01*
X133689362Y-80646856D01*
X133696959Y-80650455D01*
X133708824Y-80658602D01*
X133717006Y-80671996D01*
X133722357Y-80695392D01*
X133725731Y-80733545D01*
X133727981Y-80791210D01*
X133729960Y-80873143D01*
X133730502Y-80897093D01*
X133732597Y-80972734D01*
X133735317Y-81025672D01*
X133739485Y-81060925D01*
X133745921Y-81083513D01*
X133755450Y-81098456D01*
X133768894Y-81110773D01*
X133808695Y-81132366D01*
X133857659Y-81136524D01*
X133901471Y-81120001D01*
X133932992Y-81085790D01*
X133945086Y-81036886D01*
X133945422Y-81023593D01*
X133952028Y-80999528D01*
X133971530Y-80995856D01*
X134009717Y-81010187D01*
X134018562Y-81014783D01*
X134042466Y-81041814D01*
X134042939Y-81082006D01*
X134020164Y-81137591D01*
X133999273Y-81167883D01*
X133945858Y-81210916D01*
X133879926Y-81235245D01*
X133809426Y-81238557D01*
X133742309Y-81218533D01*
X133737727Y-81215997D01*
X133700296Y-81186943D01*
X133666830Y-81149590D01*
X133660993Y-81141148D01*
X133649835Y-81121447D01*
X133641864Y-81098065D01*
X133636382Y-81065933D01*
X133632693Y-81019981D01*
X133630101Y-80955141D01*
X133627908Y-80866343D01*
X133627598Y-80851331D01*
X133626600Y-80754001D01*
X133628006Y-80685066D01*
X133631836Y-80644052D01*
X133638111Y-80630486D01*
X133657102Y-80634548D01*
G37*
G04 #@! TD.AperFunction*
X132725886Y-81333711D02*
X132730139Y-81274387D01*
X132735025Y-81239428D01*
X132741795Y-81224180D01*
X132751702Y-81223985D01*
X132754914Y-81225805D01*
X132797644Y-81238985D01*
X132853227Y-81238215D01*
X132909737Y-81224667D01*
X132945082Y-81207139D01*
X132981321Y-81179139D01*
X133007813Y-81147451D01*
X133025999Y-81107187D01*
X133037322Y-81053457D01*
X133043222Y-80981374D01*
X133045143Y-80886049D01*
X133045177Y-80867763D01*
X133045200Y-80662354D01*
X132999491Y-80646420D01*
X132967027Y-80635580D01*
X132949215Y-80630532D01*
X132948691Y-80630486D01*
X132946937Y-80644172D01*
X132945444Y-80681924D01*
X132944326Y-80738776D01*
X132943697Y-80809766D01*
X132943600Y-80852927D01*
X132943398Y-80938027D01*
X132942358Y-80999019D01*
X132939831Y-81040823D01*
X132935164Y-81068358D01*
X132927707Y-81086544D01*
X132916811Y-81100302D01*
X132910007Y-81106927D01*
X132863272Y-81133625D01*
X132812272Y-81135625D01*
X132766001Y-81113045D01*
X132757444Y-81104893D01*
X132744893Y-81089564D01*
X132736188Y-81071382D01*
X132730631Y-81045091D01*
X132727526Y-81005438D01*
X132726176Y-80947168D01*
X132725886Y-80866827D01*
X132725886Y-80662354D01*
X132680177Y-80646420D01*
X132647713Y-80635580D01*
X132629901Y-80630532D01*
X132629377Y-80630486D01*
X132628037Y-80644377D01*
X132626828Y-80683561D01*
X132625801Y-80744300D01*
X132625002Y-80822859D01*
X132624481Y-80915502D01*
X132624286Y-81018491D01*
X132624286Y-81415658D01*
X132671457Y-81435556D01*
X132718629Y-81455453D01*
X132725886Y-81333711D01*
G04 #@! TA.AperFunction,EtchedComponent*
G36*
X132949215Y-80630532D02*
G01*
X132967027Y-80635580D01*
X132999491Y-80646420D01*
X133045200Y-80662354D01*
X133045177Y-80867763D01*
X133045143Y-80886049D01*
X133043222Y-80981374D01*
X133037322Y-81053457D01*
X133025999Y-81107187D01*
X133007813Y-81147451D01*
X132981321Y-81179139D01*
X132945082Y-81207139D01*
X132909737Y-81224667D01*
X132853227Y-81238215D01*
X132797644Y-81238985D01*
X132754914Y-81225805D01*
X132751702Y-81223985D01*
X132741795Y-81224180D01*
X132735025Y-81239428D01*
X132730139Y-81274387D01*
X132725886Y-81333711D01*
X132718629Y-81455453D01*
X132671457Y-81435556D01*
X132624286Y-81415658D01*
X132624286Y-81018491D01*
X132624481Y-80915502D01*
X132625002Y-80822859D01*
X132625801Y-80744300D01*
X132626828Y-80683561D01*
X132628037Y-80644377D01*
X132629377Y-80630486D01*
X132629901Y-80630532D01*
X132647713Y-80635580D01*
X132680177Y-80646420D01*
X132725886Y-80662354D01*
X132725886Y-80866827D01*
X132726176Y-80947168D01*
X132727526Y-81005438D01*
X132730631Y-81045091D01*
X132736188Y-81071382D01*
X132744893Y-81089564D01*
X132757444Y-81104893D01*
X132766001Y-81113045D01*
X132812272Y-81135625D01*
X132863272Y-81133625D01*
X132910007Y-81106927D01*
X132916811Y-81100302D01*
X132927707Y-81086544D01*
X132935164Y-81068358D01*
X132939831Y-81040823D01*
X132942358Y-80999019D01*
X132943398Y-80938027D01*
X132943600Y-80852927D01*
X132943697Y-80809766D01*
X132944326Y-80738776D01*
X132945444Y-80681924D01*
X132946937Y-80644172D01*
X132948691Y-80630486D01*
X132949215Y-80630532D01*
G37*
G04 #@! TD.AperFunction*
X135129833Y-81226337D02*
X135132048Y-81188150D01*
X135133784Y-81130114D01*
X135134899Y-81056820D01*
X135135257Y-80979945D01*
X135135257Y-80719804D01*
X135089326Y-80673873D01*
X135057675Y-80645571D01*
X135029890Y-80634107D01*
X134991915Y-80634832D01*
X134976840Y-80636679D01*
X134929726Y-80642052D01*
X134890756Y-80645131D01*
X134881257Y-80645415D01*
X134849233Y-80643555D01*
X134803432Y-80638886D01*
X134785674Y-80636679D01*
X134742057Y-80633265D01*
X134712745Y-80640680D01*
X134683680Y-80663573D01*
X134673188Y-80673873D01*
X134627257Y-80719804D01*
X134627257Y-81206398D01*
X134664226Y-81223242D01*
X134696059Y-81235718D01*
X134714683Y-81240086D01*
X134719458Y-81226282D01*
X134723921Y-81187714D01*
X134727775Y-81128644D01*
X134730722Y-81053337D01*
X134732143Y-80989714D01*
X134736114Y-80739343D01*
X134770759Y-80734444D01*
X134802268Y-80737869D01*
X134817708Y-80748959D01*
X134822023Y-80769692D01*
X134825708Y-80813855D01*
X134828469Y-80875854D01*
X134830012Y-80950091D01*
X134830235Y-80988294D01*
X134830457Y-81208217D01*
X134876166Y-81224151D01*
X134908518Y-81234985D01*
X134926115Y-81240038D01*
X134926623Y-81240086D01*
X134928388Y-81226352D01*
X134930329Y-81188270D01*
X134932282Y-81130518D01*
X134934084Y-81057773D01*
X134935343Y-80989714D01*
X134939314Y-80739343D01*
X135026400Y-80739343D01*
X135030396Y-80967760D01*
X135034392Y-81196178D01*
X135076847Y-81218132D01*
X135108192Y-81233207D01*
X135126744Y-81240049D01*
X135127279Y-81240086D01*
X135129833Y-81226337D01*
G04 #@! TA.AperFunction,EtchedComponent*
G36*
X134785674Y-80636679D02*
G01*
X134803432Y-80638886D01*
X134849233Y-80643555D01*
X134881257Y-80645415D01*
X134890756Y-80645131D01*
X134929726Y-80642052D01*
X134976840Y-80636679D01*
X134991915Y-80634832D01*
X135029890Y-80634107D01*
X135057675Y-80645571D01*
X135089326Y-80673873D01*
X135135257Y-80719804D01*
X135135257Y-80979945D01*
X135134899Y-81056820D01*
X135133784Y-81130114D01*
X135132048Y-81188150D01*
X135129833Y-81226337D01*
X135127279Y-81240086D01*
X135126744Y-81240049D01*
X135108192Y-81233207D01*
X135076847Y-81218132D01*
X135034392Y-81196178D01*
X135030396Y-80967760D01*
X135026400Y-80739343D01*
X134939314Y-80739343D01*
X134935343Y-80989714D01*
X134934084Y-81057773D01*
X134932282Y-81130518D01*
X134930329Y-81188270D01*
X134928388Y-81226352D01*
X134926623Y-81240086D01*
X134926115Y-81240038D01*
X134908518Y-81234985D01*
X134876166Y-81224151D01*
X134830457Y-81208217D01*
X134830235Y-80988294D01*
X134830012Y-80950091D01*
X134828469Y-80875854D01*
X134825708Y-80813855D01*
X134822023Y-80769692D01*
X134817708Y-80748959D01*
X134802268Y-80737869D01*
X134770759Y-80734444D01*
X134736114Y-80739343D01*
X134732143Y-80989714D01*
X134730722Y-81053337D01*
X134727775Y-81128644D01*
X134723921Y-81187714D01*
X134719458Y-81226282D01*
X134714683Y-81240086D01*
X134696059Y-81235718D01*
X134664226Y-81223242D01*
X134627257Y-81206398D01*
X134627257Y-80719804D01*
X134673188Y-80673873D01*
X134683680Y-80663573D01*
X134712745Y-80640680D01*
X134742057Y-80633265D01*
X134785674Y-80636679D01*
G37*
G04 #@! TD.AperFunction*
X130391115Y-81263038D02*
X130459145Y-81227267D01*
X130509351Y-81169699D01*
X130527185Y-81132688D01*
X130541063Y-81077118D01*
X130548167Y-81006904D01*
X130548840Y-80930273D01*
X130543427Y-80855448D01*
X130532270Y-80790658D01*
X130515714Y-80744127D01*
X130510626Y-80736113D01*
X130450355Y-80676293D01*
X130378769Y-80640465D01*
X130301092Y-80629980D01*
X130222548Y-80646190D01*
X130200689Y-80655908D01*
X130158122Y-80685857D01*
X130120763Y-80725567D01*
X130117232Y-80730603D01*
X130102881Y-80754876D01*
X130093394Y-80780822D01*
X130087790Y-80814978D01*
X130085086Y-80863881D01*
X130084299Y-80934065D01*
X130084286Y-80949800D01*
X130084322Y-80954808D01*
X130229429Y-80954808D01*
X130230273Y-80888570D01*
X130233596Y-80844614D01*
X130240583Y-80816221D01*
X130252416Y-80796675D01*
X130258457Y-80790143D01*
X130293186Y-80765320D01*
X130326903Y-80766452D01*
X130360995Y-80787984D01*
X130381329Y-80810971D01*
X130393371Y-80844522D01*
X130400134Y-80897431D01*
X130400598Y-80903601D01*
X130401752Y-80999487D01*
X130389688Y-81070701D01*
X130364570Y-81116806D01*
X130326560Y-81137365D01*
X130312992Y-81138486D01*
X130277364Y-81132848D01*
X130252994Y-81113314D01*
X130238093Y-81075958D01*
X130230875Y-81016850D01*
X130229429Y-80954808D01*
X130084322Y-80954808D01*
X130084826Y-81024587D01*
X130087096Y-81076841D01*
X130092068Y-81113051D01*
X130100713Y-81139701D01*
X130114005Y-81163278D01*
X130116943Y-81167662D01*
X130166313Y-81226751D01*
X130220109Y-81261053D01*
X130285602Y-81274669D01*
X130307842Y-81275335D01*
X130391115Y-81263038D01*
G04 #@! TA.AperFunction,EtchedComponent*
G36*
X130378769Y-80640465D02*
G01*
X130450355Y-80676293D01*
X130510626Y-80736113D01*
X130515714Y-80744127D01*
X130532270Y-80790658D01*
X130543427Y-80855448D01*
X130548840Y-80930273D01*
X130548167Y-81006904D01*
X130541063Y-81077118D01*
X130527185Y-81132688D01*
X130509351Y-81169699D01*
X130459145Y-81227267D01*
X130391115Y-81263038D01*
X130307842Y-81275335D01*
X130285602Y-81274669D01*
X130220109Y-81261053D01*
X130166313Y-81226751D01*
X130116943Y-81167662D01*
X130114005Y-81163278D01*
X130100713Y-81139701D01*
X130092068Y-81113051D01*
X130087096Y-81076841D01*
X130084826Y-81024587D01*
X130084322Y-80954808D01*
X130229429Y-80954808D01*
X130230875Y-81016850D01*
X130238093Y-81075958D01*
X130252994Y-81113314D01*
X130277364Y-81132848D01*
X130312992Y-81138486D01*
X130326560Y-81137365D01*
X130364570Y-81116806D01*
X130389688Y-81070701D01*
X130401752Y-80999487D01*
X130400598Y-80903601D01*
X130400134Y-80897431D01*
X130393371Y-80844522D01*
X130381329Y-80810971D01*
X130360995Y-80787984D01*
X130326903Y-80766452D01*
X130293186Y-80765320D01*
X130258457Y-80790143D01*
X130252416Y-80796675D01*
X130240583Y-80816221D01*
X130233596Y-80844614D01*
X130230273Y-80888570D01*
X130229429Y-80954808D01*
X130084322Y-80954808D01*
X130084286Y-80949800D01*
X130084299Y-80934065D01*
X130085086Y-80863881D01*
X130087790Y-80814978D01*
X130093394Y-80780822D01*
X130102881Y-80754876D01*
X130117232Y-80730603D01*
X130120763Y-80725567D01*
X130158122Y-80685857D01*
X130200689Y-80655908D01*
X130222548Y-80646190D01*
X130301092Y-80629980D01*
X130378769Y-80640465D01*
G37*
G04 #@! TD.AperFunction*
X136503595Y-81218034D02*
X136561021Y-81180503D01*
X136588719Y-81146904D01*
X136610662Y-81085936D01*
X136612405Y-81037692D01*
X136608457Y-80973184D01*
X136459686Y-80908066D01*
X136387349Y-80874798D01*
X136340084Y-80848036D01*
X136315507Y-80824856D01*
X136311237Y-80802333D01*
X136324889Y-80777545D01*
X136339943Y-80761114D01*
X136383746Y-80734765D01*
X136431389Y-80732919D01*
X136475145Y-80753454D01*
X136507289Y-80794248D01*
X136513038Y-80808653D01*
X136540576Y-80853644D01*
X136572258Y-80872818D01*
X136615714Y-80889221D01*
X136615714Y-80827034D01*
X136611872Y-80784717D01*
X136596823Y-80749031D01*
X136565280Y-80708057D01*
X136560592Y-80702733D01*
X136525506Y-80666280D01*
X136495347Y-80646717D01*
X136457615Y-80637717D01*
X136426335Y-80634770D01*
X136370385Y-80634035D01*
X136330555Y-80643340D01*
X136305708Y-80657154D01*
X136266656Y-80687533D01*
X136239625Y-80720387D01*
X136222517Y-80761706D01*
X136213238Y-80817479D01*
X136209693Y-80893695D01*
X136209410Y-80932378D01*
X136210372Y-80978753D01*
X136298007Y-80978753D01*
X136299023Y-80953874D01*
X136301556Y-80949800D01*
X136318274Y-80955335D01*
X136354249Y-80969983D01*
X136402331Y-80990810D01*
X136412386Y-80995286D01*
X136473152Y-81026186D01*
X136506632Y-81053343D01*
X136513990Y-81078780D01*
X136496391Y-81104519D01*
X136481856Y-81115891D01*
X136429410Y-81138636D01*
X136380322Y-81134878D01*
X136339227Y-81107116D01*
X136310758Y-81057848D01*
X136301631Y-81018743D01*
X136298007Y-80978753D01*
X136210372Y-80978753D01*
X136211285Y-81022751D01*
X136218196Y-81089616D01*
X136231884Y-81138305D01*
X136254096Y-81174151D01*
X136286574Y-81202487D01*
X136300733Y-81211645D01*
X136365053Y-81235493D01*
X136435473Y-81236994D01*
X136503595Y-81218034D01*
G04 #@! TA.AperFunction,EtchedComponent*
G36*
X136426335Y-80634770D02*
G01*
X136457615Y-80637717D01*
X136495347Y-80646717D01*
X136525506Y-80666280D01*
X136560592Y-80702733D01*
X136565280Y-80708057D01*
X136596823Y-80749031D01*
X136611872Y-80784717D01*
X136615714Y-80827034D01*
X136615714Y-80889221D01*
X136572258Y-80872818D01*
X136540576Y-80853644D01*
X136513038Y-80808653D01*
X136507289Y-80794248D01*
X136475145Y-80753454D01*
X136431389Y-80732919D01*
X136383746Y-80734765D01*
X136339943Y-80761114D01*
X136324889Y-80777545D01*
X136311237Y-80802333D01*
X136315507Y-80824856D01*
X136340084Y-80848036D01*
X136387349Y-80874798D01*
X136459686Y-80908066D01*
X136608457Y-80973184D01*
X136612405Y-81037692D01*
X136610662Y-81085936D01*
X136588719Y-81146904D01*
X136561021Y-81180503D01*
X136503595Y-81218034D01*
X136435473Y-81236994D01*
X136365053Y-81235493D01*
X136300733Y-81211645D01*
X136286574Y-81202487D01*
X136254096Y-81174151D01*
X136231884Y-81138305D01*
X136218196Y-81089616D01*
X136211285Y-81022751D01*
X136210372Y-80978753D01*
X136298007Y-80978753D01*
X136301631Y-81018743D01*
X136310758Y-81057848D01*
X136339227Y-81107116D01*
X136380322Y-81134878D01*
X136429410Y-81138636D01*
X136481856Y-81115891D01*
X136496391Y-81104519D01*
X136513990Y-81078780D01*
X136506632Y-81053343D01*
X136473152Y-81026186D01*
X136412386Y-80995286D01*
X136402331Y-80990810D01*
X136354249Y-80969983D01*
X136318274Y-80955335D01*
X136301556Y-80949800D01*
X136299023Y-80953874D01*
X136298007Y-80978753D01*
X136210372Y-80978753D01*
X136209410Y-80932378D01*
X136209693Y-80893695D01*
X136213238Y-80817479D01*
X136222517Y-80761706D01*
X136239625Y-80720387D01*
X136266656Y-80687533D01*
X136305708Y-80657154D01*
X136330555Y-80643340D01*
X136370385Y-80634035D01*
X136426335Y-80634770D01*
G37*
G04 #@! TD.AperFunction*
X134540117Y-81119642D02*
X134539933Y-81011163D01*
X134539219Y-80927713D01*
X134537675Y-80865296D01*
X134535001Y-80819915D01*
X134530894Y-80787571D01*
X134525055Y-80764267D01*
X134517182Y-80746005D01*
X134511221Y-80735582D01*
X134461855Y-80679055D01*
X134399264Y-80643623D01*
X134330013Y-80630910D01*
X134260668Y-80642537D01*
X134219375Y-80663432D01*
X134176025Y-80699578D01*
X134146481Y-80743724D01*
X134128655Y-80801538D01*
X134120463Y-80878687D01*
X134119302Y-80935286D01*
X134119458Y-80939353D01*
X134220857Y-80939353D01*
X134221476Y-80874450D01*
X134224314Y-80831486D01*
X134230840Y-80803378D01*
X134242523Y-80783047D01*
X134256483Y-80767712D01*
X134303365Y-80738110D01*
X134353701Y-80735581D01*
X134401276Y-80760295D01*
X134404979Y-80763644D01*
X134420783Y-80781065D01*
X134430693Y-80801791D01*
X134436058Y-80832638D01*
X134438228Y-80880423D01*
X134438571Y-80933252D01*
X134437827Y-80999619D01*
X134434748Y-81043894D01*
X134428061Y-81072991D01*
X134416496Y-81093827D01*
X134407013Y-81104893D01*
X134362960Y-81132802D01*
X134312224Y-81136157D01*
X134263796Y-81114841D01*
X134254450Y-81106927D01*
X134238540Y-81089353D01*
X134228610Y-81068413D01*
X134223278Y-81037218D01*
X134221163Y-80988878D01*
X134220857Y-80939353D01*
X134119458Y-80939353D01*
X134122810Y-81026432D01*
X134134726Y-81094914D01*
X134157135Y-81146400D01*
X134192124Y-81186557D01*
X134219375Y-81207139D01*
X134268907Y-81229375D01*
X134326316Y-81239696D01*
X134379682Y-81236933D01*
X134409543Y-81225788D01*
X134421261Y-81222617D01*
X134429037Y-81234443D01*
X134434465Y-81266134D01*
X134438571Y-81314407D01*
X134443067Y-81368171D01*
X134449313Y-81400518D01*
X134460676Y-81419015D01*
X134480528Y-81431230D01*
X134493000Y-81436638D01*
X134540171Y-81456399D01*
X134540117Y-81119642D01*
G04 #@! TA.AperFunction,EtchedComponent*
G36*
X134399264Y-80643623D02*
G01*
X134461855Y-80679055D01*
X134511221Y-80735582D01*
X134517182Y-80746005D01*
X134525055Y-80764267D01*
X134530894Y-80787571D01*
X134535001Y-80819915D01*
X134537675Y-80865296D01*
X134539219Y-80927713D01*
X134539933Y-81011163D01*
X134540117Y-81119642D01*
X134540171Y-81456399D01*
X134493000Y-81436638D01*
X134480528Y-81431230D01*
X134460676Y-81419015D01*
X134449313Y-81400518D01*
X134443067Y-81368171D01*
X134438571Y-81314407D01*
X134434465Y-81266134D01*
X134429037Y-81234443D01*
X134421261Y-81222617D01*
X134409543Y-81225788D01*
X134379682Y-81236933D01*
X134326316Y-81239696D01*
X134268907Y-81229375D01*
X134219375Y-81207139D01*
X134192124Y-81186557D01*
X134157135Y-81146400D01*
X134134726Y-81094914D01*
X134122810Y-81026432D01*
X134119458Y-80939353D01*
X134220857Y-80939353D01*
X134221163Y-80988878D01*
X134223278Y-81037218D01*
X134228610Y-81068413D01*
X134238540Y-81089353D01*
X134254450Y-81106927D01*
X134263796Y-81114841D01*
X134312224Y-81136157D01*
X134362960Y-81132802D01*
X134407013Y-81104893D01*
X134416496Y-81093827D01*
X134428061Y-81072991D01*
X134434748Y-81043894D01*
X134437827Y-80999619D01*
X134438571Y-80933252D01*
X134438228Y-80880423D01*
X134436058Y-80832638D01*
X134430693Y-80801791D01*
X134420783Y-80781065D01*
X134404979Y-80763644D01*
X134401276Y-80760295D01*
X134353701Y-80735581D01*
X134303365Y-80738110D01*
X134256483Y-80767712D01*
X134242523Y-80783047D01*
X134230840Y-80803378D01*
X134224314Y-80831486D01*
X134221476Y-80874450D01*
X134220857Y-80939353D01*
X134119458Y-80939353D01*
X134119302Y-80935286D01*
X134120463Y-80878687D01*
X134128655Y-80801538D01*
X134146481Y-80743724D01*
X134176025Y-80699578D01*
X134219375Y-80663432D01*
X134260668Y-80642537D01*
X134330013Y-80630910D01*
X134399264Y-80643623D01*
G37*
G04 #@! TD.AperFunction*
X131518303Y-81253761D02*
X131575527Y-81215265D01*
X131619749Y-81159665D01*
X131646167Y-81088914D01*
X131651510Y-81036838D01*
X131650903Y-81015107D01*
X131645822Y-80998469D01*
X131631855Y-80983563D01*
X131604589Y-80967027D01*
X131559612Y-80945502D01*
X131492511Y-80915626D01*
X131492171Y-80915476D01*
X131430407Y-80887187D01*
X131379759Y-80862067D01*
X131345404Y-80842821D01*
X131332518Y-80832152D01*
X131332514Y-80832066D01*
X131343872Y-80808834D01*
X131370431Y-80783226D01*
X131400923Y-80764779D01*
X131416370Y-80761114D01*
X131458515Y-80773788D01*
X131494808Y-80805529D01*
X131512517Y-80840428D01*
X131529552Y-80866155D01*
X131562922Y-80895454D01*
X131602149Y-80920765D01*
X131636756Y-80934529D01*
X131643993Y-80935286D01*
X131652139Y-80922840D01*
X131652630Y-80891028D01*
X131646643Y-80848134D01*
X131635357Y-80802442D01*
X131619950Y-80762239D01*
X131619171Y-80760678D01*
X131572804Y-80695938D01*
X131512711Y-80651903D01*
X131444465Y-80630289D01*
X131373638Y-80632815D01*
X131305804Y-80661196D01*
X131302788Y-80663192D01*
X131249427Y-80711552D01*
X131214340Y-80774648D01*
X131194922Y-80857613D01*
X131192316Y-80880922D01*
X131187701Y-80990945D01*
X131193233Y-81042252D01*
X131332514Y-81042252D01*
X131334324Y-81010247D01*
X131344222Y-81000907D01*
X131368898Y-81007895D01*
X131407795Y-81024413D01*
X131451275Y-81045119D01*
X131452356Y-81045667D01*
X131489209Y-81065051D01*
X131504000Y-81077987D01*
X131500353Y-81091549D01*
X131484995Y-81109368D01*
X131445923Y-81135155D01*
X131403846Y-81137050D01*
X131366103Y-81118283D01*
X131340034Y-81082085D01*
X131332514Y-81042252D01*
X131193233Y-81042252D01*
X131197194Y-81078973D01*
X131221550Y-81148788D01*
X131255456Y-81197698D01*
X131316653Y-81247122D01*
X131384063Y-81271641D01*
X131452880Y-81273203D01*
X131518303Y-81253761D01*
G04 #@! TA.AperFunction,EtchedComponent*
G36*
X131512711Y-80651903D02*
G01*
X131572804Y-80695938D01*
X131619171Y-80760678D01*
X131619950Y-80762239D01*
X131635357Y-80802442D01*
X131646643Y-80848134D01*
X131652630Y-80891028D01*
X131652139Y-80922840D01*
X131643993Y-80935286D01*
X131636756Y-80934529D01*
X131602149Y-80920765D01*
X131562922Y-80895454D01*
X131529552Y-80866155D01*
X131512517Y-80840428D01*
X131494808Y-80805529D01*
X131458515Y-80773788D01*
X131416370Y-80761114D01*
X131400923Y-80764779D01*
X131370431Y-80783226D01*
X131343872Y-80808834D01*
X131332514Y-80832066D01*
X131332518Y-80832152D01*
X131345404Y-80842821D01*
X131379759Y-80862067D01*
X131430407Y-80887187D01*
X131492171Y-80915476D01*
X131492511Y-80915626D01*
X131559612Y-80945502D01*
X131604589Y-80967027D01*
X131631855Y-80983563D01*
X131645822Y-80998469D01*
X131650903Y-81015107D01*
X131651510Y-81036838D01*
X131646167Y-81088914D01*
X131619749Y-81159665D01*
X131575527Y-81215265D01*
X131518303Y-81253761D01*
X131452880Y-81273203D01*
X131384063Y-81271641D01*
X131316653Y-81247122D01*
X131255456Y-81197698D01*
X131221550Y-81148788D01*
X131197194Y-81078973D01*
X131193233Y-81042252D01*
X131332514Y-81042252D01*
X131340034Y-81082085D01*
X131366103Y-81118283D01*
X131403846Y-81137050D01*
X131445923Y-81135155D01*
X131484995Y-81109368D01*
X131500353Y-81091549D01*
X131504000Y-81077987D01*
X131489209Y-81065051D01*
X131452356Y-81045667D01*
X131451275Y-81045119D01*
X131407795Y-81024413D01*
X131368898Y-81007895D01*
X131344222Y-81000907D01*
X131334324Y-81010247D01*
X131332514Y-81042252D01*
X131193233Y-81042252D01*
X131187701Y-80990945D01*
X131192316Y-80880922D01*
X131194922Y-80857613D01*
X131214340Y-80774648D01*
X131249427Y-80711552D01*
X131302788Y-80663192D01*
X131305804Y-80661196D01*
X131373638Y-80632815D01*
X131444465Y-80630289D01*
X131512711Y-80651903D01*
G37*
G04 #@! TD.AperFunction*
X133389744Y-81234032D02*
X133446616Y-81212913D01*
X133447267Y-81212507D01*
X133482440Y-81186620D01*
X133508407Y-81156367D01*
X133526670Y-81116942D01*
X133538732Y-81063538D01*
X133546096Y-80991349D01*
X133550264Y-80895568D01*
X133550629Y-80881922D01*
X133555876Y-80676158D01*
X133511716Y-80653322D01*
X133479763Y-80637890D01*
X133460470Y-80630577D01*
X133459578Y-80630486D01*
X133456239Y-80643978D01*
X133453587Y-80680374D01*
X133451956Y-80733548D01*
X133451600Y-80776607D01*
X133451592Y-80846359D01*
X133448403Y-80890163D01*
X133437288Y-80911056D01*
X133413501Y-80912075D01*
X133372296Y-80896259D01*
X133310086Y-80867185D01*
X133264341Y-80843037D01*
X133240813Y-80822087D01*
X133233896Y-80799253D01*
X133233886Y-80798123D01*
X133245299Y-80758788D01*
X133279092Y-80737538D01*
X133330809Y-80734461D01*
X133368061Y-80734994D01*
X133387703Y-80724265D01*
X133399952Y-80698495D01*
X133407002Y-80665663D01*
X133396842Y-80647034D01*
X133393017Y-80644368D01*
X133357001Y-80633660D01*
X133306566Y-80632144D01*
X133254626Y-80639241D01*
X133217822Y-80652212D01*
X133166938Y-80695415D01*
X133138014Y-80755554D01*
X133132286Y-80802538D01*
X133136657Y-80844918D01*
X133152475Y-80879512D01*
X133183797Y-80910237D01*
X133234678Y-80941010D01*
X133309176Y-80975748D01*
X133313714Y-80977712D01*
X133380821Y-81008713D01*
X133422232Y-81034138D01*
X133439981Y-81056986D01*
X133436107Y-81080255D01*
X133412643Y-81106944D01*
X133405627Y-81113086D01*
X133358630Y-81136900D01*
X133309933Y-81135897D01*
X133267522Y-81112549D01*
X133239384Y-81069325D01*
X133236769Y-81060840D01*
X133211308Y-81019692D01*
X133179001Y-80999872D01*
X133132286Y-80980230D01*
X133132286Y-81031050D01*
X133146496Y-81104918D01*
X133188675Y-81172673D01*
X133210624Y-81195339D01*
X133260517Y-81224431D01*
X133323967Y-81237600D01*
X133389744Y-81234032D01*
G04 #@! TA.AperFunction,EtchedComponent*
G36*
X133460470Y-80630577D02*
G01*
X133479763Y-80637890D01*
X133511716Y-80653322D01*
X133555876Y-80676158D01*
X133550629Y-80881922D01*
X133550264Y-80895568D01*
X133546096Y-80991349D01*
X133538732Y-81063538D01*
X133526670Y-81116942D01*
X133508407Y-81156367D01*
X133482440Y-81186620D01*
X133447267Y-81212507D01*
X133446616Y-81212913D01*
X133389744Y-81234032D01*
X133323967Y-81237600D01*
X133260517Y-81224431D01*
X133210624Y-81195339D01*
X133188675Y-81172673D01*
X133146496Y-81104918D01*
X133132286Y-81031050D01*
X133132286Y-80980230D01*
X133179001Y-80999872D01*
X133211308Y-81019692D01*
X133236769Y-81060840D01*
X133239384Y-81069325D01*
X133267522Y-81112549D01*
X133309933Y-81135897D01*
X133358630Y-81136900D01*
X133405627Y-81113086D01*
X133412643Y-81106944D01*
X133436107Y-81080255D01*
X133439981Y-81056986D01*
X133422232Y-81034138D01*
X133380821Y-81008713D01*
X133313714Y-80977712D01*
X133309176Y-80975748D01*
X133234678Y-80941010D01*
X133183797Y-80910237D01*
X133152475Y-80879512D01*
X133136657Y-80844918D01*
X133132286Y-80802538D01*
X133138014Y-80755554D01*
X133166938Y-80695415D01*
X133217822Y-80652212D01*
X133254626Y-80639241D01*
X133306566Y-80632144D01*
X133357001Y-80633660D01*
X133393017Y-80644368D01*
X133396842Y-80647034D01*
X133407002Y-80665663D01*
X133399952Y-80698495D01*
X133387703Y-80724265D01*
X133368061Y-80734994D01*
X133330809Y-80734461D01*
X133279092Y-80737538D01*
X133245299Y-80758788D01*
X133233886Y-80798123D01*
X133233896Y-80799253D01*
X133240813Y-80822087D01*
X133264341Y-80843037D01*
X133310086Y-80867185D01*
X133372296Y-80896259D01*
X133413501Y-80912075D01*
X133437288Y-80911056D01*
X133448403Y-80890163D01*
X133451592Y-80846359D01*
X133451600Y-80776607D01*
X133451956Y-80733548D01*
X133453587Y-80680374D01*
X133456239Y-80643978D01*
X133459578Y-80630486D01*
X133460470Y-80630577D01*
G37*
G04 #@! TD.AperFunction*
X130949744Y-81265082D02*
X131005201Y-81237432D01*
X131054148Y-81186520D01*
X131067629Y-81167662D01*
X131082314Y-81142985D01*
X131091842Y-81116184D01*
X131097293Y-81080413D01*
X131099747Y-81028831D01*
X131100286Y-80960733D01*
X131097852Y-80867412D01*
X131089394Y-80797343D01*
X131073174Y-80745069D01*
X131047454Y-80705131D01*
X131010497Y-80672071D01*
X131007782Y-80670114D01*
X130971360Y-80650092D01*
X130927502Y-80640185D01*
X130871724Y-80637743D01*
X130781048Y-80637743D01*
X130781010Y-80549717D01*
X130780166Y-80500692D01*
X130775024Y-80471935D01*
X130761587Y-80454689D01*
X130735858Y-80440192D01*
X130729679Y-80437231D01*
X130700764Y-80423352D01*
X130678376Y-80414586D01*
X130661729Y-80413829D01*
X130650036Y-80423977D01*
X130642510Y-80447927D01*
X130638366Y-80488574D01*
X130636815Y-80548814D01*
X130637071Y-80631545D01*
X130638349Y-80739661D01*
X130638748Y-80772000D01*
X130640185Y-80883476D01*
X130641472Y-80956397D01*
X130780971Y-80956397D01*
X130781755Y-80894501D01*
X130785240Y-80854003D01*
X130793124Y-80827292D01*
X130807105Y-80806756D01*
X130816597Y-80796740D01*
X130855404Y-80767433D01*
X130889763Y-80765048D01*
X130925216Y-80789250D01*
X130926114Y-80790143D01*
X130940539Y-80808847D01*
X130949313Y-80834268D01*
X130953739Y-80873416D01*
X130955118Y-80933303D01*
X130955143Y-80946570D01*
X130951812Y-81029099D01*
X130940969Y-81086309D01*
X130921340Y-81121234D01*
X130891650Y-81136906D01*
X130874491Y-81138486D01*
X130833766Y-81131074D01*
X130805832Y-81106670D01*
X130789017Y-81062020D01*
X130781650Y-80993870D01*
X130780971Y-80956397D01*
X130641472Y-80956397D01*
X130641708Y-80969755D01*
X130643677Y-81034667D01*
X130646450Y-81082042D01*
X130650388Y-81115710D01*
X130655849Y-81139502D01*
X130663192Y-81157247D01*
X130672777Y-81172776D01*
X130676887Y-81178619D01*
X130731405Y-81233815D01*
X130800336Y-81265110D01*
X130880072Y-81273835D01*
X130949744Y-81265082D01*
G04 #@! TA.AperFunction,EtchedComponent*
G36*
X130678376Y-80414586D02*
G01*
X130700764Y-80423352D01*
X130729679Y-80437231D01*
X130735858Y-80440192D01*
X130761587Y-80454689D01*
X130775024Y-80471935D01*
X130780166Y-80500692D01*
X130781010Y-80549717D01*
X130781048Y-80637743D01*
X130871724Y-80637743D01*
X130927502Y-80640185D01*
X130971360Y-80650092D01*
X131007782Y-80670114D01*
X131010497Y-80672071D01*
X131047454Y-80705131D01*
X131073174Y-80745069D01*
X131089394Y-80797343D01*
X131097852Y-80867412D01*
X131100286Y-80960733D01*
X131099747Y-81028831D01*
X131097293Y-81080413D01*
X131091842Y-81116184D01*
X131082314Y-81142985D01*
X131067629Y-81167662D01*
X131054148Y-81186520D01*
X131005201Y-81237432D01*
X130949744Y-81265082D01*
X130880072Y-81273835D01*
X130800336Y-81265110D01*
X130731405Y-81233815D01*
X130676887Y-81178619D01*
X130672777Y-81172776D01*
X130663192Y-81157247D01*
X130655849Y-81139502D01*
X130650388Y-81115710D01*
X130646450Y-81082042D01*
X130643677Y-81034667D01*
X130641708Y-80969755D01*
X130641472Y-80956397D01*
X130780971Y-80956397D01*
X130781650Y-80993870D01*
X130789017Y-81062020D01*
X130805832Y-81106670D01*
X130833766Y-81131074D01*
X130874491Y-81138486D01*
X130891650Y-81136906D01*
X130921340Y-81121234D01*
X130940969Y-81086309D01*
X130951812Y-81029099D01*
X130955143Y-80946570D01*
X130955118Y-80933303D01*
X130953739Y-80873416D01*
X130949313Y-80834268D01*
X130940539Y-80808847D01*
X130926114Y-80790143D01*
X130925216Y-80789250D01*
X130889763Y-80765048D01*
X130855404Y-80767433D01*
X130816597Y-80796740D01*
X130807105Y-80806756D01*
X130793124Y-80827292D01*
X130785240Y-80854003D01*
X130781755Y-80894501D01*
X130780971Y-80956397D01*
X130641472Y-80956397D01*
X130640185Y-80883476D01*
X130638748Y-80772000D01*
X130638349Y-80739661D01*
X130637071Y-80631545D01*
X130636815Y-80548814D01*
X130638366Y-80488574D01*
X130642510Y-80447927D01*
X130650036Y-80423977D01*
X130661729Y-80413829D01*
X130678376Y-80414586D01*
G37*
G04 #@! TD.AperFunction*
X135494876Y-81228665D02*
X135536667Y-81209656D01*
X135569469Y-81186622D01*
X135593503Y-81160867D01*
X135610097Y-81127642D01*
X135620577Y-81082200D01*
X135626271Y-81019793D01*
X135628507Y-80935673D01*
X135628743Y-80880279D01*
X135628743Y-80664174D01*
X135591774Y-80647330D01*
X135562656Y-80635019D01*
X135548231Y-80630486D01*
X135545472Y-80643975D01*
X135543282Y-80680347D01*
X135541942Y-80733458D01*
X135541657Y-80775628D01*
X135540434Y-80836553D01*
X135537136Y-80884885D01*
X135532321Y-80914482D01*
X135528496Y-80920771D01*
X135502783Y-80914348D01*
X135462418Y-80897875D01*
X135415679Y-80875542D01*
X135370845Y-80851543D01*
X135336193Y-80830070D01*
X135320002Y-80815315D01*
X135319938Y-80815155D01*
X135321330Y-80787848D01*
X135333818Y-80761781D01*
X135355743Y-80740608D01*
X135387743Y-80733526D01*
X135415092Y-80734351D01*
X135453826Y-80734958D01*
X135474158Y-80725884D01*
X135486369Y-80701908D01*
X135487909Y-80697387D01*
X135493203Y-80663194D01*
X135479047Y-80642432D01*
X135442148Y-80632538D01*
X135402289Y-80630708D01*
X135330562Y-80644273D01*
X135293432Y-80663645D01*
X135247576Y-80709155D01*
X135223256Y-80765017D01*
X135221073Y-80824043D01*
X135241629Y-80879047D01*
X135272549Y-80913514D01*
X135303420Y-80932811D01*
X135351942Y-80957241D01*
X135408485Y-80982015D01*
X135417910Y-80985801D01*
X135480019Y-81013209D01*
X135515822Y-81037366D01*
X135527337Y-81061381D01*
X135516580Y-81088365D01*
X135498114Y-81109457D01*
X135454469Y-81135428D01*
X135406446Y-81137376D01*
X135362406Y-81117363D01*
X135330709Y-81077449D01*
X135326549Y-81067152D01*
X135302327Y-81029276D01*
X135266965Y-81001158D01*
X135222343Y-80978083D01*
X135222343Y-81043515D01*
X135224969Y-81083494D01*
X135236230Y-81115003D01*
X135261199Y-81148622D01*
X135285169Y-81174516D01*
X135322441Y-81211183D01*
X135351401Y-81230879D01*
X135382505Y-81238780D01*
X135417713Y-81240086D01*
X135494876Y-81228665D01*
G04 #@! TA.AperFunction,EtchedComponent*
G36*
X135562656Y-80635019D02*
G01*
X135591774Y-80647330D01*
X135628743Y-80664174D01*
X135628743Y-80880279D01*
X135628507Y-80935673D01*
X135626271Y-81019793D01*
X135620577Y-81082200D01*
X135610097Y-81127642D01*
X135593503Y-81160867D01*
X135569469Y-81186622D01*
X135536667Y-81209656D01*
X135494876Y-81228665D01*
X135417713Y-81240086D01*
X135382505Y-81238780D01*
X135351401Y-81230879D01*
X135322441Y-81211183D01*
X135285169Y-81174516D01*
X135261199Y-81148622D01*
X135236230Y-81115003D01*
X135224969Y-81083494D01*
X135222343Y-81043515D01*
X135222343Y-80978083D01*
X135266965Y-81001158D01*
X135302327Y-81029276D01*
X135326549Y-81067152D01*
X135330709Y-81077449D01*
X135362406Y-81117363D01*
X135406446Y-81137376D01*
X135454469Y-81135428D01*
X135498114Y-81109457D01*
X135516580Y-81088365D01*
X135527337Y-81061381D01*
X135515822Y-81037366D01*
X135480019Y-81013209D01*
X135417910Y-80985801D01*
X135408485Y-80982015D01*
X135351942Y-80957241D01*
X135303420Y-80932811D01*
X135272549Y-80913514D01*
X135241629Y-80879047D01*
X135221073Y-80824043D01*
X135223256Y-80765017D01*
X135247576Y-80709155D01*
X135293432Y-80663645D01*
X135330562Y-80644273D01*
X135402289Y-80630708D01*
X135442148Y-80632538D01*
X135479047Y-80642432D01*
X135493203Y-80663194D01*
X135487909Y-80697387D01*
X135486369Y-80701908D01*
X135474158Y-80725884D01*
X135453826Y-80734958D01*
X135415092Y-80734351D01*
X135387743Y-80733526D01*
X135355743Y-80740608D01*
X135333818Y-80761781D01*
X135321330Y-80787848D01*
X135319938Y-80815155D01*
X135320002Y-80815315D01*
X135336193Y-80830070D01*
X135370845Y-80851543D01*
X135415679Y-80875542D01*
X135462418Y-80897875D01*
X135502783Y-80914348D01*
X135528496Y-80920771D01*
X135532321Y-80914482D01*
X135537136Y-80884885D01*
X135540434Y-80836553D01*
X135541657Y-80775628D01*
X135541942Y-80733458D01*
X135543282Y-80680347D01*
X135545472Y-80643975D01*
X135548231Y-80630486D01*
X135562656Y-80635019D01*
G37*
G04 #@! TD.AperFunction*
X133453910Y-85942652D02*
X133532454Y-85942222D01*
X133589298Y-85941058D01*
X133628105Y-85938793D01*
X133652538Y-85935060D01*
X133666262Y-85929494D01*
X133672940Y-85921727D01*
X133676236Y-85911395D01*
X133676556Y-85910057D01*
X133681562Y-85885921D01*
X133690829Y-85838299D01*
X133703392Y-85772259D01*
X133718287Y-85692872D01*
X133734551Y-85605204D01*
X133735119Y-85602125D01*
X133751410Y-85516211D01*
X133766652Y-85440304D01*
X133779861Y-85378955D01*
X133790054Y-85336718D01*
X133796248Y-85318145D01*
X133796543Y-85317816D01*
X133814788Y-85308747D01*
X133852405Y-85293633D01*
X133901271Y-85275738D01*
X133901543Y-85275642D01*
X133963093Y-85252507D01*
X134035657Y-85223035D01*
X134104057Y-85193403D01*
X134107294Y-85191938D01*
X134218702Y-85141374D01*
X134465399Y-85309840D01*
X134541077Y-85361197D01*
X134609631Y-85407111D01*
X134667088Y-85444970D01*
X134709476Y-85472163D01*
X134732825Y-85486079D01*
X134735042Y-85487111D01*
X134752010Y-85482516D01*
X134783701Y-85460345D01*
X134831352Y-85419553D01*
X134896198Y-85359095D01*
X134962397Y-85294773D01*
X135026214Y-85231388D01*
X135083329Y-85173549D01*
X135130305Y-85124825D01*
X135163703Y-85088790D01*
X135180085Y-85069016D01*
X135180694Y-85067998D01*
X135182505Y-85054428D01*
X135175683Y-85032267D01*
X135158540Y-84998522D01*
X135129393Y-84950200D01*
X135086555Y-84884308D01*
X135029448Y-84799483D01*
X134978766Y-84724823D01*
X134933461Y-84657860D01*
X134896150Y-84602484D01*
X134869452Y-84562580D01*
X134855985Y-84542038D01*
X134855137Y-84540644D01*
X134856781Y-84520962D01*
X134869245Y-84482707D01*
X134890048Y-84433111D01*
X134897462Y-84417272D01*
X134929814Y-84346710D01*
X134964328Y-84266647D01*
X134992365Y-84197371D01*
X135012568Y-84145955D01*
X135028615Y-84106881D01*
X135037888Y-84086459D01*
X135039041Y-84084886D01*
X135056096Y-84082279D01*
X135096298Y-84075137D01*
X135154302Y-84064477D01*
X135224763Y-84051315D01*
X135302335Y-84036667D01*
X135381672Y-84021551D01*
X135457431Y-84006982D01*
X135524264Y-83993978D01*
X135576828Y-83983555D01*
X135609776Y-83976730D01*
X135617857Y-83974801D01*
X135626205Y-83970038D01*
X135632506Y-83959282D01*
X135637045Y-83938902D01*
X135640104Y-83905266D01*
X135641967Y-83854745D01*
X135642918Y-83783708D01*
X135643240Y-83688524D01*
X135643257Y-83649508D01*
X135643257Y-83332201D01*
X135567057Y-83317161D01*
X135524663Y-83309005D01*
X135461400Y-83297101D01*
X135384962Y-83282884D01*
X135303043Y-83267790D01*
X135280400Y-83263645D01*
X135204806Y-83248947D01*
X135138953Y-83234495D01*
X135088366Y-83221625D01*
X135058574Y-83211678D01*
X135053612Y-83208713D01*
X135041426Y-83187717D01*
X135023953Y-83147033D01*
X135004577Y-83094678D01*
X135000734Y-83083400D01*
X134975339Y-83013477D01*
X134943817Y-82934582D01*
X134912969Y-82863734D01*
X134912817Y-82863405D01*
X134861447Y-82752267D01*
X135030399Y-82503747D01*
X135199352Y-82255228D01*
X134982429Y-82037942D01*
X134916819Y-81973274D01*
X134856979Y-81916267D01*
X134806267Y-81869967D01*
X134768046Y-81837416D01*
X134745675Y-81821657D01*
X134742466Y-81820657D01*
X134723626Y-81828531D01*
X134685180Y-81850422D01*
X134631330Y-81883733D01*
X134566276Y-81925869D01*
X134495940Y-81973057D01*
X134424555Y-82021190D01*
X134360908Y-82063072D01*
X134309041Y-82096129D01*
X134272995Y-82117782D01*
X134256867Y-82125457D01*
X134237189Y-82118963D01*
X134199875Y-82101850D01*
X134152621Y-82077674D01*
X134147612Y-82074987D01*
X134083977Y-82043073D01*
X134040341Y-82027421D01*
X134013202Y-82027255D01*
X133999057Y-82041796D01*
X133998975Y-82042000D01*
X133991905Y-82059221D01*
X133975042Y-82100101D01*
X133949695Y-82161475D01*
X133917171Y-82240181D01*
X133878778Y-82333053D01*
X133835822Y-82436928D01*
X133794222Y-82537498D01*
X133748504Y-82648484D01*
X133706526Y-82751297D01*
X133669548Y-82842785D01*
X133638827Y-82919799D01*
X133615622Y-82979185D01*
X133601190Y-83017791D01*
X133596743Y-83032200D01*
X133607896Y-83048728D01*
X133637069Y-83075070D01*
X133675971Y-83104113D01*
X133786757Y-83195961D01*
X133873351Y-83301241D01*
X133934716Y-83417734D01*
X133969815Y-83543224D01*
X133977608Y-83675493D01*
X133971943Y-83736543D01*
X133941078Y-83863205D01*
X133887920Y-83975059D01*
X133815767Y-84070999D01*
X133727917Y-84149924D01*
X133627665Y-84210730D01*
X133518310Y-84252313D01*
X133403147Y-84273572D01*
X133285475Y-84273401D01*
X133168590Y-84250699D01*
X133055789Y-84204362D01*
X132950369Y-84133287D01*
X132906368Y-84093089D01*
X132821979Y-83989871D01*
X132763222Y-83877075D01*
X132729704Y-83757990D01*
X132721035Y-83635905D01*
X132736823Y-83514107D01*
X132776678Y-83395884D01*
X132840207Y-83284525D01*
X132927021Y-83183316D01*
X133024029Y-83104113D01*
X133064437Y-83073838D01*
X133092982Y-83047781D01*
X133103257Y-83032175D01*
X133097877Y-83015157D01*
X133082575Y-82974500D01*
X133058612Y-82913358D01*
X133027244Y-82834881D01*
X132989732Y-82742220D01*
X132947333Y-82638528D01*
X132905663Y-82537474D01*
X132859690Y-82426393D01*
X132817107Y-82323459D01*
X132779221Y-82231835D01*
X132747340Y-82154684D01*
X132722771Y-82095169D01*
X132706820Y-82056456D01*
X132700910Y-82042000D01*
X132686948Y-82027315D01*
X132659940Y-82027358D01*
X132616413Y-82042901D01*
X132552890Y-82074716D01*
X132552388Y-82074987D01*
X132504560Y-82099677D01*
X132465897Y-82117662D01*
X132444095Y-82125386D01*
X132443133Y-82125457D01*
X132426721Y-82117622D01*
X132390487Y-82095835D01*
X132338474Y-82062672D01*
X132274725Y-82020709D01*
X132204060Y-81973057D01*
X132132116Y-81924809D01*
X132067274Y-81882849D01*
X132013735Y-81849773D01*
X131975697Y-81828179D01*
X131957533Y-81820657D01*
X131940808Y-81830543D01*
X131907180Y-81858174D01*
X131860010Y-81900505D01*
X131802658Y-81954495D01*
X131738484Y-82017101D01*
X131717497Y-82038017D01*
X131500499Y-82255377D01*
X131665668Y-82497780D01*
X131715864Y-82572219D01*
X131759919Y-82639028D01*
X131795362Y-82694335D01*
X131819719Y-82734271D01*
X131830522Y-82754964D01*
X131830838Y-82756437D01*
X131825143Y-82775942D01*
X131809826Y-82815178D01*
X131787537Y-82867570D01*
X131771893Y-82902645D01*
X131742641Y-82969799D01*
X131715094Y-83037642D01*
X131693737Y-83094966D01*
X131687935Y-83112428D01*
X131671452Y-83159062D01*
X131655340Y-83195095D01*
X131646490Y-83208713D01*
X131626960Y-83217048D01*
X131584334Y-83228863D01*
X131524145Y-83242819D01*
X131451922Y-83257578D01*
X131419600Y-83263645D01*
X131337522Y-83278727D01*
X131258795Y-83293331D01*
X131191109Y-83306020D01*
X131142160Y-83315358D01*
X131132943Y-83317161D01*
X131056743Y-83332201D01*
X131056743Y-83649508D01*
X131056914Y-83753846D01*
X131057616Y-83832787D01*
X131059134Y-83889962D01*
X131061749Y-83929001D01*
X131065746Y-83953535D01*
X131071409Y-83967195D01*
X131079020Y-83973611D01*
X131082143Y-83974801D01*
X131100978Y-83979020D01*
X131142588Y-83987438D01*
X131201630Y-83999039D01*
X131272757Y-84012805D01*
X131350625Y-84027720D01*
X131429887Y-84042768D01*
X131505198Y-84056931D01*
X131571213Y-84069194D01*
X131622587Y-84078539D01*
X131653975Y-84083950D01*
X131660959Y-84084886D01*
X131667285Y-84097404D01*
X131681290Y-84130754D01*
X131700355Y-84178623D01*
X131707634Y-84197371D01*
X131736996Y-84269805D01*
X131771571Y-84349830D01*
X131802537Y-84417272D01*
X131825323Y-84468841D01*
X131840482Y-84511215D01*
X131845542Y-84537166D01*
X131844736Y-84540644D01*
X131834041Y-84557064D01*
X131809620Y-84593583D01*
X131774095Y-84646313D01*
X131730087Y-84711365D01*
X131680217Y-84784849D01*
X131670356Y-84799355D01*
X131612492Y-84885296D01*
X131569956Y-84950739D01*
X131541054Y-84998696D01*
X131524090Y-85032180D01*
X131517367Y-85054205D01*
X131519190Y-85067783D01*
X131519236Y-85067869D01*
X131533586Y-85085703D01*
X131565323Y-85120183D01*
X131611010Y-85167732D01*
X131667204Y-85224778D01*
X131730468Y-85287745D01*
X131737602Y-85294773D01*
X131817330Y-85371980D01*
X131878857Y-85428670D01*
X131923421Y-85465890D01*
X131952257Y-85484685D01*
X131964958Y-85487111D01*
X131983494Y-85476529D01*
X132021961Y-85452084D01*
X132076386Y-85416388D01*
X132142798Y-85372053D01*
X132217225Y-85321689D01*
X132234601Y-85309840D01*
X132481297Y-85141374D01*
X132592706Y-85191938D01*
X132660457Y-85221405D01*
X132733183Y-85251041D01*
X132795703Y-85274670D01*
X132798457Y-85275642D01*
X132847360Y-85293543D01*
X132885057Y-85308680D01*
X132903425Y-85317790D01*
X132903456Y-85317816D01*
X132909285Y-85334283D01*
X132919192Y-85374781D01*
X132932195Y-85434758D01*
X132947309Y-85509660D01*
X132963552Y-85594936D01*
X132964881Y-85602125D01*
X132981175Y-85689986D01*
X132996133Y-85769740D01*
X133008791Y-85836319D01*
X133018186Y-85884653D01*
X133023354Y-85909675D01*
X133023444Y-85910057D01*
X133026589Y-85920701D01*
X133032704Y-85928738D01*
X133045453Y-85934533D01*
X133068500Y-85938453D01*
X133105509Y-85940865D01*
X133160144Y-85942135D01*
X133236067Y-85942629D01*
X133336944Y-85942714D01*
X133350000Y-85942714D01*
X133453910Y-85942652D01*
G04 #@! TA.AperFunction,EtchedComponent*
G36*
X134745675Y-81821657D02*
G01*
X134768046Y-81837416D01*
X134806267Y-81869967D01*
X134856979Y-81916267D01*
X134916819Y-81973274D01*
X134982429Y-82037942D01*
X135199352Y-82255228D01*
X135030399Y-82503747D01*
X134861447Y-82752267D01*
X134912817Y-82863405D01*
X134912969Y-82863734D01*
X134943817Y-82934582D01*
X134975339Y-83013477D01*
X135000734Y-83083400D01*
X135004577Y-83094678D01*
X135023953Y-83147033D01*
X135041426Y-83187717D01*
X135053612Y-83208713D01*
X135058574Y-83211678D01*
X135088366Y-83221625D01*
X135138953Y-83234495D01*
X135204806Y-83248947D01*
X135280400Y-83263645D01*
X135303043Y-83267790D01*
X135384962Y-83282884D01*
X135461400Y-83297101D01*
X135524663Y-83309005D01*
X135567057Y-83317161D01*
X135643257Y-83332201D01*
X135643257Y-83649508D01*
X135643240Y-83688524D01*
X135642918Y-83783708D01*
X135641967Y-83854745D01*
X135640104Y-83905266D01*
X135637045Y-83938902D01*
X135632506Y-83959282D01*
X135626205Y-83970038D01*
X135617857Y-83974801D01*
X135609776Y-83976730D01*
X135576828Y-83983555D01*
X135524264Y-83993978D01*
X135457431Y-84006982D01*
X135381672Y-84021551D01*
X135302335Y-84036667D01*
X135224763Y-84051315D01*
X135154302Y-84064477D01*
X135096298Y-84075137D01*
X135056096Y-84082279D01*
X135039041Y-84084886D01*
X135037888Y-84086459D01*
X135028615Y-84106881D01*
X135012568Y-84145955D01*
X134992365Y-84197371D01*
X134964328Y-84266647D01*
X134929814Y-84346710D01*
X134897462Y-84417272D01*
X134890048Y-84433111D01*
X134869245Y-84482707D01*
X134856781Y-84520962D01*
X134855137Y-84540644D01*
X134855985Y-84542038D01*
X134869452Y-84562580D01*
X134896150Y-84602484D01*
X134933461Y-84657860D01*
X134978766Y-84724823D01*
X135029448Y-84799483D01*
X135086555Y-84884308D01*
X135129393Y-84950200D01*
X135158540Y-84998522D01*
X135175683Y-85032267D01*
X135182505Y-85054428D01*
X135180694Y-85067998D01*
X135180085Y-85069016D01*
X135163703Y-85088790D01*
X135130305Y-85124825D01*
X135083329Y-85173549D01*
X135026214Y-85231388D01*
X134962397Y-85294773D01*
X134896198Y-85359095D01*
X134831352Y-85419553D01*
X134783701Y-85460345D01*
X134752010Y-85482516D01*
X134735042Y-85487111D01*
X134732825Y-85486079D01*
X134709476Y-85472163D01*
X134667088Y-85444970D01*
X134609631Y-85407111D01*
X134541077Y-85361197D01*
X134465399Y-85309840D01*
X134218702Y-85141374D01*
X134107294Y-85191938D01*
X134104057Y-85193403D01*
X134035657Y-85223035D01*
X133963093Y-85252507D01*
X133901543Y-85275642D01*
X133901271Y-85275738D01*
X133852405Y-85293633D01*
X133814788Y-85308747D01*
X133796543Y-85317816D01*
X133796248Y-85318145D01*
X133790054Y-85336718D01*
X133779861Y-85378955D01*
X133766652Y-85440304D01*
X133751410Y-85516211D01*
X133735119Y-85602125D01*
X133734551Y-85605204D01*
X133718287Y-85692872D01*
X133703392Y-85772259D01*
X133690829Y-85838299D01*
X133681562Y-85885921D01*
X133676556Y-85910057D01*
X133676236Y-85911395D01*
X133672940Y-85921727D01*
X133666262Y-85929494D01*
X133652538Y-85935060D01*
X133628105Y-85938793D01*
X133589298Y-85941058D01*
X133532454Y-85942222D01*
X133453910Y-85942652D01*
X133350000Y-85942714D01*
X133336944Y-85942714D01*
X133236067Y-85942629D01*
X133160144Y-85942135D01*
X133105509Y-85940865D01*
X133068500Y-85938453D01*
X133045453Y-85934533D01*
X133032704Y-85928738D01*
X133026589Y-85920701D01*
X133023444Y-85910057D01*
X133023354Y-85909675D01*
X133018186Y-85884653D01*
X133008791Y-85836319D01*
X132996133Y-85769740D01*
X132981175Y-85689986D01*
X132964881Y-85602125D01*
X132963552Y-85594936D01*
X132947309Y-85509660D01*
X132932195Y-85434758D01*
X132919192Y-85374781D01*
X132909285Y-85334283D01*
X132903456Y-85317816D01*
X132903425Y-85317790D01*
X132885057Y-85308680D01*
X132847360Y-85293543D01*
X132798457Y-85275642D01*
X132795703Y-85274670D01*
X132733183Y-85251041D01*
X132660457Y-85221405D01*
X132592706Y-85191938D01*
X132481297Y-85141374D01*
X132234601Y-85309840D01*
X132217225Y-85321689D01*
X132142798Y-85372053D01*
X132076386Y-85416388D01*
X132021961Y-85452084D01*
X131983494Y-85476529D01*
X131964958Y-85487111D01*
X131952257Y-85484685D01*
X131923421Y-85465890D01*
X131878857Y-85428670D01*
X131817330Y-85371980D01*
X131737602Y-85294773D01*
X131730468Y-85287745D01*
X131667204Y-85224778D01*
X131611010Y-85167732D01*
X131565323Y-85120183D01*
X131533586Y-85085703D01*
X131519236Y-85067869D01*
X131519190Y-85067783D01*
X131517367Y-85054205D01*
X131524090Y-85032180D01*
X131541054Y-84998696D01*
X131569956Y-84950739D01*
X131612492Y-84885296D01*
X131670356Y-84799355D01*
X131680217Y-84784849D01*
X131730087Y-84711365D01*
X131774095Y-84646313D01*
X131809620Y-84593583D01*
X131834041Y-84557064D01*
X131844736Y-84540644D01*
X131845542Y-84537166D01*
X131840482Y-84511215D01*
X131825323Y-84468841D01*
X131802537Y-84417272D01*
X131771571Y-84349830D01*
X131736996Y-84269805D01*
X131707634Y-84197371D01*
X131700355Y-84178623D01*
X131681290Y-84130754D01*
X131667285Y-84097404D01*
X131660959Y-84084886D01*
X131653975Y-84083950D01*
X131622587Y-84078539D01*
X131571213Y-84069194D01*
X131505198Y-84056931D01*
X131429887Y-84042768D01*
X131350625Y-84027720D01*
X131272757Y-84012805D01*
X131201630Y-83999039D01*
X131142588Y-83987438D01*
X131100978Y-83979020D01*
X131082143Y-83974801D01*
X131079020Y-83973611D01*
X131071409Y-83967195D01*
X131065746Y-83953535D01*
X131061749Y-83929001D01*
X131059134Y-83889962D01*
X131057616Y-83832787D01*
X131056914Y-83753846D01*
X131056743Y-83649508D01*
X131056743Y-83332201D01*
X131132943Y-83317161D01*
X131142160Y-83315358D01*
X131191109Y-83306020D01*
X131258795Y-83293331D01*
X131337522Y-83278727D01*
X131419600Y-83263645D01*
X131451922Y-83257578D01*
X131524145Y-83242819D01*
X131584334Y-83228863D01*
X131626960Y-83217048D01*
X131646490Y-83208713D01*
X131655340Y-83195095D01*
X131671452Y-83159062D01*
X131687935Y-83112428D01*
X131693737Y-83094966D01*
X131715094Y-83037642D01*
X131742641Y-82969799D01*
X131771893Y-82902645D01*
X131787537Y-82867570D01*
X131809826Y-82815178D01*
X131825143Y-82775942D01*
X131830838Y-82756437D01*
X131830522Y-82754964D01*
X131819719Y-82734271D01*
X131795362Y-82694335D01*
X131759919Y-82639028D01*
X131715864Y-82572219D01*
X131665668Y-82497780D01*
X131500499Y-82255377D01*
X131717497Y-82038017D01*
X131738484Y-82017101D01*
X131802658Y-81954495D01*
X131860010Y-81900505D01*
X131907180Y-81858174D01*
X131940808Y-81830543D01*
X131957533Y-81820657D01*
X131975697Y-81828179D01*
X132013735Y-81849773D01*
X132067274Y-81882849D01*
X132132116Y-81924809D01*
X132204060Y-81973057D01*
X132274725Y-82020709D01*
X132338474Y-82062672D01*
X132390487Y-82095835D01*
X132426721Y-82117622D01*
X132443133Y-82125457D01*
X132444095Y-82125386D01*
X132465897Y-82117662D01*
X132504560Y-82099677D01*
X132552388Y-82074987D01*
X132552890Y-82074716D01*
X132616413Y-82042901D01*
X132659940Y-82027358D01*
X132686948Y-82027315D01*
X132700910Y-82042000D01*
X132706820Y-82056456D01*
X132722771Y-82095169D01*
X132747340Y-82154684D01*
X132779221Y-82231835D01*
X132817107Y-82323459D01*
X132859690Y-82426393D01*
X132905663Y-82537474D01*
X132947333Y-82638528D01*
X132989732Y-82742220D01*
X133027244Y-82834881D01*
X133058612Y-82913358D01*
X133082575Y-82974500D01*
X133097877Y-83015157D01*
X133103257Y-83032175D01*
X133092982Y-83047781D01*
X133064437Y-83073838D01*
X133024029Y-83104113D01*
X132927021Y-83183316D01*
X132840207Y-83284525D01*
X132776678Y-83395884D01*
X132736823Y-83514107D01*
X132721035Y-83635905D01*
X132729704Y-83757990D01*
X132763222Y-83877075D01*
X132821979Y-83989871D01*
X132906368Y-84093089D01*
X132950369Y-84133287D01*
X133055789Y-84204362D01*
X133168590Y-84250699D01*
X133285475Y-84273401D01*
X133403147Y-84273572D01*
X133518310Y-84252313D01*
X133627665Y-84210730D01*
X133727917Y-84149924D01*
X133815767Y-84070999D01*
X133887920Y-83975059D01*
X133941078Y-83863205D01*
X133971943Y-83736543D01*
X133977608Y-83675493D01*
X133969815Y-83543224D01*
X133934716Y-83417734D01*
X133873351Y-83301241D01*
X133786757Y-83195961D01*
X133675971Y-83104113D01*
X133637069Y-83075070D01*
X133607896Y-83048728D01*
X133596743Y-83032200D01*
X133601190Y-83017791D01*
X133615622Y-82979185D01*
X133638827Y-82919799D01*
X133669548Y-82842785D01*
X133706526Y-82751297D01*
X133748504Y-82648484D01*
X133794222Y-82537498D01*
X133835822Y-82436928D01*
X133878778Y-82333053D01*
X133917171Y-82240181D01*
X133949695Y-82161475D01*
X133975042Y-82100101D01*
X133991905Y-82059221D01*
X133998975Y-82042000D01*
X133999057Y-82041796D01*
X134013202Y-82027255D01*
X134040341Y-82027421D01*
X134083977Y-82043073D01*
X134147612Y-82074987D01*
X134152621Y-82077674D01*
X134199875Y-82101850D01*
X134237189Y-82118963D01*
X134256867Y-82125457D01*
X134272995Y-82117782D01*
X134309041Y-82096129D01*
X134360908Y-82063072D01*
X134424555Y-82021190D01*
X134495940Y-81973057D01*
X134566276Y-81925869D01*
X134631330Y-81883733D01*
X134685180Y-81850422D01*
X134723626Y-81828531D01*
X134742466Y-81820657D01*
X134745675Y-81821657D01*
G37*
G04 #@! TD.AperFunction*
D11*
X146812000Y-86741000D03*
D12*
X149312000Y-86741000D03*
D11*
X146812000Y-80518000D03*
D12*
X149312000Y-80518000D03*
X128524000Y-100584000D03*
X131024000Y-100584000D03*
X128524000Y-92964000D03*
X131024000Y-92964000D03*
D13*
X161036000Y-96774000D03*
D14*
X163576000Y-96774000D03*
D13*
X137795000Y-100584000D03*
D15*
X137795000Y-92964000D03*
D13*
X141097000Y-100584000D03*
D15*
X141097000Y-92964000D03*
D13*
X157607000Y-100584000D03*
D15*
X157607000Y-92964000D03*
D13*
X144399000Y-100584000D03*
D15*
X144399000Y-92964000D03*
D13*
X154305000Y-100584000D03*
D15*
X154305000Y-92964000D03*
D13*
X147701000Y-100584000D03*
D15*
X147701000Y-92964000D03*
D13*
X134493000Y-100584000D03*
D15*
X134493000Y-92964000D03*
D13*
X151003000Y-100584000D03*
D15*
X151003000Y-92964000D03*
D16*
X165735000Y-83339000D03*
D17*
X160655000Y-83339000D03*
D18*
X167386000Y-94249000D03*
D19*
X167386000Y-96789000D03*
X167386000Y-99329000D03*
D18*
X124968000Y-94249000D03*
D19*
X124968000Y-96789000D03*
X124968000Y-99329000D03*
D16*
X161290000Y-109728000D03*
D17*
X166370000Y-109728000D03*
D16*
X125730000Y-109728000D03*
D17*
X130810000Y-109728000D03*
D12*
X154051000Y-87454000D03*
D20*
X154051000Y-79834000D03*
D21*
X142400000Y-86184000D03*
D22*
X142400000Y-83644000D03*
X142400000Y-81104000D03*
D13*
X154940000Y-104775000D03*
D15*
X153670000Y-109855000D03*
X152400000Y-104775000D03*
X151130000Y-109855000D03*
X149860000Y-104775000D03*
X148590000Y-109855000D03*
X147320000Y-104775000D03*
X146050000Y-109855000D03*
X144780000Y-104775000D03*
X143510000Y-109855000D03*
X142240000Y-104775000D03*
X140970000Y-109855000D03*
X139700000Y-104775000D03*
X138430000Y-109855000D03*
X137160000Y-104775000D03*
D23*
X131024000Y-92964000D02*
X131024000Y-91019000D01*
X157988000Y-77216000D02*
X140970000Y-77216000D01*
X134493000Y-92964000D02*
X131024000Y-92964000D01*
X148463000Y-90805000D02*
X146812000Y-89154000D01*
X154305000Y-92964000D02*
X152146000Y-90805000D01*
X131024000Y-91019000D02*
X130175000Y-90170000D01*
X151130000Y-112141000D02*
X151130000Y-109855000D01*
X123825000Y-90170000D02*
X122809000Y-91186000D01*
X140970000Y-77216000D02*
X137795000Y-80391000D01*
X146812000Y-89154000D02*
X146812000Y-86741000D01*
X137795000Y-80391000D02*
X137795000Y-86106000D01*
X152146000Y-90805000D02*
X148463000Y-90805000D01*
X122809000Y-112395000D02*
X124968000Y-114554000D01*
X137795000Y-92964000D02*
X134493000Y-92964000D01*
X130175000Y-90170000D02*
X123825000Y-90170000D01*
X157607000Y-92964000D02*
X154305000Y-92964000D01*
X160655000Y-83339000D02*
X160655000Y-79883000D01*
X137795000Y-86106000D02*
X137795000Y-92964000D01*
X160655000Y-79883000D02*
X157988000Y-77216000D01*
X137873000Y-86184000D02*
X137795000Y-86106000D01*
X148717000Y-114554000D02*
X151130000Y-112141000D01*
X122809000Y-91186000D02*
X122809000Y-112395000D01*
X142400000Y-86184000D02*
X137873000Y-86184000D01*
X124968000Y-114554000D02*
X148717000Y-114554000D01*
X151003000Y-99084000D02*
X153313000Y-96774000D01*
X123698000Y-103505000D02*
X125819001Y-101383999D01*
X146050000Y-111887000D02*
X144272000Y-113665000D01*
X125349000Y-113665000D02*
X123698000Y-112014000D01*
X146050000Y-109855000D02*
X146050000Y-111887000D01*
X151003000Y-100584000D02*
X147701000Y-100584000D01*
X150241000Y-89154000D02*
X152527000Y-89154000D01*
X128524000Y-92964000D02*
X128524000Y-100330000D01*
X161036000Y-92710000D02*
X161036000Y-95274000D01*
X125819001Y-101383999D02*
X127724001Y-101383999D01*
X127724001Y-101383999D02*
X128524000Y-100584000D01*
X161036000Y-95274000D02*
X161036000Y-96774000D01*
X159131000Y-90805000D02*
X161036000Y-92710000D01*
X149312000Y-86741000D02*
X149312000Y-88225000D01*
X144272000Y-113665000D02*
X125349000Y-113665000D01*
X149312000Y-88225000D02*
X150241000Y-89154000D01*
X147701000Y-100584000D02*
X144399000Y-100584000D01*
X159536000Y-96774000D02*
X161036000Y-96774000D01*
X144399000Y-100584000D02*
X141097000Y-100584000D01*
X153313000Y-96774000D02*
X159536000Y-96774000D01*
X151003000Y-100584000D02*
X151003000Y-99084000D01*
X123698000Y-112014000D02*
X123698000Y-103505000D01*
X154178000Y-90805000D02*
X159131000Y-90805000D01*
X152527000Y-89154000D02*
X154178000Y-90805000D01*
X154051000Y-87454000D02*
X154051000Y-85471000D01*
X154051000Y-85471000D02*
X152273000Y-83693000D01*
X146812000Y-82042000D02*
X146812000Y-80518000D01*
X152273000Y-83693000D02*
X148463000Y-83693000D01*
X148463000Y-83693000D02*
X146812000Y-82042000D01*
X154051000Y-82804000D02*
X163576000Y-92329000D01*
X154051000Y-79834000D02*
X154051000Y-82804000D01*
X163576000Y-92329000D02*
X163576000Y-96774000D01*
D24*
X138430000Y-107569000D02*
X134112000Y-111887000D01*
D23*
X156591000Y-112776000D02*
X154569999Y-110754999D01*
D24*
X129667000Y-107442000D02*
X130937000Y-107442000D01*
X130937000Y-107442000D02*
X137795000Y-100584000D01*
D23*
X163322000Y-112776000D02*
X156591000Y-112776000D01*
D24*
X128524000Y-108585000D02*
X129667000Y-107442000D01*
X151384000Y-107569000D02*
X138430000Y-107569000D01*
D23*
X166370000Y-109728000D02*
X163322000Y-112776000D01*
X154569999Y-110754999D02*
X153670000Y-109855000D01*
D24*
X141097000Y-94488000D02*
X137795000Y-97790000D01*
X137795000Y-97790000D02*
X137795000Y-100584000D01*
X153670000Y-109855000D02*
X151384000Y-107569000D01*
X128524000Y-110998000D02*
X128524000Y-108585000D01*
X129413000Y-111887000D02*
X128524000Y-110998000D01*
X134112000Y-111887000D02*
X129413000Y-111887000D01*
X141097000Y-92964000D02*
X141097000Y-94488000D01*
D23*
X130810000Y-109728000D02*
X134747000Y-109728000D01*
D24*
X139700000Y-104775000D02*
X139446000Y-104521000D01*
D23*
X134747000Y-109728000D02*
X138800001Y-105674999D01*
D24*
X139446000Y-104521000D02*
X139446000Y-97917000D01*
X139446000Y-97917000D02*
X144399000Y-92964000D01*
D23*
X138800001Y-105674999D02*
X139700000Y-104775000D01*
X161290000Y-109728000D02*
X157353000Y-109728000D01*
X157353000Y-109728000D02*
X152400000Y-104775000D01*
X125730000Y-109728000D02*
X125603000Y-109728000D01*
D24*
X130048000Y-106426000D02*
X134493000Y-101981000D01*
D23*
X128651000Y-112776000D02*
X135509000Y-112776000D01*
X135509000Y-112776000D02*
X137530001Y-110754999D01*
D24*
X129032000Y-106426000D02*
X130048000Y-106426000D01*
X134493000Y-101854000D02*
X134493000Y-100584000D01*
D23*
X137530001Y-110754999D02*
X138430000Y-109855000D01*
D24*
X125730000Y-109728000D02*
X129032000Y-106426000D01*
D23*
X125603000Y-109728000D02*
X128651000Y-112776000D01*
D24*
X134493000Y-101981000D02*
X134493000Y-101854000D01*
G04 #@! TA.AperFunction,Conductor*
G36*
X146304000Y-111240320D02*
G01*
X146379709Y-111228329D01*
X146379711Y-111228329D01*
X146590483Y-111159844D01*
X146590485Y-111159843D01*
X146787956Y-111059227D01*
X146967253Y-110928960D01*
X147123957Y-110772256D01*
X147123959Y-110772253D01*
X147217755Y-110643156D01*
X147273977Y-110599802D01*
X147344714Y-110593727D01*
X147407505Y-110626858D01*
X147421627Y-110643156D01*
X147515658Y-110772578D01*
X147672421Y-110929341D01*
X147672424Y-110929343D01*
X147851785Y-111059657D01*
X148049324Y-111160308D01*
X148260176Y-111228818D01*
X148479149Y-111263500D01*
X148479152Y-111263500D01*
X148700848Y-111263500D01*
X148700851Y-111263500D01*
X148919824Y-111228818D01*
X149130676Y-111160308D01*
X149328215Y-111059657D01*
X149507576Y-110929343D01*
X149664343Y-110772576D01*
X149758065Y-110643579D01*
X149814286Y-110600226D01*
X149885022Y-110594151D01*
X149947814Y-110627282D01*
X149961932Y-110643576D01*
X150055657Y-110772576D01*
X150055659Y-110772578D01*
X150055661Y-110772581D01*
X150212418Y-110929338D01*
X150212421Y-110929340D01*
X150212424Y-110929343D01*
X150269561Y-110970855D01*
X150312915Y-111027077D01*
X150321500Y-111072791D01*
X150321500Y-111753918D01*
X150301498Y-111822039D01*
X150284595Y-111843013D01*
X148419013Y-113708595D01*
X148356701Y-113742621D01*
X148329918Y-113745500D01*
X135914578Y-113745500D01*
X135846457Y-113725498D01*
X135799964Y-113671842D01*
X135789860Y-113601568D01*
X135819354Y-113536988D01*
X135866362Y-113503090D01*
X135868925Y-113502027D01*
X135891968Y-113492484D01*
X136024389Y-113404003D01*
X138140587Y-111287805D01*
X138202899Y-111253779D01*
X138249390Y-111252451D01*
X138319149Y-111263500D01*
X138319151Y-111263500D01*
X138540848Y-111263500D01*
X138540851Y-111263500D01*
X138759824Y-111228818D01*
X138970676Y-111160308D01*
X139168215Y-111059657D01*
X139347576Y-110929343D01*
X139504343Y-110772576D01*
X139598065Y-110643579D01*
X139654286Y-110600226D01*
X139725022Y-110594151D01*
X139787814Y-110627282D01*
X139801932Y-110643576D01*
X139895657Y-110772576D01*
X139895659Y-110772578D01*
X139895661Y-110772581D01*
X140052421Y-110929341D01*
X140052424Y-110929343D01*
X140231785Y-111059657D01*
X140429324Y-111160308D01*
X140640176Y-111228818D01*
X140859149Y-111263500D01*
X140859152Y-111263500D01*
X141080848Y-111263500D01*
X141080851Y-111263500D01*
X141299824Y-111228818D01*
X141510676Y-111160308D01*
X141708215Y-111059657D01*
X141887576Y-110929343D01*
X142044343Y-110772576D01*
X142138065Y-110643579D01*
X142194286Y-110600226D01*
X142265022Y-110594151D01*
X142327814Y-110627282D01*
X142341932Y-110643576D01*
X142435657Y-110772576D01*
X142435659Y-110772578D01*
X142435661Y-110772581D01*
X142592421Y-110929341D01*
X142592424Y-110929343D01*
X142771785Y-111059657D01*
X142969324Y-111160308D01*
X143180176Y-111228818D01*
X143399149Y-111263500D01*
X143399152Y-111263500D01*
X143620848Y-111263500D01*
X143620851Y-111263500D01*
X143839824Y-111228818D01*
X144050676Y-111160308D01*
X144248215Y-111059657D01*
X144427576Y-110929343D01*
X144584343Y-110772576D01*
X144678373Y-110643154D01*
X144734594Y-110599802D01*
X144805330Y-110593727D01*
X144868122Y-110626858D01*
X144882244Y-110643155D01*
X144976043Y-110772257D01*
X145132746Y-110928960D01*
X145312043Y-111059227D01*
X145509514Y-111159843D01*
X145509516Y-111159844D01*
X145720289Y-111228329D01*
X145796000Y-111240320D01*
X145796000Y-110285702D01*
X145857007Y-110320925D01*
X145984174Y-110355000D01*
X146115826Y-110355000D01*
X146242993Y-110320925D01*
X146304000Y-110285702D01*
X146304000Y-111240320D01*
G37*
G04 #@! TD.AperFunction*
G04 #@! TA.AperFunction,Conductor*
G36*
X172586621Y-75025502D02*
G01*
X172633114Y-75079158D01*
X172644500Y-75131500D01*
X172644500Y-120448500D01*
X172624498Y-120516621D01*
X172570842Y-120563114D01*
X172518500Y-120574500D01*
X119581500Y-120574500D01*
X119513379Y-120554498D01*
X119466886Y-120500842D01*
X119455500Y-120448500D01*
X119455500Y-91106367D01*
X122000500Y-91106367D01*
X122000500Y-91106370D01*
X122000500Y-112474630D01*
X122031570Y-112630831D01*
X122042157Y-112656389D01*
X122092516Y-112777968D01*
X122180997Y-112910389D01*
X124452611Y-115182003D01*
X124585032Y-115270484D01*
X124658600Y-115300956D01*
X124732169Y-115331430D01*
X124888370Y-115362500D01*
X124888371Y-115362500D01*
X148796629Y-115362500D01*
X148796630Y-115362500D01*
X148952831Y-115331430D01*
X149026399Y-115300956D01*
X149099968Y-115270484D01*
X149232389Y-115182003D01*
X151758003Y-112656389D01*
X151846483Y-112523969D01*
X151866920Y-112474630D01*
X151866920Y-112474629D01*
X151866921Y-112474629D01*
X151907427Y-112376838D01*
X151907426Y-112376838D01*
X151907430Y-112376831D01*
X151938500Y-112220630D01*
X151938500Y-111072791D01*
X151958502Y-111004670D01*
X151990439Y-110970855D01*
X152047576Y-110929343D01*
X152204343Y-110772576D01*
X152298065Y-110643579D01*
X152354286Y-110600226D01*
X152425022Y-110594151D01*
X152487814Y-110627282D01*
X152501932Y-110643576D01*
X152595657Y-110772576D01*
X152595659Y-110772578D01*
X152595661Y-110772581D01*
X152752421Y-110929341D01*
X152752424Y-110929343D01*
X152931785Y-111059657D01*
X153129324Y-111160308D01*
X153340176Y-111228818D01*
X153559149Y-111263500D01*
X153559152Y-111263500D01*
X153780849Y-111263500D01*
X153780851Y-111263500D01*
X153850608Y-111252451D01*
X153921018Y-111261550D01*
X153959413Y-111287805D01*
X156075611Y-113404003D01*
X156208032Y-113492484D01*
X156281600Y-113522956D01*
X156355169Y-113553430D01*
X156511370Y-113584500D01*
X156511371Y-113584500D01*
X163401629Y-113584500D01*
X163401630Y-113584500D01*
X163557831Y-113553430D01*
X163631399Y-113522956D01*
X163704968Y-113492484D01*
X163837389Y-113404003D01*
X165743694Y-111497696D01*
X165806003Y-111463674D01*
X165865396Y-111465087D01*
X166016422Y-111505556D01*
X166251465Y-111536500D01*
X166251472Y-111536500D01*
X166488528Y-111536500D01*
X166488535Y-111536500D01*
X166723578Y-111505556D01*
X166952570Y-111444197D01*
X167171595Y-111353474D01*
X167376904Y-111234939D01*
X167564985Y-111090619D01*
X167732619Y-110922985D01*
X167876939Y-110734904D01*
X167995474Y-110529595D01*
X168086197Y-110310570D01*
X168147556Y-110081578D01*
X168178500Y-109846535D01*
X168178500Y-109609465D01*
X168147556Y-109374422D01*
X168086197Y-109145430D01*
X167995474Y-108926405D01*
X167995468Y-108926396D01*
X167995467Y-108926392D01*
X167876941Y-108721099D01*
X167876937Y-108721093D01*
X167732623Y-108533020D01*
X167732621Y-108533018D01*
X167732619Y-108533015D01*
X167732613Y-108533009D01*
X167732604Y-108532999D01*
X167565000Y-108365395D01*
X167564979Y-108365376D01*
X167376906Y-108221062D01*
X167376900Y-108221058D01*
X167171607Y-108102532D01*
X167171599Y-108102528D01*
X167171595Y-108102526D01*
X166952570Y-108011803D01*
X166952567Y-108011802D01*
X166952565Y-108011801D01*
X166764483Y-107961404D01*
X166723578Y-107950444D01*
X166723576Y-107950443D01*
X166723570Y-107950442D01*
X166488537Y-107919500D01*
X166488535Y-107919500D01*
X166251465Y-107919500D01*
X166251462Y-107919500D01*
X166016429Y-107950442D01*
X165787434Y-108011801D01*
X165787430Y-108011803D01*
X165659634Y-108064738D01*
X165568403Y-108102527D01*
X165568392Y-108102532D01*
X165363099Y-108221058D01*
X165363093Y-108221062D01*
X165175020Y-108365376D01*
X165174999Y-108365395D01*
X165007395Y-108532999D01*
X165007376Y-108533020D01*
X164863062Y-108721093D01*
X164863058Y-108721099D01*
X164744532Y-108926392D01*
X164744527Y-108926403D01*
X164744526Y-108926405D01*
X164739828Y-108937748D01*
X164653803Y-109145430D01*
X164653801Y-109145434D01*
X164592442Y-109374429D01*
X164561500Y-109609462D01*
X164561500Y-109846537D01*
X164592442Y-110081570D01*
X164632911Y-110232601D01*
X164631221Y-110303577D01*
X164600299Y-110354307D01*
X163024011Y-111930596D01*
X162961701Y-111964620D01*
X162934918Y-111967500D01*
X156978082Y-111967500D01*
X156909961Y-111947498D01*
X156888987Y-111930595D01*
X155102805Y-110144413D01*
X155068779Y-110082101D01*
X155067451Y-110035607D01*
X155078500Y-109965851D01*
X155078500Y-109744149D01*
X155043818Y-109525176D01*
X154975308Y-109314324D01*
X154874657Y-109116785D01*
X154829946Y-109055246D01*
X154744341Y-108937421D01*
X154587578Y-108780658D01*
X154408218Y-108650345D01*
X154408217Y-108650344D01*
X154408215Y-108650343D01*
X154210676Y-108549692D01*
X154210673Y-108549691D01*
X154210671Y-108549690D01*
X153999829Y-108481183D01*
X153999825Y-108481182D01*
X153999824Y-108481182D01*
X153780851Y-108446500D01*
X153559149Y-108446500D01*
X153340176Y-108481182D01*
X153340170Y-108481183D01*
X153301836Y-108493639D01*
X153230868Y-108495666D01*
X153173805Y-108462901D01*
X151787835Y-107076931D01*
X151787833Y-107076929D01*
X151684075Y-107007600D01*
X151568785Y-106959845D01*
X151495086Y-106945185D01*
X151446396Y-106935500D01*
X151446394Y-106935500D01*
X138987082Y-106935500D01*
X138918961Y-106915498D01*
X138872468Y-106861842D01*
X138862364Y-106791568D01*
X138891858Y-106726988D01*
X138897987Y-106720405D01*
X139410587Y-106207805D01*
X139472899Y-106173779D01*
X139519390Y-106172451D01*
X139589149Y-106183500D01*
X139589151Y-106183500D01*
X139810848Y-106183500D01*
X139810851Y-106183500D01*
X140029824Y-106148818D01*
X140240676Y-106080308D01*
X140438215Y-105979657D01*
X140617576Y-105849343D01*
X140774343Y-105692576D01*
X140868065Y-105563579D01*
X140924286Y-105520226D01*
X140995022Y-105514151D01*
X141057814Y-105547282D01*
X141071932Y-105563576D01*
X141165657Y-105692576D01*
X141165659Y-105692578D01*
X141165661Y-105692581D01*
X141322421Y-105849341D01*
X141322424Y-105849343D01*
X141501785Y-105979657D01*
X141699324Y-106080308D01*
X141910176Y-106148818D01*
X142129149Y-106183500D01*
X142129152Y-106183500D01*
X142350848Y-106183500D01*
X142350851Y-106183500D01*
X142569824Y-106148818D01*
X142780676Y-106080308D01*
X142978215Y-105979657D01*
X143157576Y-105849343D01*
X143314343Y-105692576D01*
X143408065Y-105563579D01*
X143464286Y-105520226D01*
X143535022Y-105514151D01*
X143597814Y-105547282D01*
X143611932Y-105563576D01*
X143705657Y-105692576D01*
X143705659Y-105692578D01*
X143705661Y-105692581D01*
X143862421Y-105849341D01*
X143862424Y-105849343D01*
X144041785Y-105979657D01*
X144239324Y-106080308D01*
X144450176Y-106148818D01*
X144669149Y-106183500D01*
X144669152Y-106183500D01*
X144890848Y-106183500D01*
X144890851Y-106183500D01*
X145109824Y-106148818D01*
X145320676Y-106080308D01*
X145518215Y-105979657D01*
X145697576Y-105849343D01*
X145854343Y-105692576D01*
X145948065Y-105563579D01*
X146004286Y-105520226D01*
X146075022Y-105514151D01*
X146137814Y-105547282D01*
X146151932Y-105563576D01*
X146245657Y-105692576D01*
X146245659Y-105692578D01*
X146245661Y-105692581D01*
X146402421Y-105849341D01*
X146402424Y-105849343D01*
X146581785Y-105979657D01*
X146779324Y-106080308D01*
X146990176Y-106148818D01*
X147209149Y-106183500D01*
X147209152Y-106183500D01*
X147430848Y-106183500D01*
X147430851Y-106183500D01*
X147649824Y-106148818D01*
X147860676Y-106080308D01*
X148058215Y-105979657D01*
X148237576Y-105849343D01*
X148394343Y-105692576D01*
X148488065Y-105563579D01*
X148544286Y-105520226D01*
X148615022Y-105514151D01*
X148677814Y-105547282D01*
X148691932Y-105563576D01*
X148785657Y-105692576D01*
X148785659Y-105692578D01*
X148785661Y-105692581D01*
X148942421Y-105849341D01*
X148942424Y-105849343D01*
X149121785Y-105979657D01*
X149319324Y-106080308D01*
X149530176Y-106148818D01*
X149749149Y-106183500D01*
X149749152Y-106183500D01*
X149970848Y-106183500D01*
X149970851Y-106183500D01*
X150189824Y-106148818D01*
X150400676Y-106080308D01*
X150598215Y-105979657D01*
X150777576Y-105849343D01*
X150934343Y-105692576D01*
X151028065Y-105563579D01*
X151084286Y-105520226D01*
X151155022Y-105514151D01*
X151217814Y-105547282D01*
X151231932Y-105563576D01*
X151325657Y-105692576D01*
X151325659Y-105692578D01*
X151325661Y-105692581D01*
X151482421Y-105849341D01*
X151482424Y-105849343D01*
X151661785Y-105979657D01*
X151859324Y-106080308D01*
X152070176Y-106148818D01*
X152289149Y-106183500D01*
X152289152Y-106183500D01*
X152510849Y-106183500D01*
X152510851Y-106183500D01*
X152580608Y-106172451D01*
X152651018Y-106181550D01*
X152689413Y-106207805D01*
X156837611Y-110356003D01*
X156970032Y-110444484D01*
X157043600Y-110474956D01*
X157043602Y-110474957D01*
X157117164Y-110505428D01*
X157117169Y-110505430D01*
X157273370Y-110536500D01*
X157432630Y-110536500D01*
X159355500Y-110536500D01*
X159423621Y-110556502D01*
X159470114Y-110610158D01*
X159481500Y-110662500D01*
X159481500Y-111076649D01*
X159488009Y-111137196D01*
X159488011Y-111137204D01*
X159539110Y-111274202D01*
X159539112Y-111274207D01*
X159626738Y-111391261D01*
X159743792Y-111478887D01*
X159743794Y-111478888D01*
X159743796Y-111478889D01*
X159794227Y-111497699D01*
X159880795Y-111529988D01*
X159880803Y-111529990D01*
X159941350Y-111536499D01*
X159941355Y-111536499D01*
X159941362Y-111536500D01*
X159941368Y-111536500D01*
X162638632Y-111536500D01*
X162638638Y-111536500D01*
X162638645Y-111536499D01*
X162638649Y-111536499D01*
X162699196Y-111529990D01*
X162699199Y-111529989D01*
X162699201Y-111529989D01*
X162836204Y-111478889D01*
X162882549Y-111444196D01*
X162953261Y-111391261D01*
X163040887Y-111274207D01*
X163040887Y-111274206D01*
X163040889Y-111274204D01*
X163091989Y-111137201D01*
X163098500Y-111076638D01*
X163098500Y-108379362D01*
X163097501Y-108370068D01*
X163091990Y-108318803D01*
X163091988Y-108318795D01*
X163056072Y-108222502D01*
X163040889Y-108181796D01*
X163040888Y-108181794D01*
X163040887Y-108181792D01*
X162953261Y-108064738D01*
X162836207Y-107977112D01*
X162836202Y-107977110D01*
X162699204Y-107926011D01*
X162699196Y-107926009D01*
X162638649Y-107919500D01*
X162638638Y-107919500D01*
X159941362Y-107919500D01*
X159941350Y-107919500D01*
X159880803Y-107926009D01*
X159880795Y-107926011D01*
X159743797Y-107977110D01*
X159743792Y-107977112D01*
X159626738Y-108064738D01*
X159539112Y-108181792D01*
X159539110Y-108181797D01*
X159488011Y-108318795D01*
X159488009Y-108318803D01*
X159481500Y-108379350D01*
X159481500Y-108793500D01*
X159461498Y-108861621D01*
X159407842Y-108908114D01*
X159355500Y-108919500D01*
X157740082Y-108919500D01*
X157671961Y-108899498D01*
X157650987Y-108882595D01*
X155166987Y-106398595D01*
X155132961Y-106336283D01*
X155138026Y-106265468D01*
X155180573Y-106208632D01*
X155247093Y-106183821D01*
X155256082Y-106183500D01*
X155888632Y-106183500D01*
X155888638Y-106183500D01*
X155888645Y-106183499D01*
X155888649Y-106183499D01*
X155949196Y-106176990D01*
X155949199Y-106176989D01*
X155949201Y-106176989D01*
X156086204Y-106125889D01*
X156203261Y-106038261D01*
X156281363Y-105933929D01*
X156290887Y-105921207D01*
X156290887Y-105921206D01*
X156290889Y-105921204D01*
X156338894Y-105792500D01*
X156341988Y-105784204D01*
X156341990Y-105784196D01*
X156348499Y-105723649D01*
X156348500Y-105723632D01*
X156348500Y-103826367D01*
X156348499Y-103826350D01*
X156341990Y-103765803D01*
X156341988Y-103765795D01*
X156290889Y-103628797D01*
X156290887Y-103628792D01*
X156203261Y-103511738D01*
X156086207Y-103424112D01*
X156086202Y-103424110D01*
X155949204Y-103373011D01*
X155949196Y-103373009D01*
X155888649Y-103366500D01*
X155888638Y-103366500D01*
X153991362Y-103366500D01*
X153991350Y-103366500D01*
X153930803Y-103373009D01*
X153930795Y-103373011D01*
X153793797Y-103424110D01*
X153793792Y-103424112D01*
X153676738Y-103511738D01*
X153589112Y-103628792D01*
X153589110Y-103628797D01*
X153564340Y-103695208D01*
X153521793Y-103752044D01*
X153455273Y-103776854D01*
X153385899Y-103761762D01*
X153357190Y-103740270D01*
X153317578Y-103700658D01*
X153138218Y-103570345D01*
X153138217Y-103570344D01*
X153138215Y-103570343D01*
X152940676Y-103469692D01*
X152940673Y-103469691D01*
X152940671Y-103469690D01*
X152729829Y-103401183D01*
X152729825Y-103401182D01*
X152729824Y-103401182D01*
X152510851Y-103366500D01*
X152289149Y-103366500D01*
X152070176Y-103401182D01*
X152070170Y-103401183D01*
X151859328Y-103469690D01*
X151859322Y-103469693D01*
X151661781Y-103570345D01*
X151482421Y-103700658D01*
X151325658Y-103857421D01*
X151231936Y-103986419D01*
X151175713Y-104029773D01*
X151104977Y-104035848D01*
X151042185Y-104002716D01*
X151028064Y-103986419D01*
X150934341Y-103857421D01*
X150777578Y-103700658D01*
X150598218Y-103570345D01*
X150598217Y-103570344D01*
X150598215Y-103570343D01*
X150400676Y-103469692D01*
X150400673Y-103469691D01*
X150400671Y-103469690D01*
X150189829Y-103401183D01*
X150189825Y-103401182D01*
X150189824Y-103401182D01*
X149970851Y-103366500D01*
X149749149Y-103366500D01*
X149530176Y-103401182D01*
X149530170Y-103401183D01*
X149319328Y-103469690D01*
X149319322Y-103469693D01*
X149121781Y-103570345D01*
X148942421Y-103700658D01*
X148785658Y-103857421D01*
X148691936Y-103986419D01*
X148635713Y-104029773D01*
X148564977Y-104035848D01*
X148502185Y-104002716D01*
X148488064Y-103986419D01*
X148394341Y-103857421D01*
X148237578Y-103700658D01*
X148058218Y-103570345D01*
X148058217Y-103570344D01*
X148058215Y-103570343D01*
X147860676Y-103469692D01*
X147860673Y-103469691D01*
X147860671Y-103469690D01*
X147649829Y-103401183D01*
X147649825Y-103401182D01*
X147649824Y-103401182D01*
X147430851Y-103366500D01*
X147209149Y-103366500D01*
X146990176Y-103401182D01*
X146990170Y-103401183D01*
X146779328Y-103469690D01*
X146779322Y-103469693D01*
X146581781Y-103570345D01*
X146402421Y-103700658D01*
X146245658Y-103857421D01*
X146151936Y-103986419D01*
X146095713Y-104029773D01*
X146024977Y-104035848D01*
X145962185Y-104002716D01*
X145948064Y-103986419D01*
X145854341Y-103857421D01*
X145697578Y-103700658D01*
X145518218Y-103570345D01*
X145518217Y-103570344D01*
X145518215Y-103570343D01*
X145320676Y-103469692D01*
X145320673Y-103469691D01*
X145320671Y-103469690D01*
X145109829Y-103401183D01*
X145109825Y-103401182D01*
X145109824Y-103401182D01*
X144890851Y-103366500D01*
X144669149Y-103366500D01*
X144450176Y-103401182D01*
X144450170Y-103401183D01*
X144239328Y-103469690D01*
X144239322Y-103469693D01*
X144041781Y-103570345D01*
X143862421Y-103700658D01*
X143705658Y-103857421D01*
X143611936Y-103986419D01*
X143555713Y-104029773D01*
X143484977Y-104035848D01*
X143422185Y-104002716D01*
X143408064Y-103986419D01*
X143314341Y-103857421D01*
X143157578Y-103700658D01*
X142978218Y-103570345D01*
X142978217Y-103570344D01*
X142978215Y-103570343D01*
X142780676Y-103469692D01*
X142780673Y-103469691D01*
X142780671Y-103469690D01*
X142569829Y-103401183D01*
X142569825Y-103401182D01*
X142569824Y-103401182D01*
X142350851Y-103366500D01*
X142129149Y-103366500D01*
X141910176Y-103401182D01*
X141910170Y-103401183D01*
X141699328Y-103469690D01*
X141699322Y-103469693D01*
X141501781Y-103570345D01*
X141322421Y-103700658D01*
X141165658Y-103857421D01*
X141071936Y-103986419D01*
X141015713Y-104029773D01*
X140944977Y-104035848D01*
X140882185Y-104002716D01*
X140868064Y-103986419D01*
X140774341Y-103857421D01*
X140617578Y-103700658D01*
X140438218Y-103570345D01*
X140438217Y-103570344D01*
X140438215Y-103570343D01*
X140240676Y-103469692D01*
X140240675Y-103469691D01*
X140240674Y-103469691D01*
X140166563Y-103445611D01*
X140107958Y-103405537D01*
X140080321Y-103340140D01*
X140079500Y-103325778D01*
X140079500Y-102118000D01*
X140099502Y-102049879D01*
X140153158Y-102003386D01*
X140205500Y-101992000D01*
X140843000Y-101992000D01*
X140843000Y-100956968D01*
X140923306Y-101003333D01*
X141037756Y-101034000D01*
X141156244Y-101034000D01*
X141270694Y-101003333D01*
X141351000Y-100956968D01*
X141351000Y-101992000D01*
X142045585Y-101992000D01*
X142045597Y-101991999D01*
X142106093Y-101985494D01*
X142242964Y-101934444D01*
X142242965Y-101934444D01*
X142359904Y-101846904D01*
X142447444Y-101729965D01*
X142447444Y-101729964D01*
X142498494Y-101593093D01*
X142504999Y-101532597D01*
X142505000Y-101532585D01*
X142505000Y-100838000D01*
X141469968Y-100838000D01*
X141516333Y-100757694D01*
X141547000Y-100643244D01*
X141547000Y-100524756D01*
X141516333Y-100410306D01*
X141469968Y-100330000D01*
X142505000Y-100330000D01*
X142505000Y-99635414D01*
X142504999Y-99635402D01*
X142991000Y-99635402D01*
X142991000Y-100330000D01*
X144026032Y-100330000D01*
X143979667Y-100410306D01*
X143949000Y-100524756D01*
X143949000Y-100643244D01*
X143979667Y-100757694D01*
X144026032Y-100838000D01*
X142991000Y-100838000D01*
X142991000Y-101532597D01*
X142997505Y-101593093D01*
X143048555Y-101729964D01*
X143048555Y-101729965D01*
X143136095Y-101846904D01*
X143253034Y-101934444D01*
X143389906Y-101985494D01*
X143450402Y-101991999D01*
X143450415Y-101992000D01*
X144145000Y-101992000D01*
X144145000Y-100956968D01*
X144225306Y-101003333D01*
X144339756Y-101034000D01*
X144458244Y-101034000D01*
X144572694Y-101003333D01*
X144653000Y-100956968D01*
X144653000Y-101992000D01*
X145347585Y-101992000D01*
X145347597Y-101991999D01*
X145408093Y-101985494D01*
X145544964Y-101934444D01*
X145544965Y-101934444D01*
X145661904Y-101846904D01*
X145749444Y-101729965D01*
X145749444Y-101729964D01*
X145800494Y-101593093D01*
X145806999Y-101532597D01*
X145807000Y-101532585D01*
X145807000Y-100838000D01*
X144771968Y-100838000D01*
X144818333Y-100757694D01*
X144849000Y-100643244D01*
X144849000Y-100524756D01*
X144818333Y-100410306D01*
X144771968Y-100330000D01*
X145807000Y-100330000D01*
X145807000Y-99635414D01*
X145806999Y-99635402D01*
X146293000Y-99635402D01*
X146293000Y-100330000D01*
X147328032Y-100330000D01*
X147281667Y-100410306D01*
X147251000Y-100524756D01*
X147251000Y-100643244D01*
X147281667Y-100757694D01*
X147328032Y-100838000D01*
X146293000Y-100838000D01*
X146293000Y-101532597D01*
X146299505Y-101593093D01*
X146350555Y-101729964D01*
X146350555Y-101729965D01*
X146438095Y-101846904D01*
X146555034Y-101934444D01*
X146691906Y-101985494D01*
X146752402Y-101991999D01*
X146752415Y-101992000D01*
X147447000Y-101992000D01*
X147447000Y-100956968D01*
X147527306Y-101003333D01*
X147641756Y-101034000D01*
X147760244Y-101034000D01*
X147874694Y-101003333D01*
X147955000Y-100956968D01*
X147955000Y-101992000D01*
X148649585Y-101992000D01*
X148649597Y-101991999D01*
X148710093Y-101985494D01*
X148846964Y-101934444D01*
X148846965Y-101934444D01*
X148963904Y-101846904D01*
X149051444Y-101729965D01*
X149051444Y-101729964D01*
X149102494Y-101593093D01*
X149108999Y-101532597D01*
X149109000Y-101532585D01*
X149109000Y-100838000D01*
X148073968Y-100838000D01*
X148120333Y-100757694D01*
X148151000Y-100643244D01*
X148151000Y-100524756D01*
X148120333Y-100410306D01*
X148073968Y-100330000D01*
X149109000Y-100330000D01*
X149109000Y-99635414D01*
X149108999Y-99635402D01*
X149595000Y-99635402D01*
X149595000Y-100330000D01*
X150630032Y-100330000D01*
X150583667Y-100410306D01*
X150553000Y-100524756D01*
X150553000Y-100643244D01*
X150583667Y-100757694D01*
X150630032Y-100838000D01*
X149595000Y-100838000D01*
X149595000Y-101532597D01*
X149601505Y-101593093D01*
X149652555Y-101729964D01*
X149652555Y-101729965D01*
X149740095Y-101846904D01*
X149857034Y-101934444D01*
X149993906Y-101985494D01*
X150054402Y-101991999D01*
X150054415Y-101992000D01*
X150749000Y-101992000D01*
X150749000Y-100956968D01*
X150829306Y-101003333D01*
X150943756Y-101034000D01*
X151062244Y-101034000D01*
X151176694Y-101003333D01*
X151257000Y-100956968D01*
X151257000Y-101992000D01*
X151951585Y-101992000D01*
X151951597Y-101991999D01*
X152012093Y-101985494D01*
X152148964Y-101934444D01*
X152148965Y-101934444D01*
X152265904Y-101846904D01*
X152353444Y-101729965D01*
X152353444Y-101729964D01*
X152404494Y-101593093D01*
X152410999Y-101532597D01*
X152411000Y-101532585D01*
X152411000Y-100838000D01*
X151375968Y-100838000D01*
X151422333Y-100757694D01*
X151453000Y-100643244D01*
X151453000Y-100524756D01*
X151422333Y-100410306D01*
X151375968Y-100330000D01*
X152411000Y-100330000D01*
X152411000Y-99635410D01*
X152410999Y-99635406D01*
X152410993Y-99635350D01*
X152896500Y-99635350D01*
X152896500Y-101532649D01*
X152903009Y-101593196D01*
X152903011Y-101593204D01*
X152954110Y-101730202D01*
X152954112Y-101730207D01*
X153041738Y-101847261D01*
X153158792Y-101934887D01*
X153158794Y-101934888D01*
X153158796Y-101934889D01*
X153190988Y-101946896D01*
X153295795Y-101985988D01*
X153295803Y-101985990D01*
X153356350Y-101992499D01*
X153356355Y-101992499D01*
X153356362Y-101992500D01*
X153356368Y-101992500D01*
X155253632Y-101992500D01*
X155253638Y-101992500D01*
X155253645Y-101992499D01*
X155253649Y-101992499D01*
X155314196Y-101985990D01*
X155314199Y-101985989D01*
X155314201Y-101985989D01*
X155451204Y-101934889D01*
X155451799Y-101934444D01*
X155568261Y-101847261D01*
X155655887Y-101730207D01*
X155655887Y-101730206D01*
X155655889Y-101730204D01*
X155706989Y-101593201D01*
X155708187Y-101582065D01*
X155713499Y-101532649D01*
X155713500Y-101532632D01*
X155713500Y-99635367D01*
X155713499Y-99635350D01*
X156198500Y-99635350D01*
X156198500Y-101532649D01*
X156205009Y-101593196D01*
X156205011Y-101593204D01*
X156256110Y-101730202D01*
X156256112Y-101730207D01*
X156343738Y-101847261D01*
X156460792Y-101934887D01*
X156460794Y-101934888D01*
X156460796Y-101934889D01*
X156492988Y-101946896D01*
X156597795Y-101985988D01*
X156597803Y-101985990D01*
X156658350Y-101992499D01*
X156658355Y-101992499D01*
X156658362Y-101992500D01*
X156658368Y-101992500D01*
X158555632Y-101992500D01*
X158555638Y-101992500D01*
X158555645Y-101992499D01*
X158555649Y-101992499D01*
X158616196Y-101985990D01*
X158616199Y-101985989D01*
X158616201Y-101985989D01*
X158753204Y-101934889D01*
X158753799Y-101934444D01*
X158870261Y-101847261D01*
X158957887Y-101730207D01*
X158957887Y-101730206D01*
X158957889Y-101730204D01*
X159008989Y-101593201D01*
X159010187Y-101582065D01*
X159015499Y-101532649D01*
X159015500Y-101532632D01*
X159015500Y-99635367D01*
X159015499Y-99635350D01*
X159008990Y-99574803D01*
X159008988Y-99574795D01*
X158967988Y-99464873D01*
X158957889Y-99437796D01*
X158957888Y-99437794D01*
X158957887Y-99437792D01*
X158870261Y-99320738D01*
X158753207Y-99233112D01*
X158753202Y-99233110D01*
X158616204Y-99182011D01*
X158616196Y-99182009D01*
X158555649Y-99175500D01*
X158555638Y-99175500D01*
X156658362Y-99175500D01*
X156658350Y-99175500D01*
X156597803Y-99182009D01*
X156597795Y-99182011D01*
X156460797Y-99233110D01*
X156460792Y-99233112D01*
X156343738Y-99320738D01*
X156256112Y-99437792D01*
X156256110Y-99437797D01*
X156205011Y-99574795D01*
X156205009Y-99574803D01*
X156198500Y-99635350D01*
X155713499Y-99635350D01*
X155706990Y-99574803D01*
X155706988Y-99574795D01*
X155665988Y-99464873D01*
X155655889Y-99437796D01*
X155655888Y-99437794D01*
X155655887Y-99437792D01*
X155568261Y-99320738D01*
X155451207Y-99233112D01*
X155451202Y-99233110D01*
X155314204Y-99182011D01*
X155314196Y-99182009D01*
X155253649Y-99175500D01*
X155253638Y-99175500D01*
X153356362Y-99175500D01*
X153356350Y-99175500D01*
X153295803Y-99182009D01*
X153295795Y-99182011D01*
X153158797Y-99233110D01*
X153158792Y-99233112D01*
X153041738Y-99320738D01*
X152954112Y-99437792D01*
X152954110Y-99437797D01*
X152903011Y-99574795D01*
X152903009Y-99574803D01*
X152896500Y-99635350D01*
X152410993Y-99635350D01*
X152404494Y-99574906D01*
X152353444Y-99438035D01*
X152353444Y-99438034D01*
X152265904Y-99321095D01*
X152148965Y-99233555D01*
X152012093Y-99182505D01*
X151951597Y-99176000D01*
X151257000Y-99176000D01*
X151257000Y-100211031D01*
X151176694Y-100164667D01*
X151062244Y-100134000D01*
X150943756Y-100134000D01*
X150829306Y-100164667D01*
X150749000Y-100211031D01*
X150749000Y-99176000D01*
X150054402Y-99176000D01*
X149993906Y-99182505D01*
X149857035Y-99233555D01*
X149857034Y-99233555D01*
X149740095Y-99321095D01*
X149652555Y-99438034D01*
X149652555Y-99438035D01*
X149601505Y-99574906D01*
X149595000Y-99635402D01*
X149108999Y-99635402D01*
X149102494Y-99574906D01*
X149051444Y-99438035D01*
X149051444Y-99438034D01*
X148963904Y-99321095D01*
X148846965Y-99233555D01*
X148710093Y-99182505D01*
X148649597Y-99176000D01*
X147955000Y-99176000D01*
X147955000Y-100211031D01*
X147874694Y-100164667D01*
X147760244Y-100134000D01*
X147641756Y-100134000D01*
X147527306Y-100164667D01*
X147447000Y-100211031D01*
X147447000Y-99176000D01*
X146752402Y-99176000D01*
X146691906Y-99182505D01*
X146555035Y-99233555D01*
X146555034Y-99233555D01*
X146438095Y-99321095D01*
X146350555Y-99438034D01*
X146350555Y-99438035D01*
X146299505Y-99574906D01*
X146293000Y-99635402D01*
X145806999Y-99635402D01*
X145800494Y-99574906D01*
X145749444Y-99438035D01*
X145749444Y-99438034D01*
X145661904Y-99321095D01*
X145544965Y-99233555D01*
X145408093Y-99182505D01*
X145347597Y-99176000D01*
X144653000Y-99176000D01*
X144653000Y-100211031D01*
X144572694Y-100164667D01*
X144458244Y-100134000D01*
X144339756Y-100134000D01*
X144225306Y-100164667D01*
X144145000Y-100211031D01*
X144145000Y-99176000D01*
X143450402Y-99176000D01*
X143389906Y-99182505D01*
X143253035Y-99233555D01*
X143253034Y-99233555D01*
X143136095Y-99321095D01*
X143048555Y-99438034D01*
X143048555Y-99438035D01*
X142997505Y-99574906D01*
X142991000Y-99635402D01*
X142504999Y-99635402D01*
X142498494Y-99574906D01*
X142447444Y-99438035D01*
X142447444Y-99438034D01*
X142359904Y-99321095D01*
X142242965Y-99233555D01*
X142106093Y-99182505D01*
X142045597Y-99176000D01*
X141351000Y-99176000D01*
X141351000Y-100211031D01*
X141270694Y-100164667D01*
X141156244Y-100134000D01*
X141037756Y-100134000D01*
X140923306Y-100164667D01*
X140843000Y-100211031D01*
X140843000Y-99176000D01*
X140205500Y-99176000D01*
X140137379Y-99155998D01*
X140090886Y-99102342D01*
X140079500Y-99050000D01*
X140079500Y-98231593D01*
X140099502Y-98163472D01*
X140116400Y-98142503D01*
X143902806Y-94356096D01*
X143965116Y-94322072D01*
X144030834Y-94325359D01*
X144069176Y-94337818D01*
X144288149Y-94372500D01*
X144288152Y-94372500D01*
X144509848Y-94372500D01*
X144509851Y-94372500D01*
X144728824Y-94337818D01*
X144939676Y-94269308D01*
X145137215Y-94168657D01*
X145316576Y-94038343D01*
X145473343Y-93881576D01*
X145603657Y-93702215D01*
X145704308Y-93504676D01*
X145772818Y-93293824D01*
X145807500Y-93074851D01*
X145807500Y-92853149D01*
X145772818Y-92634176D01*
X145704308Y-92423324D01*
X145603657Y-92225785D01*
X145546208Y-92146714D01*
X145473341Y-92046421D01*
X145316578Y-91889658D01*
X145137218Y-91759345D01*
X145137217Y-91759344D01*
X145137215Y-91759343D01*
X144939676Y-91658692D01*
X144939673Y-91658691D01*
X144939671Y-91658690D01*
X144728829Y-91590183D01*
X144728825Y-91590182D01*
X144728824Y-91590182D01*
X144509851Y-91555500D01*
X144288149Y-91555500D01*
X144069176Y-91590182D01*
X144069170Y-91590183D01*
X143858328Y-91658690D01*
X143858322Y-91658693D01*
X143660781Y-91759345D01*
X143481421Y-91889658D01*
X143324658Y-92046421D01*
X143194345Y-92225781D01*
X143093693Y-92423322D01*
X143093690Y-92423328D01*
X143025183Y-92634170D01*
X143025183Y-92634172D01*
X143025182Y-92634176D01*
X142990500Y-92853149D01*
X142990500Y-93074851D01*
X143025182Y-93293824D01*
X143025183Y-93293828D01*
X143037639Y-93332165D01*
X143039665Y-93403133D01*
X143006900Y-93460194D01*
X141945595Y-94521499D01*
X141883283Y-94555525D01*
X141812468Y-94550460D01*
X141755632Y-94507913D01*
X141730821Y-94441393D01*
X141730500Y-94432404D01*
X141730500Y-94299224D01*
X141750502Y-94231103D01*
X141799299Y-94186956D01*
X141835215Y-94168657D01*
X142014576Y-94038343D01*
X142171343Y-93881576D01*
X142301657Y-93702215D01*
X142402308Y-93504676D01*
X142470818Y-93293824D01*
X142505500Y-93074851D01*
X142505500Y-92853149D01*
X142470818Y-92634176D01*
X142402308Y-92423324D01*
X142301657Y-92225785D01*
X142244208Y-92146714D01*
X142171341Y-92046421D01*
X142014578Y-91889658D01*
X141835218Y-91759345D01*
X141835217Y-91759344D01*
X141835215Y-91759343D01*
X141637676Y-91658692D01*
X141637673Y-91658691D01*
X141637671Y-91658690D01*
X141426829Y-91590183D01*
X141426825Y-91590182D01*
X141426824Y-91590182D01*
X141207851Y-91555500D01*
X140986149Y-91555500D01*
X140767176Y-91590182D01*
X140767170Y-91590183D01*
X140556328Y-91658690D01*
X140556322Y-91658693D01*
X140358781Y-91759345D01*
X140179421Y-91889658D01*
X140022658Y-92046421D01*
X139892345Y-92225781D01*
X139791693Y-92423322D01*
X139791690Y-92423328D01*
X139723183Y-92634170D01*
X139723183Y-92634172D01*
X139723182Y-92634176D01*
X139688500Y-92853149D01*
X139688500Y-93074851D01*
X139721639Y-93284080D01*
X139723183Y-93293829D01*
X139791690Y-93504671D01*
X139791692Y-93504676D01*
X139887328Y-93692372D01*
X139892345Y-93702218D01*
X140022658Y-93881578D01*
X140179421Y-94038341D01*
X140333062Y-94149968D01*
X140376416Y-94206191D01*
X140382491Y-94276927D01*
X140349359Y-94339718D01*
X140348096Y-94340999D01*
X137391167Y-97297929D01*
X137302931Y-97386164D01*
X137302926Y-97386171D01*
X137233601Y-97489923D01*
X137185846Y-97605212D01*
X137161500Y-97727603D01*
X137161500Y-99049500D01*
X137141498Y-99117621D01*
X137087842Y-99164114D01*
X137035500Y-99175500D01*
X136846350Y-99175500D01*
X136785803Y-99182009D01*
X136785795Y-99182011D01*
X136648797Y-99233110D01*
X136648792Y-99233112D01*
X136531738Y-99320738D01*
X136444112Y-99437792D01*
X136444110Y-99437797D01*
X136393011Y-99574795D01*
X136393009Y-99574803D01*
X136386500Y-99635350D01*
X136386500Y-101044403D01*
X136366498Y-101112524D01*
X136349595Y-101133498D01*
X136116595Y-101366498D01*
X136054283Y-101400524D01*
X135983468Y-101395459D01*
X135926632Y-101352912D01*
X135901821Y-101286392D01*
X135901500Y-101277403D01*
X135901500Y-99635367D01*
X135901499Y-99635350D01*
X135894990Y-99574803D01*
X135894988Y-99574795D01*
X135853988Y-99464873D01*
X135843889Y-99437796D01*
X135843888Y-99437794D01*
X135843887Y-99437792D01*
X135756261Y-99320738D01*
X135639207Y-99233112D01*
X135639202Y-99233110D01*
X135502204Y-99182011D01*
X135502196Y-99182009D01*
X135441649Y-99175500D01*
X135441638Y-99175500D01*
X133544362Y-99175500D01*
X133544350Y-99175500D01*
X133483803Y-99182009D01*
X133483795Y-99182011D01*
X133346797Y-99233110D01*
X133346792Y-99233112D01*
X133229738Y-99320738D01*
X133142112Y-99437792D01*
X133142110Y-99437797D01*
X133091011Y-99574795D01*
X133091009Y-99574803D01*
X133084500Y-99635350D01*
X133084500Y-101532649D01*
X133091009Y-101593196D01*
X133091011Y-101593204D01*
X133142110Y-101730202D01*
X133142112Y-101730207D01*
X133229738Y-101847261D01*
X133346792Y-101934887D01*
X133346794Y-101934888D01*
X133346796Y-101934889D01*
X133365919Y-101942021D01*
X133378987Y-101946896D01*
X133435823Y-101989443D01*
X133460633Y-102055963D01*
X133445541Y-102125337D01*
X133424049Y-102154046D01*
X129822501Y-105755595D01*
X129760189Y-105789621D01*
X129733406Y-105792500D01*
X128969603Y-105792500D01*
X128896568Y-105807028D01*
X128847215Y-105816845D01*
X128847213Y-105816845D01*
X128847212Y-105816846D01*
X128779675Y-105844821D01*
X128768759Y-105849343D01*
X128731923Y-105864601D01*
X128628171Y-105933926D01*
X128628164Y-105933931D01*
X126679501Y-107882595D01*
X126617189Y-107916621D01*
X126590406Y-107919500D01*
X124381350Y-107919500D01*
X124320803Y-107926009D01*
X124320795Y-107926011D01*
X124183797Y-107977110D01*
X124183792Y-107977112D01*
X124066738Y-108064738D01*
X123979112Y-108181792D01*
X123979110Y-108181797D01*
X123928011Y-108318795D01*
X123928009Y-108318803D01*
X123921500Y-108379350D01*
X123921500Y-111076649D01*
X123928009Y-111137196D01*
X123928011Y-111137204D01*
X123979110Y-111274202D01*
X123979112Y-111274207D01*
X124066738Y-111391261D01*
X124183792Y-111478887D01*
X124183794Y-111478888D01*
X124183796Y-111478889D01*
X124234227Y-111497699D01*
X124320795Y-111529988D01*
X124320803Y-111529990D01*
X124381350Y-111536499D01*
X124381355Y-111536499D01*
X124381362Y-111536500D01*
X126215918Y-111536500D01*
X126284039Y-111556502D01*
X126305013Y-111573405D01*
X128135611Y-113404003D01*
X128268032Y-113492484D01*
X128293641Y-113503091D01*
X128348922Y-113547638D01*
X128371344Y-113615001D01*
X128353787Y-113683793D01*
X128301825Y-113732172D01*
X128245424Y-113745500D01*
X125355082Y-113745500D01*
X125286961Y-113725498D01*
X125265987Y-113708595D01*
X123654405Y-112097013D01*
X123620379Y-112034701D01*
X123617500Y-112007918D01*
X123617500Y-100169203D01*
X123637502Y-100101082D01*
X123691158Y-100054589D01*
X123761432Y-100044485D01*
X123826012Y-100073979D01*
X123845435Y-100095141D01*
X123931794Y-100214004D01*
X123931796Y-100214006D01*
X123931798Y-100214009D01*
X124082990Y-100365201D01*
X124082993Y-100365203D01*
X124082996Y-100365206D01*
X124255991Y-100490894D01*
X124446517Y-100587972D01*
X124649878Y-100654047D01*
X124649879Y-100654047D01*
X124649884Y-100654049D01*
X124861084Y-100687500D01*
X124861087Y-100687500D01*
X125074913Y-100687500D01*
X125074916Y-100687500D01*
X125286116Y-100654049D01*
X125489483Y-100587972D01*
X125680009Y-100490894D01*
X125693543Y-100481061D01*
X127216000Y-100481061D01*
X127216000Y-100686938D01*
X127248208Y-100890296D01*
X127311826Y-101086093D01*
X127311829Y-101086099D01*
X127405297Y-101269540D01*
X127405298Y-101269541D01*
X127436416Y-101312372D01*
X128124000Y-100624788D01*
X128124000Y-100636661D01*
X128151259Y-100738394D01*
X128203920Y-100829606D01*
X128278394Y-100904080D01*
X128369606Y-100956741D01*
X128471339Y-100984000D01*
X128483210Y-100984000D01*
X127795626Y-101671582D01*
X127795626Y-101671583D01*
X127838454Y-101702699D01*
X128021900Y-101796170D01*
X128021906Y-101796173D01*
X128217705Y-101859791D01*
X128217701Y-101859791D01*
X128421061Y-101892000D01*
X128626939Y-101892000D01*
X128830296Y-101859791D01*
X129026093Y-101796173D01*
X129026099Y-101796170D01*
X129209541Y-101702701D01*
X129252372Y-101671582D01*
X129252372Y-101671581D01*
X128564791Y-100984000D01*
X128576661Y-100984000D01*
X128678394Y-100956741D01*
X128769606Y-100904080D01*
X128844080Y-100829606D01*
X128896741Y-100738394D01*
X128924000Y-100636661D01*
X128924000Y-100624791D01*
X129611581Y-101312372D01*
X129611582Y-101312372D01*
X129642701Y-101269541D01*
X129661453Y-101232740D01*
X129710201Y-101181125D01*
X129779116Y-101164059D01*
X129846318Y-101186960D01*
X129885985Y-101232738D01*
X129904737Y-101269540D01*
X129904873Y-101269806D01*
X129934802Y-101310999D01*
X130025932Y-101436430D01*
X130025934Y-101436432D01*
X130025936Y-101436435D01*
X130171564Y-101582063D01*
X130171567Y-101582065D01*
X130171570Y-101582068D01*
X130338197Y-101703129D01*
X130521710Y-101796634D01*
X130717592Y-101860280D01*
X130921019Y-101892500D01*
X130921022Y-101892500D01*
X131126978Y-101892500D01*
X131126981Y-101892500D01*
X131330408Y-101860280D01*
X131526290Y-101796634D01*
X131709803Y-101703129D01*
X131876430Y-101582068D01*
X132022068Y-101436430D01*
X132143129Y-101269803D01*
X132236634Y-101086290D01*
X132300280Y-100890408D01*
X132332500Y-100686981D01*
X132332500Y-100481019D01*
X132300280Y-100277592D01*
X132236634Y-100081710D01*
X132143129Y-99898197D01*
X132022068Y-99731570D01*
X132022065Y-99731567D01*
X132022063Y-99731564D01*
X131876435Y-99585936D01*
X131876432Y-99585934D01*
X131876430Y-99585932D01*
X131710391Y-99465298D01*
X131709806Y-99464873D01*
X131709805Y-99464872D01*
X131709803Y-99464871D01*
X131526290Y-99371366D01*
X131526287Y-99371365D01*
X131526285Y-99371364D01*
X131330412Y-99307721D01*
X131330410Y-99307720D01*
X131330408Y-99307720D01*
X131126981Y-99275500D01*
X130921019Y-99275500D01*
X130717592Y-99307720D01*
X130717590Y-99307720D01*
X130717587Y-99307721D01*
X130521714Y-99371364D01*
X130521708Y-99371367D01*
X130338193Y-99464873D01*
X130171567Y-99585934D01*
X130171564Y-99585936D01*
X130025936Y-99731564D01*
X130025934Y-99731567D01*
X129904871Y-99898196D01*
X129885986Y-99935260D01*
X129837238Y-99986875D01*
X129768323Y-100003940D01*
X129701121Y-99981039D01*
X129661454Y-99935260D01*
X129642701Y-99898457D01*
X129611583Y-99855626D01*
X129611582Y-99855626D01*
X128924000Y-100543208D01*
X128924000Y-100531339D01*
X128896741Y-100429606D01*
X128844080Y-100338394D01*
X128769606Y-100263920D01*
X128678394Y-100211259D01*
X128576661Y-100184000D01*
X128564790Y-100184000D01*
X129252372Y-99496416D01*
X129209541Y-99465298D01*
X129209540Y-99465297D01*
X129026099Y-99371829D01*
X129026093Y-99371826D01*
X128830294Y-99308208D01*
X128830298Y-99308208D01*
X128626939Y-99276000D01*
X128421061Y-99276000D01*
X128217703Y-99308208D01*
X128021906Y-99371826D01*
X128021900Y-99371829D01*
X127838452Y-99465301D01*
X127795625Y-99496416D01*
X128483209Y-100184000D01*
X128471339Y-100184000D01*
X128369606Y-100211259D01*
X128278394Y-100263920D01*
X128203920Y-100338394D01*
X128151259Y-100429606D01*
X128124000Y-100531339D01*
X128124000Y-100543209D01*
X127436416Y-99855625D01*
X127405301Y-99898452D01*
X127311829Y-100081900D01*
X127311826Y-100081906D01*
X127248208Y-100277703D01*
X127216000Y-100481061D01*
X125693543Y-100481061D01*
X125853004Y-100365206D01*
X126004206Y-100214004D01*
X126129894Y-100041009D01*
X126226972Y-99850483D01*
X126293049Y-99647116D01*
X126326500Y-99435916D01*
X126326500Y-99222084D01*
X126293049Y-99010884D01*
X126226972Y-98807517D01*
X126129894Y-98616991D01*
X126004206Y-98443996D01*
X126004203Y-98443993D01*
X126004201Y-98443990D01*
X125853009Y-98292798D01*
X125853006Y-98292796D01*
X125853004Y-98292794D01*
X125700509Y-98182000D01*
X125680012Y-98167108D01*
X125678920Y-98166439D01*
X125678591Y-98166075D01*
X125676004Y-98164196D01*
X125676398Y-98163652D01*
X125631283Y-98113796D01*
X125619670Y-98043756D01*
X125647766Y-97978555D01*
X125676130Y-97953978D01*
X125676004Y-97953804D01*
X125678030Y-97952331D01*
X125678920Y-97951561D01*
X125679997Y-97950899D01*
X125680009Y-97950894D01*
X125853004Y-97825206D01*
X126004206Y-97674004D01*
X126129894Y-97501009D01*
X126226972Y-97310483D01*
X126293049Y-97107116D01*
X126326500Y-96895916D01*
X126326500Y-96682084D01*
X126293049Y-96470884D01*
X126226972Y-96267517D01*
X126129894Y-96076991D01*
X126004206Y-95903996D01*
X126004203Y-95903993D01*
X126004201Y-95903990D01*
X125901229Y-95801018D01*
X125867203Y-95738706D01*
X125872268Y-95667891D01*
X125914815Y-95611055D01*
X125946284Y-95593871D01*
X126064204Y-95549889D01*
X126073247Y-95543120D01*
X126181261Y-95462261D01*
X126268887Y-95345207D01*
X126268887Y-95345206D01*
X126268889Y-95345204D01*
X126319989Y-95208201D01*
X126326500Y-95147638D01*
X126326500Y-93350362D01*
X126323581Y-93323210D01*
X126319990Y-93289803D01*
X126319988Y-93289795D01*
X126268889Y-93152797D01*
X126268887Y-93152792D01*
X126181261Y-93035738D01*
X126076064Y-92956988D01*
X126076046Y-92956976D01*
X126064204Y-92948111D01*
X126064202Y-92948110D01*
X125927204Y-92897011D01*
X125927196Y-92897009D01*
X125866649Y-92890500D01*
X125866638Y-92890500D01*
X124069362Y-92890500D01*
X124069350Y-92890500D01*
X124008803Y-92897009D01*
X124008795Y-92897011D01*
X123871797Y-92948110D01*
X123871792Y-92948113D01*
X123819009Y-92987626D01*
X123752488Y-93012437D01*
X123683114Y-92997345D01*
X123632912Y-92947143D01*
X123617500Y-92886758D01*
X123617500Y-91573082D01*
X123637502Y-91504961D01*
X123654405Y-91483987D01*
X124122987Y-91015405D01*
X124185299Y-90981379D01*
X124212082Y-90978500D01*
X129787918Y-90978500D01*
X129856039Y-90998502D01*
X129877013Y-91015405D01*
X130178595Y-91316987D01*
X130212621Y-91379299D01*
X130215500Y-91406082D01*
X130215500Y-91870325D01*
X130195498Y-91938446D01*
X130174800Y-91962161D01*
X130175070Y-91962431D01*
X130025936Y-92111564D01*
X130025934Y-92111567D01*
X129904871Y-92278196D01*
X129885986Y-92315260D01*
X129837238Y-92366875D01*
X129768323Y-92383940D01*
X129701121Y-92361039D01*
X129661454Y-92315260D01*
X129642701Y-92278457D01*
X129611583Y-92235626D01*
X129611582Y-92235626D01*
X128924000Y-92923208D01*
X128924000Y-92911339D01*
X128896741Y-92809606D01*
X128844080Y-92718394D01*
X128769606Y-92643920D01*
X128678394Y-92591259D01*
X128576661Y-92564000D01*
X128564790Y-92564000D01*
X129252372Y-91876416D01*
X129209541Y-91845298D01*
X129209540Y-91845297D01*
X129026099Y-91751829D01*
X129026093Y-91751826D01*
X128830294Y-91688208D01*
X128830298Y-91688208D01*
X128626939Y-91656000D01*
X128421061Y-91656000D01*
X128217703Y-91688208D01*
X128021906Y-91751826D01*
X128021900Y-91751829D01*
X127838452Y-91845301D01*
X127795625Y-91876416D01*
X128483209Y-92564000D01*
X128471339Y-92564000D01*
X128369606Y-92591259D01*
X128278394Y-92643920D01*
X128203920Y-92718394D01*
X128151259Y-92809606D01*
X128124000Y-92911339D01*
X128124000Y-92923209D01*
X127436416Y-92235625D01*
X127405301Y-92278452D01*
X127311829Y-92461900D01*
X127311826Y-92461906D01*
X127248208Y-92657703D01*
X127216000Y-92861061D01*
X127216000Y-93066938D01*
X127248208Y-93270296D01*
X127311826Y-93466093D01*
X127311829Y-93466099D01*
X127405297Y-93649540D01*
X127405298Y-93649541D01*
X127436416Y-93692372D01*
X128124000Y-93004788D01*
X128124000Y-93016661D01*
X128151259Y-93118394D01*
X128203920Y-93209606D01*
X128278394Y-93284080D01*
X128369606Y-93336741D01*
X128471339Y-93364000D01*
X128483210Y-93364000D01*
X127795626Y-94051582D01*
X127795626Y-94051583D01*
X127838454Y-94082699D01*
X128021900Y-94176170D01*
X128021906Y-94176173D01*
X128217705Y-94239791D01*
X128217701Y-94239791D01*
X128421061Y-94272000D01*
X128626939Y-94272000D01*
X128830296Y-94239791D01*
X129026093Y-94176173D01*
X129026099Y-94176170D01*
X129209541Y-94082701D01*
X129252372Y-94051582D01*
X129252372Y-94051581D01*
X128564791Y-93364000D01*
X128576661Y-93364000D01*
X128678394Y-93336741D01*
X128769606Y-93284080D01*
X128844080Y-93209606D01*
X128896741Y-93118394D01*
X128924000Y-93016661D01*
X128924000Y-93004791D01*
X129611581Y-93692372D01*
X129611582Y-93692372D01*
X129642701Y-93649541D01*
X129661453Y-93612740D01*
X129710201Y-93561125D01*
X129779116Y-93544059D01*
X129846318Y-93566960D01*
X129885985Y-93612738D01*
X129904871Y-93649803D01*
X130025932Y-93816430D01*
X130025934Y-93816432D01*
X130025936Y-93816435D01*
X130171564Y-93962063D01*
X130171567Y-93962065D01*
X130171570Y-93962068D01*
X130338197Y-94083129D01*
X130521710Y-94176634D01*
X130717592Y-94240280D01*
X130921019Y-94272500D01*
X130921022Y-94272500D01*
X131126978Y-94272500D01*
X131126981Y-94272500D01*
X131330408Y-94240280D01*
X131526290Y-94176634D01*
X131709803Y-94083129D01*
X131876430Y-93962068D01*
X131876435Y-93962063D01*
X132025569Y-93812930D01*
X132026370Y-93813731D01*
X132081301Y-93777864D01*
X132117674Y-93772500D01*
X133275208Y-93772500D01*
X133343329Y-93792502D01*
X133377142Y-93824436D01*
X133418657Y-93881576D01*
X133418659Y-93881578D01*
X133418662Y-93881582D01*
X133575421Y-94038341D01*
X133636477Y-94082701D01*
X133754785Y-94168657D01*
X133952324Y-94269308D01*
X134163176Y-94337818D01*
X134382149Y-94372500D01*
X134382152Y-94372500D01*
X134603848Y-94372500D01*
X134603851Y-94372500D01*
X134822824Y-94337818D01*
X135033676Y-94269308D01*
X135231215Y-94168657D01*
X135410576Y-94038343D01*
X135567343Y-93881576D01*
X135608857Y-93824437D01*
X135665079Y-93781085D01*
X135710792Y-93772500D01*
X136577208Y-93772500D01*
X136645329Y-93792502D01*
X136679142Y-93824436D01*
X136720657Y-93881576D01*
X136720659Y-93881578D01*
X136720662Y-93881582D01*
X136877421Y-94038341D01*
X136938477Y-94082701D01*
X137056785Y-94168657D01*
X137254324Y-94269308D01*
X137465176Y-94337818D01*
X137684149Y-94372500D01*
X137684152Y-94372500D01*
X137905848Y-94372500D01*
X137905851Y-94372500D01*
X138124824Y-94337818D01*
X138335676Y-94269308D01*
X138533215Y-94168657D01*
X138712576Y-94038343D01*
X138869343Y-93881576D01*
X138999657Y-93702215D01*
X139100308Y-93504676D01*
X139168818Y-93293824D01*
X139203500Y-93074851D01*
X139203500Y-92853149D01*
X139168818Y-92634176D01*
X139100308Y-92423324D01*
X138999657Y-92225785D01*
X138942208Y-92146714D01*
X138869341Y-92046421D01*
X138712582Y-91889662D01*
X138712578Y-91889659D01*
X138712576Y-91889657D01*
X138655437Y-91848142D01*
X138612085Y-91791921D01*
X138603500Y-91746208D01*
X138603500Y-87118500D01*
X138623502Y-87050379D01*
X138677158Y-87003886D01*
X138729500Y-86992500D01*
X140765500Y-86992500D01*
X140833621Y-87012502D01*
X140880114Y-87066158D01*
X140891500Y-87118500D01*
X140891500Y-87185149D01*
X140898009Y-87245696D01*
X140898011Y-87245704D01*
X140949110Y-87382702D01*
X140949112Y-87382707D01*
X141036738Y-87499761D01*
X141153792Y-87587387D01*
X141153794Y-87587388D01*
X141153796Y-87587389D01*
X141212875Y-87609424D01*
X141290795Y-87638488D01*
X141290803Y-87638490D01*
X141351350Y-87644999D01*
X141351355Y-87644999D01*
X141351362Y-87645000D01*
X141351368Y-87645000D01*
X143448632Y-87645000D01*
X143448638Y-87645000D01*
X143448645Y-87644999D01*
X143448649Y-87644999D01*
X143509196Y-87638490D01*
X143509199Y-87638489D01*
X143509201Y-87638489D01*
X143646204Y-87587389D01*
X143763261Y-87499761D01*
X143850889Y-87382704D01*
X143901989Y-87245701D01*
X143902270Y-87243093D01*
X143908499Y-87185149D01*
X143908500Y-87185132D01*
X143908500Y-85892350D01*
X145503500Y-85892350D01*
X145503500Y-87589649D01*
X145510009Y-87650196D01*
X145510011Y-87650204D01*
X145561110Y-87787202D01*
X145561112Y-87787207D01*
X145648738Y-87904261D01*
X145765792Y-87991887D01*
X145765794Y-87991888D01*
X145765796Y-87991889D01*
X145902799Y-88042989D01*
X145906478Y-88043859D01*
X145909036Y-88045316D01*
X145910184Y-88045744D01*
X145910114Y-88045929D01*
X145968173Y-88078991D01*
X146001079Y-88141901D01*
X146003500Y-88166481D01*
X146003500Y-89233630D01*
X146034570Y-89389831D01*
X146060950Y-89453516D01*
X146095516Y-89536968D01*
X146183997Y-89669389D01*
X146183999Y-89669391D01*
X147855013Y-91340405D01*
X147889039Y-91402717D01*
X147883974Y-91473532D01*
X147841427Y-91530368D01*
X147774907Y-91555179D01*
X147765918Y-91555500D01*
X147590149Y-91555500D01*
X147371176Y-91590182D01*
X147371170Y-91590183D01*
X147160328Y-91658690D01*
X147160322Y-91658693D01*
X146962781Y-91759345D01*
X146783421Y-91889658D01*
X146626658Y-92046421D01*
X146496345Y-92225781D01*
X146395693Y-92423322D01*
X146395690Y-92423328D01*
X146327183Y-92634170D01*
X146327183Y-92634172D01*
X146327182Y-92634176D01*
X146292500Y-92853149D01*
X146292500Y-93074851D01*
X146325639Y-93284080D01*
X146327183Y-93293829D01*
X146395690Y-93504671D01*
X146395692Y-93504676D01*
X146491328Y-93692372D01*
X146496345Y-93702218D01*
X146626658Y-93881578D01*
X146783421Y-94038341D01*
X146844477Y-94082701D01*
X146962785Y-94168657D01*
X147160324Y-94269308D01*
X147371176Y-94337818D01*
X147590149Y-94372500D01*
X147590152Y-94372500D01*
X147811848Y-94372500D01*
X147811851Y-94372500D01*
X148030824Y-94337818D01*
X148241676Y-94269308D01*
X148439215Y-94168657D01*
X148618576Y-94038343D01*
X148775343Y-93881576D01*
X148905657Y-93702215D01*
X149006308Y-93504676D01*
X149074818Y-93293824D01*
X149109500Y-93074851D01*
X149109500Y-92853149D01*
X149074818Y-92634176D01*
X149006308Y-92423324D01*
X148905657Y-92225785D01*
X148848208Y-92146714D01*
X148775341Y-92046421D01*
X148618578Y-91889658D01*
X148552206Y-91841436D01*
X148508852Y-91785213D01*
X148502777Y-91714477D01*
X148535909Y-91651685D01*
X148597729Y-91616774D01*
X148626267Y-91613500D01*
X150077733Y-91613500D01*
X150145854Y-91633502D01*
X150192347Y-91687158D01*
X150202451Y-91757432D01*
X150172957Y-91822012D01*
X150151794Y-91841436D01*
X150085421Y-91889658D01*
X149928658Y-92046421D01*
X149798345Y-92225781D01*
X149697693Y-92423322D01*
X149697690Y-92423328D01*
X149629183Y-92634170D01*
X149629183Y-92634172D01*
X149629182Y-92634176D01*
X149594500Y-92853149D01*
X149594500Y-93074851D01*
X149627639Y-93284080D01*
X149629183Y-93293829D01*
X149697690Y-93504671D01*
X149697692Y-93504676D01*
X149793328Y-93692372D01*
X149798345Y-93702218D01*
X149928658Y-93881578D01*
X150085421Y-94038341D01*
X150146477Y-94082701D01*
X150264785Y-94168657D01*
X150462324Y-94269308D01*
X150673176Y-94337818D01*
X150892149Y-94372500D01*
X150892152Y-94372500D01*
X151113848Y-94372500D01*
X151113851Y-94372500D01*
X151332824Y-94337818D01*
X151543676Y-94269308D01*
X151741215Y-94168657D01*
X151920576Y-94038343D01*
X152077343Y-93881576D01*
X152207657Y-93702215D01*
X152308308Y-93504676D01*
X152376818Y-93293824D01*
X152411500Y-93074851D01*
X152411500Y-92853149D01*
X152376818Y-92634176D01*
X152320019Y-92459369D01*
X152317992Y-92388404D01*
X152354655Y-92327606D01*
X152418367Y-92296280D01*
X152488901Y-92304373D01*
X152528948Y-92331340D01*
X152872194Y-92674586D01*
X152906220Y-92736898D01*
X152907548Y-92783390D01*
X152903396Y-92809606D01*
X152896500Y-92853149D01*
X152896500Y-93074851D01*
X152929639Y-93284080D01*
X152931183Y-93293829D01*
X152999690Y-93504671D01*
X152999692Y-93504676D01*
X153095328Y-93692372D01*
X153100345Y-93702218D01*
X153230658Y-93881578D01*
X153387421Y-94038341D01*
X153448477Y-94082701D01*
X153566785Y-94168657D01*
X153764324Y-94269308D01*
X153975176Y-94337818D01*
X154194149Y-94372500D01*
X154194152Y-94372500D01*
X154415848Y-94372500D01*
X154415851Y-94372500D01*
X154634824Y-94337818D01*
X154845676Y-94269308D01*
X155043215Y-94168657D01*
X155222576Y-94038343D01*
X155379343Y-93881576D01*
X155420857Y-93824437D01*
X155477079Y-93781085D01*
X155522792Y-93772500D01*
X156389208Y-93772500D01*
X156457329Y-93792502D01*
X156491142Y-93824436D01*
X156532657Y-93881576D01*
X156532659Y-93881578D01*
X156532662Y-93881582D01*
X156689421Y-94038341D01*
X156750477Y-94082701D01*
X156868785Y-94168657D01*
X157066324Y-94269308D01*
X157277176Y-94337818D01*
X157496149Y-94372500D01*
X157496152Y-94372500D01*
X157717848Y-94372500D01*
X157717851Y-94372500D01*
X157936824Y-94337818D01*
X158147676Y-94269308D01*
X158345215Y-94168657D01*
X158524576Y-94038343D01*
X158681343Y-93881576D01*
X158811657Y-93702215D01*
X158912308Y-93504676D01*
X158980818Y-93293824D01*
X159015500Y-93074851D01*
X159015500Y-92853149D01*
X158980818Y-92634176D01*
X158912308Y-92423324D01*
X158811657Y-92225785D01*
X158754208Y-92146714D01*
X158681341Y-92046421D01*
X158524578Y-91889658D01*
X158345218Y-91759345D01*
X158345217Y-91759344D01*
X158345215Y-91759343D01*
X158147676Y-91658692D01*
X158147673Y-91658691D01*
X158147671Y-91658690D01*
X157936829Y-91590183D01*
X157936825Y-91590182D01*
X157936824Y-91590182D01*
X157717851Y-91555500D01*
X157496149Y-91555500D01*
X157277176Y-91590182D01*
X157277170Y-91590183D01*
X157066328Y-91658690D01*
X157066322Y-91658693D01*
X156868781Y-91759345D01*
X156689421Y-91889658D01*
X156532662Y-92046417D01*
X156532657Y-92046424D01*
X156491142Y-92103562D01*
X156434921Y-92146915D01*
X156389208Y-92155500D01*
X155522792Y-92155500D01*
X155454671Y-92135498D01*
X155420857Y-92103563D01*
X155379343Y-92046424D01*
X155379339Y-92046420D01*
X155379337Y-92046417D01*
X155222578Y-91889658D01*
X155043218Y-91759345D01*
X155043217Y-91759344D01*
X155043215Y-91759343D01*
X154845676Y-91658692D01*
X154845673Y-91658691D01*
X154845671Y-91658690D01*
X154634829Y-91590183D01*
X154634825Y-91590182D01*
X154634824Y-91590182D01*
X154415851Y-91555500D01*
X154194149Y-91555500D01*
X154181850Y-91557448D01*
X154124390Y-91566548D01*
X154053979Y-91557448D01*
X154015586Y-91531194D01*
X152661391Y-90176999D01*
X152661389Y-90176997D01*
X152528968Y-90088516D01*
X152455399Y-90058043D01*
X152381831Y-90027570D01*
X152225632Y-89996500D01*
X152225630Y-89996500D01*
X148850082Y-89996500D01*
X148781961Y-89976498D01*
X148760987Y-89959595D01*
X147657405Y-88856013D01*
X147623379Y-88793701D01*
X147620500Y-88766918D01*
X147620500Y-88166481D01*
X147640502Y-88098360D01*
X147694158Y-88051867D01*
X147717522Y-88043859D01*
X147721199Y-88042989D01*
X147721201Y-88042989D01*
X147858204Y-87991889D01*
X147909923Y-87953173D01*
X147975261Y-87904261D01*
X148062887Y-87787207D01*
X148062887Y-87787206D01*
X148062889Y-87787204D01*
X148113989Y-87650201D01*
X148120500Y-87589638D01*
X148120500Y-87580811D01*
X148124124Y-87566517D01*
X148136169Y-87546140D01*
X148144038Y-87523815D01*
X148153898Y-87516150D01*
X148160253Y-87505401D01*
X148181404Y-87494770D01*
X148200093Y-87480244D01*
X148214627Y-87478072D01*
X148216816Y-87476972D01*
X148912000Y-86781788D01*
X148912000Y-86793661D01*
X148939259Y-86895394D01*
X148991920Y-86986606D01*
X149066394Y-87061080D01*
X149157606Y-87113741D01*
X149259339Y-87141000D01*
X149271210Y-87141000D01*
X148583626Y-87828582D01*
X148583626Y-87828583D01*
X148626454Y-87859699D01*
X148809900Y-87953170D01*
X148809906Y-87953173D01*
X149005705Y-88016791D01*
X149005701Y-88016791D01*
X149209061Y-88049000D01*
X149414939Y-88049000D01*
X149618296Y-88016791D01*
X149814093Y-87953173D01*
X149814099Y-87953170D01*
X149997541Y-87859701D01*
X150040372Y-87828582D01*
X150040372Y-87828581D01*
X149352791Y-87141000D01*
X149364661Y-87141000D01*
X149466394Y-87113741D01*
X149557606Y-87061080D01*
X149632080Y-86986606D01*
X149684741Y-86895394D01*
X149712000Y-86793661D01*
X149712000Y-86781791D01*
X150399581Y-87469372D01*
X150399582Y-87469372D01*
X150430701Y-87426541D01*
X150524170Y-87243099D01*
X150524173Y-87243093D01*
X150587791Y-87047296D01*
X150620000Y-86843938D01*
X150620000Y-86638061D01*
X150587791Y-86434703D01*
X150524173Y-86238906D01*
X150524170Y-86238900D01*
X150430699Y-86055454D01*
X150399583Y-86012626D01*
X150399582Y-86012626D01*
X149712000Y-86700208D01*
X149712000Y-86688339D01*
X149684741Y-86586606D01*
X149632080Y-86495394D01*
X149557606Y-86420920D01*
X149466394Y-86368259D01*
X149364661Y-86341000D01*
X149352790Y-86341000D01*
X150040372Y-85653416D01*
X149997541Y-85622298D01*
X149997540Y-85622297D01*
X149814099Y-85528829D01*
X149814093Y-85528826D01*
X149618294Y-85465208D01*
X149618298Y-85465208D01*
X149414939Y-85433000D01*
X149209061Y-85433000D01*
X149005703Y-85465208D01*
X148809906Y-85528826D01*
X148809900Y-85528829D01*
X148626452Y-85622301D01*
X148583625Y-85653416D01*
X149271209Y-86341000D01*
X149259339Y-86341000D01*
X149157606Y-86368259D01*
X149066394Y-86420920D01*
X148991920Y-86495394D01*
X148939259Y-86586606D01*
X148912000Y-86688339D01*
X148912000Y-86700209D01*
X148212816Y-86001025D01*
X148186665Y-85995531D01*
X148136106Y-85945689D01*
X148124124Y-85915480D01*
X148120500Y-85901185D01*
X148120500Y-85892362D01*
X148113989Y-85831799D01*
X148079394Y-85739047D01*
X148079393Y-85739043D01*
X148062889Y-85694797D01*
X148062887Y-85694792D01*
X147975261Y-85577738D01*
X147858207Y-85490112D01*
X147858202Y-85490110D01*
X147721204Y-85439011D01*
X147721196Y-85439009D01*
X147660649Y-85432500D01*
X147660638Y-85432500D01*
X145963362Y-85432500D01*
X145963350Y-85432500D01*
X145902803Y-85439009D01*
X145902795Y-85439011D01*
X145765797Y-85490110D01*
X145765792Y-85490112D01*
X145648738Y-85577738D01*
X145561112Y-85694792D01*
X145561110Y-85694797D01*
X145510011Y-85831795D01*
X145510009Y-85831803D01*
X145503500Y-85892350D01*
X143908500Y-85892350D01*
X143908500Y-85182867D01*
X143908499Y-85182850D01*
X143901990Y-85122303D01*
X143901988Y-85122295D01*
X143871750Y-85041227D01*
X143850889Y-84985296D01*
X143850888Y-84985294D01*
X143850887Y-84985292D01*
X143763261Y-84868238D01*
X143646208Y-84780613D01*
X143646205Y-84780612D01*
X143646204Y-84780611D01*
X143629096Y-84774230D01*
X143572264Y-84731685D01*
X143547453Y-84665164D01*
X143562545Y-84595790D01*
X143571196Y-84582115D01*
X143696628Y-84409472D01*
X143800996Y-84204638D01*
X143800999Y-84204632D01*
X143872035Y-83986006D01*
X143885975Y-83898000D01*
X142888438Y-83898000D01*
X142912518Y-83856292D01*
X142950000Y-83716409D01*
X142950000Y-83571591D01*
X142912518Y-83431708D01*
X142888438Y-83390000D01*
X143885974Y-83390000D01*
X143872035Y-83301993D01*
X143800999Y-83083367D01*
X143800996Y-83083361D01*
X143696628Y-82878527D01*
X143561504Y-82692545D01*
X143561502Y-82692542D01*
X143398957Y-82529997D01*
X143398954Y-82529995D01*
X143324974Y-82476245D01*
X143281620Y-82420023D01*
X143275545Y-82349287D01*
X143308676Y-82286495D01*
X143324965Y-82272379D01*
X143399278Y-82218389D01*
X143561889Y-82055778D01*
X143697060Y-81869731D01*
X143801462Y-81664829D01*
X143872526Y-81446118D01*
X143908500Y-81218983D01*
X143908500Y-80989017D01*
X143872526Y-80761882D01*
X143801462Y-80543171D01*
X143789555Y-80519803D01*
X143774871Y-80490983D01*
X143697060Y-80338269D01*
X143561889Y-80152222D01*
X143561886Y-80152219D01*
X143561884Y-80152216D01*
X143399283Y-79989615D01*
X143399280Y-79989613D01*
X143399278Y-79989611D01*
X143213231Y-79854440D01*
X143008329Y-79750038D01*
X142898973Y-79714506D01*
X142789620Y-79678974D01*
X142728854Y-79669350D01*
X145503500Y-79669350D01*
X145503500Y-81366649D01*
X145510009Y-81427196D01*
X145510011Y-81427204D01*
X145561110Y-81564202D01*
X145561112Y-81564207D01*
X145648738Y-81681261D01*
X145765792Y-81768887D01*
X145765794Y-81768888D01*
X145765796Y-81768889D01*
X145848990Y-81799919D01*
X145902799Y-81819989D01*
X145906478Y-81820859D01*
X145909036Y-81822316D01*
X145910184Y-81822744D01*
X145910114Y-81822929D01*
X145968173Y-81855991D01*
X146001079Y-81918901D01*
X146003500Y-81943481D01*
X146003500Y-82121632D01*
X146022745Y-82218384D01*
X146034570Y-82277831D01*
X146065043Y-82351399D01*
X146095516Y-82424968D01*
X146183997Y-82557389D01*
X147947611Y-84321003D01*
X148080032Y-84409484D01*
X148184073Y-84452579D01*
X148227169Y-84470430D01*
X148253078Y-84475582D01*
X148253083Y-84475585D01*
X148253084Y-84475584D01*
X148264119Y-84477779D01*
X148383370Y-84501501D01*
X148383373Y-84501501D01*
X148548843Y-84501501D01*
X148548863Y-84501500D01*
X151885918Y-84501500D01*
X151954039Y-84521502D01*
X151975013Y-84538405D01*
X153205595Y-85768987D01*
X153239621Y-85831299D01*
X153242500Y-85858082D01*
X153242500Y-86360325D01*
X153222498Y-86428446D01*
X153201800Y-86452161D01*
X153202070Y-86452431D01*
X153052936Y-86601564D01*
X153052934Y-86601567D01*
X152931873Y-86768193D01*
X152838367Y-86951708D01*
X152838364Y-86951714D01*
X152774721Y-87147587D01*
X152774720Y-87147590D01*
X152774720Y-87147592D01*
X152742500Y-87351019D01*
X152742500Y-87556981D01*
X152771955Y-87742951D01*
X152774721Y-87760412D01*
X152821460Y-87904261D01*
X152838366Y-87956290D01*
X152931871Y-88139803D01*
X153052932Y-88306430D01*
X153052934Y-88306432D01*
X153052936Y-88306435D01*
X153198564Y-88452063D01*
X153198567Y-88452065D01*
X153198570Y-88452068D01*
X153365197Y-88573129D01*
X153548710Y-88666634D01*
X153744592Y-88730280D01*
X153948019Y-88762500D01*
X153948022Y-88762500D01*
X154153978Y-88762500D01*
X154153981Y-88762500D01*
X154357408Y-88730280D01*
X154553290Y-88666634D01*
X154736803Y-88573129D01*
X154903430Y-88452068D01*
X155049068Y-88306430D01*
X155170129Y-88139803D01*
X155263634Y-87956290D01*
X155327280Y-87760408D01*
X155359500Y-87556981D01*
X155359500Y-87351019D01*
X155327280Y-87147592D01*
X155263634Y-86951710D01*
X155170129Y-86768197D01*
X155049068Y-86601570D01*
X155049065Y-86601567D01*
X155049063Y-86601564D01*
X154899930Y-86452431D01*
X154900728Y-86451632D01*
X154864858Y-86396678D01*
X154859500Y-86360325D01*
X154859500Y-85391371D01*
X154859499Y-85391367D01*
X154854078Y-85364114D01*
X154828430Y-85235169D01*
X154797956Y-85161600D01*
X154767484Y-85088032D01*
X154679003Y-84955611D01*
X152788389Y-83064997D01*
X152655968Y-82976516D01*
X152582399Y-82946043D01*
X152508831Y-82915570D01*
X152352632Y-82884500D01*
X152352630Y-82884500D01*
X148850082Y-82884500D01*
X148781961Y-82864498D01*
X148760987Y-82847595D01*
X147860417Y-81947025D01*
X147826391Y-81884713D01*
X147831456Y-81813898D01*
X147874003Y-81757062D01*
X147975261Y-81681261D01*
X148062887Y-81564207D01*
X148062887Y-81564206D01*
X148062889Y-81564204D01*
X148113989Y-81427201D01*
X148120500Y-81366638D01*
X148120500Y-81357811D01*
X148124124Y-81343517D01*
X148136169Y-81323140D01*
X148144038Y-81300815D01*
X148153898Y-81293150D01*
X148160253Y-81282401D01*
X148181404Y-81271770D01*
X148200093Y-81257244D01*
X148214627Y-81255072D01*
X148216816Y-81253972D01*
X148912000Y-80558788D01*
X148912000Y-80570661D01*
X148939259Y-80672394D01*
X148991920Y-80763606D01*
X149066394Y-80838080D01*
X149157606Y-80890741D01*
X149259339Y-80918000D01*
X149271210Y-80918000D01*
X148583626Y-81605582D01*
X148583626Y-81605583D01*
X148626454Y-81636699D01*
X148809900Y-81730170D01*
X148809906Y-81730173D01*
X149005705Y-81793791D01*
X149005701Y-81793791D01*
X149209061Y-81826000D01*
X149414939Y-81826000D01*
X149618296Y-81793791D01*
X149814093Y-81730173D01*
X149814099Y-81730170D01*
X149997541Y-81636701D01*
X150040372Y-81605582D01*
X150040372Y-81605581D01*
X149352791Y-80918000D01*
X149364661Y-80918000D01*
X149466394Y-80890741D01*
X149557606Y-80838080D01*
X149632080Y-80763606D01*
X149684741Y-80672394D01*
X149712000Y-80570661D01*
X149712000Y-80558791D01*
X150399581Y-81246372D01*
X150399582Y-81246372D01*
X150430701Y-81203541D01*
X150524170Y-81020099D01*
X150524173Y-81020093D01*
X150587791Y-80824296D01*
X150620000Y-80620938D01*
X150620000Y-80415061D01*
X150587791Y-80211703D01*
X150524173Y-80015906D01*
X150524170Y-80015900D01*
X150430699Y-79832454D01*
X150407214Y-79800129D01*
X150399583Y-79789626D01*
X150399582Y-79789626D01*
X149712000Y-80477208D01*
X149712000Y-80465339D01*
X149684741Y-80363606D01*
X149632080Y-80272394D01*
X149557606Y-80197920D01*
X149466394Y-80145259D01*
X149364661Y-80118000D01*
X149352790Y-80118000D01*
X149739770Y-79731019D01*
X152742500Y-79731019D01*
X152742500Y-79936981D01*
X152774497Y-80138998D01*
X152774721Y-80140412D01*
X152836510Y-80330580D01*
X152838366Y-80336290D01*
X152931871Y-80519803D01*
X153052932Y-80686430D01*
X153052934Y-80686432D01*
X153052936Y-80686435D01*
X153202070Y-80835569D01*
X153201268Y-80836370D01*
X153237136Y-80891301D01*
X153242500Y-80927674D01*
X153242500Y-82883632D01*
X153256351Y-82953263D01*
X153273570Y-83039831D01*
X153304043Y-83113399D01*
X153334516Y-83186968D01*
X153422997Y-83319389D01*
X153422999Y-83319391D01*
X162730595Y-92626987D01*
X162764621Y-92689299D01*
X162767500Y-92716082D01*
X162767500Y-95556208D01*
X162767229Y-95557130D01*
X162767486Y-95558056D01*
X162757249Y-95591117D01*
X162747498Y-95624329D01*
X162746678Y-95625260D01*
X162746488Y-95625876D01*
X162742233Y-95630314D01*
X162722607Y-95652632D01*
X162719178Y-95655516D01*
X162658424Y-95699657D01*
X162614594Y-95743486D01*
X162610433Y-95746987D01*
X162582695Y-95759165D01*
X162556108Y-95773684D01*
X162550538Y-95773285D01*
X162545427Y-95775530D01*
X162515507Y-95770779D01*
X162485292Y-95768618D01*
X162480823Y-95765272D01*
X162475309Y-95764397D01*
X162452707Y-95744224D01*
X162428457Y-95726071D01*
X162424740Y-95719264D01*
X162422340Y-95717122D01*
X162421066Y-95712536D01*
X162411270Y-95694596D01*
X162386443Y-95628033D01*
X162298904Y-95511095D01*
X162181965Y-95423555D01*
X162045093Y-95372505D01*
X161984597Y-95366000D01*
X161290000Y-95366000D01*
X161290000Y-96401031D01*
X161209694Y-96354667D01*
X161095244Y-96324000D01*
X160976756Y-96324000D01*
X160862306Y-96354667D01*
X160782000Y-96401031D01*
X160782000Y-95366000D01*
X160087402Y-95366000D01*
X160026906Y-95372505D01*
X159890035Y-95423555D01*
X159890034Y-95423555D01*
X159773095Y-95511095D01*
X159685555Y-95628034D01*
X159685555Y-95628035D01*
X159634505Y-95764906D01*
X159628000Y-95825402D01*
X159628000Y-96520000D01*
X160663032Y-96520000D01*
X160616667Y-96600306D01*
X160586000Y-96714756D01*
X160586000Y-96833244D01*
X160616667Y-96947694D01*
X160663032Y-97028000D01*
X159628000Y-97028000D01*
X159628000Y-97722597D01*
X159634505Y-97783093D01*
X159685555Y-97919964D01*
X159685555Y-97919965D01*
X159773095Y-98036904D01*
X159890034Y-98124444D01*
X160026906Y-98175494D01*
X160087402Y-98181999D01*
X160087415Y-98182000D01*
X160782000Y-98182000D01*
X160782000Y-97146968D01*
X160862306Y-97193333D01*
X160976756Y-97224000D01*
X161095244Y-97224000D01*
X161209694Y-97193333D01*
X161290000Y-97146968D01*
X161290000Y-98182000D01*
X161984585Y-98182000D01*
X161984597Y-98181999D01*
X162045093Y-98175494D01*
X162181964Y-98124444D01*
X162181965Y-98124444D01*
X162298904Y-98036904D01*
X162386444Y-97919965D01*
X162411270Y-97853404D01*
X162453817Y-97796568D01*
X162520337Y-97771757D01*
X162589711Y-97786848D01*
X162618421Y-97808341D01*
X162658421Y-97848341D01*
X162667044Y-97854606D01*
X162837785Y-97978657D01*
X163035324Y-98079308D01*
X163246176Y-98147818D01*
X163465149Y-98182500D01*
X163465152Y-98182500D01*
X163686848Y-98182500D01*
X163686851Y-98182500D01*
X163905824Y-98147818D01*
X164116676Y-98079308D01*
X164314215Y-97978657D01*
X164493576Y-97848343D01*
X164650343Y-97691576D01*
X164780657Y-97512215D01*
X164881308Y-97314676D01*
X164949818Y-97103824D01*
X164984500Y-96884851D01*
X164984500Y-96663149D01*
X164949818Y-96444176D01*
X164881308Y-96233324D01*
X164780657Y-96035785D01*
X164735946Y-95974246D01*
X164650341Y-95856421D01*
X164493582Y-95699662D01*
X164493578Y-95699659D01*
X164493576Y-95699657D01*
X164436437Y-95658142D01*
X164393085Y-95601921D01*
X164384500Y-95556208D01*
X164384500Y-93350350D01*
X166027500Y-93350350D01*
X166027500Y-95147649D01*
X166034009Y-95208196D01*
X166034011Y-95208204D01*
X166085110Y-95345202D01*
X166085112Y-95345207D01*
X166172738Y-95462261D01*
X166289791Y-95549886D01*
X166289792Y-95549886D01*
X166289796Y-95549889D01*
X166407711Y-95593869D01*
X166464543Y-95636414D01*
X166489354Y-95702934D01*
X166474263Y-95772308D01*
X166452771Y-95801018D01*
X166349794Y-95903995D01*
X166224108Y-96076987D01*
X166127029Y-96267515D01*
X166127026Y-96267521D01*
X166060952Y-96470878D01*
X166060951Y-96470883D01*
X166060951Y-96470884D01*
X166027500Y-96682084D01*
X166027500Y-96895916D01*
X166060951Y-97107116D01*
X166060952Y-97107121D01*
X166069715Y-97134090D01*
X166127028Y-97310483D01*
X166224106Y-97501009D01*
X166224108Y-97501012D01*
X166232250Y-97512218D01*
X166349794Y-97674004D01*
X166349796Y-97674006D01*
X166349798Y-97674009D01*
X166500990Y-97825201D01*
X166500993Y-97825203D01*
X166500996Y-97825206D01*
X166673991Y-97950894D01*
X166673996Y-97950896D01*
X166675088Y-97951566D01*
X166675418Y-97951931D01*
X166677996Y-97953804D01*
X166677602Y-97954345D01*
X166722721Y-98004213D01*
X166734328Y-98074255D01*
X166706226Y-98139453D01*
X166677870Y-98164023D01*
X166677996Y-98164196D01*
X166675982Y-98165658D01*
X166675088Y-98166434D01*
X166673987Y-98167108D01*
X166500993Y-98292796D01*
X166500990Y-98292798D01*
X166349798Y-98443990D01*
X166349796Y-98443993D01*
X166224108Y-98616987D01*
X166127029Y-98807515D01*
X166127026Y-98807521D01*
X166060952Y-99010878D01*
X166060951Y-99010883D01*
X166060951Y-99010884D01*
X166027500Y-99222084D01*
X166027500Y-99435916D01*
X166059097Y-99635410D01*
X166060952Y-99647121D01*
X166088389Y-99731564D01*
X166127028Y-99850483D01*
X166224106Y-100041009D01*
X166224108Y-100041012D01*
X166253677Y-100081710D01*
X166349794Y-100214004D01*
X166349796Y-100214006D01*
X166349798Y-100214009D01*
X166500990Y-100365201D01*
X166500993Y-100365203D01*
X166500996Y-100365206D01*
X166673991Y-100490894D01*
X166864517Y-100587972D01*
X167067878Y-100654047D01*
X167067879Y-100654047D01*
X167067884Y-100654049D01*
X167279084Y-100687500D01*
X167279087Y-100687500D01*
X167492913Y-100687500D01*
X167492916Y-100687500D01*
X167704116Y-100654049D01*
X167907483Y-100587972D01*
X168098009Y-100490894D01*
X168271004Y-100365206D01*
X168422206Y-100214004D01*
X168547894Y-100041009D01*
X168644972Y-99850483D01*
X168711049Y-99647116D01*
X168744500Y-99435916D01*
X168744500Y-99222084D01*
X168711049Y-99010884D01*
X168644972Y-98807517D01*
X168547894Y-98616991D01*
X168422206Y-98443996D01*
X168422203Y-98443993D01*
X168422201Y-98443990D01*
X168271009Y-98292798D01*
X168271006Y-98292796D01*
X168271004Y-98292794D01*
X168118509Y-98182000D01*
X168098012Y-98167108D01*
X168096920Y-98166439D01*
X168096591Y-98166075D01*
X168094004Y-98164196D01*
X168094398Y-98163652D01*
X168049283Y-98113796D01*
X168037670Y-98043756D01*
X168065766Y-97978555D01*
X168094130Y-97953978D01*
X168094004Y-97953804D01*
X168096030Y-97952331D01*
X168096920Y-97951561D01*
X168097997Y-97950899D01*
X168098009Y-97950894D01*
X168271004Y-97825206D01*
X168422206Y-97674004D01*
X168547894Y-97501009D01*
X168644972Y-97310483D01*
X168711049Y-97107116D01*
X168744500Y-96895916D01*
X168744500Y-96682084D01*
X168711049Y-96470884D01*
X168644972Y-96267517D01*
X168547894Y-96076991D01*
X168422206Y-95903996D01*
X168422203Y-95903993D01*
X168422201Y-95903990D01*
X168319229Y-95801018D01*
X168285203Y-95738706D01*
X168290268Y-95667891D01*
X168332815Y-95611055D01*
X168364284Y-95593871D01*
X168482204Y-95549889D01*
X168491247Y-95543120D01*
X168599261Y-95462261D01*
X168686887Y-95345207D01*
X168686887Y-95345206D01*
X168686889Y-95345204D01*
X168737989Y-95208201D01*
X168744500Y-95147638D01*
X168744500Y-93350362D01*
X168741581Y-93323210D01*
X168737990Y-93289803D01*
X168737988Y-93289795D01*
X168686889Y-93152797D01*
X168686887Y-93152792D01*
X168599261Y-93035738D01*
X168482207Y-92948112D01*
X168482202Y-92948110D01*
X168345204Y-92897011D01*
X168345196Y-92897009D01*
X168284649Y-92890500D01*
X168284638Y-92890500D01*
X166487362Y-92890500D01*
X166487350Y-92890500D01*
X166426803Y-92897009D01*
X166426795Y-92897011D01*
X166289797Y-92948110D01*
X166289792Y-92948112D01*
X166172738Y-93035738D01*
X166085112Y-93152792D01*
X166085110Y-93152797D01*
X166034011Y-93289795D01*
X166034009Y-93289803D01*
X166027500Y-93350350D01*
X164384500Y-93350350D01*
X164384500Y-92249371D01*
X164384499Y-92249367D01*
X164381766Y-92235626D01*
X164353430Y-92093169D01*
X164353427Y-92093161D01*
X164317117Y-92005501D01*
X164317116Y-92005500D01*
X164292484Y-91946032D01*
X164204003Y-91813611D01*
X154896405Y-82506013D01*
X154862379Y-82443701D01*
X154859500Y-82416918D01*
X154859500Y-80927674D01*
X154879502Y-80859553D01*
X154900200Y-80835839D01*
X154899930Y-80835569D01*
X155049063Y-80686435D01*
X155049068Y-80686430D01*
X155170129Y-80519803D01*
X155263634Y-80336290D01*
X155327280Y-80140408D01*
X155359500Y-79936981D01*
X155359500Y-79731019D01*
X155327280Y-79527592D01*
X155263634Y-79331710D01*
X155170129Y-79148197D01*
X155049068Y-78981570D01*
X155049065Y-78981567D01*
X155049063Y-78981564D01*
X154903435Y-78835936D01*
X154903432Y-78835934D01*
X154903430Y-78835932D01*
X154736803Y-78714871D01*
X154553290Y-78621366D01*
X154553287Y-78621365D01*
X154553285Y-78621364D01*
X154357412Y-78557721D01*
X154357410Y-78557720D01*
X154357408Y-78557720D01*
X154153981Y-78525500D01*
X153948019Y-78525500D01*
X153744592Y-78557720D01*
X153744590Y-78557720D01*
X153744587Y-78557721D01*
X153548714Y-78621364D01*
X153548708Y-78621367D01*
X153365193Y-78714873D01*
X153198567Y-78835934D01*
X153198564Y-78835936D01*
X153052936Y-78981564D01*
X153052934Y-78981567D01*
X152931873Y-79148193D01*
X152838367Y-79331708D01*
X152838364Y-79331714D01*
X152774721Y-79527587D01*
X152774720Y-79527590D01*
X152774720Y-79527592D01*
X152742500Y-79731019D01*
X149739770Y-79731019D01*
X150040372Y-79430416D01*
X149997541Y-79399298D01*
X149997540Y-79399297D01*
X149814099Y-79305829D01*
X149814093Y-79305826D01*
X149618294Y-79242208D01*
X149618298Y-79242208D01*
X149414939Y-79210000D01*
X149209061Y-79210000D01*
X149005703Y-79242208D01*
X148809906Y-79305826D01*
X148809900Y-79305829D01*
X148626452Y-79399301D01*
X148583625Y-79430416D01*
X149271209Y-80118000D01*
X149259339Y-80118000D01*
X149157606Y-80145259D01*
X149066394Y-80197920D01*
X148991920Y-80272394D01*
X148939259Y-80363606D01*
X148912000Y-80465339D01*
X148912000Y-80477209D01*
X148212816Y-79778025D01*
X148186665Y-79772531D01*
X148136106Y-79722689D01*
X148124124Y-79692480D01*
X148120500Y-79678185D01*
X148120500Y-79669362D01*
X148113989Y-79608799D01*
X148079394Y-79516047D01*
X148079393Y-79516043D01*
X148062889Y-79471797D01*
X148062887Y-79471792D01*
X147975261Y-79354738D01*
X147858207Y-79267112D01*
X147858202Y-79267110D01*
X147721204Y-79216011D01*
X147721196Y-79216009D01*
X147660649Y-79209500D01*
X147660638Y-79209500D01*
X145963362Y-79209500D01*
X145963350Y-79209500D01*
X145902803Y-79216009D01*
X145902795Y-79216011D01*
X145765797Y-79267110D01*
X145765792Y-79267112D01*
X145648738Y-79354738D01*
X145561112Y-79471792D01*
X145561110Y-79471797D01*
X145510011Y-79608795D01*
X145510009Y-79608803D01*
X145503500Y-79669350D01*
X142728854Y-79669350D01*
X142676050Y-79660987D01*
X142562483Y-79643000D01*
X142237517Y-79643000D01*
X142146663Y-79657389D01*
X142010379Y-79678974D01*
X141850205Y-79731019D01*
X141791671Y-79750038D01*
X141791669Y-79750038D01*
X141791663Y-79750041D01*
X141586768Y-79854440D01*
X141400719Y-79989613D01*
X141400716Y-79989615D01*
X141238115Y-80152216D01*
X141238113Y-80152219D01*
X141102940Y-80338268D01*
X140998541Y-80543163D01*
X140998538Y-80543169D01*
X140998538Y-80543171D01*
X140980772Y-80597848D01*
X140927474Y-80761879D01*
X140912242Y-80858056D01*
X140891500Y-80989017D01*
X140891500Y-81218983D01*
X140900061Y-81273037D01*
X140927474Y-81446120D01*
X140945231Y-81500769D01*
X140998538Y-81664829D01*
X140998539Y-81664832D01*
X140998541Y-81664836D01*
X141064151Y-81793603D01*
X141102940Y-81869731D01*
X141238111Y-82055778D01*
X141238113Y-82055780D01*
X141238115Y-82055783D01*
X141400716Y-82218384D01*
X141400719Y-82218386D01*
X141400722Y-82218389D01*
X141475025Y-82272373D01*
X141518379Y-82328595D01*
X141524454Y-82399331D01*
X141491323Y-82462123D01*
X141475026Y-82476245D01*
X141401041Y-82529998D01*
X141238497Y-82692542D01*
X141238495Y-82692545D01*
X141103371Y-82878527D01*
X140999003Y-83083361D01*
X140999000Y-83083367D01*
X140927964Y-83301993D01*
X140914025Y-83390000D01*
X141911562Y-83390000D01*
X141887482Y-83431708D01*
X141850000Y-83571591D01*
X141850000Y-83716409D01*
X141887482Y-83856292D01*
X141911562Y-83898000D01*
X140914025Y-83898000D01*
X140927964Y-83986006D01*
X140999000Y-84204632D01*
X140999003Y-84204638D01*
X141103371Y-84409472D01*
X141228803Y-84582115D01*
X141252662Y-84648983D01*
X141236581Y-84718135D01*
X141185667Y-84767615D01*
X141170901Y-84774231D01*
X141153795Y-84780611D01*
X141153792Y-84780612D01*
X141036738Y-84868238D01*
X140949112Y-84985292D01*
X140949110Y-84985297D01*
X140898011Y-85122295D01*
X140898009Y-85122303D01*
X140891500Y-85182850D01*
X140891500Y-85249500D01*
X140871498Y-85317621D01*
X140817842Y-85364114D01*
X140765500Y-85375500D01*
X138729500Y-85375500D01*
X138661379Y-85355498D01*
X138614886Y-85301842D01*
X138603500Y-85249500D01*
X138603500Y-80778082D01*
X138623502Y-80709961D01*
X138640405Y-80688987D01*
X141267987Y-78061405D01*
X141330299Y-78027379D01*
X141357082Y-78024500D01*
X157600918Y-78024500D01*
X157669039Y-78044502D01*
X157690013Y-78061405D01*
X159809595Y-80180987D01*
X159843621Y-80243299D01*
X159846500Y-80270082D01*
X159846500Y-81644766D01*
X159826498Y-81712887D01*
X159783500Y-81753885D01*
X159648099Y-81832058D01*
X159648093Y-81832062D01*
X159460020Y-81976376D01*
X159459999Y-81976395D01*
X159292395Y-82143999D01*
X159292376Y-82144020D01*
X159148062Y-82332093D01*
X159148058Y-82332099D01*
X159029532Y-82537392D01*
X159029527Y-82537403D01*
X159029526Y-82537405D01*
X159021248Y-82557391D01*
X158938803Y-82756430D01*
X158938801Y-82756434D01*
X158877442Y-82985429D01*
X158846500Y-83220462D01*
X158846500Y-83457537D01*
X158877442Y-83692570D01*
X158877443Y-83692576D01*
X158877444Y-83692578D01*
X158883830Y-83716409D01*
X158938801Y-83921565D01*
X158938802Y-83921567D01*
X158938803Y-83921570D01*
X159029526Y-84140595D01*
X159029527Y-84140596D01*
X159029532Y-84140607D01*
X159148058Y-84345900D01*
X159148062Y-84345906D01*
X159292376Y-84533979D01*
X159292395Y-84534000D01*
X159459999Y-84701604D01*
X159460009Y-84701613D01*
X159460015Y-84701619D01*
X159460018Y-84701621D01*
X159460020Y-84701623D01*
X159648093Y-84845937D01*
X159648099Y-84845941D01*
X159853392Y-84964467D01*
X159853396Y-84964468D01*
X159853405Y-84964474D01*
X160072430Y-85055197D01*
X160301422Y-85116556D01*
X160301428Y-85116556D01*
X160301429Y-85116557D01*
X160328400Y-85120107D01*
X160536465Y-85147500D01*
X160536472Y-85147500D01*
X160773528Y-85147500D01*
X160773535Y-85147500D01*
X161008578Y-85116556D01*
X161237570Y-85055197D01*
X161456595Y-84964474D01*
X161661904Y-84845939D01*
X161849985Y-84701619D01*
X162017619Y-84533985D01*
X162161939Y-84345904D01*
X162280474Y-84140595D01*
X162371197Y-83921570D01*
X162432556Y-83692578D01*
X162463500Y-83457535D01*
X162463500Y-83220465D01*
X162432556Y-82985422D01*
X162371197Y-82756430D01*
X162280474Y-82537405D01*
X162280468Y-82537396D01*
X162280467Y-82537392D01*
X162161941Y-82332099D01*
X162161937Y-82332093D01*
X162017623Y-82144020D01*
X162017621Y-82144018D01*
X162017619Y-82144015D01*
X162017613Y-82144009D01*
X162017604Y-82143999D01*
X161864007Y-81990402D01*
X163927000Y-81990402D01*
X163927000Y-83085000D01*
X165136656Y-83085000D01*
X165109979Y-83149402D01*
X165085000Y-83274981D01*
X165085000Y-83403019D01*
X165109979Y-83528598D01*
X165136656Y-83593000D01*
X163927000Y-83593000D01*
X163927000Y-84687597D01*
X163933505Y-84748093D01*
X163984555Y-84884964D01*
X163984555Y-84884965D01*
X164072095Y-85001904D01*
X164189034Y-85089444D01*
X164325906Y-85140494D01*
X164386402Y-85146999D01*
X164386415Y-85147000D01*
X165481000Y-85147000D01*
X165481000Y-83937344D01*
X165545402Y-83964021D01*
X165670981Y-83989000D01*
X165799019Y-83989000D01*
X165924598Y-83964021D01*
X165989000Y-83937344D01*
X165989000Y-85147000D01*
X167083585Y-85147000D01*
X167083597Y-85146999D01*
X167144093Y-85140494D01*
X167280964Y-85089444D01*
X167280965Y-85089444D01*
X167397904Y-85001904D01*
X167485444Y-84884965D01*
X167485444Y-84884964D01*
X167536494Y-84748093D01*
X167542999Y-84687597D01*
X167543000Y-84687585D01*
X167543000Y-83593000D01*
X166333344Y-83593000D01*
X166360021Y-83528598D01*
X166385000Y-83403019D01*
X166385000Y-83274981D01*
X166360021Y-83149402D01*
X166333344Y-83085000D01*
X167543000Y-83085000D01*
X167543000Y-81990414D01*
X167542999Y-81990402D01*
X167536494Y-81929906D01*
X167485444Y-81793035D01*
X167485444Y-81793034D01*
X167397904Y-81676095D01*
X167280965Y-81588555D01*
X167144093Y-81537505D01*
X167083597Y-81531000D01*
X165989000Y-81531000D01*
X165989000Y-82740655D01*
X165924598Y-82713979D01*
X165799019Y-82689000D01*
X165670981Y-82689000D01*
X165545402Y-82713979D01*
X165481000Y-82740655D01*
X165481000Y-81531000D01*
X164386402Y-81531000D01*
X164325906Y-81537505D01*
X164189035Y-81588555D01*
X164189034Y-81588555D01*
X164072095Y-81676095D01*
X163984555Y-81793034D01*
X163984555Y-81793035D01*
X163933505Y-81929906D01*
X163927000Y-81990402D01*
X161864007Y-81990402D01*
X161850000Y-81976395D01*
X161849979Y-81976376D01*
X161661906Y-81832062D01*
X161661900Y-81832058D01*
X161526500Y-81753885D01*
X161477507Y-81702502D01*
X161463500Y-81644766D01*
X161463500Y-79968863D01*
X161463501Y-79968842D01*
X161463501Y-79803374D01*
X161463501Y-79803370D01*
X161432430Y-79647170D01*
X161371484Y-79500032D01*
X161283003Y-79367611D01*
X158503389Y-76587997D01*
X158370968Y-76499516D01*
X158297399Y-76469043D01*
X158223831Y-76438570D01*
X158067632Y-76407500D01*
X158067630Y-76407500D01*
X140890370Y-76407500D01*
X140890367Y-76407500D01*
X140734168Y-76438570D01*
X140734163Y-76438572D01*
X140660600Y-76469043D01*
X140587032Y-76499516D01*
X140454615Y-76587994D01*
X140454608Y-76587999D01*
X137166999Y-79875608D01*
X137166994Y-79875615D01*
X137078514Y-80008034D01*
X137063624Y-80043983D01*
X137063606Y-80044027D01*
X137062997Y-80045500D01*
X137017570Y-80155169D01*
X137014005Y-80173090D01*
X137010141Y-80183145D01*
X136994861Y-80203138D01*
X136983197Y-80225437D01*
X136973679Y-80230856D01*
X136967032Y-80239555D01*
X136943372Y-80248113D01*
X136921501Y-80260567D01*
X136910565Y-80259980D01*
X136900269Y-80263705D01*
X136875736Y-80258112D01*
X136850606Y-80256765D01*
X136837625Y-80249425D01*
X136831048Y-80247926D01*
X136826165Y-80242945D01*
X136812325Y-80235120D01*
X136807678Y-80231284D01*
X136777516Y-80211719D01*
X136747261Y-80193526D01*
X136747254Y-80193523D01*
X136615658Y-80142369D01*
X136615648Y-80142366D01*
X136615647Y-80142366D01*
X136597410Y-80138016D01*
X136577912Y-80133365D01*
X136530993Y-80125599D01*
X136506249Y-80121503D01*
X136506242Y-80121502D01*
X136506240Y-80121502D01*
X136474968Y-80118555D01*
X136433153Y-80116314D01*
X136377198Y-80115580D01*
X136377185Y-80115580D01*
X136252435Y-80129128D01*
X136252429Y-80129129D01*
X136212747Y-80138399D01*
X136212748Y-80138400D01*
X136210221Y-80138996D01*
X136210215Y-80138998D01*
X136162758Y-80157450D01*
X136092372Y-80184816D01*
X136021635Y-80190859D01*
X135991340Y-80180560D01*
X135981916Y-80175949D01*
X135981017Y-80175539D01*
X135967860Y-80169760D01*
X135950491Y-80162417D01*
X135938743Y-80157450D01*
X135938734Y-80157446D01*
X135938730Y-80157445D01*
X135892287Y-80140374D01*
X135892282Y-80140372D01*
X135892270Y-80140368D01*
X135877845Y-80135835D01*
X135877847Y-80135835D01*
X135877839Y-80135833D01*
X135847383Y-80127516D01*
X135839939Y-80125483D01*
X135839937Y-80125482D01*
X135839931Y-80125481D01*
X135839933Y-80125481D01*
X135699333Y-80112499D01*
X135655986Y-80120436D01*
X135628980Y-80122422D01*
X135622721Y-80122207D01*
X135546607Y-80111989D01*
X135503086Y-80118109D01*
X135492106Y-80117733D01*
X135488068Y-80116395D01*
X135477108Y-80116318D01*
X135465939Y-80114585D01*
X135465929Y-80114584D01*
X135465928Y-80114584D01*
X135465925Y-80114583D01*
X135465915Y-80114583D01*
X135426078Y-80112753D01*
X135305935Y-80121239D01*
X135305923Y-80121241D01*
X135234274Y-80134791D01*
X135225533Y-80136538D01*
X135166717Y-80132844D01*
X135166534Y-80133667D01*
X135161352Y-80132507D01*
X135160895Y-80132479D01*
X135160228Y-80132256D01*
X135160218Y-80132253D01*
X135019997Y-80115701D01*
X135019993Y-80115701D01*
X135016574Y-80115766D01*
X134982030Y-80116425D01*
X134982006Y-80116426D01*
X134928858Y-80120180D01*
X134916484Y-80121696D01*
X134915434Y-80121820D01*
X134895170Y-80124130D01*
X134868129Y-80124292D01*
X134863054Y-80123775D01*
X134860296Y-80123464D01*
X134857564Y-80123124D01*
X134849622Y-80122138D01*
X134846965Y-80121869D01*
X134826139Y-80119760D01*
X134782509Y-80116345D01*
X134755231Y-80114931D01*
X134614897Y-80130599D01*
X134585579Y-80138016D01*
X134583360Y-80138665D01*
X134583194Y-80138098D01*
X134514628Y-80140503D01*
X134506460Y-80138115D01*
X134492892Y-80133647D01*
X134492888Y-80133646D01*
X134492885Y-80133645D01*
X134492878Y-80133643D01*
X134492875Y-80133643D01*
X134423645Y-80120934D01*
X134423644Y-80120933D01*
X134423634Y-80120932D01*
X134385417Y-80115379D01*
X134385415Y-80115379D01*
X134385408Y-80115378D01*
X134244274Y-80119547D01*
X134174921Y-80131176D01*
X134160070Y-80133889D01*
X134160058Y-80133892D01*
X134026566Y-80179894D01*
X134022601Y-80181572D01*
X134022106Y-80180402D01*
X133957733Y-80192295D01*
X133916731Y-80180829D01*
X133911346Y-80178278D01*
X133874188Y-80162416D01*
X133841928Y-80150108D01*
X133810288Y-80140749D01*
X133765555Y-80127517D01*
X133765552Y-80127516D01*
X133765551Y-80127516D01*
X133750478Y-80124292D01*
X133746565Y-80123455D01*
X133746564Y-80123454D01*
X133746560Y-80123454D01*
X133614877Y-80112507D01*
X133578212Y-80119232D01*
X133553594Y-80121285D01*
X133539867Y-80121079D01*
X133513093Y-80114754D01*
X133512201Y-80114663D01*
X133479131Y-80112355D01*
X133410680Y-80119144D01*
X133403495Y-80119037D01*
X133399792Y-80117889D01*
X133385372Y-80117452D01*
X133373735Y-80115580D01*
X133372579Y-80115394D01*
X133372578Y-80115393D01*
X133372572Y-80115393D01*
X133322159Y-80113877D01*
X133322141Y-80113878D01*
X133236368Y-80118417D01*
X133184438Y-80125512D01*
X133184427Y-80125515D01*
X133154215Y-80132822D01*
X133093649Y-80131646D01*
X133093485Y-80132353D01*
X133090592Y-80131678D01*
X133007211Y-80116345D01*
X132994558Y-80114018D01*
X132994034Y-80113972D01*
X132994024Y-80113971D01*
X132908590Y-80113538D01*
X132908583Y-80113539D01*
X132824986Y-80131708D01*
X132774361Y-80131339D01*
X132774200Y-80132216D01*
X132675240Y-80114017D01*
X132674722Y-80113972D01*
X132674712Y-80113971D01*
X132573117Y-80115046D01*
X132436138Y-80149340D01*
X132436135Y-80149341D01*
X132433412Y-80150895D01*
X132430618Y-80151557D01*
X132428147Y-80152550D01*
X132427997Y-80152178D01*
X132364331Y-80167273D01*
X132319442Y-80156426D01*
X132316638Y-80155169D01*
X132292100Y-80144169D01*
X132287802Y-80142369D01*
X132268325Y-80134212D01*
X132235495Y-80126348D01*
X132131000Y-80101317D01*
X132130996Y-80101317D01*
X131989900Y-80106691D01*
X131978751Y-80110278D01*
X131958523Y-80116785D01*
X131896486Y-80120635D01*
X131777849Y-80098158D01*
X131777846Y-80098158D01*
X131672336Y-80107248D01*
X131637166Y-80110278D01*
X131616051Y-80118204D01*
X131559076Y-80125599D01*
X131425985Y-80112118D01*
X131425982Y-80112118D01*
X131425981Y-80112118D01*
X131355149Y-80114644D01*
X131309989Y-80118236D01*
X131309985Y-80118236D01*
X131309984Y-80118237D01*
X131295300Y-80122138D01*
X131259632Y-80131613D01*
X131188659Y-80129770D01*
X131132822Y-80093221D01*
X131128550Y-80088382D01*
X131128548Y-80088381D01*
X131128547Y-80088379D01*
X131016118Y-80002964D01*
X131016113Y-80002961D01*
X130990384Y-79988464D01*
X130990371Y-79988457D01*
X130990360Y-79988451D01*
X130959924Y-79972605D01*
X130953746Y-79969645D01*
X130953753Y-79969629D01*
X130953675Y-79969611D01*
X130925132Y-79955911D01*
X130925124Y-79955907D01*
X130889810Y-79940544D01*
X130889808Y-79940543D01*
X130885952Y-79939033D01*
X130867415Y-79931774D01*
X130840802Y-79922184D01*
X130701932Y-79896621D01*
X130693606Y-79896242D01*
X130685283Y-79895864D01*
X130685282Y-79895864D01*
X130685281Y-79895864D01*
X130611640Y-79900398D01*
X130574819Y-79902665D01*
X130529923Y-79916799D01*
X130440129Y-79945068D01*
X130321881Y-80022235D01*
X130310054Y-80032500D01*
X130308160Y-80034152D01*
X130267538Y-80081008D01*
X130207802Y-80119376D01*
X130197805Y-80121869D01*
X130117745Y-80138392D01*
X130117732Y-80138396D01*
X130011914Y-80172401D01*
X129990054Y-80182119D01*
X129902333Y-80231848D01*
X129859766Y-80261797D01*
X129859762Y-80261800D01*
X129780487Y-80330564D01*
X129780470Y-80330580D01*
X129743117Y-80370284D01*
X129743109Y-80370293D01*
X129696227Y-80427889D01*
X129692697Y-80432925D01*
X129692690Y-80432935D01*
X129680330Y-80452102D01*
X129670902Y-80466724D01*
X129656559Y-80490983D01*
X129656555Y-80490990D01*
X129656554Y-80490993D01*
X129615913Y-80576819D01*
X129615910Y-80576826D01*
X129615910Y-80576827D01*
X129606426Y-80602763D01*
X129606423Y-80602771D01*
X129581737Y-80696866D01*
X129581736Y-80696869D01*
X129576129Y-80731042D01*
X129570083Y-80786329D01*
X129570081Y-80786349D01*
X129570081Y-80786352D01*
X129567554Y-80832068D01*
X129567376Y-80835280D01*
X129566618Y-80858056D01*
X129565832Y-80928164D01*
X129565798Y-80933696D01*
X129565786Y-80949617D01*
X129565797Y-80953260D01*
X129565850Y-80960544D01*
X129565850Y-80960570D01*
X129566340Y-81028335D01*
X129566815Y-81047122D01*
X129569082Y-81099309D01*
X129569084Y-81099329D01*
X129573416Y-81147371D01*
X129578387Y-81183578D01*
X129578390Y-81183594D01*
X129598868Y-81273037D01*
X129607512Y-81299686D01*
X129607517Y-81299699D01*
X129649042Y-81394329D01*
X129649047Y-81394339D01*
X129662336Y-81417911D01*
X129683283Y-81451933D01*
X129686220Y-81456315D01*
X129686224Y-81456320D01*
X129719034Y-81500093D01*
X129719038Y-81500098D01*
X129719048Y-81500111D01*
X129767212Y-81557756D01*
X129768428Y-81559212D01*
X129772745Y-81564204D01*
X129779934Y-81572517D01*
X129798813Y-81588555D01*
X129887540Y-81663931D01*
X129887543Y-81663933D01*
X129887549Y-81663938D01*
X129941345Y-81698240D01*
X129981522Y-81721399D01*
X130114570Y-81768698D01*
X130180063Y-81782314D01*
X130270082Y-81792937D01*
X130292322Y-81793603D01*
X130383588Y-81788272D01*
X130466861Y-81775975D01*
X130499659Y-81770049D01*
X130546258Y-81753170D01*
X130617119Y-81748778D01*
X130619682Y-81749390D01*
X130743937Y-81780533D01*
X130823673Y-81789258D01*
X130940231Y-81788326D01*
X130944709Y-81788291D01*
X130948378Y-81788047D01*
X130948482Y-81789621D01*
X131012283Y-81799919D01*
X131065129Y-81847330D01*
X131083954Y-81915785D01*
X131062781Y-81983551D01*
X131059696Y-81987967D01*
X131044138Y-82009251D01*
X131044137Y-82009252D01*
X130994657Y-82141505D01*
X130983064Y-82277836D01*
X130982693Y-82282201D01*
X130992204Y-82332099D01*
X131009132Y-82420909D01*
X131072011Y-82547336D01*
X131072012Y-82547338D01*
X131072013Y-82547339D01*
X131116773Y-82613029D01*
X131138601Y-82680585D01*
X131120440Y-82749220D01*
X131068056Y-82797140D01*
X131036851Y-82807630D01*
X131033489Y-82808287D01*
X131033490Y-82808288D01*
X131032605Y-82808461D01*
X131032606Y-82808462D01*
X130956333Y-82823516D01*
X130951252Y-82824545D01*
X130818202Y-82871831D01*
X130818197Y-82871833D01*
X130702840Y-82953262D01*
X130613725Y-83062799D01*
X130613724Y-83062800D01*
X130557470Y-83192309D01*
X130557469Y-83192314D01*
X130538243Y-83332187D01*
X130538243Y-83649582D01*
X130538244Y-83650328D01*
X130538415Y-83754829D01*
X130538434Y-83758388D01*
X130539137Y-83837398D01*
X130539299Y-83846548D01*
X130540817Y-83903723D01*
X130541650Y-83921565D01*
X130541795Y-83924654D01*
X130544406Y-83963638D01*
X130544406Y-83963641D01*
X130549995Y-84012369D01*
X130550001Y-84012413D01*
X130553991Y-84036901D01*
X130586770Y-84152087D01*
X130586775Y-84152101D01*
X130592438Y-84165761D01*
X130642656Y-84258764D01*
X130737219Y-84363629D01*
X130744830Y-84370045D01*
X130744838Y-84370051D01*
X130744840Y-84370053D01*
X130770521Y-84390349D01*
X130770523Y-84390350D01*
X130894398Y-84458128D01*
X130897521Y-84459318D01*
X130968809Y-84480763D01*
X130987644Y-84484982D01*
X130998165Y-84487224D01*
X131039775Y-84495642D01*
X131041665Y-84496019D01*
X131104561Y-84528951D01*
X131139668Y-84590660D01*
X131135840Y-84661554D01*
X131124951Y-84684626D01*
X131096970Y-84731054D01*
X131078520Y-84764379D01*
X131061565Y-84797844D01*
X131028178Y-84880808D01*
X131028175Y-84880816D01*
X131021455Y-84902830D01*
X131003920Y-84981992D01*
X131003919Y-84982002D01*
X131003477Y-85123192D01*
X131005301Y-85136779D01*
X131012960Y-85179913D01*
X131012961Y-85179919D01*
X131061981Y-85312328D01*
X131061985Y-85312335D01*
X131062031Y-85312421D01*
X131062033Y-85312424D01*
X131062034Y-85312426D01*
X131115267Y-85392909D01*
X131115281Y-85392928D01*
X131129620Y-85410748D01*
X131129622Y-85410750D01*
X131152091Y-85436849D01*
X131156144Y-85441252D01*
X131183834Y-85471336D01*
X131191397Y-85479378D01*
X131191431Y-85479414D01*
X131191441Y-85479424D01*
X131236100Y-85525903D01*
X131237177Y-85527024D01*
X131241615Y-85531586D01*
X131297771Y-85588594D01*
X131301539Y-85592381D01*
X131362863Y-85653416D01*
X131364697Y-85655241D01*
X131366588Y-85657114D01*
X131366637Y-85657162D01*
X131372208Y-85662651D01*
X131373722Y-85664142D01*
X131376903Y-85667249D01*
X131442714Y-85730979D01*
X131456665Y-85744489D01*
X131465996Y-85753303D01*
X131527496Y-85809968D01*
X131527517Y-85809987D01*
X131546482Y-85826627D01*
X131559997Y-85837915D01*
X131591025Y-85863830D01*
X131591050Y-85863850D01*
X131640295Y-85900265D01*
X131661568Y-85914131D01*
X131669134Y-85919062D01*
X131721180Y-85948846D01*
X131721182Y-85948847D01*
X131854978Y-85993978D01*
X131867660Y-85996401D01*
X131867670Y-85996402D01*
X131867679Y-85996404D01*
X131897845Y-85999680D01*
X131950629Y-86005413D01*
X131950632Y-86005412D01*
X131950636Y-86005413D01*
X132091004Y-85990057D01*
X132222023Y-85937400D01*
X132240559Y-85926818D01*
X132261589Y-85914143D01*
X132300056Y-85889698D01*
X132306326Y-85885649D01*
X132312406Y-85881661D01*
X132380328Y-85861019D01*
X132448635Y-85880376D01*
X132495633Y-85933590D01*
X132505203Y-85962967D01*
X132509188Y-85983466D01*
X132510411Y-85989570D01*
X132515561Y-86014506D01*
X132518669Y-86028566D01*
X132518761Y-86028959D01*
X132526198Y-86056989D01*
X132529345Y-86067637D01*
X132529346Y-86067641D01*
X132544545Y-86111690D01*
X132613941Y-86234649D01*
X132613951Y-86234665D01*
X132620061Y-86242695D01*
X132620064Y-86242698D01*
X132698753Y-86325372D01*
X132818147Y-86400763D01*
X132830896Y-86406558D01*
X132958508Y-86445691D01*
X132958511Y-86445692D01*
X132981558Y-86449612D01*
X133034779Y-86455855D01*
X133071788Y-86458267D01*
X133093460Y-86459225D01*
X133148095Y-86460495D01*
X133156770Y-86460624D01*
X133232693Y-86461118D01*
X133235453Y-86461128D01*
X133235621Y-86461129D01*
X133250273Y-86461141D01*
X133336507Y-86461214D01*
X133336560Y-86461214D01*
X133350272Y-86461214D01*
X133350309Y-86461214D01*
X133370979Y-86461201D01*
X133454368Y-86461152D01*
X133455680Y-86461147D01*
X133456749Y-86461144D01*
X133528692Y-86460750D01*
X133535303Y-86460714D01*
X133538143Y-86460676D01*
X133543069Y-86460613D01*
X133599913Y-86459449D01*
X133619509Y-86458677D01*
X133658316Y-86456412D01*
X133706415Y-86451345D01*
X133730848Y-86447612D01*
X133847408Y-86415547D01*
X133861132Y-86409981D01*
X133861142Y-86409975D01*
X133861148Y-86409973D01*
X133914448Y-86381790D01*
X133953641Y-86361067D01*
X134059422Y-86267529D01*
X134066100Y-86259762D01*
X134106081Y-86206738D01*
X134166914Y-86079309D01*
X134170210Y-86068977D01*
X134180514Y-86032000D01*
X134180834Y-86030662D01*
X134184251Y-86015357D01*
X134189257Y-85991221D01*
X134190515Y-85984961D01*
X134194793Y-85962975D01*
X134227436Y-85899934D01*
X134288983Y-85864544D01*
X134359893Y-85868048D01*
X134386771Y-85881210D01*
X134386793Y-85881177D01*
X134387024Y-85881325D01*
X134387116Y-85881385D01*
X134429504Y-85908578D01*
X134444021Y-85917557D01*
X134467370Y-85931473D01*
X134514012Y-85956146D01*
X134516229Y-85957178D01*
X134590804Y-85985145D01*
X134730520Y-86005591D01*
X134870572Y-85987585D01*
X134887540Y-85982990D01*
X134923590Y-85971804D01*
X135049236Y-85907368D01*
X135080927Y-85885197D01*
X135120890Y-85854231D01*
X135168541Y-85813439D01*
X135184931Y-85798795D01*
X135249777Y-85738337D01*
X135257523Y-85730964D01*
X135323722Y-85666642D01*
X135327785Y-85662651D01*
X135391602Y-85599266D01*
X135395151Y-85595707D01*
X135452266Y-85537868D01*
X135456598Y-85533427D01*
X135503574Y-85484703D01*
X135510590Y-85477281D01*
X135543988Y-85441246D01*
X135562981Y-85419576D01*
X135579363Y-85399802D01*
X135625042Y-85335203D01*
X135625651Y-85334185D01*
X135657074Y-85272704D01*
X135694637Y-85136587D01*
X135696448Y-85123017D01*
X135700837Y-85041234D01*
X135691692Y-84985292D01*
X135678057Y-84901880D01*
X135674645Y-84890797D01*
X135671234Y-84879717D01*
X135664253Y-84862457D01*
X135637960Y-84797445D01*
X135637956Y-84797437D01*
X135637952Y-84797427D01*
X135620809Y-84763682D01*
X135612162Y-84748093D01*
X135602528Y-84730723D01*
X135574766Y-84684697D01*
X135556709Y-84616035D01*
X135578640Y-84548511D01*
X135633596Y-84503562D01*
X135658145Y-84496025D01*
X135677679Y-84492152D01*
X135682000Y-84491277D01*
X135682027Y-84491271D01*
X135682113Y-84491254D01*
X135701566Y-84487224D01*
X135714948Y-84484452D01*
X135730164Y-84481060D01*
X135738245Y-84479131D01*
X135743776Y-84477779D01*
X135874809Y-84425154D01*
X135883157Y-84420391D01*
X135986291Y-84343107D01*
X136073591Y-84232122D01*
X136079892Y-84221366D01*
X136089427Y-84204364D01*
X136138606Y-84072000D01*
X136143145Y-84051620D01*
X136153414Y-83985863D01*
X136156473Y-83952227D01*
X136158252Y-83924373D01*
X136158253Y-83924353D01*
X136160115Y-83873867D01*
X136160420Y-83861729D01*
X136160493Y-83856292D01*
X136161372Y-83790649D01*
X136161415Y-83785462D01*
X136161649Y-83716409D01*
X136161737Y-83690394D01*
X136161740Y-83688680D01*
X136161757Y-83649706D01*
X136161757Y-83332119D01*
X136161731Y-83327014D01*
X136161731Y-83327008D01*
X136141103Y-83187318D01*
X136086509Y-83064997D01*
X136083555Y-83058377D01*
X136083552Y-83058372D01*
X135993350Y-82949739D01*
X135993350Y-82949738D01*
X135877178Y-82869466D01*
X135743659Y-82823515D01*
X135743656Y-82823514D01*
X135743655Y-82823514D01*
X135743646Y-82823511D01*
X135667596Y-82808501D01*
X135667596Y-82808502D01*
X135667459Y-82808475D01*
X135665013Y-82807998D01*
X135664935Y-82807983D01*
X135664853Y-82807967D01*
X135664853Y-82807966D01*
X135663414Y-82807690D01*
X135600299Y-82775180D01*
X135564779Y-82713707D01*
X135568133Y-82642790D01*
X135583015Y-82613121D01*
X135628145Y-82546739D01*
X135632675Y-82539963D01*
X135693426Y-82412495D01*
X135717535Y-82273363D01*
X135703212Y-82132887D01*
X135651520Y-82001484D01*
X135595570Y-81927575D01*
X135570403Y-81861190D01*
X135585122Y-81791736D01*
X135635053Y-81741264D01*
X135704345Y-81725801D01*
X135722101Y-81728252D01*
X135829937Y-81751064D01*
X135899677Y-81756085D01*
X136035153Y-81748032D01*
X136100842Y-81735356D01*
X136126712Y-81727314D01*
X136197699Y-81726195D01*
X136204287Y-81728213D01*
X136214556Y-81731671D01*
X136354004Y-81753875D01*
X136354013Y-81753875D01*
X136354020Y-81753876D01*
X136424347Y-81755375D01*
X136424411Y-81755375D01*
X136424424Y-81755376D01*
X136434577Y-81755493D01*
X136574500Y-81736508D01*
X136642622Y-81717548D01*
X136659637Y-81712496D01*
X136787255Y-81652061D01*
X136791564Y-81649245D01*
X136859528Y-81628718D01*
X136927801Y-81648194D01*
X136974707Y-81701489D01*
X136986500Y-81754714D01*
X136986500Y-91746208D01*
X136966498Y-91814329D01*
X136934563Y-91848142D01*
X136904032Y-91870325D01*
X136877417Y-91889662D01*
X136720662Y-92046417D01*
X136720657Y-92046424D01*
X136679142Y-92103562D01*
X136622921Y-92146915D01*
X136577208Y-92155500D01*
X135710792Y-92155500D01*
X135642671Y-92135498D01*
X135608857Y-92103563D01*
X135567343Y-92046424D01*
X135567339Y-92046420D01*
X135567337Y-92046417D01*
X135410578Y-91889658D01*
X135231218Y-91759345D01*
X135231217Y-91759344D01*
X135231215Y-91759343D01*
X135033676Y-91658692D01*
X135033673Y-91658691D01*
X135033671Y-91658690D01*
X134822829Y-91590183D01*
X134822825Y-91590182D01*
X134822824Y-91590182D01*
X134603851Y-91555500D01*
X134382149Y-91555500D01*
X134163176Y-91590182D01*
X134163170Y-91590183D01*
X133952328Y-91658690D01*
X133952322Y-91658693D01*
X133754781Y-91759345D01*
X133575421Y-91889658D01*
X133418662Y-92046417D01*
X133418657Y-92046424D01*
X133377142Y-92103562D01*
X133320921Y-92146915D01*
X133275208Y-92155500D01*
X132117674Y-92155500D01*
X132087753Y-92146714D01*
X132057288Y-92140087D01*
X132052815Y-92136455D01*
X132049553Y-92135498D01*
X132028578Y-92118595D01*
X132023436Y-92113453D01*
X132022068Y-92111570D01*
X131876430Y-91965932D01*
X131874550Y-91964566D01*
X131869404Y-91959420D01*
X131854663Y-91932425D01*
X131837858Y-91906678D01*
X131836842Y-91899788D01*
X131835379Y-91897108D01*
X131835728Y-91892227D01*
X131832500Y-91870325D01*
X131832500Y-90939371D01*
X131832499Y-90939367D01*
X131820014Y-90876600D01*
X131801430Y-90783169D01*
X131760928Y-90685389D01*
X131740484Y-90636031D01*
X131652003Y-90503611D01*
X130690389Y-89541997D01*
X130557968Y-89453516D01*
X130484399Y-89423043D01*
X130410831Y-89392570D01*
X130397056Y-89389830D01*
X130254632Y-89361500D01*
X130254630Y-89361500D01*
X123745370Y-89361500D01*
X123745367Y-89361500D01*
X123589168Y-89392570D01*
X123589163Y-89392572D01*
X123515600Y-89423043D01*
X123442032Y-89453516D01*
X123309615Y-89541994D01*
X123309608Y-89541999D01*
X122180999Y-90670608D01*
X122180994Y-90670615D01*
X122092516Y-90803032D01*
X122062043Y-90876600D01*
X122031572Y-90950163D01*
X122031570Y-90950168D01*
X122000500Y-91106367D01*
X119455500Y-91106367D01*
X119455500Y-83495967D01*
X123481500Y-83495967D01*
X123481500Y-83792032D01*
X123520142Y-84085550D01*
X123520144Y-84085557D01*
X123596769Y-84371529D01*
X123632640Y-84458128D01*
X123710067Y-84645053D01*
X123710073Y-84645064D01*
X123858094Y-84901444D01*
X123858096Y-84901447D01*
X123858097Y-84901448D01*
X123976072Y-85055197D01*
X124038326Y-85136328D01*
X124038335Y-85136338D01*
X124247661Y-85345664D01*
X124247671Y-85345673D01*
X124247672Y-85345674D01*
X124435905Y-85490110D01*
X124482555Y-85525905D01*
X124738935Y-85673926D01*
X124738946Y-85673932D01*
X124738948Y-85673933D01*
X125012471Y-85787231D01*
X125298443Y-85863856D01*
X125298447Y-85863856D01*
X125298449Y-85863857D01*
X125374096Y-85873816D01*
X125591970Y-85902500D01*
X125591977Y-85902500D01*
X125888023Y-85902500D01*
X125888030Y-85902500D01*
X126170445Y-85865319D01*
X126181550Y-85863857D01*
X126181550Y-85863856D01*
X126181557Y-85863856D01*
X126467529Y-85787231D01*
X126741052Y-85673933D01*
X126997448Y-85525903D01*
X127232328Y-85345674D01*
X127441674Y-85136328D01*
X127621903Y-84901448D01*
X127769933Y-84645052D01*
X127883231Y-84371529D01*
X127959856Y-84085557D01*
X127998500Y-83792030D01*
X127998500Y-83495970D01*
X127959856Y-83202443D01*
X127883231Y-82916471D01*
X127769933Y-82642948D01*
X127769932Y-82642946D01*
X127769926Y-82642935D01*
X127621905Y-82386555D01*
X127593308Y-82349287D01*
X127441674Y-82151672D01*
X127441673Y-82151671D01*
X127441664Y-82151661D01*
X127232338Y-81942335D01*
X127232328Y-81942326D01*
X127106515Y-81845787D01*
X126997448Y-81762097D01*
X126997447Y-81762096D01*
X126997444Y-81762094D01*
X126741064Y-81614073D01*
X126741053Y-81614067D01*
X126604290Y-81557418D01*
X126467529Y-81500769D01*
X126263566Y-81446118D01*
X126181550Y-81424142D01*
X125888032Y-81385500D01*
X125888030Y-81385500D01*
X125591970Y-81385500D01*
X125591967Y-81385500D01*
X125298449Y-81424142D01*
X125012471Y-81500769D01*
X124738946Y-81614067D01*
X124738935Y-81614073D01*
X124482555Y-81762094D01*
X124247671Y-81942326D01*
X124247661Y-81942335D01*
X124038335Y-82151661D01*
X124038326Y-82151671D01*
X123858094Y-82386555D01*
X123710073Y-82642935D01*
X123710067Y-82642946D01*
X123596769Y-82916471D01*
X123520142Y-83202449D01*
X123481500Y-83495967D01*
X119455500Y-83495967D01*
X119455500Y-75131500D01*
X119475502Y-75063379D01*
X119529158Y-75016886D01*
X119581500Y-75005500D01*
X172518500Y-75005500D01*
X172586621Y-75025502D01*
G37*
G04 #@! TD.AperFunction*
M02*
