G04 #@! TF.GenerationSoftware,KiCad,Pcbnew,10.0.3*
G04 #@! TF.CreationDate,2026-07-30T13:23:48+05:45*
G04 #@! TF.ProjectId,L298 Module,4c323938-204d-46f6-9475-6c652e6b6963,V1.0*
G04 #@! TF.SameCoordinates,Original*
G04 #@! TF.FileFunction,Soldermask,Bot*
G04 #@! TF.FilePolarity,Negative*
%FSLAX46Y46*%
G04 Gerber Fmt 4.6, Leading zero omitted, Abs format (unit mm)*
G04 Created by KiCad (PCBNEW 10.0.3) date 2026-07-30 13:23:48*
%MOMM*%
%LPD*%
G01*
G04 APERTURE LIST*
G04 APERTURE END LIST*
G36*
X127049517Y-108380882D02*
G01*
X127066062Y-108391938D01*
X127077118Y-108408483D01*
X127081000Y-108428000D01*
X127081000Y-111028000D01*
X127077118Y-111047517D01*
X127066062Y-111064062D01*
X127049517Y-111075118D01*
X127030000Y-111079000D01*
X124430000Y-111079000D01*
X124410483Y-111075118D01*
X124393938Y-111064062D01*
X124382882Y-111047517D01*
X124379000Y-111028000D01*
X124379000Y-108428000D01*
X124382882Y-108408483D01*
X124393938Y-108391938D01*
X124410483Y-108380882D01*
X124430000Y-108377000D01*
X127030000Y-108377000D01*
X127049517Y-108380882D01*
G37*
G36*
X162609517Y-108380882D02*
G01*
X162626062Y-108391938D01*
X162637118Y-108408483D01*
X162641000Y-108428000D01*
X162641000Y-111028000D01*
X162637118Y-111047517D01*
X162626062Y-111064062D01*
X162609517Y-111075118D01*
X162590000Y-111079000D01*
X159990000Y-111079000D01*
X159970483Y-111075118D01*
X159953938Y-111064062D01*
X159942882Y-111047517D01*
X159939000Y-111028000D01*
X159939000Y-108428000D01*
X159942882Y-108408483D01*
X159953938Y-108391938D01*
X159970483Y-108380882D01*
X159990000Y-108377000D01*
X162590000Y-108377000D01*
X162609517Y-108380882D01*
G37*
G36*
X131125385Y-108414328D02*
G01*
X131327005Y-108479839D01*
X131515896Y-108576083D01*
X131687404Y-108700692D01*
X131837308Y-108850596D01*
X131961917Y-109022104D01*
X132058161Y-109210995D01*
X132123672Y-109412615D01*
X132156835Y-109622002D01*
X132156835Y-109833998D01*
X132123672Y-110043385D01*
X132058161Y-110245005D01*
X131961917Y-110433896D01*
X131837308Y-110605404D01*
X131687404Y-110755308D01*
X131515896Y-110879917D01*
X131327005Y-110976161D01*
X131125385Y-111041672D01*
X130915998Y-111074835D01*
X130704002Y-111074835D01*
X130494615Y-111041672D01*
X130292995Y-110976161D01*
X130104104Y-110879917D01*
X129932596Y-110755308D01*
X129782692Y-110605404D01*
X129658083Y-110433896D01*
X129561839Y-110245005D01*
X129496328Y-110043385D01*
X129463165Y-109833998D01*
X129463165Y-109622002D01*
X129496328Y-109412615D01*
X129561839Y-109210995D01*
X129658083Y-109022104D01*
X129782692Y-108850596D01*
X129932596Y-108700692D01*
X130104104Y-108576083D01*
X130292995Y-108479839D01*
X130494615Y-108414328D01*
X130704002Y-108381165D01*
X130915998Y-108381165D01*
X131125385Y-108414328D01*
G37*
G36*
X166685385Y-108414328D02*
G01*
X166887005Y-108479839D01*
X167075896Y-108576083D01*
X167247404Y-108700692D01*
X167397308Y-108850596D01*
X167521917Y-109022104D01*
X167618161Y-109210995D01*
X167683672Y-109412615D01*
X167716835Y-109622002D01*
X167716835Y-109833998D01*
X167683672Y-110043385D01*
X167618161Y-110245005D01*
X167521917Y-110433896D01*
X167397308Y-110605404D01*
X167247404Y-110755308D01*
X167075896Y-110879917D01*
X166887005Y-110976161D01*
X166685385Y-111041672D01*
X166475998Y-111074835D01*
X166264002Y-111074835D01*
X166054615Y-111041672D01*
X165852995Y-110976161D01*
X165664104Y-110879917D01*
X165492596Y-110755308D01*
X165342692Y-110605404D01*
X165218083Y-110433896D01*
X165121839Y-110245005D01*
X165056328Y-110043385D01*
X165023165Y-109833998D01*
X165023165Y-109622002D01*
X165056328Y-109412615D01*
X165121839Y-109210995D01*
X165218083Y-109022104D01*
X165342692Y-108850596D01*
X165492596Y-108700692D01*
X165664104Y-108576083D01*
X165852995Y-108479839D01*
X166054615Y-108414328D01*
X166264002Y-108381165D01*
X166475998Y-108381165D01*
X166685385Y-108414328D01*
G37*
G36*
X138512553Y-108908579D02*
G01*
X138523214Y-108908579D01*
X138564865Y-108916864D01*
X138651916Y-108930651D01*
X138679918Y-108939749D01*
X138706061Y-108944950D01*
X138742956Y-108960232D01*
X138793784Y-108976748D01*
X138841399Y-109001009D01*
X138878298Y-109016293D01*
X138900463Y-109031103D01*
X138926693Y-109044468D01*
X138997990Y-109096268D01*
X139033308Y-109119867D01*
X139040846Y-109127405D01*
X139047370Y-109132145D01*
X139152854Y-109237629D01*
X139157593Y-109244152D01*
X139165133Y-109251692D01*
X139188734Y-109287014D01*
X139240531Y-109358306D01*
X139253894Y-109384533D01*
X139268707Y-109406702D01*
X139283993Y-109443605D01*
X139308251Y-109491215D01*
X139324764Y-109542035D01*
X139340050Y-109578939D01*
X139345251Y-109605086D01*
X139354348Y-109633083D01*
X139368134Y-109720125D01*
X139376421Y-109761786D01*
X139376421Y-109772447D01*
X139377683Y-109780415D01*
X139377683Y-109929584D01*
X139376421Y-109937551D01*
X139376421Y-109948214D01*
X139368133Y-109989877D01*
X139354348Y-110076916D01*
X139345251Y-110104910D01*
X139340050Y-110131061D01*
X139324762Y-110167968D01*
X139308251Y-110218784D01*
X139283995Y-110266388D01*
X139268707Y-110303298D01*
X139253892Y-110325470D01*
X139240531Y-110351693D01*
X139188742Y-110422973D01*
X139165133Y-110458308D01*
X139157591Y-110465849D01*
X139152854Y-110472370D01*
X139047370Y-110577854D01*
X139040849Y-110582591D01*
X139033308Y-110590133D01*
X138997973Y-110613742D01*
X138926693Y-110665531D01*
X138900470Y-110678892D01*
X138878298Y-110693707D01*
X138841388Y-110708995D01*
X138793784Y-110733251D01*
X138742968Y-110749762D01*
X138706061Y-110765050D01*
X138679910Y-110770251D01*
X138651916Y-110779348D01*
X138564875Y-110793133D01*
X138523214Y-110801421D01*
X138512553Y-110801421D01*
X138504585Y-110802683D01*
X138355415Y-110802683D01*
X138347447Y-110801421D01*
X138336786Y-110801421D01*
X138295125Y-110793134D01*
X138208083Y-110779348D01*
X138180086Y-110770251D01*
X138153939Y-110765050D01*
X138117035Y-110749764D01*
X138066215Y-110733251D01*
X138018605Y-110708993D01*
X137981702Y-110693707D01*
X137959533Y-110678894D01*
X137933306Y-110665531D01*
X137862014Y-110613734D01*
X137826692Y-110590133D01*
X137819152Y-110582593D01*
X137812629Y-110577854D01*
X137707145Y-110472370D01*
X137702405Y-110465846D01*
X137694867Y-110458308D01*
X137671268Y-110422990D01*
X137619468Y-110351693D01*
X137606103Y-110325463D01*
X137591293Y-110303298D01*
X137576009Y-110266399D01*
X137551748Y-110218784D01*
X137535232Y-110167956D01*
X137519950Y-110131061D01*
X137514749Y-110104918D01*
X137505651Y-110076916D01*
X137491864Y-109989867D01*
X137483579Y-109948214D01*
X137483579Y-109937552D01*
X137482317Y-109929584D01*
X137482317Y-109780415D01*
X137483579Y-109772446D01*
X137483579Y-109761786D01*
X137491863Y-109720136D01*
X137505651Y-109633083D01*
X137514750Y-109605078D01*
X137519950Y-109578939D01*
X137535231Y-109542046D01*
X137551748Y-109491215D01*
X137576011Y-109443595D01*
X137591293Y-109406702D01*
X137606101Y-109384539D01*
X137619468Y-109358306D01*
X137671277Y-109286996D01*
X137694867Y-109251692D01*
X137702402Y-109244156D01*
X137707145Y-109237629D01*
X137812629Y-109132145D01*
X137819156Y-109127402D01*
X137826692Y-109119867D01*
X137861996Y-109096277D01*
X137933306Y-109044468D01*
X137959539Y-109031101D01*
X137981702Y-109016293D01*
X138018595Y-109001011D01*
X138066215Y-108976748D01*
X138117046Y-108960231D01*
X138153939Y-108944950D01*
X138180078Y-108939750D01*
X138208083Y-108930651D01*
X138295136Y-108916863D01*
X138336786Y-108908579D01*
X138347447Y-108908579D01*
X138355415Y-108907317D01*
X138504585Y-108907317D01*
X138512553Y-108908579D01*
G37*
G36*
X141052553Y-108908579D02*
G01*
X141063214Y-108908579D01*
X141104865Y-108916864D01*
X141191916Y-108930651D01*
X141219918Y-108939749D01*
X141246061Y-108944950D01*
X141282956Y-108960232D01*
X141333784Y-108976748D01*
X141381399Y-109001009D01*
X141418298Y-109016293D01*
X141440463Y-109031103D01*
X141466693Y-109044468D01*
X141537990Y-109096268D01*
X141573308Y-109119867D01*
X141580846Y-109127405D01*
X141587370Y-109132145D01*
X141692854Y-109237629D01*
X141697593Y-109244152D01*
X141705133Y-109251692D01*
X141728734Y-109287014D01*
X141780531Y-109358306D01*
X141793894Y-109384533D01*
X141808707Y-109406702D01*
X141823993Y-109443605D01*
X141848251Y-109491215D01*
X141864764Y-109542035D01*
X141880050Y-109578939D01*
X141885251Y-109605086D01*
X141894348Y-109633083D01*
X141908134Y-109720125D01*
X141916421Y-109761786D01*
X141916421Y-109772447D01*
X141917683Y-109780415D01*
X141917683Y-109929584D01*
X141916421Y-109937551D01*
X141916421Y-109948214D01*
X141908133Y-109989877D01*
X141894348Y-110076916D01*
X141885251Y-110104910D01*
X141880050Y-110131061D01*
X141864762Y-110167968D01*
X141848251Y-110218784D01*
X141823995Y-110266388D01*
X141808707Y-110303298D01*
X141793892Y-110325470D01*
X141780531Y-110351693D01*
X141728742Y-110422973D01*
X141705133Y-110458308D01*
X141697591Y-110465849D01*
X141692854Y-110472370D01*
X141587370Y-110577854D01*
X141580849Y-110582591D01*
X141573308Y-110590133D01*
X141537973Y-110613742D01*
X141466693Y-110665531D01*
X141440470Y-110678892D01*
X141418298Y-110693707D01*
X141381388Y-110708995D01*
X141333784Y-110733251D01*
X141282968Y-110749762D01*
X141246061Y-110765050D01*
X141219910Y-110770251D01*
X141191916Y-110779348D01*
X141104875Y-110793133D01*
X141063214Y-110801421D01*
X141052553Y-110801421D01*
X141044585Y-110802683D01*
X140895415Y-110802683D01*
X140887447Y-110801421D01*
X140876786Y-110801421D01*
X140835125Y-110793134D01*
X140748083Y-110779348D01*
X140720086Y-110770251D01*
X140693939Y-110765050D01*
X140657035Y-110749764D01*
X140606215Y-110733251D01*
X140558605Y-110708993D01*
X140521702Y-110693707D01*
X140499533Y-110678894D01*
X140473306Y-110665531D01*
X140402014Y-110613734D01*
X140366692Y-110590133D01*
X140359152Y-110582593D01*
X140352629Y-110577854D01*
X140247145Y-110472370D01*
X140242405Y-110465846D01*
X140234867Y-110458308D01*
X140211268Y-110422990D01*
X140159468Y-110351693D01*
X140146103Y-110325463D01*
X140131293Y-110303298D01*
X140116009Y-110266399D01*
X140091748Y-110218784D01*
X140075232Y-110167956D01*
X140059950Y-110131061D01*
X140054749Y-110104918D01*
X140045651Y-110076916D01*
X140031864Y-109989867D01*
X140023579Y-109948214D01*
X140023579Y-109937552D01*
X140022317Y-109929584D01*
X140022317Y-109780415D01*
X140023579Y-109772446D01*
X140023579Y-109761786D01*
X140031863Y-109720136D01*
X140045651Y-109633083D01*
X140054750Y-109605078D01*
X140059950Y-109578939D01*
X140075231Y-109542046D01*
X140091748Y-109491215D01*
X140116011Y-109443595D01*
X140131293Y-109406702D01*
X140146101Y-109384539D01*
X140159468Y-109358306D01*
X140211277Y-109286996D01*
X140234867Y-109251692D01*
X140242402Y-109244156D01*
X140247145Y-109237629D01*
X140352629Y-109132145D01*
X140359156Y-109127402D01*
X140366692Y-109119867D01*
X140401996Y-109096277D01*
X140473306Y-109044468D01*
X140499539Y-109031101D01*
X140521702Y-109016293D01*
X140558595Y-109001011D01*
X140606215Y-108976748D01*
X140657046Y-108960231D01*
X140693939Y-108944950D01*
X140720078Y-108939750D01*
X140748083Y-108930651D01*
X140835136Y-108916863D01*
X140876786Y-108908579D01*
X140887447Y-108908579D01*
X140895415Y-108907317D01*
X141044585Y-108907317D01*
X141052553Y-108908579D01*
G37*
G36*
X143592553Y-108908579D02*
G01*
X143603214Y-108908579D01*
X143644865Y-108916864D01*
X143731916Y-108930651D01*
X143759918Y-108939749D01*
X143786061Y-108944950D01*
X143822956Y-108960232D01*
X143873784Y-108976748D01*
X143921399Y-109001009D01*
X143958298Y-109016293D01*
X143980463Y-109031103D01*
X144006693Y-109044468D01*
X144077990Y-109096268D01*
X144113308Y-109119867D01*
X144120846Y-109127405D01*
X144127370Y-109132145D01*
X144232854Y-109237629D01*
X144237593Y-109244152D01*
X144245133Y-109251692D01*
X144268734Y-109287014D01*
X144320531Y-109358306D01*
X144333894Y-109384533D01*
X144348707Y-109406702D01*
X144363993Y-109443605D01*
X144388251Y-109491215D01*
X144404764Y-109542035D01*
X144420050Y-109578939D01*
X144425251Y-109605086D01*
X144434348Y-109633083D01*
X144448134Y-109720125D01*
X144456421Y-109761786D01*
X144456421Y-109772447D01*
X144457683Y-109780415D01*
X144457683Y-109929584D01*
X144456421Y-109937551D01*
X144456421Y-109948214D01*
X144448133Y-109989877D01*
X144434348Y-110076916D01*
X144425251Y-110104910D01*
X144420050Y-110131061D01*
X144404762Y-110167968D01*
X144388251Y-110218784D01*
X144363995Y-110266388D01*
X144348707Y-110303298D01*
X144333892Y-110325470D01*
X144320531Y-110351693D01*
X144268742Y-110422973D01*
X144245133Y-110458308D01*
X144237591Y-110465849D01*
X144232854Y-110472370D01*
X144127370Y-110577854D01*
X144120849Y-110582591D01*
X144113308Y-110590133D01*
X144077973Y-110613742D01*
X144006693Y-110665531D01*
X143980470Y-110678892D01*
X143958298Y-110693707D01*
X143921388Y-110708995D01*
X143873784Y-110733251D01*
X143822968Y-110749762D01*
X143786061Y-110765050D01*
X143759910Y-110770251D01*
X143731916Y-110779348D01*
X143644875Y-110793133D01*
X143603214Y-110801421D01*
X143592553Y-110801421D01*
X143584585Y-110802683D01*
X143435415Y-110802683D01*
X143427447Y-110801421D01*
X143416786Y-110801421D01*
X143375125Y-110793134D01*
X143288083Y-110779348D01*
X143260086Y-110770251D01*
X143233939Y-110765050D01*
X143197035Y-110749764D01*
X143146215Y-110733251D01*
X143098605Y-110708993D01*
X143061702Y-110693707D01*
X143039533Y-110678894D01*
X143013306Y-110665531D01*
X142942014Y-110613734D01*
X142906692Y-110590133D01*
X142899152Y-110582593D01*
X142892629Y-110577854D01*
X142787145Y-110472370D01*
X142782405Y-110465846D01*
X142774867Y-110458308D01*
X142751268Y-110422990D01*
X142699468Y-110351693D01*
X142686103Y-110325463D01*
X142671293Y-110303298D01*
X142656009Y-110266399D01*
X142631748Y-110218784D01*
X142615232Y-110167956D01*
X142599950Y-110131061D01*
X142594749Y-110104918D01*
X142585651Y-110076916D01*
X142571864Y-109989867D01*
X142563579Y-109948214D01*
X142563579Y-109937552D01*
X142562317Y-109929584D01*
X142562317Y-109780415D01*
X142563579Y-109772446D01*
X142563579Y-109761786D01*
X142571863Y-109720136D01*
X142585651Y-109633083D01*
X142594750Y-109605078D01*
X142599950Y-109578939D01*
X142615231Y-109542046D01*
X142631748Y-109491215D01*
X142656011Y-109443595D01*
X142671293Y-109406702D01*
X142686101Y-109384539D01*
X142699468Y-109358306D01*
X142751277Y-109286996D01*
X142774867Y-109251692D01*
X142782402Y-109244156D01*
X142787145Y-109237629D01*
X142892629Y-109132145D01*
X142899156Y-109127402D01*
X142906692Y-109119867D01*
X142941996Y-109096277D01*
X143013306Y-109044468D01*
X143039539Y-109031101D01*
X143061702Y-109016293D01*
X143098595Y-109001011D01*
X143146215Y-108976748D01*
X143197046Y-108960231D01*
X143233939Y-108944950D01*
X143260078Y-108939750D01*
X143288083Y-108930651D01*
X143375136Y-108916863D01*
X143416786Y-108908579D01*
X143427447Y-108908579D01*
X143435415Y-108907317D01*
X143584585Y-108907317D01*
X143592553Y-108908579D01*
G37*
G36*
X146132553Y-108908579D02*
G01*
X146143214Y-108908579D01*
X146184865Y-108916864D01*
X146271916Y-108930651D01*
X146299918Y-108939749D01*
X146326061Y-108944950D01*
X146362956Y-108960232D01*
X146413784Y-108976748D01*
X146461399Y-109001009D01*
X146498298Y-109016293D01*
X146520463Y-109031103D01*
X146546693Y-109044468D01*
X146617990Y-109096268D01*
X146653308Y-109119867D01*
X146660846Y-109127405D01*
X146667370Y-109132145D01*
X146772854Y-109237629D01*
X146777593Y-109244152D01*
X146785133Y-109251692D01*
X146808734Y-109287014D01*
X146860531Y-109358306D01*
X146873894Y-109384533D01*
X146888707Y-109406702D01*
X146903993Y-109443605D01*
X146928251Y-109491215D01*
X146944764Y-109542035D01*
X146960050Y-109578939D01*
X146965251Y-109605086D01*
X146974348Y-109633083D01*
X146988134Y-109720125D01*
X146996421Y-109761786D01*
X146996421Y-109772447D01*
X146997683Y-109780415D01*
X146997683Y-109929584D01*
X146996421Y-109937551D01*
X146996421Y-109948214D01*
X146988133Y-109989877D01*
X146974348Y-110076916D01*
X146965251Y-110104910D01*
X146960050Y-110131061D01*
X146944762Y-110167968D01*
X146928251Y-110218784D01*
X146903995Y-110266388D01*
X146888707Y-110303298D01*
X146873892Y-110325470D01*
X146860531Y-110351693D01*
X146808742Y-110422973D01*
X146785133Y-110458308D01*
X146777591Y-110465849D01*
X146772854Y-110472370D01*
X146667370Y-110577854D01*
X146660849Y-110582591D01*
X146653308Y-110590133D01*
X146617973Y-110613742D01*
X146546693Y-110665531D01*
X146520470Y-110678892D01*
X146498298Y-110693707D01*
X146461388Y-110708995D01*
X146413784Y-110733251D01*
X146362968Y-110749762D01*
X146326061Y-110765050D01*
X146299910Y-110770251D01*
X146271916Y-110779348D01*
X146184875Y-110793133D01*
X146143214Y-110801421D01*
X146132553Y-110801421D01*
X146124585Y-110802683D01*
X145975415Y-110802683D01*
X145967447Y-110801421D01*
X145956786Y-110801421D01*
X145915125Y-110793134D01*
X145828083Y-110779348D01*
X145800086Y-110770251D01*
X145773939Y-110765050D01*
X145737035Y-110749764D01*
X145686215Y-110733251D01*
X145638605Y-110708993D01*
X145601702Y-110693707D01*
X145579533Y-110678894D01*
X145553306Y-110665531D01*
X145482014Y-110613734D01*
X145446692Y-110590133D01*
X145439152Y-110582593D01*
X145432629Y-110577854D01*
X145327145Y-110472370D01*
X145322405Y-110465846D01*
X145314867Y-110458308D01*
X145291268Y-110422990D01*
X145239468Y-110351693D01*
X145226103Y-110325463D01*
X145211293Y-110303298D01*
X145196009Y-110266399D01*
X145171748Y-110218784D01*
X145155232Y-110167956D01*
X145139950Y-110131061D01*
X145134749Y-110104918D01*
X145125651Y-110076916D01*
X145111864Y-109989867D01*
X145103579Y-109948214D01*
X145103579Y-109937552D01*
X145102317Y-109929584D01*
X145102317Y-109780415D01*
X145103579Y-109772446D01*
X145103579Y-109761786D01*
X145111863Y-109720136D01*
X145125651Y-109633083D01*
X145134750Y-109605078D01*
X145139950Y-109578939D01*
X145155231Y-109542046D01*
X145171748Y-109491215D01*
X145196011Y-109443595D01*
X145211293Y-109406702D01*
X145226101Y-109384539D01*
X145239468Y-109358306D01*
X145291277Y-109286996D01*
X145314867Y-109251692D01*
X145322402Y-109244156D01*
X145327145Y-109237629D01*
X145432629Y-109132145D01*
X145439156Y-109127402D01*
X145446692Y-109119867D01*
X145481996Y-109096277D01*
X145553306Y-109044468D01*
X145579539Y-109031101D01*
X145601702Y-109016293D01*
X145638595Y-109001011D01*
X145686215Y-108976748D01*
X145737046Y-108960231D01*
X145773939Y-108944950D01*
X145800078Y-108939750D01*
X145828083Y-108930651D01*
X145915136Y-108916863D01*
X145956786Y-108908579D01*
X145967447Y-108908579D01*
X145975415Y-108907317D01*
X146124585Y-108907317D01*
X146132553Y-108908579D01*
G37*
G36*
X148672553Y-108908579D02*
G01*
X148683214Y-108908579D01*
X148724865Y-108916864D01*
X148811916Y-108930651D01*
X148839918Y-108939749D01*
X148866061Y-108944950D01*
X148902956Y-108960232D01*
X148953784Y-108976748D01*
X149001399Y-109001009D01*
X149038298Y-109016293D01*
X149060463Y-109031103D01*
X149086693Y-109044468D01*
X149157990Y-109096268D01*
X149193308Y-109119867D01*
X149200846Y-109127405D01*
X149207370Y-109132145D01*
X149312854Y-109237629D01*
X149317593Y-109244152D01*
X149325133Y-109251692D01*
X149348734Y-109287014D01*
X149400531Y-109358306D01*
X149413894Y-109384533D01*
X149428707Y-109406702D01*
X149443993Y-109443605D01*
X149468251Y-109491215D01*
X149484764Y-109542035D01*
X149500050Y-109578939D01*
X149505251Y-109605086D01*
X149514348Y-109633083D01*
X149528134Y-109720125D01*
X149536421Y-109761786D01*
X149536421Y-109772447D01*
X149537683Y-109780415D01*
X149537683Y-109929584D01*
X149536421Y-109937551D01*
X149536421Y-109948214D01*
X149528133Y-109989877D01*
X149514348Y-110076916D01*
X149505251Y-110104910D01*
X149500050Y-110131061D01*
X149484762Y-110167968D01*
X149468251Y-110218784D01*
X149443995Y-110266388D01*
X149428707Y-110303298D01*
X149413892Y-110325470D01*
X149400531Y-110351693D01*
X149348742Y-110422973D01*
X149325133Y-110458308D01*
X149317591Y-110465849D01*
X149312854Y-110472370D01*
X149207370Y-110577854D01*
X149200849Y-110582591D01*
X149193308Y-110590133D01*
X149157973Y-110613742D01*
X149086693Y-110665531D01*
X149060470Y-110678892D01*
X149038298Y-110693707D01*
X149001388Y-110708995D01*
X148953784Y-110733251D01*
X148902968Y-110749762D01*
X148866061Y-110765050D01*
X148839910Y-110770251D01*
X148811916Y-110779348D01*
X148724875Y-110793133D01*
X148683214Y-110801421D01*
X148672553Y-110801421D01*
X148664585Y-110802683D01*
X148515415Y-110802683D01*
X148507447Y-110801421D01*
X148496786Y-110801421D01*
X148455125Y-110793134D01*
X148368083Y-110779348D01*
X148340086Y-110770251D01*
X148313939Y-110765050D01*
X148277035Y-110749764D01*
X148226215Y-110733251D01*
X148178605Y-110708993D01*
X148141702Y-110693707D01*
X148119533Y-110678894D01*
X148093306Y-110665531D01*
X148022014Y-110613734D01*
X147986692Y-110590133D01*
X147979152Y-110582593D01*
X147972629Y-110577854D01*
X147867145Y-110472370D01*
X147862405Y-110465846D01*
X147854867Y-110458308D01*
X147831268Y-110422990D01*
X147779468Y-110351693D01*
X147766103Y-110325463D01*
X147751293Y-110303298D01*
X147736009Y-110266399D01*
X147711748Y-110218784D01*
X147695232Y-110167956D01*
X147679950Y-110131061D01*
X147674749Y-110104918D01*
X147665651Y-110076916D01*
X147651864Y-109989867D01*
X147643579Y-109948214D01*
X147643579Y-109937552D01*
X147642317Y-109929584D01*
X147642317Y-109780415D01*
X147643579Y-109772446D01*
X147643579Y-109761786D01*
X147651863Y-109720136D01*
X147665651Y-109633083D01*
X147674750Y-109605078D01*
X147679950Y-109578939D01*
X147695231Y-109542046D01*
X147711748Y-109491215D01*
X147736011Y-109443595D01*
X147751293Y-109406702D01*
X147766101Y-109384539D01*
X147779468Y-109358306D01*
X147831277Y-109286996D01*
X147854867Y-109251692D01*
X147862402Y-109244156D01*
X147867145Y-109237629D01*
X147972629Y-109132145D01*
X147979156Y-109127402D01*
X147986692Y-109119867D01*
X148021996Y-109096277D01*
X148093306Y-109044468D01*
X148119539Y-109031101D01*
X148141702Y-109016293D01*
X148178595Y-109001011D01*
X148226215Y-108976748D01*
X148277046Y-108960231D01*
X148313939Y-108944950D01*
X148340078Y-108939750D01*
X148368083Y-108930651D01*
X148455136Y-108916863D01*
X148496786Y-108908579D01*
X148507447Y-108908579D01*
X148515415Y-108907317D01*
X148664585Y-108907317D01*
X148672553Y-108908579D01*
G37*
G36*
X151212553Y-108908579D02*
G01*
X151223214Y-108908579D01*
X151264865Y-108916864D01*
X151351916Y-108930651D01*
X151379918Y-108939749D01*
X151406061Y-108944950D01*
X151442956Y-108960232D01*
X151493784Y-108976748D01*
X151541399Y-109001009D01*
X151578298Y-109016293D01*
X151600463Y-109031103D01*
X151626693Y-109044468D01*
X151697990Y-109096268D01*
X151733308Y-109119867D01*
X151740846Y-109127405D01*
X151747370Y-109132145D01*
X151852854Y-109237629D01*
X151857593Y-109244152D01*
X151865133Y-109251692D01*
X151888734Y-109287014D01*
X151940531Y-109358306D01*
X151953894Y-109384533D01*
X151968707Y-109406702D01*
X151983993Y-109443605D01*
X152008251Y-109491215D01*
X152024764Y-109542035D01*
X152040050Y-109578939D01*
X152045251Y-109605086D01*
X152054348Y-109633083D01*
X152068134Y-109720125D01*
X152076421Y-109761786D01*
X152076421Y-109772447D01*
X152077683Y-109780415D01*
X152077683Y-109929584D01*
X152076421Y-109937551D01*
X152076421Y-109948214D01*
X152068133Y-109989877D01*
X152054348Y-110076916D01*
X152045251Y-110104910D01*
X152040050Y-110131061D01*
X152024762Y-110167968D01*
X152008251Y-110218784D01*
X151983995Y-110266388D01*
X151968707Y-110303298D01*
X151953892Y-110325470D01*
X151940531Y-110351693D01*
X151888742Y-110422973D01*
X151865133Y-110458308D01*
X151857591Y-110465849D01*
X151852854Y-110472370D01*
X151747370Y-110577854D01*
X151740849Y-110582591D01*
X151733308Y-110590133D01*
X151697973Y-110613742D01*
X151626693Y-110665531D01*
X151600470Y-110678892D01*
X151578298Y-110693707D01*
X151541388Y-110708995D01*
X151493784Y-110733251D01*
X151442968Y-110749762D01*
X151406061Y-110765050D01*
X151379910Y-110770251D01*
X151351916Y-110779348D01*
X151264875Y-110793133D01*
X151223214Y-110801421D01*
X151212553Y-110801421D01*
X151204585Y-110802683D01*
X151055415Y-110802683D01*
X151047447Y-110801421D01*
X151036786Y-110801421D01*
X150995125Y-110793134D01*
X150908083Y-110779348D01*
X150880086Y-110770251D01*
X150853939Y-110765050D01*
X150817035Y-110749764D01*
X150766215Y-110733251D01*
X150718605Y-110708993D01*
X150681702Y-110693707D01*
X150659533Y-110678894D01*
X150633306Y-110665531D01*
X150562014Y-110613734D01*
X150526692Y-110590133D01*
X150519152Y-110582593D01*
X150512629Y-110577854D01*
X150407145Y-110472370D01*
X150402405Y-110465846D01*
X150394867Y-110458308D01*
X150371268Y-110422990D01*
X150319468Y-110351693D01*
X150306103Y-110325463D01*
X150291293Y-110303298D01*
X150276009Y-110266399D01*
X150251748Y-110218784D01*
X150235232Y-110167956D01*
X150219950Y-110131061D01*
X150214749Y-110104918D01*
X150205651Y-110076916D01*
X150191864Y-109989867D01*
X150183579Y-109948214D01*
X150183579Y-109937552D01*
X150182317Y-109929584D01*
X150182317Y-109780415D01*
X150183579Y-109772446D01*
X150183579Y-109761786D01*
X150191863Y-109720136D01*
X150205651Y-109633083D01*
X150214750Y-109605078D01*
X150219950Y-109578939D01*
X150235231Y-109542046D01*
X150251748Y-109491215D01*
X150276011Y-109443595D01*
X150291293Y-109406702D01*
X150306101Y-109384539D01*
X150319468Y-109358306D01*
X150371277Y-109286996D01*
X150394867Y-109251692D01*
X150402402Y-109244156D01*
X150407145Y-109237629D01*
X150512629Y-109132145D01*
X150519156Y-109127402D01*
X150526692Y-109119867D01*
X150561996Y-109096277D01*
X150633306Y-109044468D01*
X150659539Y-109031101D01*
X150681702Y-109016293D01*
X150718595Y-109001011D01*
X150766215Y-108976748D01*
X150817046Y-108960231D01*
X150853939Y-108944950D01*
X150880078Y-108939750D01*
X150908083Y-108930651D01*
X150995136Y-108916863D01*
X151036786Y-108908579D01*
X151047447Y-108908579D01*
X151055415Y-108907317D01*
X151204585Y-108907317D01*
X151212553Y-108908579D01*
G37*
G36*
X153752553Y-108908579D02*
G01*
X153763214Y-108908579D01*
X153804865Y-108916864D01*
X153891916Y-108930651D01*
X153919918Y-108939749D01*
X153946061Y-108944950D01*
X153982956Y-108960232D01*
X154033784Y-108976748D01*
X154081399Y-109001009D01*
X154118298Y-109016293D01*
X154140463Y-109031103D01*
X154166693Y-109044468D01*
X154237990Y-109096268D01*
X154273308Y-109119867D01*
X154280846Y-109127405D01*
X154287370Y-109132145D01*
X154392854Y-109237629D01*
X154397593Y-109244152D01*
X154405133Y-109251692D01*
X154428734Y-109287014D01*
X154480531Y-109358306D01*
X154493894Y-109384533D01*
X154508707Y-109406702D01*
X154523993Y-109443605D01*
X154548251Y-109491215D01*
X154564764Y-109542035D01*
X154580050Y-109578939D01*
X154585251Y-109605086D01*
X154594348Y-109633083D01*
X154608134Y-109720125D01*
X154616421Y-109761786D01*
X154616421Y-109772447D01*
X154617683Y-109780415D01*
X154617683Y-109929584D01*
X154616421Y-109937551D01*
X154616421Y-109948214D01*
X154608133Y-109989877D01*
X154594348Y-110076916D01*
X154585251Y-110104910D01*
X154580050Y-110131061D01*
X154564762Y-110167968D01*
X154548251Y-110218784D01*
X154523995Y-110266388D01*
X154508707Y-110303298D01*
X154493892Y-110325470D01*
X154480531Y-110351693D01*
X154428742Y-110422973D01*
X154405133Y-110458308D01*
X154397591Y-110465849D01*
X154392854Y-110472370D01*
X154287370Y-110577854D01*
X154280849Y-110582591D01*
X154273308Y-110590133D01*
X154237973Y-110613742D01*
X154166693Y-110665531D01*
X154140470Y-110678892D01*
X154118298Y-110693707D01*
X154081388Y-110708995D01*
X154033784Y-110733251D01*
X153982968Y-110749762D01*
X153946061Y-110765050D01*
X153919910Y-110770251D01*
X153891916Y-110779348D01*
X153804875Y-110793133D01*
X153763214Y-110801421D01*
X153752553Y-110801421D01*
X153744585Y-110802683D01*
X153595415Y-110802683D01*
X153587447Y-110801421D01*
X153576786Y-110801421D01*
X153535125Y-110793134D01*
X153448083Y-110779348D01*
X153420086Y-110770251D01*
X153393939Y-110765050D01*
X153357035Y-110749764D01*
X153306215Y-110733251D01*
X153258605Y-110708993D01*
X153221702Y-110693707D01*
X153199533Y-110678894D01*
X153173306Y-110665531D01*
X153102014Y-110613734D01*
X153066692Y-110590133D01*
X153059152Y-110582593D01*
X153052629Y-110577854D01*
X152947145Y-110472370D01*
X152942405Y-110465846D01*
X152934867Y-110458308D01*
X152911268Y-110422990D01*
X152859468Y-110351693D01*
X152846103Y-110325463D01*
X152831293Y-110303298D01*
X152816009Y-110266399D01*
X152791748Y-110218784D01*
X152775232Y-110167956D01*
X152759950Y-110131061D01*
X152754749Y-110104918D01*
X152745651Y-110076916D01*
X152731864Y-109989867D01*
X152723579Y-109948214D01*
X152723579Y-109937552D01*
X152722317Y-109929584D01*
X152722317Y-109780415D01*
X152723579Y-109772446D01*
X152723579Y-109761786D01*
X152731863Y-109720136D01*
X152745651Y-109633083D01*
X152754750Y-109605078D01*
X152759950Y-109578939D01*
X152775231Y-109542046D01*
X152791748Y-109491215D01*
X152816011Y-109443595D01*
X152831293Y-109406702D01*
X152846101Y-109384539D01*
X152859468Y-109358306D01*
X152911277Y-109286996D01*
X152934867Y-109251692D01*
X152942402Y-109244156D01*
X152947145Y-109237629D01*
X153052629Y-109132145D01*
X153059156Y-109127402D01*
X153066692Y-109119867D01*
X153101996Y-109096277D01*
X153173306Y-109044468D01*
X153199539Y-109031101D01*
X153221702Y-109016293D01*
X153258595Y-109001011D01*
X153306215Y-108976748D01*
X153357046Y-108960231D01*
X153393939Y-108944950D01*
X153420078Y-108939750D01*
X153448083Y-108930651D01*
X153535136Y-108916863D01*
X153576786Y-108908579D01*
X153587447Y-108908579D01*
X153595415Y-108907317D01*
X153744585Y-108907317D01*
X153752553Y-108908579D01*
G37*
G36*
X155859517Y-103827882D02*
G01*
X155876062Y-103838938D01*
X155887118Y-103855483D01*
X155891000Y-103875000D01*
X155891000Y-105675000D01*
X155887118Y-105694517D01*
X155876062Y-105711062D01*
X155859517Y-105722118D01*
X155840000Y-105726000D01*
X154040000Y-105726000D01*
X154020483Y-105722118D01*
X154003938Y-105711062D01*
X153992882Y-105694517D01*
X153989000Y-105675000D01*
X153989000Y-103875000D01*
X153992882Y-103855483D01*
X154003938Y-103838938D01*
X154020483Y-103827882D01*
X154040000Y-103824000D01*
X155840000Y-103824000D01*
X155859517Y-103827882D01*
G37*
G36*
X137242553Y-103828579D02*
G01*
X137253214Y-103828579D01*
X137294865Y-103836864D01*
X137381916Y-103850651D01*
X137409918Y-103859749D01*
X137436061Y-103864950D01*
X137472956Y-103880232D01*
X137523784Y-103896748D01*
X137571399Y-103921009D01*
X137608298Y-103936293D01*
X137630463Y-103951103D01*
X137656693Y-103964468D01*
X137727990Y-104016268D01*
X137763308Y-104039867D01*
X137770846Y-104047405D01*
X137777370Y-104052145D01*
X137882854Y-104157629D01*
X137887593Y-104164152D01*
X137895133Y-104171692D01*
X137918734Y-104207014D01*
X137970531Y-104278306D01*
X137983894Y-104304533D01*
X137998707Y-104326702D01*
X138013993Y-104363605D01*
X138038251Y-104411215D01*
X138054764Y-104462035D01*
X138070050Y-104498939D01*
X138075251Y-104525086D01*
X138084348Y-104553083D01*
X138098134Y-104640125D01*
X138106421Y-104681786D01*
X138106421Y-104692447D01*
X138107683Y-104700415D01*
X138107683Y-104849584D01*
X138106421Y-104857551D01*
X138106421Y-104868214D01*
X138098133Y-104909877D01*
X138084348Y-104996916D01*
X138075251Y-105024910D01*
X138070050Y-105051061D01*
X138054762Y-105087968D01*
X138038251Y-105138784D01*
X138013995Y-105186388D01*
X137998707Y-105223298D01*
X137983892Y-105245470D01*
X137970531Y-105271693D01*
X137918742Y-105342973D01*
X137895133Y-105378308D01*
X137887591Y-105385849D01*
X137882854Y-105392370D01*
X137777370Y-105497854D01*
X137770849Y-105502591D01*
X137763308Y-105510133D01*
X137727973Y-105533742D01*
X137656693Y-105585531D01*
X137630470Y-105598892D01*
X137608298Y-105613707D01*
X137571388Y-105628995D01*
X137523784Y-105653251D01*
X137472968Y-105669762D01*
X137436061Y-105685050D01*
X137409910Y-105690251D01*
X137381916Y-105699348D01*
X137294875Y-105713133D01*
X137253214Y-105721421D01*
X137242553Y-105721421D01*
X137234585Y-105722683D01*
X137085415Y-105722683D01*
X137077447Y-105721421D01*
X137066786Y-105721421D01*
X137025125Y-105713134D01*
X136938083Y-105699348D01*
X136910086Y-105690251D01*
X136883939Y-105685050D01*
X136847035Y-105669764D01*
X136796215Y-105653251D01*
X136748605Y-105628993D01*
X136711702Y-105613707D01*
X136689533Y-105598894D01*
X136663306Y-105585531D01*
X136592014Y-105533734D01*
X136556692Y-105510133D01*
X136549152Y-105502593D01*
X136542629Y-105497854D01*
X136437145Y-105392370D01*
X136432405Y-105385846D01*
X136424867Y-105378308D01*
X136401268Y-105342990D01*
X136349468Y-105271693D01*
X136336103Y-105245463D01*
X136321293Y-105223298D01*
X136306009Y-105186399D01*
X136281748Y-105138784D01*
X136265232Y-105087956D01*
X136249950Y-105051061D01*
X136244749Y-105024918D01*
X136235651Y-104996916D01*
X136221864Y-104909867D01*
X136213579Y-104868214D01*
X136213579Y-104857552D01*
X136212317Y-104849584D01*
X136212317Y-104700415D01*
X136213579Y-104692446D01*
X136213579Y-104681786D01*
X136221863Y-104640136D01*
X136235651Y-104553083D01*
X136244750Y-104525078D01*
X136249950Y-104498939D01*
X136265231Y-104462046D01*
X136281748Y-104411215D01*
X136306011Y-104363595D01*
X136321293Y-104326702D01*
X136336101Y-104304539D01*
X136349468Y-104278306D01*
X136401277Y-104206996D01*
X136424867Y-104171692D01*
X136432402Y-104164156D01*
X136437145Y-104157629D01*
X136542629Y-104052145D01*
X136549156Y-104047402D01*
X136556692Y-104039867D01*
X136591996Y-104016277D01*
X136663306Y-103964468D01*
X136689539Y-103951101D01*
X136711702Y-103936293D01*
X136748595Y-103921011D01*
X136796215Y-103896748D01*
X136847046Y-103880231D01*
X136883939Y-103864950D01*
X136910078Y-103859750D01*
X136938083Y-103850651D01*
X137025136Y-103836863D01*
X137066786Y-103828579D01*
X137077447Y-103828579D01*
X137085415Y-103827317D01*
X137234585Y-103827317D01*
X137242553Y-103828579D01*
G37*
G36*
X139782553Y-103828579D02*
G01*
X139793214Y-103828579D01*
X139834865Y-103836864D01*
X139921916Y-103850651D01*
X139949918Y-103859749D01*
X139976061Y-103864950D01*
X140012956Y-103880232D01*
X140063784Y-103896748D01*
X140111399Y-103921009D01*
X140148298Y-103936293D01*
X140170463Y-103951103D01*
X140196693Y-103964468D01*
X140267990Y-104016268D01*
X140303308Y-104039867D01*
X140310846Y-104047405D01*
X140317370Y-104052145D01*
X140422854Y-104157629D01*
X140427593Y-104164152D01*
X140435133Y-104171692D01*
X140458734Y-104207014D01*
X140510531Y-104278306D01*
X140523894Y-104304533D01*
X140538707Y-104326702D01*
X140553993Y-104363605D01*
X140578251Y-104411215D01*
X140594764Y-104462035D01*
X140610050Y-104498939D01*
X140615251Y-104525086D01*
X140624348Y-104553083D01*
X140638134Y-104640125D01*
X140646421Y-104681786D01*
X140646421Y-104692447D01*
X140647683Y-104700415D01*
X140647683Y-104849584D01*
X140646421Y-104857551D01*
X140646421Y-104868214D01*
X140638133Y-104909877D01*
X140624348Y-104996916D01*
X140615251Y-105024910D01*
X140610050Y-105051061D01*
X140594762Y-105087968D01*
X140578251Y-105138784D01*
X140553995Y-105186388D01*
X140538707Y-105223298D01*
X140523892Y-105245470D01*
X140510531Y-105271693D01*
X140458742Y-105342973D01*
X140435133Y-105378308D01*
X140427591Y-105385849D01*
X140422854Y-105392370D01*
X140317370Y-105497854D01*
X140310849Y-105502591D01*
X140303308Y-105510133D01*
X140267973Y-105533742D01*
X140196693Y-105585531D01*
X140170470Y-105598892D01*
X140148298Y-105613707D01*
X140111388Y-105628995D01*
X140063784Y-105653251D01*
X140012968Y-105669762D01*
X139976061Y-105685050D01*
X139949910Y-105690251D01*
X139921916Y-105699348D01*
X139834875Y-105713133D01*
X139793214Y-105721421D01*
X139782553Y-105721421D01*
X139774585Y-105722683D01*
X139625415Y-105722683D01*
X139617447Y-105721421D01*
X139606786Y-105721421D01*
X139565125Y-105713134D01*
X139478083Y-105699348D01*
X139450086Y-105690251D01*
X139423939Y-105685050D01*
X139387035Y-105669764D01*
X139336215Y-105653251D01*
X139288605Y-105628993D01*
X139251702Y-105613707D01*
X139229533Y-105598894D01*
X139203306Y-105585531D01*
X139132014Y-105533734D01*
X139096692Y-105510133D01*
X139089152Y-105502593D01*
X139082629Y-105497854D01*
X138977145Y-105392370D01*
X138972405Y-105385846D01*
X138964867Y-105378308D01*
X138941268Y-105342990D01*
X138889468Y-105271693D01*
X138876103Y-105245463D01*
X138861293Y-105223298D01*
X138846009Y-105186399D01*
X138821748Y-105138784D01*
X138805232Y-105087956D01*
X138789950Y-105051061D01*
X138784749Y-105024918D01*
X138775651Y-104996916D01*
X138761864Y-104909867D01*
X138753579Y-104868214D01*
X138753579Y-104857552D01*
X138752317Y-104849584D01*
X138752317Y-104700415D01*
X138753579Y-104692446D01*
X138753579Y-104681786D01*
X138761863Y-104640136D01*
X138775651Y-104553083D01*
X138784750Y-104525078D01*
X138789950Y-104498939D01*
X138805231Y-104462046D01*
X138821748Y-104411215D01*
X138846011Y-104363595D01*
X138861293Y-104326702D01*
X138876101Y-104304539D01*
X138889468Y-104278306D01*
X138941277Y-104206996D01*
X138964867Y-104171692D01*
X138972402Y-104164156D01*
X138977145Y-104157629D01*
X139082629Y-104052145D01*
X139089156Y-104047402D01*
X139096692Y-104039867D01*
X139131996Y-104016277D01*
X139203306Y-103964468D01*
X139229539Y-103951101D01*
X139251702Y-103936293D01*
X139288595Y-103921011D01*
X139336215Y-103896748D01*
X139387046Y-103880231D01*
X139423939Y-103864950D01*
X139450078Y-103859750D01*
X139478083Y-103850651D01*
X139565136Y-103836863D01*
X139606786Y-103828579D01*
X139617447Y-103828579D01*
X139625415Y-103827317D01*
X139774585Y-103827317D01*
X139782553Y-103828579D01*
G37*
G36*
X142322553Y-103828579D02*
G01*
X142333214Y-103828579D01*
X142374865Y-103836864D01*
X142461916Y-103850651D01*
X142489918Y-103859749D01*
X142516061Y-103864950D01*
X142552956Y-103880232D01*
X142603784Y-103896748D01*
X142651399Y-103921009D01*
X142688298Y-103936293D01*
X142710463Y-103951103D01*
X142736693Y-103964468D01*
X142807990Y-104016268D01*
X142843308Y-104039867D01*
X142850846Y-104047405D01*
X142857370Y-104052145D01*
X142962854Y-104157629D01*
X142967593Y-104164152D01*
X142975133Y-104171692D01*
X142998734Y-104207014D01*
X143050531Y-104278306D01*
X143063894Y-104304533D01*
X143078707Y-104326702D01*
X143093993Y-104363605D01*
X143118251Y-104411215D01*
X143134764Y-104462035D01*
X143150050Y-104498939D01*
X143155251Y-104525086D01*
X143164348Y-104553083D01*
X143178134Y-104640125D01*
X143186421Y-104681786D01*
X143186421Y-104692447D01*
X143187683Y-104700415D01*
X143187683Y-104849584D01*
X143186421Y-104857551D01*
X143186421Y-104868214D01*
X143178133Y-104909877D01*
X143164348Y-104996916D01*
X143155251Y-105024910D01*
X143150050Y-105051061D01*
X143134762Y-105087968D01*
X143118251Y-105138784D01*
X143093995Y-105186388D01*
X143078707Y-105223298D01*
X143063892Y-105245470D01*
X143050531Y-105271693D01*
X142998742Y-105342973D01*
X142975133Y-105378308D01*
X142967591Y-105385849D01*
X142962854Y-105392370D01*
X142857370Y-105497854D01*
X142850849Y-105502591D01*
X142843308Y-105510133D01*
X142807973Y-105533742D01*
X142736693Y-105585531D01*
X142710470Y-105598892D01*
X142688298Y-105613707D01*
X142651388Y-105628995D01*
X142603784Y-105653251D01*
X142552968Y-105669762D01*
X142516061Y-105685050D01*
X142489910Y-105690251D01*
X142461916Y-105699348D01*
X142374875Y-105713133D01*
X142333214Y-105721421D01*
X142322553Y-105721421D01*
X142314585Y-105722683D01*
X142165415Y-105722683D01*
X142157447Y-105721421D01*
X142146786Y-105721421D01*
X142105125Y-105713134D01*
X142018083Y-105699348D01*
X141990086Y-105690251D01*
X141963939Y-105685050D01*
X141927035Y-105669764D01*
X141876215Y-105653251D01*
X141828605Y-105628993D01*
X141791702Y-105613707D01*
X141769533Y-105598894D01*
X141743306Y-105585531D01*
X141672014Y-105533734D01*
X141636692Y-105510133D01*
X141629152Y-105502593D01*
X141622629Y-105497854D01*
X141517145Y-105392370D01*
X141512405Y-105385846D01*
X141504867Y-105378308D01*
X141481268Y-105342990D01*
X141429468Y-105271693D01*
X141416103Y-105245463D01*
X141401293Y-105223298D01*
X141386009Y-105186399D01*
X141361748Y-105138784D01*
X141345232Y-105087956D01*
X141329950Y-105051061D01*
X141324749Y-105024918D01*
X141315651Y-104996916D01*
X141301864Y-104909867D01*
X141293579Y-104868214D01*
X141293579Y-104857552D01*
X141292317Y-104849584D01*
X141292317Y-104700415D01*
X141293579Y-104692446D01*
X141293579Y-104681786D01*
X141301863Y-104640136D01*
X141315651Y-104553083D01*
X141324750Y-104525078D01*
X141329950Y-104498939D01*
X141345231Y-104462046D01*
X141361748Y-104411215D01*
X141386011Y-104363595D01*
X141401293Y-104326702D01*
X141416101Y-104304539D01*
X141429468Y-104278306D01*
X141481277Y-104206996D01*
X141504867Y-104171692D01*
X141512402Y-104164156D01*
X141517145Y-104157629D01*
X141622629Y-104052145D01*
X141629156Y-104047402D01*
X141636692Y-104039867D01*
X141671996Y-104016277D01*
X141743306Y-103964468D01*
X141769539Y-103951101D01*
X141791702Y-103936293D01*
X141828595Y-103921011D01*
X141876215Y-103896748D01*
X141927046Y-103880231D01*
X141963939Y-103864950D01*
X141990078Y-103859750D01*
X142018083Y-103850651D01*
X142105136Y-103836863D01*
X142146786Y-103828579D01*
X142157447Y-103828579D01*
X142165415Y-103827317D01*
X142314585Y-103827317D01*
X142322553Y-103828579D01*
G37*
G36*
X144862553Y-103828579D02*
G01*
X144873214Y-103828579D01*
X144914865Y-103836864D01*
X145001916Y-103850651D01*
X145029918Y-103859749D01*
X145056061Y-103864950D01*
X145092956Y-103880232D01*
X145143784Y-103896748D01*
X145191399Y-103921009D01*
X145228298Y-103936293D01*
X145250463Y-103951103D01*
X145276693Y-103964468D01*
X145347990Y-104016268D01*
X145383308Y-104039867D01*
X145390846Y-104047405D01*
X145397370Y-104052145D01*
X145502854Y-104157629D01*
X145507593Y-104164152D01*
X145515133Y-104171692D01*
X145538734Y-104207014D01*
X145590531Y-104278306D01*
X145603894Y-104304533D01*
X145618707Y-104326702D01*
X145633993Y-104363605D01*
X145658251Y-104411215D01*
X145674764Y-104462035D01*
X145690050Y-104498939D01*
X145695251Y-104525086D01*
X145704348Y-104553083D01*
X145718134Y-104640125D01*
X145726421Y-104681786D01*
X145726421Y-104692447D01*
X145727683Y-104700415D01*
X145727683Y-104849584D01*
X145726421Y-104857551D01*
X145726421Y-104868214D01*
X145718133Y-104909877D01*
X145704348Y-104996916D01*
X145695251Y-105024910D01*
X145690050Y-105051061D01*
X145674762Y-105087968D01*
X145658251Y-105138784D01*
X145633995Y-105186388D01*
X145618707Y-105223298D01*
X145603892Y-105245470D01*
X145590531Y-105271693D01*
X145538742Y-105342973D01*
X145515133Y-105378308D01*
X145507591Y-105385849D01*
X145502854Y-105392370D01*
X145397370Y-105497854D01*
X145390849Y-105502591D01*
X145383308Y-105510133D01*
X145347973Y-105533742D01*
X145276693Y-105585531D01*
X145250470Y-105598892D01*
X145228298Y-105613707D01*
X145191388Y-105628995D01*
X145143784Y-105653251D01*
X145092968Y-105669762D01*
X145056061Y-105685050D01*
X145029910Y-105690251D01*
X145001916Y-105699348D01*
X144914875Y-105713133D01*
X144873214Y-105721421D01*
X144862553Y-105721421D01*
X144854585Y-105722683D01*
X144705415Y-105722683D01*
X144697447Y-105721421D01*
X144686786Y-105721421D01*
X144645125Y-105713134D01*
X144558083Y-105699348D01*
X144530086Y-105690251D01*
X144503939Y-105685050D01*
X144467035Y-105669764D01*
X144416215Y-105653251D01*
X144368605Y-105628993D01*
X144331702Y-105613707D01*
X144309533Y-105598894D01*
X144283306Y-105585531D01*
X144212014Y-105533734D01*
X144176692Y-105510133D01*
X144169152Y-105502593D01*
X144162629Y-105497854D01*
X144057145Y-105392370D01*
X144052405Y-105385846D01*
X144044867Y-105378308D01*
X144021268Y-105342990D01*
X143969468Y-105271693D01*
X143956103Y-105245463D01*
X143941293Y-105223298D01*
X143926009Y-105186399D01*
X143901748Y-105138784D01*
X143885232Y-105087956D01*
X143869950Y-105051061D01*
X143864749Y-105024918D01*
X143855651Y-104996916D01*
X143841864Y-104909867D01*
X143833579Y-104868214D01*
X143833579Y-104857552D01*
X143832317Y-104849584D01*
X143832317Y-104700415D01*
X143833579Y-104692446D01*
X143833579Y-104681786D01*
X143841863Y-104640136D01*
X143855651Y-104553083D01*
X143864750Y-104525078D01*
X143869950Y-104498939D01*
X143885231Y-104462046D01*
X143901748Y-104411215D01*
X143926011Y-104363595D01*
X143941293Y-104326702D01*
X143956101Y-104304539D01*
X143969468Y-104278306D01*
X144021277Y-104206996D01*
X144044867Y-104171692D01*
X144052402Y-104164156D01*
X144057145Y-104157629D01*
X144162629Y-104052145D01*
X144169156Y-104047402D01*
X144176692Y-104039867D01*
X144211996Y-104016277D01*
X144283306Y-103964468D01*
X144309539Y-103951101D01*
X144331702Y-103936293D01*
X144368595Y-103921011D01*
X144416215Y-103896748D01*
X144467046Y-103880231D01*
X144503939Y-103864950D01*
X144530078Y-103859750D01*
X144558083Y-103850651D01*
X144645136Y-103836863D01*
X144686786Y-103828579D01*
X144697447Y-103828579D01*
X144705415Y-103827317D01*
X144854585Y-103827317D01*
X144862553Y-103828579D01*
G37*
G36*
X147402553Y-103828579D02*
G01*
X147413214Y-103828579D01*
X147454865Y-103836864D01*
X147541916Y-103850651D01*
X147569918Y-103859749D01*
X147596061Y-103864950D01*
X147632956Y-103880232D01*
X147683784Y-103896748D01*
X147731399Y-103921009D01*
X147768298Y-103936293D01*
X147790463Y-103951103D01*
X147816693Y-103964468D01*
X147887990Y-104016268D01*
X147923308Y-104039867D01*
X147930846Y-104047405D01*
X147937370Y-104052145D01*
X148042854Y-104157629D01*
X148047593Y-104164152D01*
X148055133Y-104171692D01*
X148078734Y-104207014D01*
X148130531Y-104278306D01*
X148143894Y-104304533D01*
X148158707Y-104326702D01*
X148173993Y-104363605D01*
X148198251Y-104411215D01*
X148214764Y-104462035D01*
X148230050Y-104498939D01*
X148235251Y-104525086D01*
X148244348Y-104553083D01*
X148258134Y-104640125D01*
X148266421Y-104681786D01*
X148266421Y-104692447D01*
X148267683Y-104700415D01*
X148267683Y-104849584D01*
X148266421Y-104857551D01*
X148266421Y-104868214D01*
X148258133Y-104909877D01*
X148244348Y-104996916D01*
X148235251Y-105024910D01*
X148230050Y-105051061D01*
X148214762Y-105087968D01*
X148198251Y-105138784D01*
X148173995Y-105186388D01*
X148158707Y-105223298D01*
X148143892Y-105245470D01*
X148130531Y-105271693D01*
X148078742Y-105342973D01*
X148055133Y-105378308D01*
X148047591Y-105385849D01*
X148042854Y-105392370D01*
X147937370Y-105497854D01*
X147930849Y-105502591D01*
X147923308Y-105510133D01*
X147887973Y-105533742D01*
X147816693Y-105585531D01*
X147790470Y-105598892D01*
X147768298Y-105613707D01*
X147731388Y-105628995D01*
X147683784Y-105653251D01*
X147632968Y-105669762D01*
X147596061Y-105685050D01*
X147569910Y-105690251D01*
X147541916Y-105699348D01*
X147454875Y-105713133D01*
X147413214Y-105721421D01*
X147402553Y-105721421D01*
X147394585Y-105722683D01*
X147245415Y-105722683D01*
X147237447Y-105721421D01*
X147226786Y-105721421D01*
X147185125Y-105713134D01*
X147098083Y-105699348D01*
X147070086Y-105690251D01*
X147043939Y-105685050D01*
X147007035Y-105669764D01*
X146956215Y-105653251D01*
X146908605Y-105628993D01*
X146871702Y-105613707D01*
X146849533Y-105598894D01*
X146823306Y-105585531D01*
X146752014Y-105533734D01*
X146716692Y-105510133D01*
X146709152Y-105502593D01*
X146702629Y-105497854D01*
X146597145Y-105392370D01*
X146592405Y-105385846D01*
X146584867Y-105378308D01*
X146561268Y-105342990D01*
X146509468Y-105271693D01*
X146496103Y-105245463D01*
X146481293Y-105223298D01*
X146466009Y-105186399D01*
X146441748Y-105138784D01*
X146425232Y-105087956D01*
X146409950Y-105051061D01*
X146404749Y-105024918D01*
X146395651Y-104996916D01*
X146381864Y-104909867D01*
X146373579Y-104868214D01*
X146373579Y-104857552D01*
X146372317Y-104849584D01*
X146372317Y-104700415D01*
X146373579Y-104692446D01*
X146373579Y-104681786D01*
X146381863Y-104640136D01*
X146395651Y-104553083D01*
X146404750Y-104525078D01*
X146409950Y-104498939D01*
X146425231Y-104462046D01*
X146441748Y-104411215D01*
X146466011Y-104363595D01*
X146481293Y-104326702D01*
X146496101Y-104304539D01*
X146509468Y-104278306D01*
X146561277Y-104206996D01*
X146584867Y-104171692D01*
X146592402Y-104164156D01*
X146597145Y-104157629D01*
X146702629Y-104052145D01*
X146709156Y-104047402D01*
X146716692Y-104039867D01*
X146751996Y-104016277D01*
X146823306Y-103964468D01*
X146849539Y-103951101D01*
X146871702Y-103936293D01*
X146908595Y-103921011D01*
X146956215Y-103896748D01*
X147007046Y-103880231D01*
X147043939Y-103864950D01*
X147070078Y-103859750D01*
X147098083Y-103850651D01*
X147185136Y-103836863D01*
X147226786Y-103828579D01*
X147237447Y-103828579D01*
X147245415Y-103827317D01*
X147394585Y-103827317D01*
X147402553Y-103828579D01*
G37*
G36*
X149942553Y-103828579D02*
G01*
X149953214Y-103828579D01*
X149994865Y-103836864D01*
X150081916Y-103850651D01*
X150109918Y-103859749D01*
X150136061Y-103864950D01*
X150172956Y-103880232D01*
X150223784Y-103896748D01*
X150271399Y-103921009D01*
X150308298Y-103936293D01*
X150330463Y-103951103D01*
X150356693Y-103964468D01*
X150427990Y-104016268D01*
X150463308Y-104039867D01*
X150470846Y-104047405D01*
X150477370Y-104052145D01*
X150582854Y-104157629D01*
X150587593Y-104164152D01*
X150595133Y-104171692D01*
X150618734Y-104207014D01*
X150670531Y-104278306D01*
X150683894Y-104304533D01*
X150698707Y-104326702D01*
X150713993Y-104363605D01*
X150738251Y-104411215D01*
X150754764Y-104462035D01*
X150770050Y-104498939D01*
X150775251Y-104525086D01*
X150784348Y-104553083D01*
X150798134Y-104640125D01*
X150806421Y-104681786D01*
X150806421Y-104692447D01*
X150807683Y-104700415D01*
X150807683Y-104849584D01*
X150806421Y-104857551D01*
X150806421Y-104868214D01*
X150798133Y-104909877D01*
X150784348Y-104996916D01*
X150775251Y-105024910D01*
X150770050Y-105051061D01*
X150754762Y-105087968D01*
X150738251Y-105138784D01*
X150713995Y-105186388D01*
X150698707Y-105223298D01*
X150683892Y-105245470D01*
X150670531Y-105271693D01*
X150618742Y-105342973D01*
X150595133Y-105378308D01*
X150587591Y-105385849D01*
X150582854Y-105392370D01*
X150477370Y-105497854D01*
X150470849Y-105502591D01*
X150463308Y-105510133D01*
X150427973Y-105533742D01*
X150356693Y-105585531D01*
X150330470Y-105598892D01*
X150308298Y-105613707D01*
X150271388Y-105628995D01*
X150223784Y-105653251D01*
X150172968Y-105669762D01*
X150136061Y-105685050D01*
X150109910Y-105690251D01*
X150081916Y-105699348D01*
X149994875Y-105713133D01*
X149953214Y-105721421D01*
X149942553Y-105721421D01*
X149934585Y-105722683D01*
X149785415Y-105722683D01*
X149777447Y-105721421D01*
X149766786Y-105721421D01*
X149725125Y-105713134D01*
X149638083Y-105699348D01*
X149610086Y-105690251D01*
X149583939Y-105685050D01*
X149547035Y-105669764D01*
X149496215Y-105653251D01*
X149448605Y-105628993D01*
X149411702Y-105613707D01*
X149389533Y-105598894D01*
X149363306Y-105585531D01*
X149292014Y-105533734D01*
X149256692Y-105510133D01*
X149249152Y-105502593D01*
X149242629Y-105497854D01*
X149137145Y-105392370D01*
X149132405Y-105385846D01*
X149124867Y-105378308D01*
X149101268Y-105342990D01*
X149049468Y-105271693D01*
X149036103Y-105245463D01*
X149021293Y-105223298D01*
X149006009Y-105186399D01*
X148981748Y-105138784D01*
X148965232Y-105087956D01*
X148949950Y-105051061D01*
X148944749Y-105024918D01*
X148935651Y-104996916D01*
X148921864Y-104909867D01*
X148913579Y-104868214D01*
X148913579Y-104857552D01*
X148912317Y-104849584D01*
X148912317Y-104700415D01*
X148913579Y-104692446D01*
X148913579Y-104681786D01*
X148921863Y-104640136D01*
X148935651Y-104553083D01*
X148944750Y-104525078D01*
X148949950Y-104498939D01*
X148965231Y-104462046D01*
X148981748Y-104411215D01*
X149006011Y-104363595D01*
X149021293Y-104326702D01*
X149036101Y-104304539D01*
X149049468Y-104278306D01*
X149101277Y-104206996D01*
X149124867Y-104171692D01*
X149132402Y-104164156D01*
X149137145Y-104157629D01*
X149242629Y-104052145D01*
X149249156Y-104047402D01*
X149256692Y-104039867D01*
X149291996Y-104016277D01*
X149363306Y-103964468D01*
X149389539Y-103951101D01*
X149411702Y-103936293D01*
X149448595Y-103921011D01*
X149496215Y-103896748D01*
X149547046Y-103880231D01*
X149583939Y-103864950D01*
X149610078Y-103859750D01*
X149638083Y-103850651D01*
X149725136Y-103836863D01*
X149766786Y-103828579D01*
X149777447Y-103828579D01*
X149785415Y-103827317D01*
X149934585Y-103827317D01*
X149942553Y-103828579D01*
G37*
G36*
X152482553Y-103828579D02*
G01*
X152493214Y-103828579D01*
X152534865Y-103836864D01*
X152621916Y-103850651D01*
X152649918Y-103859749D01*
X152676061Y-103864950D01*
X152712956Y-103880232D01*
X152763784Y-103896748D01*
X152811399Y-103921009D01*
X152848298Y-103936293D01*
X152870463Y-103951103D01*
X152896693Y-103964468D01*
X152967990Y-104016268D01*
X153003308Y-104039867D01*
X153010846Y-104047405D01*
X153017370Y-104052145D01*
X153122854Y-104157629D01*
X153127593Y-104164152D01*
X153135133Y-104171692D01*
X153158734Y-104207014D01*
X153210531Y-104278306D01*
X153223894Y-104304533D01*
X153238707Y-104326702D01*
X153253993Y-104363605D01*
X153278251Y-104411215D01*
X153294764Y-104462035D01*
X153310050Y-104498939D01*
X153315251Y-104525086D01*
X153324348Y-104553083D01*
X153338134Y-104640125D01*
X153346421Y-104681786D01*
X153346421Y-104692447D01*
X153347683Y-104700415D01*
X153347683Y-104849584D01*
X153346421Y-104857551D01*
X153346421Y-104868214D01*
X153338133Y-104909877D01*
X153324348Y-104996916D01*
X153315251Y-105024910D01*
X153310050Y-105051061D01*
X153294762Y-105087968D01*
X153278251Y-105138784D01*
X153253995Y-105186388D01*
X153238707Y-105223298D01*
X153223892Y-105245470D01*
X153210531Y-105271693D01*
X153158742Y-105342973D01*
X153135133Y-105378308D01*
X153127591Y-105385849D01*
X153122854Y-105392370D01*
X153017370Y-105497854D01*
X153010849Y-105502591D01*
X153003308Y-105510133D01*
X152967973Y-105533742D01*
X152896693Y-105585531D01*
X152870470Y-105598892D01*
X152848298Y-105613707D01*
X152811388Y-105628995D01*
X152763784Y-105653251D01*
X152712968Y-105669762D01*
X152676061Y-105685050D01*
X152649910Y-105690251D01*
X152621916Y-105699348D01*
X152534875Y-105713133D01*
X152493214Y-105721421D01*
X152482553Y-105721421D01*
X152474585Y-105722683D01*
X152325415Y-105722683D01*
X152317447Y-105721421D01*
X152306786Y-105721421D01*
X152265125Y-105713134D01*
X152178083Y-105699348D01*
X152150086Y-105690251D01*
X152123939Y-105685050D01*
X152087035Y-105669764D01*
X152036215Y-105653251D01*
X151988605Y-105628993D01*
X151951702Y-105613707D01*
X151929533Y-105598894D01*
X151903306Y-105585531D01*
X151832014Y-105533734D01*
X151796692Y-105510133D01*
X151789152Y-105502593D01*
X151782629Y-105497854D01*
X151677145Y-105392370D01*
X151672405Y-105385846D01*
X151664867Y-105378308D01*
X151641268Y-105342990D01*
X151589468Y-105271693D01*
X151576103Y-105245463D01*
X151561293Y-105223298D01*
X151546009Y-105186399D01*
X151521748Y-105138784D01*
X151505232Y-105087956D01*
X151489950Y-105051061D01*
X151484749Y-105024918D01*
X151475651Y-104996916D01*
X151461864Y-104909867D01*
X151453579Y-104868214D01*
X151453579Y-104857552D01*
X151452317Y-104849584D01*
X151452317Y-104700415D01*
X151453579Y-104692446D01*
X151453579Y-104681786D01*
X151461863Y-104640136D01*
X151475651Y-104553083D01*
X151484750Y-104525078D01*
X151489950Y-104498939D01*
X151505231Y-104462046D01*
X151521748Y-104411215D01*
X151546011Y-104363595D01*
X151561293Y-104326702D01*
X151576101Y-104304539D01*
X151589468Y-104278306D01*
X151641277Y-104206996D01*
X151664867Y-104171692D01*
X151672402Y-104164156D01*
X151677145Y-104157629D01*
X151782629Y-104052145D01*
X151789156Y-104047402D01*
X151796692Y-104039867D01*
X151831996Y-104016277D01*
X151903306Y-103964468D01*
X151929539Y-103951101D01*
X151951702Y-103936293D01*
X151988595Y-103921011D01*
X152036215Y-103896748D01*
X152087046Y-103880231D01*
X152123939Y-103864950D01*
X152150078Y-103859750D01*
X152178083Y-103850651D01*
X152265136Y-103836863D01*
X152306786Y-103828579D01*
X152317447Y-103828579D01*
X152325415Y-103827317D01*
X152474585Y-103827317D01*
X152482553Y-103828579D01*
G37*
G36*
X135412517Y-99636882D02*
G01*
X135429062Y-99647938D01*
X135440118Y-99664483D01*
X135444000Y-99684000D01*
X135444000Y-101484000D01*
X135440118Y-101503517D01*
X135429062Y-101520062D01*
X135412517Y-101531118D01*
X135393000Y-101535000D01*
X133593000Y-101535000D01*
X133573483Y-101531118D01*
X133556938Y-101520062D01*
X133545882Y-101503517D01*
X133542000Y-101484000D01*
X133542000Y-99684000D01*
X133545882Y-99664483D01*
X133556938Y-99647938D01*
X133573483Y-99636882D01*
X133593000Y-99633000D01*
X135393000Y-99633000D01*
X135412517Y-99636882D01*
G37*
G36*
X138714517Y-99636882D02*
G01*
X138731062Y-99647938D01*
X138742118Y-99664483D01*
X138746000Y-99684000D01*
X138746000Y-101484000D01*
X138742118Y-101503517D01*
X138731062Y-101520062D01*
X138714517Y-101531118D01*
X138695000Y-101535000D01*
X136895000Y-101535000D01*
X136875483Y-101531118D01*
X136858938Y-101520062D01*
X136847882Y-101503517D01*
X136844000Y-101484000D01*
X136844000Y-99684000D01*
X136847882Y-99664483D01*
X136858938Y-99647938D01*
X136875483Y-99636882D01*
X136895000Y-99633000D01*
X138695000Y-99633000D01*
X138714517Y-99636882D01*
G37*
G36*
X142016517Y-99636882D02*
G01*
X142033062Y-99647938D01*
X142044118Y-99664483D01*
X142048000Y-99684000D01*
X142048000Y-101484000D01*
X142044118Y-101503517D01*
X142033062Y-101520062D01*
X142016517Y-101531118D01*
X141997000Y-101535000D01*
X140197000Y-101535000D01*
X140177483Y-101531118D01*
X140160938Y-101520062D01*
X140149882Y-101503517D01*
X140146000Y-101484000D01*
X140146000Y-99684000D01*
X140149882Y-99664483D01*
X140160938Y-99647938D01*
X140177483Y-99636882D01*
X140197000Y-99633000D01*
X141997000Y-99633000D01*
X142016517Y-99636882D01*
G37*
G36*
X145318517Y-99636882D02*
G01*
X145335062Y-99647938D01*
X145346118Y-99664483D01*
X145350000Y-99684000D01*
X145350000Y-101484000D01*
X145346118Y-101503517D01*
X145335062Y-101520062D01*
X145318517Y-101531118D01*
X145299000Y-101535000D01*
X143499000Y-101535000D01*
X143479483Y-101531118D01*
X143462938Y-101520062D01*
X143451882Y-101503517D01*
X143448000Y-101484000D01*
X143448000Y-99684000D01*
X143451882Y-99664483D01*
X143462938Y-99647938D01*
X143479483Y-99636882D01*
X143499000Y-99633000D01*
X145299000Y-99633000D01*
X145318517Y-99636882D01*
G37*
G36*
X148620517Y-99636882D02*
G01*
X148637062Y-99647938D01*
X148648118Y-99664483D01*
X148652000Y-99684000D01*
X148652000Y-101484000D01*
X148648118Y-101503517D01*
X148637062Y-101520062D01*
X148620517Y-101531118D01*
X148601000Y-101535000D01*
X146801000Y-101535000D01*
X146781483Y-101531118D01*
X146764938Y-101520062D01*
X146753882Y-101503517D01*
X146750000Y-101484000D01*
X146750000Y-99684000D01*
X146753882Y-99664483D01*
X146764938Y-99647938D01*
X146781483Y-99636882D01*
X146801000Y-99633000D01*
X148601000Y-99633000D01*
X148620517Y-99636882D01*
G37*
G36*
X151922517Y-99636882D02*
G01*
X151939062Y-99647938D01*
X151950118Y-99664483D01*
X151954000Y-99684000D01*
X151954000Y-101484000D01*
X151950118Y-101503517D01*
X151939062Y-101520062D01*
X151922517Y-101531118D01*
X151903000Y-101535000D01*
X150103000Y-101535000D01*
X150083483Y-101531118D01*
X150066938Y-101520062D01*
X150055882Y-101503517D01*
X150052000Y-101484000D01*
X150052000Y-99684000D01*
X150055882Y-99664483D01*
X150066938Y-99647938D01*
X150083483Y-99636882D01*
X150103000Y-99633000D01*
X151903000Y-99633000D01*
X151922517Y-99636882D01*
G37*
G36*
X155224517Y-99636882D02*
G01*
X155241062Y-99647938D01*
X155252118Y-99664483D01*
X155256000Y-99684000D01*
X155256000Y-101484000D01*
X155252118Y-101503517D01*
X155241062Y-101520062D01*
X155224517Y-101531118D01*
X155205000Y-101535000D01*
X153405000Y-101535000D01*
X153385483Y-101531118D01*
X153368938Y-101520062D01*
X153357882Y-101503517D01*
X153354000Y-101484000D01*
X153354000Y-99684000D01*
X153357882Y-99664483D01*
X153368938Y-99647938D01*
X153385483Y-99636882D01*
X153405000Y-99633000D01*
X155205000Y-99633000D01*
X155224517Y-99636882D01*
G37*
G36*
X158526517Y-99636882D02*
G01*
X158543062Y-99647938D01*
X158554118Y-99664483D01*
X158558000Y-99684000D01*
X158558000Y-101484000D01*
X158554118Y-101503517D01*
X158543062Y-101520062D01*
X158526517Y-101531118D01*
X158507000Y-101535000D01*
X156707000Y-101535000D01*
X156687483Y-101531118D01*
X156670938Y-101520062D01*
X156659882Y-101503517D01*
X156656000Y-101484000D01*
X156656000Y-99684000D01*
X156659882Y-99664483D01*
X156670938Y-99647938D01*
X156687483Y-99636882D01*
X156707000Y-99633000D01*
X158507000Y-99633000D01*
X158526517Y-99636882D01*
G37*
G36*
X128771032Y-99769644D02*
G01*
X128925159Y-99833485D01*
X129063869Y-99926168D01*
X129181832Y-100044131D01*
X129274515Y-100182841D01*
X129338356Y-100336968D01*
X129370902Y-100500587D01*
X129370902Y-100667413D01*
X129338356Y-100831032D01*
X129274515Y-100985159D01*
X129181832Y-101123869D01*
X129063869Y-101241832D01*
X128925159Y-101334515D01*
X128771032Y-101398356D01*
X128607413Y-101430902D01*
X128440587Y-101430902D01*
X128276968Y-101398356D01*
X128122841Y-101334515D01*
X127984131Y-101241832D01*
X127866168Y-101123869D01*
X127773485Y-100985159D01*
X127709644Y-100831032D01*
X127677098Y-100667413D01*
X127677098Y-100500587D01*
X127709644Y-100336968D01*
X127773485Y-100182841D01*
X127866168Y-100044131D01*
X127984131Y-99926168D01*
X128122841Y-99833485D01*
X128276968Y-99769644D01*
X128440587Y-99737098D01*
X128607413Y-99737098D01*
X128771032Y-99769644D01*
G37*
G36*
X131271032Y-99769644D02*
G01*
X131425159Y-99833485D01*
X131563869Y-99926168D01*
X131681832Y-100044131D01*
X131774515Y-100182841D01*
X131838356Y-100336968D01*
X131870902Y-100500587D01*
X131870902Y-100667413D01*
X131838356Y-100831032D01*
X131774515Y-100985159D01*
X131681832Y-101123869D01*
X131563869Y-101241832D01*
X131425159Y-101334515D01*
X131271032Y-101398356D01*
X131107413Y-101430902D01*
X130940587Y-101430902D01*
X130776968Y-101398356D01*
X130622841Y-101334515D01*
X130484131Y-101241832D01*
X130366168Y-101123869D01*
X130273485Y-100985159D01*
X130209644Y-100831032D01*
X130177098Y-100667413D01*
X130177098Y-100500587D01*
X130209644Y-100336968D01*
X130273485Y-100182841D01*
X130366168Y-100044131D01*
X130484131Y-99926168D01*
X130622841Y-99833485D01*
X130776968Y-99769644D01*
X130940587Y-99737098D01*
X131107413Y-99737098D01*
X131271032Y-99769644D01*
G37*
G36*
X125229546Y-98466797D02*
G01*
X125392728Y-98534389D01*
X125539588Y-98632518D01*
X125664482Y-98757412D01*
X125762611Y-98904272D01*
X125830203Y-99067454D01*
X125864661Y-99240687D01*
X125864661Y-99417313D01*
X125830203Y-99590546D01*
X125762611Y-99753728D01*
X125664482Y-99900588D01*
X125539588Y-100025482D01*
X125392728Y-100123611D01*
X125229546Y-100191203D01*
X125056313Y-100225661D01*
X124879687Y-100225661D01*
X124706454Y-100191203D01*
X124543272Y-100123611D01*
X124396412Y-100025482D01*
X124271518Y-99900588D01*
X124173389Y-99753728D01*
X124105797Y-99590546D01*
X124071339Y-99417313D01*
X124071339Y-99240687D01*
X124105797Y-99067454D01*
X124173389Y-98904272D01*
X124271518Y-98757412D01*
X124396412Y-98632518D01*
X124543272Y-98534389D01*
X124706454Y-98466797D01*
X124879687Y-98432339D01*
X125056313Y-98432339D01*
X125229546Y-98466797D01*
G37*
G36*
X167647546Y-98466797D02*
G01*
X167810728Y-98534389D01*
X167957588Y-98632518D01*
X168082482Y-98757412D01*
X168180611Y-98904272D01*
X168248203Y-99067454D01*
X168282661Y-99240687D01*
X168282661Y-99417313D01*
X168248203Y-99590546D01*
X168180611Y-99753728D01*
X168082482Y-99900588D01*
X167957588Y-100025482D01*
X167810728Y-100123611D01*
X167647546Y-100191203D01*
X167474313Y-100225661D01*
X167297687Y-100225661D01*
X167124454Y-100191203D01*
X166961272Y-100123611D01*
X166814412Y-100025482D01*
X166689518Y-99900588D01*
X166591389Y-99753728D01*
X166523797Y-99590546D01*
X166489339Y-99417313D01*
X166489339Y-99240687D01*
X166523797Y-99067454D01*
X166591389Y-98904272D01*
X166689518Y-98757412D01*
X166814412Y-98632518D01*
X166961272Y-98534389D01*
X167124454Y-98466797D01*
X167297687Y-98432339D01*
X167474313Y-98432339D01*
X167647546Y-98466797D01*
G37*
G36*
X161955517Y-95826882D02*
G01*
X161972062Y-95837938D01*
X161983118Y-95854483D01*
X161987000Y-95874000D01*
X161987000Y-97674000D01*
X161983118Y-97693517D01*
X161972062Y-97710062D01*
X161955517Y-97721118D01*
X161936000Y-97725000D01*
X160136000Y-97725000D01*
X160116483Y-97721118D01*
X160099938Y-97710062D01*
X160088882Y-97693517D01*
X160085000Y-97674000D01*
X160085000Y-95874000D01*
X160088882Y-95854483D01*
X160099938Y-95837938D01*
X160116483Y-95826882D01*
X160136000Y-95823000D01*
X161936000Y-95823000D01*
X161955517Y-95826882D01*
G37*
G36*
X163658553Y-95827579D02*
G01*
X163669214Y-95827579D01*
X163710865Y-95835864D01*
X163797916Y-95849651D01*
X163825918Y-95858749D01*
X163852061Y-95863950D01*
X163888956Y-95879232D01*
X163939784Y-95895748D01*
X163987399Y-95920009D01*
X164024298Y-95935293D01*
X164046463Y-95950103D01*
X164072693Y-95963468D01*
X164143990Y-96015268D01*
X164179308Y-96038867D01*
X164186846Y-96046405D01*
X164193370Y-96051145D01*
X164298854Y-96156629D01*
X164303593Y-96163152D01*
X164311133Y-96170692D01*
X164334734Y-96206014D01*
X164386531Y-96277306D01*
X164399894Y-96303533D01*
X164414707Y-96325702D01*
X164429993Y-96362605D01*
X164454251Y-96410215D01*
X164470764Y-96461035D01*
X164486050Y-96497939D01*
X164491251Y-96524086D01*
X164500348Y-96552083D01*
X164514134Y-96639125D01*
X164522421Y-96680786D01*
X164522421Y-96691447D01*
X164523683Y-96699415D01*
X164523683Y-96848584D01*
X164522421Y-96856551D01*
X164522421Y-96867214D01*
X164514133Y-96908877D01*
X164500348Y-96995916D01*
X164491251Y-97023910D01*
X164486050Y-97050061D01*
X164470762Y-97086968D01*
X164454251Y-97137784D01*
X164429995Y-97185388D01*
X164414707Y-97222298D01*
X164399892Y-97244470D01*
X164386531Y-97270693D01*
X164334742Y-97341973D01*
X164311133Y-97377308D01*
X164303591Y-97384849D01*
X164298854Y-97391370D01*
X164193370Y-97496854D01*
X164186849Y-97501591D01*
X164179308Y-97509133D01*
X164143973Y-97532742D01*
X164072693Y-97584531D01*
X164046470Y-97597892D01*
X164024298Y-97612707D01*
X163987388Y-97627995D01*
X163939784Y-97652251D01*
X163888968Y-97668762D01*
X163852061Y-97684050D01*
X163825910Y-97689251D01*
X163797916Y-97698348D01*
X163710875Y-97712133D01*
X163669214Y-97720421D01*
X163658553Y-97720421D01*
X163650585Y-97721683D01*
X163501415Y-97721683D01*
X163493447Y-97720421D01*
X163482786Y-97720421D01*
X163441125Y-97712134D01*
X163354083Y-97698348D01*
X163326086Y-97689251D01*
X163299939Y-97684050D01*
X163263035Y-97668764D01*
X163212215Y-97652251D01*
X163164605Y-97627993D01*
X163127702Y-97612707D01*
X163105533Y-97597894D01*
X163079306Y-97584531D01*
X163008014Y-97532734D01*
X162972692Y-97509133D01*
X162965152Y-97501593D01*
X162958629Y-97496854D01*
X162853145Y-97391370D01*
X162848405Y-97384846D01*
X162840867Y-97377308D01*
X162817268Y-97341990D01*
X162765468Y-97270693D01*
X162752103Y-97244463D01*
X162737293Y-97222298D01*
X162722009Y-97185399D01*
X162697748Y-97137784D01*
X162681232Y-97086956D01*
X162665950Y-97050061D01*
X162660749Y-97023918D01*
X162651651Y-96995916D01*
X162637864Y-96908867D01*
X162629579Y-96867214D01*
X162629579Y-96856552D01*
X162628317Y-96848584D01*
X162628317Y-96699415D01*
X162629579Y-96691446D01*
X162629579Y-96680786D01*
X162637863Y-96639136D01*
X162651651Y-96552083D01*
X162660750Y-96524078D01*
X162665950Y-96497939D01*
X162681231Y-96461046D01*
X162697748Y-96410215D01*
X162722011Y-96362595D01*
X162737293Y-96325702D01*
X162752101Y-96303539D01*
X162765468Y-96277306D01*
X162817277Y-96205996D01*
X162840867Y-96170692D01*
X162848402Y-96163156D01*
X162853145Y-96156629D01*
X162958629Y-96051145D01*
X162965156Y-96046402D01*
X162972692Y-96038867D01*
X163007996Y-96015277D01*
X163079306Y-95963468D01*
X163105539Y-95950101D01*
X163127702Y-95935293D01*
X163164595Y-95920011D01*
X163212215Y-95895748D01*
X163263046Y-95879231D01*
X163299939Y-95863950D01*
X163326078Y-95858750D01*
X163354083Y-95849651D01*
X163441136Y-95835863D01*
X163482786Y-95827579D01*
X163493447Y-95827579D01*
X163501415Y-95826317D01*
X163650585Y-95826317D01*
X163658553Y-95827579D01*
G37*
G36*
X125229546Y-95926797D02*
G01*
X125392728Y-95994389D01*
X125539588Y-96092518D01*
X125664482Y-96217412D01*
X125762611Y-96364272D01*
X125830203Y-96527454D01*
X125864661Y-96700687D01*
X125864661Y-96877313D01*
X125830203Y-97050546D01*
X125762611Y-97213728D01*
X125664482Y-97360588D01*
X125539588Y-97485482D01*
X125392728Y-97583611D01*
X125229546Y-97651203D01*
X125056313Y-97685661D01*
X124879687Y-97685661D01*
X124706454Y-97651203D01*
X124543272Y-97583611D01*
X124396412Y-97485482D01*
X124271518Y-97360588D01*
X124173389Y-97213728D01*
X124105797Y-97050546D01*
X124071339Y-96877313D01*
X124071339Y-96700687D01*
X124105797Y-96527454D01*
X124173389Y-96364272D01*
X124271518Y-96217412D01*
X124396412Y-96092518D01*
X124543272Y-95994389D01*
X124706454Y-95926797D01*
X124879687Y-95892339D01*
X125056313Y-95892339D01*
X125229546Y-95926797D01*
G37*
G36*
X167647546Y-95926797D02*
G01*
X167810728Y-95994389D01*
X167957588Y-96092518D01*
X168082482Y-96217412D01*
X168180611Y-96364272D01*
X168248203Y-96527454D01*
X168282661Y-96700687D01*
X168282661Y-96877313D01*
X168248203Y-97050546D01*
X168180611Y-97213728D01*
X168082482Y-97360588D01*
X167957588Y-97485482D01*
X167810728Y-97583611D01*
X167647546Y-97651203D01*
X167474313Y-97685661D01*
X167297687Y-97685661D01*
X167124454Y-97651203D01*
X166961272Y-97583611D01*
X166814412Y-97485482D01*
X166689518Y-97360588D01*
X166591389Y-97213728D01*
X166523797Y-97050546D01*
X166489339Y-96877313D01*
X166489339Y-96700687D01*
X166523797Y-96527454D01*
X166591389Y-96364272D01*
X166689518Y-96217412D01*
X166814412Y-96092518D01*
X166961272Y-95994389D01*
X167124454Y-95926797D01*
X167297687Y-95892339D01*
X167474313Y-95892339D01*
X167647546Y-95926797D01*
G37*
G36*
X125837517Y-93351882D02*
G01*
X125854062Y-93362938D01*
X125865118Y-93379483D01*
X125869000Y-93399000D01*
X125869000Y-95099000D01*
X125865118Y-95118517D01*
X125854062Y-95135062D01*
X125837517Y-95146118D01*
X125818000Y-95150000D01*
X124118000Y-95150000D01*
X124098483Y-95146118D01*
X124081938Y-95135062D01*
X124070882Y-95118517D01*
X124067000Y-95099000D01*
X124067000Y-93399000D01*
X124070882Y-93379483D01*
X124081938Y-93362938D01*
X124098483Y-93351882D01*
X124118000Y-93348000D01*
X125818000Y-93348000D01*
X125837517Y-93351882D01*
G37*
G36*
X168255517Y-93351882D02*
G01*
X168272062Y-93362938D01*
X168283118Y-93379483D01*
X168287000Y-93399000D01*
X168287000Y-95099000D01*
X168283118Y-95118517D01*
X168272062Y-95135062D01*
X168255517Y-95146118D01*
X168236000Y-95150000D01*
X166536000Y-95150000D01*
X166516483Y-95146118D01*
X166499938Y-95135062D01*
X166488882Y-95118517D01*
X166485000Y-95099000D01*
X166485000Y-93399000D01*
X166488882Y-93379483D01*
X166499938Y-93362938D01*
X166516483Y-93351882D01*
X166536000Y-93348000D01*
X168236000Y-93348000D01*
X168255517Y-93351882D01*
G37*
G36*
X134575553Y-92017579D02*
G01*
X134586214Y-92017579D01*
X134627865Y-92025864D01*
X134714916Y-92039651D01*
X134742918Y-92048749D01*
X134769061Y-92053950D01*
X134805956Y-92069232D01*
X134856784Y-92085748D01*
X134904399Y-92110009D01*
X134941298Y-92125293D01*
X134963463Y-92140103D01*
X134989693Y-92153468D01*
X135060990Y-92205268D01*
X135096308Y-92228867D01*
X135103846Y-92236405D01*
X135110370Y-92241145D01*
X135215854Y-92346629D01*
X135220593Y-92353152D01*
X135228133Y-92360692D01*
X135251734Y-92396014D01*
X135303531Y-92467306D01*
X135316894Y-92493533D01*
X135331707Y-92515702D01*
X135346993Y-92552605D01*
X135371251Y-92600215D01*
X135387764Y-92651035D01*
X135403050Y-92687939D01*
X135408251Y-92714086D01*
X135417348Y-92742083D01*
X135431134Y-92829125D01*
X135439421Y-92870786D01*
X135439421Y-92881447D01*
X135440683Y-92889415D01*
X135440683Y-93038584D01*
X135439421Y-93046551D01*
X135439421Y-93057214D01*
X135431133Y-93098877D01*
X135417348Y-93185916D01*
X135408251Y-93213910D01*
X135403050Y-93240061D01*
X135387762Y-93276968D01*
X135371251Y-93327784D01*
X135346995Y-93375388D01*
X135331707Y-93412298D01*
X135316892Y-93434470D01*
X135303531Y-93460693D01*
X135251742Y-93531973D01*
X135228133Y-93567308D01*
X135220591Y-93574849D01*
X135215854Y-93581370D01*
X135110370Y-93686854D01*
X135103849Y-93691591D01*
X135096308Y-93699133D01*
X135060973Y-93722742D01*
X134989693Y-93774531D01*
X134963470Y-93787892D01*
X134941298Y-93802707D01*
X134904388Y-93817995D01*
X134856784Y-93842251D01*
X134805968Y-93858762D01*
X134769061Y-93874050D01*
X134742910Y-93879251D01*
X134714916Y-93888348D01*
X134627875Y-93902133D01*
X134586214Y-93910421D01*
X134575553Y-93910421D01*
X134567585Y-93911683D01*
X134418415Y-93911683D01*
X134410447Y-93910421D01*
X134399786Y-93910421D01*
X134358125Y-93902134D01*
X134271083Y-93888348D01*
X134243086Y-93879251D01*
X134216939Y-93874050D01*
X134180035Y-93858764D01*
X134129215Y-93842251D01*
X134081605Y-93817993D01*
X134044702Y-93802707D01*
X134022533Y-93787894D01*
X133996306Y-93774531D01*
X133925014Y-93722734D01*
X133889692Y-93699133D01*
X133882152Y-93691593D01*
X133875629Y-93686854D01*
X133770145Y-93581370D01*
X133765405Y-93574846D01*
X133757867Y-93567308D01*
X133734268Y-93531990D01*
X133682468Y-93460693D01*
X133669103Y-93434463D01*
X133654293Y-93412298D01*
X133639009Y-93375399D01*
X133614748Y-93327784D01*
X133598232Y-93276956D01*
X133582950Y-93240061D01*
X133577749Y-93213918D01*
X133568651Y-93185916D01*
X133554864Y-93098867D01*
X133546579Y-93057214D01*
X133546579Y-93046552D01*
X133545317Y-93038584D01*
X133545317Y-92889415D01*
X133546579Y-92881446D01*
X133546579Y-92870786D01*
X133554863Y-92829136D01*
X133568651Y-92742083D01*
X133577750Y-92714078D01*
X133582950Y-92687939D01*
X133598231Y-92651046D01*
X133614748Y-92600215D01*
X133639011Y-92552595D01*
X133654293Y-92515702D01*
X133669101Y-92493539D01*
X133682468Y-92467306D01*
X133734277Y-92395996D01*
X133757867Y-92360692D01*
X133765402Y-92353156D01*
X133770145Y-92346629D01*
X133875629Y-92241145D01*
X133882156Y-92236402D01*
X133889692Y-92228867D01*
X133924996Y-92205277D01*
X133996306Y-92153468D01*
X134022539Y-92140101D01*
X134044702Y-92125293D01*
X134081595Y-92110011D01*
X134129215Y-92085748D01*
X134180046Y-92069231D01*
X134216939Y-92053950D01*
X134243078Y-92048750D01*
X134271083Y-92039651D01*
X134358136Y-92025863D01*
X134399786Y-92017579D01*
X134410447Y-92017579D01*
X134418415Y-92016317D01*
X134567585Y-92016317D01*
X134575553Y-92017579D01*
G37*
G36*
X137877553Y-92017579D02*
G01*
X137888214Y-92017579D01*
X137929865Y-92025864D01*
X138016916Y-92039651D01*
X138044918Y-92048749D01*
X138071061Y-92053950D01*
X138107956Y-92069232D01*
X138158784Y-92085748D01*
X138206399Y-92110009D01*
X138243298Y-92125293D01*
X138265463Y-92140103D01*
X138291693Y-92153468D01*
X138362990Y-92205268D01*
X138398308Y-92228867D01*
X138405846Y-92236405D01*
X138412370Y-92241145D01*
X138517854Y-92346629D01*
X138522593Y-92353152D01*
X138530133Y-92360692D01*
X138553734Y-92396014D01*
X138605531Y-92467306D01*
X138618894Y-92493533D01*
X138633707Y-92515702D01*
X138648993Y-92552605D01*
X138673251Y-92600215D01*
X138689764Y-92651035D01*
X138705050Y-92687939D01*
X138710251Y-92714086D01*
X138719348Y-92742083D01*
X138733134Y-92829125D01*
X138741421Y-92870786D01*
X138741421Y-92881447D01*
X138742683Y-92889415D01*
X138742683Y-93038584D01*
X138741421Y-93046551D01*
X138741421Y-93057214D01*
X138733133Y-93098877D01*
X138719348Y-93185916D01*
X138710251Y-93213910D01*
X138705050Y-93240061D01*
X138689762Y-93276968D01*
X138673251Y-93327784D01*
X138648995Y-93375388D01*
X138633707Y-93412298D01*
X138618892Y-93434470D01*
X138605531Y-93460693D01*
X138553742Y-93531973D01*
X138530133Y-93567308D01*
X138522591Y-93574849D01*
X138517854Y-93581370D01*
X138412370Y-93686854D01*
X138405849Y-93691591D01*
X138398308Y-93699133D01*
X138362973Y-93722742D01*
X138291693Y-93774531D01*
X138265470Y-93787892D01*
X138243298Y-93802707D01*
X138206388Y-93817995D01*
X138158784Y-93842251D01*
X138107968Y-93858762D01*
X138071061Y-93874050D01*
X138044910Y-93879251D01*
X138016916Y-93888348D01*
X137929875Y-93902133D01*
X137888214Y-93910421D01*
X137877553Y-93910421D01*
X137869585Y-93911683D01*
X137720415Y-93911683D01*
X137712447Y-93910421D01*
X137701786Y-93910421D01*
X137660125Y-93902134D01*
X137573083Y-93888348D01*
X137545086Y-93879251D01*
X137518939Y-93874050D01*
X137482035Y-93858764D01*
X137431215Y-93842251D01*
X137383605Y-93817993D01*
X137346702Y-93802707D01*
X137324533Y-93787894D01*
X137298306Y-93774531D01*
X137227014Y-93722734D01*
X137191692Y-93699133D01*
X137184152Y-93691593D01*
X137177629Y-93686854D01*
X137072145Y-93581370D01*
X137067405Y-93574846D01*
X137059867Y-93567308D01*
X137036268Y-93531990D01*
X136984468Y-93460693D01*
X136971103Y-93434463D01*
X136956293Y-93412298D01*
X136941009Y-93375399D01*
X136916748Y-93327784D01*
X136900232Y-93276956D01*
X136884950Y-93240061D01*
X136879749Y-93213918D01*
X136870651Y-93185916D01*
X136856864Y-93098867D01*
X136848579Y-93057214D01*
X136848579Y-93046552D01*
X136847317Y-93038584D01*
X136847317Y-92889415D01*
X136848579Y-92881446D01*
X136848579Y-92870786D01*
X136856863Y-92829136D01*
X136870651Y-92742083D01*
X136879750Y-92714078D01*
X136884950Y-92687939D01*
X136900231Y-92651046D01*
X136916748Y-92600215D01*
X136941011Y-92552595D01*
X136956293Y-92515702D01*
X136971101Y-92493539D01*
X136984468Y-92467306D01*
X137036277Y-92395996D01*
X137059867Y-92360692D01*
X137067402Y-92353156D01*
X137072145Y-92346629D01*
X137177629Y-92241145D01*
X137184156Y-92236402D01*
X137191692Y-92228867D01*
X137226996Y-92205277D01*
X137298306Y-92153468D01*
X137324539Y-92140101D01*
X137346702Y-92125293D01*
X137383595Y-92110011D01*
X137431215Y-92085748D01*
X137482046Y-92069231D01*
X137518939Y-92053950D01*
X137545078Y-92048750D01*
X137573083Y-92039651D01*
X137660136Y-92025863D01*
X137701786Y-92017579D01*
X137712447Y-92017579D01*
X137720415Y-92016317D01*
X137869585Y-92016317D01*
X137877553Y-92017579D01*
G37*
G36*
X141179553Y-92017579D02*
G01*
X141190214Y-92017579D01*
X141231865Y-92025864D01*
X141318916Y-92039651D01*
X141346918Y-92048749D01*
X141373061Y-92053950D01*
X141409956Y-92069232D01*
X141460784Y-92085748D01*
X141508399Y-92110009D01*
X141545298Y-92125293D01*
X141567463Y-92140103D01*
X141593693Y-92153468D01*
X141664990Y-92205268D01*
X141700308Y-92228867D01*
X141707846Y-92236405D01*
X141714370Y-92241145D01*
X141819854Y-92346629D01*
X141824593Y-92353152D01*
X141832133Y-92360692D01*
X141855734Y-92396014D01*
X141907531Y-92467306D01*
X141920894Y-92493533D01*
X141935707Y-92515702D01*
X141950993Y-92552605D01*
X141975251Y-92600215D01*
X141991764Y-92651035D01*
X142007050Y-92687939D01*
X142012251Y-92714086D01*
X142021348Y-92742083D01*
X142035134Y-92829125D01*
X142043421Y-92870786D01*
X142043421Y-92881447D01*
X142044683Y-92889415D01*
X142044683Y-93038584D01*
X142043421Y-93046551D01*
X142043421Y-93057214D01*
X142035133Y-93098877D01*
X142021348Y-93185916D01*
X142012251Y-93213910D01*
X142007050Y-93240061D01*
X141991762Y-93276968D01*
X141975251Y-93327784D01*
X141950995Y-93375388D01*
X141935707Y-93412298D01*
X141920892Y-93434470D01*
X141907531Y-93460693D01*
X141855742Y-93531973D01*
X141832133Y-93567308D01*
X141824591Y-93574849D01*
X141819854Y-93581370D01*
X141714370Y-93686854D01*
X141707849Y-93691591D01*
X141700308Y-93699133D01*
X141664973Y-93722742D01*
X141593693Y-93774531D01*
X141567470Y-93787892D01*
X141545298Y-93802707D01*
X141508388Y-93817995D01*
X141460784Y-93842251D01*
X141409968Y-93858762D01*
X141373061Y-93874050D01*
X141346910Y-93879251D01*
X141318916Y-93888348D01*
X141231875Y-93902133D01*
X141190214Y-93910421D01*
X141179553Y-93910421D01*
X141171585Y-93911683D01*
X141022415Y-93911683D01*
X141014447Y-93910421D01*
X141003786Y-93910421D01*
X140962125Y-93902134D01*
X140875083Y-93888348D01*
X140847086Y-93879251D01*
X140820939Y-93874050D01*
X140784035Y-93858764D01*
X140733215Y-93842251D01*
X140685605Y-93817993D01*
X140648702Y-93802707D01*
X140626533Y-93787894D01*
X140600306Y-93774531D01*
X140529014Y-93722734D01*
X140493692Y-93699133D01*
X140486152Y-93691593D01*
X140479629Y-93686854D01*
X140374145Y-93581370D01*
X140369405Y-93574846D01*
X140361867Y-93567308D01*
X140338268Y-93531990D01*
X140286468Y-93460693D01*
X140273103Y-93434463D01*
X140258293Y-93412298D01*
X140243009Y-93375399D01*
X140218748Y-93327784D01*
X140202232Y-93276956D01*
X140186950Y-93240061D01*
X140181749Y-93213918D01*
X140172651Y-93185916D01*
X140158864Y-93098867D01*
X140150579Y-93057214D01*
X140150579Y-93046552D01*
X140149317Y-93038584D01*
X140149317Y-92889415D01*
X140150579Y-92881446D01*
X140150579Y-92870786D01*
X140158863Y-92829136D01*
X140172651Y-92742083D01*
X140181750Y-92714078D01*
X140186950Y-92687939D01*
X140202231Y-92651046D01*
X140218748Y-92600215D01*
X140243011Y-92552595D01*
X140258293Y-92515702D01*
X140273101Y-92493539D01*
X140286468Y-92467306D01*
X140338277Y-92395996D01*
X140361867Y-92360692D01*
X140369402Y-92353156D01*
X140374145Y-92346629D01*
X140479629Y-92241145D01*
X140486156Y-92236402D01*
X140493692Y-92228867D01*
X140528996Y-92205277D01*
X140600306Y-92153468D01*
X140626539Y-92140101D01*
X140648702Y-92125293D01*
X140685595Y-92110011D01*
X140733215Y-92085748D01*
X140784046Y-92069231D01*
X140820939Y-92053950D01*
X140847078Y-92048750D01*
X140875083Y-92039651D01*
X140962136Y-92025863D01*
X141003786Y-92017579D01*
X141014447Y-92017579D01*
X141022415Y-92016317D01*
X141171585Y-92016317D01*
X141179553Y-92017579D01*
G37*
G36*
X144481553Y-92017579D02*
G01*
X144492214Y-92017579D01*
X144533865Y-92025864D01*
X144620916Y-92039651D01*
X144648918Y-92048749D01*
X144675061Y-92053950D01*
X144711956Y-92069232D01*
X144762784Y-92085748D01*
X144810399Y-92110009D01*
X144847298Y-92125293D01*
X144869463Y-92140103D01*
X144895693Y-92153468D01*
X144966990Y-92205268D01*
X145002308Y-92228867D01*
X145009846Y-92236405D01*
X145016370Y-92241145D01*
X145121854Y-92346629D01*
X145126593Y-92353152D01*
X145134133Y-92360692D01*
X145157734Y-92396014D01*
X145209531Y-92467306D01*
X145222894Y-92493533D01*
X145237707Y-92515702D01*
X145252993Y-92552605D01*
X145277251Y-92600215D01*
X145293764Y-92651035D01*
X145309050Y-92687939D01*
X145314251Y-92714086D01*
X145323348Y-92742083D01*
X145337134Y-92829125D01*
X145345421Y-92870786D01*
X145345421Y-92881447D01*
X145346683Y-92889415D01*
X145346683Y-93038584D01*
X145345421Y-93046551D01*
X145345421Y-93057214D01*
X145337133Y-93098877D01*
X145323348Y-93185916D01*
X145314251Y-93213910D01*
X145309050Y-93240061D01*
X145293762Y-93276968D01*
X145277251Y-93327784D01*
X145252995Y-93375388D01*
X145237707Y-93412298D01*
X145222892Y-93434470D01*
X145209531Y-93460693D01*
X145157742Y-93531973D01*
X145134133Y-93567308D01*
X145126591Y-93574849D01*
X145121854Y-93581370D01*
X145016370Y-93686854D01*
X145009849Y-93691591D01*
X145002308Y-93699133D01*
X144966973Y-93722742D01*
X144895693Y-93774531D01*
X144869470Y-93787892D01*
X144847298Y-93802707D01*
X144810388Y-93817995D01*
X144762784Y-93842251D01*
X144711968Y-93858762D01*
X144675061Y-93874050D01*
X144648910Y-93879251D01*
X144620916Y-93888348D01*
X144533875Y-93902133D01*
X144492214Y-93910421D01*
X144481553Y-93910421D01*
X144473585Y-93911683D01*
X144324415Y-93911683D01*
X144316447Y-93910421D01*
X144305786Y-93910421D01*
X144264125Y-93902134D01*
X144177083Y-93888348D01*
X144149086Y-93879251D01*
X144122939Y-93874050D01*
X144086035Y-93858764D01*
X144035215Y-93842251D01*
X143987605Y-93817993D01*
X143950702Y-93802707D01*
X143928533Y-93787894D01*
X143902306Y-93774531D01*
X143831014Y-93722734D01*
X143795692Y-93699133D01*
X143788152Y-93691593D01*
X143781629Y-93686854D01*
X143676145Y-93581370D01*
X143671405Y-93574846D01*
X143663867Y-93567308D01*
X143640268Y-93531990D01*
X143588468Y-93460693D01*
X143575103Y-93434463D01*
X143560293Y-93412298D01*
X143545009Y-93375399D01*
X143520748Y-93327784D01*
X143504232Y-93276956D01*
X143488950Y-93240061D01*
X143483749Y-93213918D01*
X143474651Y-93185916D01*
X143460864Y-93098867D01*
X143452579Y-93057214D01*
X143452579Y-93046552D01*
X143451317Y-93038584D01*
X143451317Y-92889415D01*
X143452579Y-92881446D01*
X143452579Y-92870786D01*
X143460863Y-92829136D01*
X143474651Y-92742083D01*
X143483750Y-92714078D01*
X143488950Y-92687939D01*
X143504231Y-92651046D01*
X143520748Y-92600215D01*
X143545011Y-92552595D01*
X143560293Y-92515702D01*
X143575101Y-92493539D01*
X143588468Y-92467306D01*
X143640277Y-92395996D01*
X143663867Y-92360692D01*
X143671402Y-92353156D01*
X143676145Y-92346629D01*
X143781629Y-92241145D01*
X143788156Y-92236402D01*
X143795692Y-92228867D01*
X143830996Y-92205277D01*
X143902306Y-92153468D01*
X143928539Y-92140101D01*
X143950702Y-92125293D01*
X143987595Y-92110011D01*
X144035215Y-92085748D01*
X144086046Y-92069231D01*
X144122939Y-92053950D01*
X144149078Y-92048750D01*
X144177083Y-92039651D01*
X144264136Y-92025863D01*
X144305786Y-92017579D01*
X144316447Y-92017579D01*
X144324415Y-92016317D01*
X144473585Y-92016317D01*
X144481553Y-92017579D01*
G37*
G36*
X147783553Y-92017579D02*
G01*
X147794214Y-92017579D01*
X147835865Y-92025864D01*
X147922916Y-92039651D01*
X147950918Y-92048749D01*
X147977061Y-92053950D01*
X148013956Y-92069232D01*
X148064784Y-92085748D01*
X148112399Y-92110009D01*
X148149298Y-92125293D01*
X148171463Y-92140103D01*
X148197693Y-92153468D01*
X148268990Y-92205268D01*
X148304308Y-92228867D01*
X148311846Y-92236405D01*
X148318370Y-92241145D01*
X148423854Y-92346629D01*
X148428593Y-92353152D01*
X148436133Y-92360692D01*
X148459734Y-92396014D01*
X148511531Y-92467306D01*
X148524894Y-92493533D01*
X148539707Y-92515702D01*
X148554993Y-92552605D01*
X148579251Y-92600215D01*
X148595764Y-92651035D01*
X148611050Y-92687939D01*
X148616251Y-92714086D01*
X148625348Y-92742083D01*
X148639134Y-92829125D01*
X148647421Y-92870786D01*
X148647421Y-92881447D01*
X148648683Y-92889415D01*
X148648683Y-93038584D01*
X148647421Y-93046551D01*
X148647421Y-93057214D01*
X148639133Y-93098877D01*
X148625348Y-93185916D01*
X148616251Y-93213910D01*
X148611050Y-93240061D01*
X148595762Y-93276968D01*
X148579251Y-93327784D01*
X148554995Y-93375388D01*
X148539707Y-93412298D01*
X148524892Y-93434470D01*
X148511531Y-93460693D01*
X148459742Y-93531973D01*
X148436133Y-93567308D01*
X148428591Y-93574849D01*
X148423854Y-93581370D01*
X148318370Y-93686854D01*
X148311849Y-93691591D01*
X148304308Y-93699133D01*
X148268973Y-93722742D01*
X148197693Y-93774531D01*
X148171470Y-93787892D01*
X148149298Y-93802707D01*
X148112388Y-93817995D01*
X148064784Y-93842251D01*
X148013968Y-93858762D01*
X147977061Y-93874050D01*
X147950910Y-93879251D01*
X147922916Y-93888348D01*
X147835875Y-93902133D01*
X147794214Y-93910421D01*
X147783553Y-93910421D01*
X147775585Y-93911683D01*
X147626415Y-93911683D01*
X147618447Y-93910421D01*
X147607786Y-93910421D01*
X147566125Y-93902134D01*
X147479083Y-93888348D01*
X147451086Y-93879251D01*
X147424939Y-93874050D01*
X147388035Y-93858764D01*
X147337215Y-93842251D01*
X147289605Y-93817993D01*
X147252702Y-93802707D01*
X147230533Y-93787894D01*
X147204306Y-93774531D01*
X147133014Y-93722734D01*
X147097692Y-93699133D01*
X147090152Y-93691593D01*
X147083629Y-93686854D01*
X146978145Y-93581370D01*
X146973405Y-93574846D01*
X146965867Y-93567308D01*
X146942268Y-93531990D01*
X146890468Y-93460693D01*
X146877103Y-93434463D01*
X146862293Y-93412298D01*
X146847009Y-93375399D01*
X146822748Y-93327784D01*
X146806232Y-93276956D01*
X146790950Y-93240061D01*
X146785749Y-93213918D01*
X146776651Y-93185916D01*
X146762864Y-93098867D01*
X146754579Y-93057214D01*
X146754579Y-93046552D01*
X146753317Y-93038584D01*
X146753317Y-92889415D01*
X146754579Y-92881446D01*
X146754579Y-92870786D01*
X146762863Y-92829136D01*
X146776651Y-92742083D01*
X146785750Y-92714078D01*
X146790950Y-92687939D01*
X146806231Y-92651046D01*
X146822748Y-92600215D01*
X146847011Y-92552595D01*
X146862293Y-92515702D01*
X146877101Y-92493539D01*
X146890468Y-92467306D01*
X146942277Y-92395996D01*
X146965867Y-92360692D01*
X146973402Y-92353156D01*
X146978145Y-92346629D01*
X147083629Y-92241145D01*
X147090156Y-92236402D01*
X147097692Y-92228867D01*
X147132996Y-92205277D01*
X147204306Y-92153468D01*
X147230539Y-92140101D01*
X147252702Y-92125293D01*
X147289595Y-92110011D01*
X147337215Y-92085748D01*
X147388046Y-92069231D01*
X147424939Y-92053950D01*
X147451078Y-92048750D01*
X147479083Y-92039651D01*
X147566136Y-92025863D01*
X147607786Y-92017579D01*
X147618447Y-92017579D01*
X147626415Y-92016317D01*
X147775585Y-92016317D01*
X147783553Y-92017579D01*
G37*
G36*
X151085553Y-92017579D02*
G01*
X151096214Y-92017579D01*
X151137865Y-92025864D01*
X151224916Y-92039651D01*
X151252918Y-92048749D01*
X151279061Y-92053950D01*
X151315956Y-92069232D01*
X151366784Y-92085748D01*
X151414399Y-92110009D01*
X151451298Y-92125293D01*
X151473463Y-92140103D01*
X151499693Y-92153468D01*
X151570990Y-92205268D01*
X151606308Y-92228867D01*
X151613846Y-92236405D01*
X151620370Y-92241145D01*
X151725854Y-92346629D01*
X151730593Y-92353152D01*
X151738133Y-92360692D01*
X151761734Y-92396014D01*
X151813531Y-92467306D01*
X151826894Y-92493533D01*
X151841707Y-92515702D01*
X151856993Y-92552605D01*
X151881251Y-92600215D01*
X151897764Y-92651035D01*
X151913050Y-92687939D01*
X151918251Y-92714086D01*
X151927348Y-92742083D01*
X151941134Y-92829125D01*
X151949421Y-92870786D01*
X151949421Y-92881447D01*
X151950683Y-92889415D01*
X151950683Y-93038584D01*
X151949421Y-93046551D01*
X151949421Y-93057214D01*
X151941133Y-93098877D01*
X151927348Y-93185916D01*
X151918251Y-93213910D01*
X151913050Y-93240061D01*
X151897762Y-93276968D01*
X151881251Y-93327784D01*
X151856995Y-93375388D01*
X151841707Y-93412298D01*
X151826892Y-93434470D01*
X151813531Y-93460693D01*
X151761742Y-93531973D01*
X151738133Y-93567308D01*
X151730591Y-93574849D01*
X151725854Y-93581370D01*
X151620370Y-93686854D01*
X151613849Y-93691591D01*
X151606308Y-93699133D01*
X151570973Y-93722742D01*
X151499693Y-93774531D01*
X151473470Y-93787892D01*
X151451298Y-93802707D01*
X151414388Y-93817995D01*
X151366784Y-93842251D01*
X151315968Y-93858762D01*
X151279061Y-93874050D01*
X151252910Y-93879251D01*
X151224916Y-93888348D01*
X151137875Y-93902133D01*
X151096214Y-93910421D01*
X151085553Y-93910421D01*
X151077585Y-93911683D01*
X150928415Y-93911683D01*
X150920447Y-93910421D01*
X150909786Y-93910421D01*
X150868125Y-93902134D01*
X150781083Y-93888348D01*
X150753086Y-93879251D01*
X150726939Y-93874050D01*
X150690035Y-93858764D01*
X150639215Y-93842251D01*
X150591605Y-93817993D01*
X150554702Y-93802707D01*
X150532533Y-93787894D01*
X150506306Y-93774531D01*
X150435014Y-93722734D01*
X150399692Y-93699133D01*
X150392152Y-93691593D01*
X150385629Y-93686854D01*
X150280145Y-93581370D01*
X150275405Y-93574846D01*
X150267867Y-93567308D01*
X150244268Y-93531990D01*
X150192468Y-93460693D01*
X150179103Y-93434463D01*
X150164293Y-93412298D01*
X150149009Y-93375399D01*
X150124748Y-93327784D01*
X150108232Y-93276956D01*
X150092950Y-93240061D01*
X150087749Y-93213918D01*
X150078651Y-93185916D01*
X150064864Y-93098867D01*
X150056579Y-93057214D01*
X150056579Y-93046552D01*
X150055317Y-93038584D01*
X150055317Y-92889415D01*
X150056579Y-92881446D01*
X150056579Y-92870786D01*
X150064863Y-92829136D01*
X150078651Y-92742083D01*
X150087750Y-92714078D01*
X150092950Y-92687939D01*
X150108231Y-92651046D01*
X150124748Y-92600215D01*
X150149011Y-92552595D01*
X150164293Y-92515702D01*
X150179101Y-92493539D01*
X150192468Y-92467306D01*
X150244277Y-92395996D01*
X150267867Y-92360692D01*
X150275402Y-92353156D01*
X150280145Y-92346629D01*
X150385629Y-92241145D01*
X150392156Y-92236402D01*
X150399692Y-92228867D01*
X150434996Y-92205277D01*
X150506306Y-92153468D01*
X150532539Y-92140101D01*
X150554702Y-92125293D01*
X150591595Y-92110011D01*
X150639215Y-92085748D01*
X150690046Y-92069231D01*
X150726939Y-92053950D01*
X150753078Y-92048750D01*
X150781083Y-92039651D01*
X150868136Y-92025863D01*
X150909786Y-92017579D01*
X150920447Y-92017579D01*
X150928415Y-92016317D01*
X151077585Y-92016317D01*
X151085553Y-92017579D01*
G37*
G36*
X154387553Y-92017579D02*
G01*
X154398214Y-92017579D01*
X154439865Y-92025864D01*
X154526916Y-92039651D01*
X154554918Y-92048749D01*
X154581061Y-92053950D01*
X154617956Y-92069232D01*
X154668784Y-92085748D01*
X154716399Y-92110009D01*
X154753298Y-92125293D01*
X154775463Y-92140103D01*
X154801693Y-92153468D01*
X154872990Y-92205268D01*
X154908308Y-92228867D01*
X154915846Y-92236405D01*
X154922370Y-92241145D01*
X155027854Y-92346629D01*
X155032593Y-92353152D01*
X155040133Y-92360692D01*
X155063734Y-92396014D01*
X155115531Y-92467306D01*
X155128894Y-92493533D01*
X155143707Y-92515702D01*
X155158993Y-92552605D01*
X155183251Y-92600215D01*
X155199764Y-92651035D01*
X155215050Y-92687939D01*
X155220251Y-92714086D01*
X155229348Y-92742083D01*
X155243134Y-92829125D01*
X155251421Y-92870786D01*
X155251421Y-92881447D01*
X155252683Y-92889415D01*
X155252683Y-93038584D01*
X155251421Y-93046551D01*
X155251421Y-93057214D01*
X155243133Y-93098877D01*
X155229348Y-93185916D01*
X155220251Y-93213910D01*
X155215050Y-93240061D01*
X155199762Y-93276968D01*
X155183251Y-93327784D01*
X155158995Y-93375388D01*
X155143707Y-93412298D01*
X155128892Y-93434470D01*
X155115531Y-93460693D01*
X155063742Y-93531973D01*
X155040133Y-93567308D01*
X155032591Y-93574849D01*
X155027854Y-93581370D01*
X154922370Y-93686854D01*
X154915849Y-93691591D01*
X154908308Y-93699133D01*
X154872973Y-93722742D01*
X154801693Y-93774531D01*
X154775470Y-93787892D01*
X154753298Y-93802707D01*
X154716388Y-93817995D01*
X154668784Y-93842251D01*
X154617968Y-93858762D01*
X154581061Y-93874050D01*
X154554910Y-93879251D01*
X154526916Y-93888348D01*
X154439875Y-93902133D01*
X154398214Y-93910421D01*
X154387553Y-93910421D01*
X154379585Y-93911683D01*
X154230415Y-93911683D01*
X154222447Y-93910421D01*
X154211786Y-93910421D01*
X154170125Y-93902134D01*
X154083083Y-93888348D01*
X154055086Y-93879251D01*
X154028939Y-93874050D01*
X153992035Y-93858764D01*
X153941215Y-93842251D01*
X153893605Y-93817993D01*
X153856702Y-93802707D01*
X153834533Y-93787894D01*
X153808306Y-93774531D01*
X153737014Y-93722734D01*
X153701692Y-93699133D01*
X153694152Y-93691593D01*
X153687629Y-93686854D01*
X153582145Y-93581370D01*
X153577405Y-93574846D01*
X153569867Y-93567308D01*
X153546268Y-93531990D01*
X153494468Y-93460693D01*
X153481103Y-93434463D01*
X153466293Y-93412298D01*
X153451009Y-93375399D01*
X153426748Y-93327784D01*
X153410232Y-93276956D01*
X153394950Y-93240061D01*
X153389749Y-93213918D01*
X153380651Y-93185916D01*
X153366864Y-93098867D01*
X153358579Y-93057214D01*
X153358579Y-93046552D01*
X153357317Y-93038584D01*
X153357317Y-92889415D01*
X153358579Y-92881446D01*
X153358579Y-92870786D01*
X153366863Y-92829136D01*
X153380651Y-92742083D01*
X153389750Y-92714078D01*
X153394950Y-92687939D01*
X153410231Y-92651046D01*
X153426748Y-92600215D01*
X153451011Y-92552595D01*
X153466293Y-92515702D01*
X153481101Y-92493539D01*
X153494468Y-92467306D01*
X153546277Y-92395996D01*
X153569867Y-92360692D01*
X153577402Y-92353156D01*
X153582145Y-92346629D01*
X153687629Y-92241145D01*
X153694156Y-92236402D01*
X153701692Y-92228867D01*
X153736996Y-92205277D01*
X153808306Y-92153468D01*
X153834539Y-92140101D01*
X153856702Y-92125293D01*
X153893595Y-92110011D01*
X153941215Y-92085748D01*
X153992046Y-92069231D01*
X154028939Y-92053950D01*
X154055078Y-92048750D01*
X154083083Y-92039651D01*
X154170136Y-92025863D01*
X154211786Y-92017579D01*
X154222447Y-92017579D01*
X154230415Y-92016317D01*
X154379585Y-92016317D01*
X154387553Y-92017579D01*
G37*
G36*
X157689553Y-92017579D02*
G01*
X157700214Y-92017579D01*
X157741865Y-92025864D01*
X157828916Y-92039651D01*
X157856918Y-92048749D01*
X157883061Y-92053950D01*
X157919956Y-92069232D01*
X157970784Y-92085748D01*
X158018399Y-92110009D01*
X158055298Y-92125293D01*
X158077463Y-92140103D01*
X158103693Y-92153468D01*
X158174990Y-92205268D01*
X158210308Y-92228867D01*
X158217846Y-92236405D01*
X158224370Y-92241145D01*
X158329854Y-92346629D01*
X158334593Y-92353152D01*
X158342133Y-92360692D01*
X158365734Y-92396014D01*
X158417531Y-92467306D01*
X158430894Y-92493533D01*
X158445707Y-92515702D01*
X158460993Y-92552605D01*
X158485251Y-92600215D01*
X158501764Y-92651035D01*
X158517050Y-92687939D01*
X158522251Y-92714086D01*
X158531348Y-92742083D01*
X158545134Y-92829125D01*
X158553421Y-92870786D01*
X158553421Y-92881447D01*
X158554683Y-92889415D01*
X158554683Y-93038584D01*
X158553421Y-93046551D01*
X158553421Y-93057214D01*
X158545133Y-93098877D01*
X158531348Y-93185916D01*
X158522251Y-93213910D01*
X158517050Y-93240061D01*
X158501762Y-93276968D01*
X158485251Y-93327784D01*
X158460995Y-93375388D01*
X158445707Y-93412298D01*
X158430892Y-93434470D01*
X158417531Y-93460693D01*
X158365742Y-93531973D01*
X158342133Y-93567308D01*
X158334591Y-93574849D01*
X158329854Y-93581370D01*
X158224370Y-93686854D01*
X158217849Y-93691591D01*
X158210308Y-93699133D01*
X158174973Y-93722742D01*
X158103693Y-93774531D01*
X158077470Y-93787892D01*
X158055298Y-93802707D01*
X158018388Y-93817995D01*
X157970784Y-93842251D01*
X157919968Y-93858762D01*
X157883061Y-93874050D01*
X157856910Y-93879251D01*
X157828916Y-93888348D01*
X157741875Y-93902133D01*
X157700214Y-93910421D01*
X157689553Y-93910421D01*
X157681585Y-93911683D01*
X157532415Y-93911683D01*
X157524447Y-93910421D01*
X157513786Y-93910421D01*
X157472125Y-93902134D01*
X157385083Y-93888348D01*
X157357086Y-93879251D01*
X157330939Y-93874050D01*
X157294035Y-93858764D01*
X157243215Y-93842251D01*
X157195605Y-93817993D01*
X157158702Y-93802707D01*
X157136533Y-93787894D01*
X157110306Y-93774531D01*
X157039014Y-93722734D01*
X157003692Y-93699133D01*
X156996152Y-93691593D01*
X156989629Y-93686854D01*
X156884145Y-93581370D01*
X156879405Y-93574846D01*
X156871867Y-93567308D01*
X156848268Y-93531990D01*
X156796468Y-93460693D01*
X156783103Y-93434463D01*
X156768293Y-93412298D01*
X156753009Y-93375399D01*
X156728748Y-93327784D01*
X156712232Y-93276956D01*
X156696950Y-93240061D01*
X156691749Y-93213918D01*
X156682651Y-93185916D01*
X156668864Y-93098867D01*
X156660579Y-93057214D01*
X156660579Y-93046552D01*
X156659317Y-93038584D01*
X156659317Y-92889415D01*
X156660579Y-92881446D01*
X156660579Y-92870786D01*
X156668863Y-92829136D01*
X156682651Y-92742083D01*
X156691750Y-92714078D01*
X156696950Y-92687939D01*
X156712231Y-92651046D01*
X156728748Y-92600215D01*
X156753011Y-92552595D01*
X156768293Y-92515702D01*
X156783101Y-92493539D01*
X156796468Y-92467306D01*
X156848277Y-92395996D01*
X156871867Y-92360692D01*
X156879402Y-92353156D01*
X156884145Y-92346629D01*
X156989629Y-92241145D01*
X156996156Y-92236402D01*
X157003692Y-92228867D01*
X157038996Y-92205277D01*
X157110306Y-92153468D01*
X157136539Y-92140101D01*
X157158702Y-92125293D01*
X157195595Y-92110011D01*
X157243215Y-92085748D01*
X157294046Y-92069231D01*
X157330939Y-92053950D01*
X157357078Y-92048750D01*
X157385083Y-92039651D01*
X157472136Y-92025863D01*
X157513786Y-92017579D01*
X157524447Y-92017579D01*
X157532415Y-92016317D01*
X157681585Y-92016317D01*
X157689553Y-92017579D01*
G37*
G36*
X128771032Y-92149644D02*
G01*
X128925159Y-92213485D01*
X129063869Y-92306168D01*
X129181832Y-92424131D01*
X129274515Y-92562841D01*
X129338356Y-92716968D01*
X129370902Y-92880587D01*
X129370902Y-93047413D01*
X129338356Y-93211032D01*
X129274515Y-93365159D01*
X129181832Y-93503869D01*
X129063869Y-93621832D01*
X128925159Y-93714515D01*
X128771032Y-93778356D01*
X128607413Y-93810902D01*
X128440587Y-93810902D01*
X128276968Y-93778356D01*
X128122841Y-93714515D01*
X127984131Y-93621832D01*
X127866168Y-93503869D01*
X127773485Y-93365159D01*
X127709644Y-93211032D01*
X127677098Y-93047413D01*
X127677098Y-92880587D01*
X127709644Y-92716968D01*
X127773485Y-92562841D01*
X127866168Y-92424131D01*
X127984131Y-92306168D01*
X128122841Y-92213485D01*
X128276968Y-92149644D01*
X128440587Y-92117098D01*
X128607413Y-92117098D01*
X128771032Y-92149644D01*
G37*
G36*
X131271032Y-92149644D02*
G01*
X131425159Y-92213485D01*
X131563869Y-92306168D01*
X131681832Y-92424131D01*
X131774515Y-92562841D01*
X131838356Y-92716968D01*
X131870902Y-92880587D01*
X131870902Y-93047413D01*
X131838356Y-93211032D01*
X131774515Y-93365159D01*
X131681832Y-93503869D01*
X131563869Y-93621832D01*
X131425159Y-93714515D01*
X131271032Y-93778356D01*
X131107413Y-93810902D01*
X130940587Y-93810902D01*
X130776968Y-93778356D01*
X130622841Y-93714515D01*
X130484131Y-93621832D01*
X130366168Y-93503869D01*
X130273485Y-93365159D01*
X130209644Y-93211032D01*
X130177098Y-93047413D01*
X130177098Y-92880587D01*
X130209644Y-92716968D01*
X130273485Y-92562841D01*
X130366168Y-92424131D01*
X130484131Y-92306168D01*
X130622841Y-92213485D01*
X130776968Y-92149644D01*
X130940587Y-92117098D01*
X131107413Y-92117098D01*
X131271032Y-92149644D01*
G37*
G36*
X154298032Y-86639644D02*
G01*
X154452159Y-86703485D01*
X154590869Y-86796168D01*
X154708832Y-86914131D01*
X154801515Y-87052841D01*
X154865356Y-87206968D01*
X154897902Y-87370587D01*
X154897902Y-87537413D01*
X154865356Y-87701032D01*
X154801515Y-87855159D01*
X154708832Y-87993869D01*
X154590869Y-88111832D01*
X154452159Y-88204515D01*
X154298032Y-88268356D01*
X154134413Y-88300902D01*
X153967587Y-88300902D01*
X153803968Y-88268356D01*
X153649841Y-88204515D01*
X153511131Y-88111832D01*
X153393168Y-87993869D01*
X153300485Y-87855159D01*
X153236644Y-87701032D01*
X153204098Y-87537413D01*
X153204098Y-87370587D01*
X153236644Y-87206968D01*
X153300485Y-87052841D01*
X153393168Y-86914131D01*
X153511131Y-86796168D01*
X153649841Y-86703485D01*
X153803968Y-86639644D01*
X153967587Y-86607098D01*
X154134413Y-86607098D01*
X154298032Y-86639644D01*
G37*
G36*
X147631517Y-85893882D02*
G01*
X147648062Y-85904938D01*
X147659118Y-85921483D01*
X147663000Y-85941000D01*
X147663000Y-87541000D01*
X147659118Y-87560517D01*
X147648062Y-87577062D01*
X147631517Y-87588118D01*
X147612000Y-87592000D01*
X146012000Y-87592000D01*
X145992483Y-87588118D01*
X145975938Y-87577062D01*
X145964882Y-87560517D01*
X145961000Y-87541000D01*
X145961000Y-85941000D01*
X145964882Y-85921483D01*
X145975938Y-85904938D01*
X145992483Y-85893882D01*
X146012000Y-85890000D01*
X147612000Y-85890000D01*
X147631517Y-85893882D01*
G37*
G36*
X149559032Y-85926644D02*
G01*
X149713159Y-85990485D01*
X149851869Y-86083168D01*
X149969832Y-86201131D01*
X150062515Y-86339841D01*
X150126356Y-86493968D01*
X150158902Y-86657587D01*
X150158902Y-86824413D01*
X150126356Y-86988032D01*
X150062515Y-87142159D01*
X149969832Y-87280869D01*
X149851869Y-87398832D01*
X149713159Y-87491515D01*
X149559032Y-87555356D01*
X149395413Y-87587902D01*
X149228587Y-87587902D01*
X149064968Y-87555356D01*
X148910841Y-87491515D01*
X148772131Y-87398832D01*
X148654168Y-87280869D01*
X148561485Y-87142159D01*
X148497644Y-86988032D01*
X148465098Y-86824413D01*
X148465098Y-86657587D01*
X148497644Y-86493968D01*
X148561485Y-86339841D01*
X148654168Y-86201131D01*
X148772131Y-86083168D01*
X148910841Y-85990485D01*
X149064968Y-85926644D01*
X149228587Y-85894098D01*
X149395413Y-85894098D01*
X149559032Y-85926644D01*
G37*
G36*
X143419517Y-85184382D02*
G01*
X143436062Y-85195438D01*
X143447118Y-85211983D01*
X143451000Y-85231500D01*
X143451000Y-87136500D01*
X143447118Y-87156017D01*
X143436062Y-87172562D01*
X143419517Y-87183618D01*
X143400000Y-87187500D01*
X141400000Y-87187500D01*
X141380483Y-87183618D01*
X141363938Y-87172562D01*
X141352882Y-87156017D01*
X141349000Y-87136500D01*
X141349000Y-85231500D01*
X141352882Y-85211983D01*
X141363938Y-85195438D01*
X141380483Y-85184382D01*
X141400000Y-85180500D01*
X143400000Y-85180500D01*
X143419517Y-85184382D01*
G37*
G36*
X126091358Y-81877606D02*
G01*
X126318912Y-81938579D01*
X126536562Y-82028732D01*
X126740582Y-82146523D01*
X126927482Y-82289937D01*
X127094063Y-82456518D01*
X127237477Y-82643418D01*
X127355268Y-82847438D01*
X127445421Y-83065088D01*
X127506394Y-83292642D01*
X127537144Y-83526209D01*
X127537144Y-83761791D01*
X127506394Y-83995358D01*
X127445421Y-84222912D01*
X127355268Y-84440562D01*
X127237477Y-84644582D01*
X127094063Y-84831482D01*
X126927482Y-84998063D01*
X126740582Y-85141477D01*
X126536562Y-85259268D01*
X126318912Y-85349421D01*
X126091358Y-85410394D01*
X125857791Y-85441144D01*
X125622209Y-85441144D01*
X125388642Y-85410394D01*
X125161088Y-85349421D01*
X124943438Y-85259268D01*
X124739418Y-85141477D01*
X124552518Y-84998063D01*
X124385937Y-84831482D01*
X124242523Y-84644582D01*
X124124732Y-84440562D01*
X124034579Y-84222912D01*
X123973606Y-83995358D01*
X123942856Y-83761791D01*
X123942856Y-83526209D01*
X123973606Y-83292642D01*
X124034579Y-83065088D01*
X124124732Y-82847438D01*
X124242523Y-82643418D01*
X124385937Y-82456518D01*
X124552518Y-82289937D01*
X124739418Y-82146523D01*
X124943438Y-82028732D01*
X125161088Y-81938579D01*
X125388642Y-81877606D01*
X125622209Y-81846856D01*
X125857791Y-81846856D01*
X126091358Y-81877606D01*
G37*
G36*
X167054517Y-81991882D02*
G01*
X167071062Y-82002938D01*
X167082118Y-82019483D01*
X167086000Y-82039000D01*
X167086000Y-84639000D01*
X167082118Y-84658517D01*
X167071062Y-84675062D01*
X167054517Y-84686118D01*
X167035000Y-84690000D01*
X164435000Y-84690000D01*
X164415483Y-84686118D01*
X164398938Y-84675062D01*
X164387882Y-84658517D01*
X164384000Y-84639000D01*
X164384000Y-82039000D01*
X164387882Y-82019483D01*
X164398938Y-82002938D01*
X164415483Y-81991882D01*
X164435000Y-81988000D01*
X167035000Y-81988000D01*
X167054517Y-81991882D01*
G37*
G36*
X160970385Y-82025328D02*
G01*
X161172005Y-82090839D01*
X161360896Y-82187083D01*
X161532404Y-82311692D01*
X161682308Y-82461596D01*
X161806917Y-82633104D01*
X161903161Y-82821995D01*
X161968672Y-83023615D01*
X162001835Y-83233002D01*
X162001835Y-83444998D01*
X161968672Y-83654385D01*
X161903161Y-83856005D01*
X161806917Y-84044896D01*
X161682308Y-84216404D01*
X161532404Y-84366308D01*
X161360896Y-84490917D01*
X161172005Y-84587161D01*
X160970385Y-84652672D01*
X160760998Y-84685835D01*
X160549002Y-84685835D01*
X160339615Y-84652672D01*
X160137995Y-84587161D01*
X159949104Y-84490917D01*
X159777596Y-84366308D01*
X159627692Y-84216404D01*
X159503083Y-84044896D01*
X159406839Y-83856005D01*
X159341328Y-83654385D01*
X159308165Y-83444998D01*
X159308165Y-83233002D01*
X159341328Y-83023615D01*
X159406839Y-82821995D01*
X159503083Y-82633104D01*
X159627692Y-82461596D01*
X159777596Y-82311692D01*
X159949104Y-82187083D01*
X160137995Y-82090839D01*
X160339615Y-82025328D01*
X160549002Y-81992165D01*
X160760998Y-81992165D01*
X160970385Y-82025328D01*
G37*
G36*
X142457338Y-82640983D02*
G01*
X142523771Y-82643593D01*
X142529755Y-82644540D01*
X142545860Y-82645332D01*
X142589277Y-82653968D01*
X142681672Y-82668602D01*
X142711386Y-82678257D01*
X142738801Y-82683710D01*
X142777489Y-82699735D01*
X142831375Y-82717244D01*
X142881860Y-82742967D01*
X142920547Y-82758992D01*
X142943786Y-82774520D01*
X142971624Y-82788704D01*
X143047290Y-82843679D01*
X143084114Y-82868284D01*
X143091973Y-82876143D01*
X143098966Y-82881224D01*
X143210275Y-82992533D01*
X143215355Y-82999525D01*
X143223216Y-83007386D01*
X143247823Y-83044213D01*
X143302795Y-83119875D01*
X143316977Y-83147710D01*
X143332508Y-83170953D01*
X143348534Y-83209645D01*
X143374255Y-83260124D01*
X143391761Y-83314003D01*
X143407790Y-83352699D01*
X143413244Y-83380118D01*
X143422897Y-83409827D01*
X143437528Y-83502204D01*
X143446168Y-83545640D01*
X143446168Y-83556753D01*
X143447521Y-83565296D01*
X143447521Y-83722703D01*
X143446168Y-83731245D01*
X143446168Y-83742360D01*
X143437527Y-83785799D01*
X143422897Y-83878172D01*
X143413244Y-83907878D01*
X143407790Y-83935301D01*
X143391760Y-83974000D01*
X143374255Y-84027875D01*
X143348537Y-84078349D01*
X143332508Y-84117047D01*
X143316975Y-84140292D01*
X143302795Y-84168124D01*
X143247831Y-84243773D01*
X143223216Y-84280614D01*
X143215352Y-84288477D01*
X143210275Y-84295466D01*
X143098966Y-84406775D01*
X143091977Y-84411852D01*
X143084114Y-84419716D01*
X143047273Y-84444331D01*
X142971624Y-84499295D01*
X142943792Y-84513475D01*
X142920547Y-84529008D01*
X142881849Y-84545037D01*
X142831375Y-84570755D01*
X142777500Y-84588260D01*
X142738801Y-84604290D01*
X142711378Y-84609744D01*
X142681672Y-84619397D01*
X142589301Y-84634026D01*
X142545860Y-84642668D01*
X142529746Y-84643459D01*
X142523771Y-84644406D01*
X142457354Y-84647015D01*
X142447500Y-84647500D01*
X142445035Y-84647500D01*
X142354965Y-84647500D01*
X142352500Y-84647500D01*
X142342646Y-84647015D01*
X142276228Y-84644406D01*
X142270252Y-84643459D01*
X142254140Y-84642668D01*
X142210702Y-84634027D01*
X142118327Y-84619397D01*
X142088618Y-84609744D01*
X142061199Y-84604290D01*
X142022503Y-84588261D01*
X141968624Y-84570755D01*
X141918145Y-84545034D01*
X141879453Y-84529008D01*
X141856210Y-84513477D01*
X141828375Y-84499295D01*
X141752713Y-84444323D01*
X141715886Y-84419716D01*
X141708025Y-84411855D01*
X141701033Y-84406775D01*
X141589724Y-84295466D01*
X141584643Y-84288473D01*
X141576784Y-84280614D01*
X141552179Y-84243790D01*
X141497204Y-84168124D01*
X141483020Y-84140286D01*
X141467492Y-84117047D01*
X141451467Y-84078360D01*
X141425744Y-84027875D01*
X141408235Y-83973989D01*
X141392210Y-83935301D01*
X141386757Y-83907886D01*
X141377102Y-83878172D01*
X141362470Y-83785789D01*
X141353832Y-83742360D01*
X141353832Y-83731245D01*
X141352479Y-83722703D01*
X141352479Y-83565296D01*
X141353832Y-83556753D01*
X141353832Y-83545640D01*
X141362469Y-83502214D01*
X141377102Y-83409827D01*
X141386757Y-83380110D01*
X141392210Y-83352699D01*
X141408233Y-83314014D01*
X141425744Y-83260124D01*
X141451469Y-83209634D01*
X141467492Y-83170953D01*
X141483018Y-83147716D01*
X141497204Y-83119875D01*
X141552187Y-83044196D01*
X141576784Y-83007386D01*
X141584641Y-82999528D01*
X141589724Y-82992533D01*
X141701033Y-82881224D01*
X141708028Y-82876141D01*
X141715886Y-82868284D01*
X141752696Y-82843687D01*
X141828375Y-82788704D01*
X141856216Y-82774518D01*
X141879453Y-82758992D01*
X141918134Y-82742969D01*
X141968624Y-82717244D01*
X142022514Y-82699733D01*
X142061199Y-82683710D01*
X142088610Y-82678257D01*
X142118327Y-82668602D01*
X142210726Y-82653967D01*
X142254140Y-82645332D01*
X142270242Y-82644540D01*
X142276228Y-82643593D01*
X142342662Y-82640983D01*
X142352500Y-82640500D01*
X142447500Y-82640500D01*
X142457338Y-82640983D01*
G37*
G36*
X142457338Y-80100983D02*
G01*
X142523771Y-80103593D01*
X142529755Y-80104540D01*
X142545860Y-80105332D01*
X142589277Y-80113968D01*
X142681672Y-80128602D01*
X142711386Y-80138257D01*
X142738801Y-80143710D01*
X142777489Y-80159735D01*
X142831375Y-80177244D01*
X142881860Y-80202967D01*
X142920547Y-80218992D01*
X142943786Y-80234520D01*
X142971624Y-80248704D01*
X143047290Y-80303679D01*
X143084114Y-80328284D01*
X143091973Y-80336143D01*
X143098966Y-80341224D01*
X143210275Y-80452533D01*
X143215355Y-80459525D01*
X143223216Y-80467386D01*
X143247823Y-80504213D01*
X143302795Y-80579875D01*
X143316977Y-80607710D01*
X143332508Y-80630953D01*
X143348534Y-80669645D01*
X143374255Y-80720124D01*
X143391761Y-80774003D01*
X143407790Y-80812699D01*
X143413244Y-80840118D01*
X143422897Y-80869827D01*
X143437528Y-80962204D01*
X143446168Y-81005640D01*
X143446168Y-81016753D01*
X143447521Y-81025296D01*
X143447521Y-81182703D01*
X143446168Y-81191245D01*
X143446168Y-81202360D01*
X143437527Y-81245799D01*
X143422897Y-81338172D01*
X143413244Y-81367878D01*
X143407790Y-81395301D01*
X143391760Y-81434000D01*
X143374255Y-81487875D01*
X143348537Y-81538349D01*
X143332508Y-81577047D01*
X143316975Y-81600292D01*
X143302795Y-81628124D01*
X143247831Y-81703773D01*
X143223216Y-81740614D01*
X143215352Y-81748477D01*
X143210275Y-81755466D01*
X143098966Y-81866775D01*
X143091977Y-81871852D01*
X143084114Y-81879716D01*
X143047273Y-81904331D01*
X142971624Y-81959295D01*
X142943792Y-81973475D01*
X142920547Y-81989008D01*
X142881849Y-82005037D01*
X142831375Y-82030755D01*
X142777500Y-82048260D01*
X142738801Y-82064290D01*
X142711378Y-82069744D01*
X142681672Y-82079397D01*
X142589301Y-82094026D01*
X142545860Y-82102668D01*
X142529746Y-82103459D01*
X142523771Y-82104406D01*
X142457354Y-82107015D01*
X142447500Y-82107500D01*
X142445035Y-82107500D01*
X142354965Y-82107500D01*
X142352500Y-82107500D01*
X142342646Y-82107015D01*
X142276228Y-82104406D01*
X142270252Y-82103459D01*
X142254140Y-82102668D01*
X142210702Y-82094027D01*
X142118327Y-82079397D01*
X142088618Y-82069744D01*
X142061199Y-82064290D01*
X142022503Y-82048261D01*
X141968624Y-82030755D01*
X141918145Y-82005034D01*
X141879453Y-81989008D01*
X141856210Y-81973477D01*
X141828375Y-81959295D01*
X141752713Y-81904323D01*
X141715886Y-81879716D01*
X141708025Y-81871855D01*
X141701033Y-81866775D01*
X141589724Y-81755466D01*
X141584643Y-81748473D01*
X141576784Y-81740614D01*
X141552179Y-81703790D01*
X141497204Y-81628124D01*
X141483020Y-81600286D01*
X141467492Y-81577047D01*
X141451467Y-81538360D01*
X141425744Y-81487875D01*
X141408235Y-81433989D01*
X141392210Y-81395301D01*
X141386757Y-81367886D01*
X141377102Y-81338172D01*
X141362470Y-81245789D01*
X141353832Y-81202360D01*
X141353832Y-81191245D01*
X141352479Y-81182703D01*
X141352479Y-81025296D01*
X141353832Y-81016753D01*
X141353832Y-81005640D01*
X141362469Y-80962214D01*
X141377102Y-80869827D01*
X141386757Y-80840110D01*
X141392210Y-80812699D01*
X141408233Y-80774014D01*
X141425744Y-80720124D01*
X141451469Y-80669634D01*
X141467492Y-80630953D01*
X141483018Y-80607716D01*
X141497204Y-80579875D01*
X141552187Y-80504196D01*
X141576784Y-80467386D01*
X141584641Y-80459528D01*
X141589724Y-80452533D01*
X141701033Y-80341224D01*
X141708028Y-80336141D01*
X141715886Y-80328284D01*
X141752696Y-80303687D01*
X141828375Y-80248704D01*
X141856216Y-80234518D01*
X141879453Y-80218992D01*
X141918134Y-80202969D01*
X141968624Y-80177244D01*
X142022514Y-80159733D01*
X142061199Y-80143710D01*
X142088610Y-80138257D01*
X142118327Y-80128602D01*
X142210726Y-80113967D01*
X142254140Y-80105332D01*
X142270242Y-80104540D01*
X142276228Y-80103593D01*
X142342662Y-80100983D01*
X142352500Y-80100500D01*
X142447500Y-80100500D01*
X142457338Y-80100983D01*
G37*
G36*
X147631517Y-79670882D02*
G01*
X147648062Y-79681938D01*
X147659118Y-79698483D01*
X147663000Y-79718000D01*
X147663000Y-81318000D01*
X147659118Y-81337517D01*
X147648062Y-81354062D01*
X147631517Y-81365118D01*
X147612000Y-81369000D01*
X146012000Y-81369000D01*
X145992483Y-81365118D01*
X145975938Y-81354062D01*
X145964882Y-81337517D01*
X145961000Y-81318000D01*
X145961000Y-79718000D01*
X145964882Y-79698483D01*
X145975938Y-79681938D01*
X145992483Y-79670882D01*
X146012000Y-79667000D01*
X147612000Y-79667000D01*
X147631517Y-79670882D01*
G37*
G36*
X149559032Y-79703644D02*
G01*
X149713159Y-79767485D01*
X149851869Y-79860168D01*
X149969832Y-79978131D01*
X150062515Y-80116841D01*
X150126356Y-80270968D01*
X150158902Y-80434587D01*
X150158902Y-80601413D01*
X150126356Y-80765032D01*
X150062515Y-80919159D01*
X149969832Y-81057869D01*
X149851869Y-81175832D01*
X149713159Y-81268515D01*
X149559032Y-81332356D01*
X149395413Y-81364902D01*
X149228587Y-81364902D01*
X149064968Y-81332356D01*
X148910841Y-81268515D01*
X148772131Y-81175832D01*
X148654168Y-81057869D01*
X148561485Y-80919159D01*
X148497644Y-80765032D01*
X148465098Y-80601413D01*
X148465098Y-80434587D01*
X148497644Y-80270968D01*
X148561485Y-80116841D01*
X148654168Y-79978131D01*
X148772131Y-79860168D01*
X148910841Y-79767485D01*
X149064968Y-79703644D01*
X149228587Y-79671098D01*
X149395413Y-79671098D01*
X149559032Y-79703644D01*
G37*
G36*
X154298032Y-79019644D02*
G01*
X154452159Y-79083485D01*
X154590869Y-79176168D01*
X154708832Y-79294131D01*
X154801515Y-79432841D01*
X154865356Y-79586968D01*
X154897902Y-79750587D01*
X154897902Y-79917413D01*
X154865356Y-80081032D01*
X154801515Y-80235159D01*
X154708832Y-80373869D01*
X154590869Y-80491832D01*
X154452159Y-80584515D01*
X154298032Y-80648356D01*
X154134413Y-80680902D01*
X153967587Y-80680902D01*
X153803968Y-80648356D01*
X153649841Y-80584515D01*
X153511131Y-80491832D01*
X153393168Y-80373869D01*
X153300485Y-80235159D01*
X153236644Y-80081032D01*
X153204098Y-79917413D01*
X153204098Y-79750587D01*
X153236644Y-79586968D01*
X153300485Y-79432841D01*
X153393168Y-79294131D01*
X153511131Y-79176168D01*
X153649841Y-79083485D01*
X153803968Y-79019644D01*
X153967587Y-78987098D01*
X154134413Y-78987098D01*
X154298032Y-79019644D01*
G37*
M02*
